<?xml version="1.0" encoding="UTF-8" standalone="no"?>
<!-- Created with Inkscape (http://www.inkscape.org/) -->

<svg
   width="203.2mm"
   height="127mm"
   viewBox="0 0 203.2 127"
   version="1.1"
   id="svg1"
   xml:space="preserve"
   xmlns="http://www.w3.org/2000/svg"
   xmlns:svg="http://www.w3.org/2000/svg"><defs
     id="defs1"><clipPath
       clipPathUnits="userSpaceOnUse"
       id="clipPath3"><path
         d="M 0,360 H 576 V 0 H 0 Z"
         transform="translate(-136.84461,-105.95511)"
         id="path3" /></clipPath><clipPath
       clipPathUnits="userSpaceOnUse"
       id="clipPath5"><path
         d="M 0,360 H 576 V 0 H 0 Z"
         transform="translate(-75.276204,-152.7993)"
         id="path5" /></clipPath></defs><g
     id="layer-MC0"
     transform="matrix(0.26458333,0,0,0.26458334,1e-5,0)"><text
       xml:space="preserve"
       style="font-style:normal;font-variant:normal;font-weight:900;font-stretch:normal;font-size:48px;line-height:0;font-family:Cinzel;-inkscape-font-specification:'Cinzel Heavy';text-align:start;writing-mode:lr-tb;direction:ltr;text-anchor:start;fill:#000000;fill-opacity:1"
       x="213.68922"
       y="282.25769"
       id="text31"><tspan
         id="tspan31"
         x="213.68922"
         y="282.25769">E S C A P E M E N T</tspan></text><text
       xml:space="preserve"
       style="font-style:normal;font-variant:normal;font-weight:900;font-stretch:normal;font-size:37.3333px;font-family:Cinzel;-inkscape-font-specification:'Cinzel Heavy';text-align:start;writing-mode:lr-tb;direction:ltr;text-anchor:start;fill:#3b3b3b"
       x="239.6227"
       y="209.3241"
       id="text4"><tspan
         id="tspan4"
         x="239.6227"
         y="209.3241">The</tspan></text><text
       xml:space="preserve"
       style="font-style:normal;font-variant:normal;font-weight:900;font-stretch:normal;font-size:37.3333px;font-family:Cinzel;-inkscape-font-specification:'Cinzel Heavy';text-align:start;writing-mode:lr-tb;direction:ltr;text-anchor:start;fill:#000000"
       x="239.6227"
       y="209.3241"
       id="use4"><tspan
         id="tspan5"
         x="239.6227"
         y="209.3241">The</tspan></text><path
       id="path1"
       d="m 0,0 -406.932,1.561 -0.039,0.001 h -80.451 v -1.807 h 80.119 v -0.009 z"
       style="fill:#110f0e;fill-opacity:1;fill-rule:nonzero;stroke:none"
       transform="matrix(1.3333333,0,0,-1.3333333,721.23787,228.454)" /><path
       id="path2"
       d="m 0,0 v 0 l 0.001,-0.001 c 3.163,-2.32 6.177,-4.914 8.572,-7.103 0.116,-0.113 0.235,-0.228 0.355,-0.346 l 4.27,-3.562 C -4.024,12.282 -14.35,41.976 -14.35,74.324 c 0,35.197 12.221,67.257 32.254,91.344 -1.858,-1.799 -3.985,-4.079 -6.43,-6.938 -2.177,-2.548 -7.236,-9.843 -9.8,-8.626 -3.967,1.883 -6.66,12.691 -6.66,12.691 l -4.121,-0.598 0.495,-1.142 c 0,0 1.211,0.139 1.975,-1.153 0.899,-1.52 1.855,-6.177 2.109,-9.46 0.473,-6.11 -0.897,-14.058 -2.136,-19.682 -0.811,-3.253 -2.167,-7.956 -4.68,-7.194 -4.203,1.275 -9.152,11.253 -9.152,11.253 l -3.906,-1.442 0.721,-1.015 c 0,0 1.156,0.389 2.172,-0.716 1.195,-1.3 3.098,-5.656 4.029,-8.815 1.733,-5.878 2.046,-13.937 2.003,-19.697 -0.117,-3.35 -0.465,-8.232 -3.082,-8.009 -4.376,0.373 -11.291,9.104 -11.291,9.104 l -3.522,-2.223 0.917,-0.842 c 0,0 1.05,0.62 2.274,-0.25 1.439,-1.023 4.206,-4.888 5.773,-7.784 2.917,-5.389 4.9,-13.207 6.054,-18.85 0.583,-3.301 1.257,-8.149 -1.349,-8.475 -4.357,-0.544 -12.937,6.558 -12.937,6.558 l -2.982,-2.907 1.071,-0.633 c 0,0 0.898,0.825 2.276,0.229 1.62,-0.702 5.131,-3.907 7.266,-6.414 3.974,-4.665 7.538,-11.9 9.841,-17.179 1.255,-3.107 2.923,-7.71 0.442,-8.57 -4.149,-1.439 -14.018,3.724 -14.018,3.724 l -2.313,-3.463 1.18,-0.397 c 0,0 0.707,0.994 2.179,0.697 1.731,-0.349 5.831,-2.755 8.441,-4.763 4.856,-3.736 9.847,-10.072 13.197,-14.757 1.874,-2.779 4.463,-6.934 2.215,-8.291 -3.76,-2.271 -14.486,0.728 -14.486,0.728 l -1.542,-3.868 1.236,-0.143 c 0,0 0.485,1.119 1.986,1.134 1.766,0.019 6.276,-1.482 9.246,-2.903 C -4.992,3.432 -2.451,1.798 0,0"
       style="fill:#110f0e;fill-opacity:1;fill-rule:nonzero;stroke:none"
       transform="matrix(1.3333333,0,0,-1.3333333,182.45947,338.72653)"
       clip-path="url(#clipPath3)" /><path
       id="path4"
       d="m 0,0 c -1.606,-0.566 -2.244,0.69 -2.912,1.529 -5.706,7.164 -15.435,20.727 -21.405,28.828 2.485,1.075 4.225,3.546 4.225,6.427 0,2.538 -1.355,4.755 -3.378,5.982 L -0.98,67.51 c 0.318,0.602 1.957,0.719 1.752,-0.066 C -1.449,62.461 -3.188,57.118 -4.33,51.773 -7.711,35.948 -6.645,18.408 -1.08,3.206 -0.778,2.383 -0.25,1.388 -0.055,0.567 -0.011,0.38 0.043,0.193 0,0 m -27.093,40.465 c 2.1,0 3.802,-1.702 3.802,-3.802 0,-2.1 -1.702,-3.802 -3.802,-3.802 -2.099,0 -3.801,1.702 -3.801,3.802 0,2.1 1.702,3.802 3.801,3.802 M 16.489,94.927 C 16.312,94.776 16,94.607 15.816,94.491 16,94.607 16.312,94.776 16.489,94.927 M 27.443,-17.744 c -0.441,0.634 -1.362,1.748 -1.362,1.748 l -1.771,-1.392 c -0.967,-0.843 -2.215,-1.872 -2.973,-2.335 -0.929,-0.568 -1.727,-0.713 -2.72,-0.196 -0.769,0.402 -3.483,3.933 -4.189,4.858 C 6.476,-4.645 0.846,8.328 -1.224,21.315 c -3.45,21.648 3.114,44.093 16.639,61.182 0.914,1.155 2.848,3.689 3.86,4.551 0.11,0.094 0.341,0.276 0.558,0.398 0.955,0.542 1.962,0.387 2.176,0.194 0.006,-0.001 0.011,-0.002 0.014,-0.004 l 4.457,-3.167 c 0,0 0.634,1.193 0.633,3.103 -2.693,2.127 -7.722,11.36 -9.407,10.347 -1.052,-0.633 -33.42,-37.257 -47.587,-54.715 -2.478,-1.077 -4.213,-3.545 -4.213,-6.42 0,-2.963 1.843,-5.49 4.443,-6.513 11.59,-15.428 45.346,-59.278 45.346,-59.278 1.476,-1.335 12.189,10.629 11.748,11.263"
       style="fill:#110f0e;fill-opacity:1;fill-rule:nonzero;stroke:none"
       transform="matrix(1.3333333,0,0,-1.3333333,100.36827,276.2676)"
       clip-path="url(#clipPath5)" /></g></svg>
