<?xml version="1.0" encoding="UTF-8" standalone="no"?>
<!-- Created with Inkscape (http://www.inkscape.org/) -->

<svg
   width="132.23877mm"
   height="46.725426mm"
   viewBox="0 0 132.23877 46.725426"
   version="1.1"
   id="svg1"
   xml:space="preserve"
   xmlns="http://www.w3.org/2000/svg"
   xmlns:svg="http://www.w3.org/2000/svg"><defs
     id="defs1"><style
       id="style1">
      .st0 {
        fill: #020202;
      }
    </style><style
       id="style1-8">
      .st0 {
        fill: #020202;
      }
    </style></defs><g
     id="g1"
     transform="matrix(0.26458333,0,0,0.26458335,-510.9369,-243.33729)"><g
       id="g11"
       transform="translate(1890,831.29994)"><polygon
         class="st0"
         points="133.6,171.6 540.9,171.3 134,169.8 53.5,169.8 53.5,171.6 133.6,171.6 "
         id="polygon1" /><path
         class="st0"
         d="m 136.8,254 v 0 c 0,0 0,0 0,0 3.2,2.3 6.2,4.9 8.6,7.1 0.1,0.1 0.2,0.2 0.4,0.3 l 4.3,3.6 c -17.2,-23.3 -27.5,-53 -27.5,-85.3 0,-32.3 12.2,-67.3 32.3,-91.3 -1.9,1.8 -4,4.1 -6.4,6.9 -2.2,2.5 -7.2,9.8 -9.8,8.6 -4,-1.9 -6.7,-12.7 -6.7,-12.7 l -4.1,0.6 0.5,1.1 c 0,0 1.2,-0.1 2,1.2 0.9,1.5 1.9,6.2 2.1,9.5 0.5,6.1 -0.9,14.1 -2.1,19.7 -0.8,3.3 -2.2,8 -4.7,7.2 -4.2,-1.3 -9.2,-11.3 -9.2,-11.3 l -3.9,1.4 0.7,1 c 0,0 1.2,-0.4 2.2,0.7 1.2,1.3 3.1,5.7 4,8.8 1.7,5.9 2,13.9 2,19.7 -0.1,3.3 -0.5,8.2 -3.1,8 -4.4,-0.4 -11.3,-9.1 -11.3,-9.1 l -3.5,2.2 0.9,0.8 c 0,0 1,-0.6 2.3,0.2 1.4,1 4.2,4.9 5.8,7.8 2.9,5.4 4.9,13.2 6.1,18.9 0.6,3.3 1.3,8.1 -1.3,8.5 -4.4,0.5 -12.9,-6.6 -12.9,-6.6 l -3,2.9 1.1,0.6 c 0,0 0.9,-0.8 2.3,-0.2 1.6,0.7 5.1,3.9 7.3,6.4 4,4.7 7.5,11.9 9.8,17.2 1.3,3.1 2.9,7.7 0.4,8.6 -4.1,1.4 -14,-3.7 -14,-3.7 l -2.3,3.5 1.2,0.4 c 0,0 0.7,-1 2.2,-0.7 1.7,0.3 5.8,2.8 8.4,4.8 4.9,3.7 9.8,10.1 13.2,14.8 1.9,2.8 4.5,6.9 2.2,8.3 -3.8,2.3 -14.5,-0.7 -14.5,-0.7 l -1.5,3.9 h 1.2 c 0,0.1 0.5,-1 2,-1 1.8,0 6.3,1.5 9.2,2.9 2.4,1.2 5,2.8 7.4,4.6 z"
         id="path1" /><path
         class="st0"
         d="m 102.7,224.9 c -0.4,-0.6 -1.4,-1.7 -1.4,-1.7 l -1.8,1.4 c -1,0.8 -2.2,1.9 -3,2.3 -0.9,0.6 -1.7,0.7 -2.7,0.2 -0.8,-0.4 -3.5,-3.9 -4.2,-4.9 -8,-10.4 -13.6,-23.4 -15.7,-36.4 -3.4,-21.6 3.1,-44.1 16.6,-61.2 0.9,-1.2 2.8,-3.7 3.9,-4.6 0.1,0 0.3,-0.3 0.6,-0.4 1,-0.5 2,-0.4 2.2,-0.2 0,0 0,0 0,0 l 4.5,3.2 c 0,0 0.6,-1.2 0.6,-3.1 -2.7,-2.1 -7.7,-11.4 -9.4,-10.3 -1.1,0.6 -33.4,37.3 -47.6,54.7 -2.5,1.1 -4.2,3.5 -4.2,6.4 0,2.9 1.8,5.5 4.4,6.5 11.6,15.4 45.3,59.3 45.3,59.3 1.5,1.3 12.2,-10.6 11.7,-11.3 z M 91.8,112.3 c -0.2,0.2 -0.5,0.3 -0.7,0.4 0.2,-0.1 0.5,-0.3 0.7,-0.4 z m -43.6,54.4 c 2.1,0 3.8,1.7 3.8,3.8 0,2.1 -1.7,3.8 -3.8,3.8 -2.1,0 -3.8,-1.7 -3.8,-3.8 0,-2.1 1.7,-3.8 3.8,-3.8 z m 27.1,40.5 c -1.6,0.6 -2.2,-0.7 -2.9,-1.5 C 66.7,198.5 57,185 51,176.9 c 2.5,-1.1 4.2,-3.5 4.2,-6.4 0,-2.9 -1.4,-4.8 -3.4,-6 l 22.5,-24.7 c 0.3,-0.6 2,-0.7 1.8,0 -2.2,5 -4,10.3 -5.1,15.7 -3.4,15.8 -2.3,33.4 3.3,48.6 0.3,0.8 0.8,1.8 1,2.6 0,0.2 0,0.4 0,0.6 z"
         id="path2" /><g
         id="g12"><path
           class="st0"
           d="m 181.6,186 v 4.7 h -13.3 v 5.4 h 12.2 v 4.3 h -12.2 v 6.2 h 13.6 v 4.7 h -19.1 v -25.2 h 18.9 z"
           id="path3" /><path
           class="st0"
           d="m 201.2,205 c 0.3,0.6 0.7,1.1 1.2,1.4 0.5,0.4 1.1,0.6 1.8,0.8 0.7,0.2 1.4,0.3 2.1,0.3 0.7,0 1,0 1.6,-0.1 0.6,0 1.1,-0.2 1.6,-0.5 0.5,-0.2 0.9,-0.6 1.2,-1 0.3,-0.4 0.5,-0.9 0.5,-1.6 0,-0.7 -0.2,-1.2 -0.7,-1.7 -0.5,-0.5 -1,-0.8 -1.7,-1.1 -0.7,-0.3 -1.5,-0.5 -2.4,-0.7 -0.9,-0.2 -1.8,-0.4 -2.7,-0.7 -0.9,-0.2 -1.9,-0.5 -2.8,-0.9 -0.9,-0.3 -1.7,-0.8 -2.4,-1.3 -0.7,-0.5 -1.3,-1.2 -1.7,-2 -0.4,-0.8 -0.7,-1.8 -0.7,-3 0,-1.2 0.3,-2.4 0.8,-3.4 0.6,-1 1.3,-1.7 2.2,-2.4 0.9,-0.6 1.9,-1.1 3,-1.4 1.1,-0.3 2.3,-0.5 3.4,-0.5 1.1,0 2.6,0.1 3.8,0.4 1.2,0.3 2.3,0.8 3.2,1.4 0.9,0.7 1.7,1.5 2.2,2.5 0.6,1 0.8,2.3 0.8,3.7 h -5.4 c 0,-0.8 -0.2,-1.4 -0.5,-1.9 -0.3,-0.5 -0.6,-0.9 -1.1,-1.2 -0.4,-0.3 -1,-0.5 -1.5,-0.6 -0.6,-0.1 -1.2,-0.2 -1.9,-0.2 -0.7,0 -0.9,0 -1.3,0.1 -0.4,0 -0.9,0.3 -1.2,0.5 -0.4,0.2 -0.7,0.5 -0.9,0.9 -0.2,0.4 -0.4,0.8 -0.4,1.3 0,0.5 0,0.9 0.3,1.2 0.2,0.3 0.6,0.6 1.1,0.8 0.6,0.3 1.3,0.5 2.3,0.8 1,0.3 2.3,0.6 3.8,1 0.5,0 1.1,0.3 2,0.5 0.8,0.2 1.7,0.6 2.5,1.2 0.8,0.5 1.5,1.3 2.1,2.2 0.6,0.9 0.9,2.1 0.9,3.5 0,1.4 -0.2,2.2 -0.7,3.2 -0.4,1 -1.1,1.8 -2,2.6 -0.9,0.8 -2,1.3 -3.3,1.7 -1.3,0.4 -2.8,0.6 -4.5,0.6 -1.7,0 -2.7,-0.2 -4,-0.5 -1.3,-0.3 -2.5,-0.9 -3.5,-1.6 -1,-0.7 -1.8,-1.7 -2.4,-2.8 -0.6,-1.1 -0.9,-2.5 -0.8,-4 h 5.4 c 0,0.8 0.2,1.6 0.5,2.2 z"
           id="path4" /><path
           class="st0"
           d="m 247.3,192.8 c -0.3,-0.5 -0.7,-1 -1.2,-1.4 -0.5,-0.4 -1.1,-0.7 -1.7,-0.9 -0.6,-0.2 -1.3,-0.3 -2,-0.3 -1.2,0 -2.3,0.2 -3.2,0.7 -0.9,0.5 -1.6,1.1 -2.1,1.9 -0.5,0.8 -0.9,1.7 -1.2,2.8 -0.2,1 -0.4,2.1 -0.4,3.2 0,1.1 0.1,2.1 0.4,3.1 0.2,1 0.6,1.9 1.2,2.7 0.5,0.8 1.2,1.4 2.1,1.9 0.9,0.5 1.9,0.7 3.2,0.7 1.3,0 3,-0.5 4,-1.6 1,-1 1.5,-2.4 1.7,-4.1 h 5.4 c -0.1,1.6 -0.5,3 -1.1,4.3 -0.6,1.3 -1.4,2.4 -2.3,3.2 -1,0.9 -2.1,1.6 -3.4,2 -1.3,0.5 -2.7,0.7 -4.3,0.7 -1.6,0 -3.7,-0.3 -5.2,-1 -1.5,-0.7 -2.8,-1.6 -3.9,-2.8 -1.1,-1.2 -1.9,-2.6 -2.4,-4.2 -0.6,-1.6 -0.8,-3.3 -0.8,-5.1 0,-1.8 0.3,-3.6 0.8,-5.2 0.5,-1.6 1.4,-3 2.4,-4.2 1.1,-1.2 2.4,-2.1 3.9,-2.8 1.5,-0.7 3.3,-1 5.2,-1 1.9,0 2.7,0.2 3.9,0.6 1.2,0.4 2.3,1 3.3,1.7 1,0.8 1.8,1.7 2.4,2.8 0.6,1.1 1,2.4 1.2,3.9 h -5.4 c 0,-0.6 -0.3,-1.2 -0.6,-1.7 z"
           id="path5" /><path
           class="st0"
           d="m 281.2,186 9.4,25.2 h -5.8 l -1.9,-5.6 h -9.4 l -2,5.6 h -5.6 l 9.5,-25.2 h 5.7 z m 0.3,15.5 -3.2,-9.3 v 0 l -3.3,9.3 z"
           id="path6" /><path
           class="st0"
           d="m 315.5,186 c 1.6,0 2.9,0.2 4,0.7 1.1,0.5 2,1.1 2.7,1.8 0.7,0.8 1.2,1.6 1.5,2.6 0.3,1 0.5,2 0.5,3 0,1 -0.2,2 -0.5,3 -0.3,1 -0.8,1.8 -1.5,2.6 -0.7,0.8 -1.6,1.4 -2.7,1.8 -1.1,0.5 -2.4,0.7 -4,0.7 h -5.8 v 9 h -5.5 V 186 h 11.4 z m -1.5,11.9 c 0.6,0 1.2,0 1.8,-0.1 0.6,0 1.1,-0.3 1.6,-0.5 0.4,-0.3 0.8,-0.7 1.1,-1.1 0.3,-0.5 0.4,-1.1 0.4,-1.9 0,-0.8 -0.1,-1.4 -0.4,-1.9 -0.3,-0.5 -0.6,-0.9 -1.1,-1.1 -0.4,-0.3 -1,-0.5 -1.6,-0.5 -0.6,0 -1.2,-0.1 -1.8,-0.1 h -4.3 v 7.6 h 4.3 z"
           id="path7" /><path
           class="st0"
           d="m 357.9,186 v 4.7 h -13.3 v 5.4 h 12.2 v 4.3 h -12.2 v 6.2 h 13.6 v 4.7 H 339.1 V 186.1 H 358 Z"
           id="path8" /><path
           class="st0"
           d="m 381,186 5.9,17.3 v 0 l 5.6,-17.3 h 7.8 v 25.2 h -5.2 v -17.9 0 l -6.2,17.9 h -4.3 l -6.2,-17.7 v 0 17.7 h -5.2 V 186 Z"
           id="path9" /><path
           class="st0"
           d="m 435.4,186 v 4.7 h -13.3 v 5.4 h 12.2 v 4.3 h -12.2 v 6.2 h 13.6 v 4.7 h -19.1 v -25.2 h 18.9 z"
           id="path10" /><path
           class="st0"
           d="m 456.3,186 10.5,16.9 v 0 -16.9 h 5.2 v 25.2 h -5.5 L 456,194.3 v 0 16.9 h -5.2 V 186 Z"
           id="path11" /><path
           class="st0"
           d="M 486.3,190.7 V 186 H 507 v 4.7 h -7.6 v 20.6 h -5.5 v -20.6 z"
           id="path12" /></g><g
         id="g15"><path
           class="st0"
           d="m 182.7,143.2 v -3.1 h 13.9 v 3.1 h -5.1 v 13.9 h -3.7 v -13.9 z"
           id="path13" /><path
           class="st0"
           d="m 205.6,140.1 v 6.5 h 6.9 v -6.5 h 3.7 v 17 h -3.7 v -7.3 h -6.9 v 7.3 h -3.7 v -17 z"
           id="path14" /><path
           class="st0"
           d="m 235.6,140.1 v 3.1 h -9 v 3.6 h 8.2 v 2.9 h -8.2 v 4.2 h 9.2 v 3.1 h -12.9 v -17 h 12.7 z"
           id="path15" /></g></g></g></svg>
