<?xml version="1.0" encoding="UTF-8" standalone="no"?>
<!-- Created with Inkscape (http://www.inkscape.org/) -->

<svg
   width="203.2mm"
   height="127mm"
   viewBox="0 0 203.2 127"
   version="1.1"
   id="svg1"
   xml:space="preserve"
   xmlns="http://www.w3.org/2000/svg"
   xmlns:svg="http://www.w3.org/2000/svg"><defs
     id="defs1"><clipPath
       clipPathUnits="userSpaceOnUse"
       id="clipPath3"><path
         d="M 0,360 H 576 V 0 H 0 Z"
         transform="translate(-209.42421,-192.762)"
         id="path3" /></clipPath><clipPath
       clipPathUnits="userSpaceOnUse"
       id="clipPath5"><path
         d="M 0,360 H 576 V 0 H 0 Z"
         transform="translate(-300.33961,-209.07801)"
         id="path5" /></clipPath><clipPath
       clipPathUnits="userSpaceOnUse"
       id="clipPath7"><path
         d="M 0,360 H 576 V 0 H 0 Z"
         transform="translate(-363.18041,-234.74911)"
         id="path7" /></clipPath></defs><g
     id="layer1"
     transform="translate(-220)"><text
       xml:space="preserve"
       style="font-weight:900;font-size:14.1111px;line-height:0;font-family:Cinzel;-inkscape-font-specification:'Cinzel Heavy';text-align:start;writing-mode:lr-tb;direction:ltr;text-anchor:start;fill:#000000;stroke-width:0.264583"
       x="257.32544"
       y="87.878235"
       id="text2"><tspan
         id="tspan2"
         x="257.32544"
         y="87.878235"
         style="font-size:14.1111px;fill:#000000;stroke-width:0.264583">E S C A P E M E N T</tspan></text><text
       xml:space="preserve"
       style="font-weight:900;font-size:8.46667px;line-height:0;font-family:Cinzel;-inkscape-font-specification:'Cinzel Heavy';text-align:start;writing-mode:lr-tb;direction:ltr;text-anchor:start;fill:#000000;stroke-width:0.264583"
       x="316.04733"
       y="68.753166"
       id="text3"><tspan
         id="tspan3"
         x="316.04733"
         y="68.753166"
         style="font-size:8.46667px;fill:#000000;stroke-width:0.264583">THE</tspan></text></g><g
     id="layer-MC0"
     transform="matrix(0.26458333,0,0,0.26458334,1e-5,0)"><path
       id="path1"
       d="M 0,0 221.917,2.027 438.59,0 221.917,-0.941 Z"
       style="fill:#110f0e;fill-opacity:1;fill-rule:nonzero;stroke:none"
       transform="matrix(1.3333333,0,0,-1.3333333,107.53973,275.70067)" /><path
       id="path2"
       d="M 0,0 V 0 L -0.001,-0.001 C -2.508,-3.419 -5.311,-6.676 -7.677,-9.264 -7.799,-9.39 -7.924,-9.518 -8.05,-9.648 l -3.851,-4.614 c 25.174,18.61 57.262,29.769 92.219,29.769 38.035,0 72.68,-13.207 98.71,-34.855 -1.945,2.008 -4.408,4.307 -7.498,6.948 -2.753,2.354 -10.637,7.82 -9.321,10.591 2.035,4.287 13.714,7.197 13.714,7.197 l -0.646,4.453 -1.235,-0.534 c 0,0 0.151,-1.309 -1.245,-2.135 -1.643,-0.971 -6.675,-2.004 -10.223,-2.279 -6.602,-0.51 -15.192,0.969 -21.27,2.309 -3.514,0.876 -8.597,2.341 -7.773,5.057 1.377,4.541 12.16,9.89 12.16,9.89 l -1.559,4.221 -1.096,-0.779 c 0,0 0.42,-1.249 -0.774,-2.347 -1.405,-1.292 -6.112,-3.349 -9.526,-4.355 -6.352,-1.872 -15.061,-2.211 -21.285,-2.164 -3.62,0.127 -8.896,0.503 -8.655,3.331 0.403,4.728 9.838,12.201 9.838,12.201 l -2.402,3.806 -0.91,-0.991 c 0,0 0.67,-1.134 -0.27,-2.457 -1.105,-1.555 -5.282,-4.545 -8.412,-6.239 -5.824,-3.152 -14.272,-5.294 -20.37,-6.542 -3.567,-0.629 -8.806,-1.358 -9.158,1.458 -0.589,4.709 7.086,13.98 7.086,13.98 l -3.141,3.223 -0.684,-1.158 c 0,0 0.892,-0.97 0.247,-2.459 C 73.862,33.127 70.398,29.333 67.689,27.026 62.648,22.732 54.83,18.88 49.125,16.391 c -3.358,-1.356 -8.332,-3.159 -9.262,-0.478 -1.555,4.484 4.025,15.149 4.025,15.149 l -3.742,2.499 -0.429,-1.275 c 0,0 1.074,-0.764 0.753,-2.354 C 40.093,28.061 37.493,23.63 35.323,20.81 31.285,15.562 24.439,10.169 19.376,6.549 16.373,4.523 11.883,1.726 10.416,4.156 7.963,8.218 11.203,19.81 11.203,19.81 L 7.023,21.476 6.868,20.14 c 0,0 1.21,-0.524 1.227,-2.146 C 8.114,16.086 6.493,11.211 4.957,8.002 3.709,5.394 1.943,2.648 0,0"
       style="fill:#110f0e;fill-opacity:1;fill-rule:nonzero;stroke:none"
       transform="matrix(1.3333333,0,0,-1.3333333,279.23227,222.984)"
       clip-path="url(#clipPath3)" /><path
       id="path4"
       d="M 0,0 -0.67,-22.269 -1.369,0 V 66.512 H 0 Z"
       style="fill:#110f0e;fill-opacity:1;fill-rule:nonzero;stroke:none"
       transform="matrix(1.3333333,0,0,-1.3333333,400.4528,201.22933)"
       clip-path="url(#clipPath5)" /><path
       id="path6"
       d="M 0,0 C 0.126,-0.198 0.308,-0.536 0.471,-0.727 0.308,-0.536 0.126,-0.198 0,0 m -30.252,16.257 c -5.384,2.401 -11.158,4.28 -16.934,5.514 -17.101,3.653 -36.057,2.502 -52.484,-3.513 -0.89,-0.325 -1.964,-0.896 -2.852,-1.107 -0.202,-0.048 -0.403,-0.106 -0.612,-0.059 -0.612,1.735 0.745,2.424 1.652,3.146 7.742,6.166 22.398,16.68 31.152,23.132 1.162,-2.686 3.833,-4.567 6.945,-4.567 2.744,0 5.139,1.466 6.466,3.651 L -30.18,18.151 c 0.65,-0.344 0.777,-2.116 -0.072,-1.894 m -33.263,34.22 c 2.269,0 4.108,-1.839 4.108,-4.108 0,-2.269 -1.839,-4.108 -4.108,-4.108 -2.269,0 -4.108,1.839 -4.108,4.108 0,2.269 1.839,4.108 4.108,4.108 m 67.22,-52.52 c -0.684,1.137 -41.285,36.115 -60.151,51.425 -1.165,2.678 -3.831,4.553 -6.939,4.553 -3.201,0 -5.932,-1.992 -7.037,-4.802 C -87.095,36.609 -134.721,0.13 -134.721,0.13 c -1.442,-1.594 11.726,-13.171 12.412,-12.695 0.685,0.477 1.889,1.473 1.889,1.473 l -1.504,1.914 c -0.912,1.044 -2.024,2.393 -2.524,3.212 -0.614,1.004 -0.771,1.867 -0.211,2.939 0.433,0.831 4.25,3.764 5.249,4.527 11.256,8.594 25.275,14.678 39.309,16.914 23.394,3.728 47.649,-3.365 66.117,-17.98 1.248,-0.988 3.985,-3.078 4.917,-4.172 0.102,-0.119 0.299,-0.368 0.43,-0.603 0.586,-1.032 0.419,-2.12 0.21,-2.351 -0.001,-0.007 -0.002,-0.012 -0.004,-0.015 l -3.423,-4.817 c 0,0 1.29,-0.685 3.354,-0.684 2.298,2.91 13.299,8.345 12.205,10.165"
       style="fill:#110f0e;fill-opacity:1;fill-rule:nonzero;stroke:none"
       transform="matrix(1.3333333,0,0,-1.3333333,484.24053,167.0012)"
       clip-path="url(#clipPath7)" /></g></svg>
