<?xml version="1.0" encoding="UTF-8" standalone="no"?>
<!-- Created with Inkscape (http://www.inkscape.org/) -->

<svg
   width="154.72481mm"
   height="63.445644mm"
   viewBox="0 0 154.72481 63.445644"
   version="1.1"
   id="svg1"
   xml:space="preserve"
   xmlns="http://www.w3.org/2000/svg"
   xmlns:svg="http://www.w3.org/2000/svg"><defs
     id="defs1"><clipPath
       clipPathUnits="userSpaceOnUse"
       id="clipPath3"><path
         d="M 0,360 H 576 V 0 H 0 Z"
         transform="translate(-209.42421,-192.762)"
         id="path3" /></clipPath><clipPath
       clipPathUnits="userSpaceOnUse"
       id="clipPath5"><path
         d="M 0,360 H 576 V 0 H 0 Z"
         transform="translate(-300.33961,-209.07801)"
         id="path5" /></clipPath><clipPath
       clipPathUnits="userSpaceOnUse"
       id="clipPath7"><path
         d="M 0,360 H 576 V 0 H 0 Z"
         transform="translate(-363.18041,-234.74911)"
         id="path7" /></clipPath><clipPath
       clipPathUnits="userSpaceOnUse"
       id="clipPath9"><path
         d="M 0,360 H 576 V 0 H 0 Z"
         transform="translate(-275.12271,-179.4066)"
         id="path9" /></clipPath><clipPath
       clipPathUnits="userSpaceOnUse"
       id="clipPath11"><path
         d="M 0,360 H 576 V 0 H 0 Z"
         transform="translate(-296.92441,-182.3916)"
         id="path11" /></clipPath><clipPath
       clipPathUnits="userSpaceOnUse"
       id="clipPath13"><path
         d="M 0,360 H 576 V 0 H 0 Z"
         transform="translate(-325.37511,-182.3916)"
         id="path13" /></clipPath><clipPath
       clipPathUnits="userSpaceOnUse"
       id="clipPath15"><path
         d="M 0,360 H 576 V 0 H 0 Z"
         transform="translate(-111.91311,-109.8462)"
         id="path15" /></clipPath><clipPath
       clipPathUnits="userSpaceOnUse"
       id="clipPath17"><path
         d="M 0,360 H 576 V 0 H 0 Z"
         transform="translate(-165.7206,-130.3528)"
         id="path17" /></clipPath><clipPath
       clipPathUnits="userSpaceOnUse"
       id="clipPath19"><path
         d="M 0,360 H 576 V 0 H 0 Z"
         transform="translate(-213.21801,-119.8372)"
         id="path19" /></clipPath><clipPath
       clipPathUnits="userSpaceOnUse"
       id="clipPath21"><path
         d="M 0,360 H 576 V 0 H 0 Z"
         transform="translate(-239.4628,-132.4128)"
         id="path21" /></clipPath><clipPath
       clipPathUnits="userSpaceOnUse"
       id="clipPath23"><path
         d="M 0,360 H 576 V 0 H 0 Z"
         transform="translate(-280.56241,-125.3578)"
         id="path23" /></clipPath><clipPath
       clipPathUnits="userSpaceOnUse"
       id="clipPath25"><path
         d="M 0,360 H 576 V 0 H 0 Z"
         transform="translate(-306.10641,-109.8462)"
         id="path25" /></clipPath><clipPath
       clipPathUnits="userSpaceOnUse"
       id="clipPath27"><path
         d="M 0,360 H 576 V 0 H 0 Z"
         transform="translate(-365.96121,-109.8462)"
         id="path27" /></clipPath><clipPath
       clipPathUnits="userSpaceOnUse"
       id="clipPath29"><path
         d="M 0,360 H 576 V 0 H 0 Z"
         transform="translate(-387.91191,-109.8462)"
         id="path29" /></clipPath><clipPath
       clipPathUnits="userSpaceOnUse"
       id="clipPath31"><path
         d="M 0,360 H 576 V 0 H 0 Z"
         transform="translate(-443.34081,-109.8462)"
         id="path31" /></clipPath><clipPath
       clipPathUnits="userSpaceOnUse"
       id="clipPath33"><path
         d="M 0,360 H 576 V 0 H 0 Z"
         transform="translate(-473.09081,-109.8462)"
         id="path33" /></clipPath></defs><g
     id="layer-MC0"
     transform="matrix(0.26458333,0,0,0.26458334,-28.453207,-25.158667)"><path
       id="path1"
       d="M 0,0 221.917,2.027 438.59,0 221.917,-0.941 Z"
       style="fill:#110f0e;fill-opacity:1;fill-rule:nonzero;stroke:none"
       transform="matrix(1.3333333,0,0,-1.3333333,107.53973,275.70067)" /><path
       id="path2"
       d="M 0,0 V 0 L -0.001,-0.001 C -2.508,-3.419 -5.311,-6.676 -7.677,-9.264 -7.799,-9.39 -7.924,-9.518 -8.05,-9.648 l -3.851,-4.614 c 25.174,18.61 57.262,29.769 92.219,29.769 38.035,0 72.68,-13.207 98.71,-34.855 -1.945,2.008 -4.408,4.307 -7.498,6.948 -2.753,2.354 -10.637,7.82 -9.321,10.591 2.035,4.287 13.714,7.197 13.714,7.197 l -0.646,4.453 -1.235,-0.534 c 0,0 0.151,-1.309 -1.245,-2.135 -1.643,-0.971 -6.675,-2.004 -10.223,-2.279 -6.602,-0.51 -15.192,0.969 -21.27,2.309 -3.514,0.876 -8.597,2.341 -7.773,5.057 1.377,4.541 12.16,9.89 12.16,9.89 l -1.559,4.221 -1.096,-0.779 c 0,0 0.42,-1.249 -0.774,-2.347 -1.405,-1.292 -6.112,-3.349 -9.526,-4.355 -6.352,-1.872 -15.061,-2.211 -21.285,-2.164 -3.62,0.127 -8.896,0.503 -8.655,3.331 0.403,4.728 9.838,12.201 9.838,12.201 l -2.402,3.806 -0.91,-0.991 c 0,0 0.67,-1.134 -0.27,-2.457 -1.105,-1.555 -5.282,-4.545 -8.412,-6.239 -5.824,-3.152 -14.272,-5.294 -20.37,-6.542 -3.567,-0.629 -8.806,-1.358 -9.158,1.458 -0.589,4.709 7.086,13.98 7.086,13.98 l -3.141,3.223 -0.684,-1.158 c 0,0 0.892,-0.97 0.247,-2.459 C 73.862,33.127 70.398,29.333 67.689,27.026 62.648,22.732 54.83,18.88 49.125,16.391 c -3.358,-1.356 -8.332,-3.159 -9.262,-0.478 -1.555,4.484 4.025,15.149 4.025,15.149 l -3.742,2.499 -0.429,-1.275 c 0,0 1.074,-0.764 0.753,-2.354 C 40.093,28.061 37.493,23.63 35.323,20.81 31.285,15.562 24.439,10.169 19.376,6.549 16.373,4.523 11.883,1.726 10.416,4.156 7.963,8.218 11.203,19.81 11.203,19.81 L 7.023,21.476 6.868,20.14 c 0,0 1.21,-0.524 1.227,-2.146 C 8.114,16.086 6.493,11.211 4.957,8.002 3.709,5.394 1.943,2.648 0,0"
       style="fill:#110f0e;fill-opacity:1;fill-rule:nonzero;stroke:none"
       transform="matrix(1.3333333,0,0,-1.3333333,288.51506,222.984)"
       clip-path="url(#clipPath3)" /><path
       id="path4"
       d="M 0,0 -0.67,-22.269 -1.369,0 V 66.512 H 0 Z"
       style="fill:#110f0e;fill-opacity:1;fill-rule:nonzero;stroke:none"
       transform="matrix(1.3333333,0,0,-1.3333333,400.84572,201.22933)"
       clip-path="url(#clipPath5)" /><path
       id="path6"
       d="M 0,0 C 0.126,-0.198 0.308,-0.536 0.471,-0.727 0.308,-0.536 0.126,-0.198 0,0 m -30.252,16.257 c -5.384,2.401 -11.158,4.28 -16.934,5.514 -17.101,3.653 -36.057,2.502 -52.484,-3.513 -0.89,-0.325 -1.964,-0.896 -2.852,-1.107 -0.202,-0.048 -0.403,-0.106 -0.612,-0.059 -0.612,1.735 0.745,2.424 1.652,3.146 7.742,6.166 22.398,16.68 31.152,23.132 1.162,-2.686 3.833,-4.567 6.945,-4.567 2.744,0 5.139,1.466 6.466,3.651 L -30.18,18.151 c 0.65,-0.344 0.777,-2.116 -0.072,-1.894 m -33.263,34.22 c 2.269,0 4.108,-1.839 4.108,-4.108 0,-2.269 -1.839,-4.108 -4.108,-4.108 -2.269,0 -4.108,1.839 -4.108,4.108 0,2.269 1.839,4.108 4.108,4.108 m 67.22,-52.52 c -0.684,1.137 -41.285,36.115 -60.151,51.425 -1.165,2.678 -3.831,4.553 -6.939,4.553 -3.201,0 -5.932,-1.992 -7.037,-4.802 C -87.095,36.609 -134.721,0.13 -134.721,0.13 c -1.442,-1.594 11.726,-13.171 12.412,-12.695 0.685,0.477 1.889,1.473 1.889,1.473 l -1.504,1.914 c -0.912,1.044 -2.024,2.393 -2.524,3.212 -0.614,1.004 -0.771,1.867 -0.211,2.939 0.433,0.831 4.25,3.764 5.249,4.527 11.256,8.594 25.275,14.678 39.309,16.914 23.394,3.728 47.649,-3.365 66.117,-17.98 1.248,-0.988 3.985,-3.078 4.917,-4.172 0.102,-0.119 0.299,-0.368 0.43,-0.603 0.586,-1.032 0.419,-2.12 0.21,-2.351 -0.001,-0.007 -0.002,-0.012 -0.004,-0.015 l -3.423,-4.817 c 0,0 1.29,-0.685 3.354,-0.684 2.298,2.91 13.299,8.345 12.205,10.165"
       style="fill:#110f0e;fill-opacity:1;fill-rule:nonzero;stroke:none"
       transform="matrix(1.3333333,0,0,-1.3333333,485.29971,167.0012)"
       clip-path="url(#clipPath7)" /><g
       id="g2"
       transform="translate(-0.51948064)"><path
         id="path8"
         d="M 0,0 V 2.985 H 13.23 V 0 H 8.39 V -13.163 H 4.84 V 0 Z"
         style="fill:#110f0e;fill-opacity:1;fill-rule:nonzero;stroke:none"
         transform="matrix(1.3333333,0,0,-1.3333333,366.83027,240.7912)"
         clip-path="url(#clipPath9)" /><path
         id="path10"
         d="M 0,0 V -6.196 H 6.537 V 0 h 3.55 v -16.148 h -3.55 v 6.965 H 0 v -6.965 H -3.551 V 0 Z"
         style="fill:#110f0e;fill-opacity:1;fill-rule:nonzero;stroke:none"
         transform="matrix(1.3333333,0,0,-1.3333333,395.8992,236.8112)"
         clip-path="url(#clipPath11)" /><path
         id="path12"
         d="m 0,0 v -2.985 h -8.527 v -3.461 h 7.826 v -2.758 h -7.826 v -3.959 h 8.708 v -2.985 H -12.078 V 0 Z"
         style="fill:#110f0e;fill-opacity:1;fill-rule:nonzero;stroke:none"
         transform="matrix(1.3333333,0,0,-1.3333333,433.83347,236.8112)"
         clip-path="url(#clipPath13)" /></g><g
       id="g1"
       transform="translate(-0.00221039)"><path
         id="path14"
         d="M 0,0 V 29.095 H 21.383 V 24.013 H 5.916 V 17.79 H 20.157 V 12.664 H 5.916 V 5.17 H 22.085 V 0 Z"
         style="fill:#110f0e;fill-opacity:1;fill-rule:nonzero;stroke:none"
         transform="matrix(1.3333333,0,0,-1.3333333,149.21747,333.5384)"
         clip-path="url(#clipPath15)" /><path
         id="path16"
         d="m 0,0 c -0.307,2.98 -2.104,4.426 -5.784,4.426 -3.418,0 -5.214,-1.227 -5.214,-3.418 0,-1.84 1.27,-2.892 4.513,-3.681 3.286,-0.789 6.485,-1.577 8.632,-2.541 2.542,-1.139 4.557,-2.936 4.557,-7.055 0,-6.397 -4.82,-9.245 -11.612,-9.245 -7.186,0 -12.181,3.198 -12.313,9.727 h 5.872 c 0.087,-2.979 2.585,-4.819 6.485,-4.819 3.593,0 5.653,1.533 5.653,4.119 0,1.708 -0.877,2.891 -4.513,3.68 -3.594,0.789 -5.916,1.315 -7.976,2.234 -3.111,1.403 -4.863,3.506 -4.863,7.187 0,5.215 3.549,8.938 10.647,8.938 7.362,0 11.481,-3.987 11.7,-9.552 z"
         style="fill:#110f0e;fill-opacity:1;fill-rule:nonzero;stroke:none"
         transform="matrix(1.3333333,0,0,-1.3333333,220.9608,306.19627)"
         clip-path="url(#clipPath17)" /><path
         id="path18"
         d="m 0,0 c -1.227,-6.618 -5.784,-10.999 -12.532,-10.999 -7.624,0 -13.452,5.215 -13.452,15.205 0,9.859 5.214,15.862 13.54,15.862 7.273,0 11.874,-4.645 12.444,-10.517 h -6.091 c -0.832,3.287 -3.417,5.259 -6.309,5.259 -5.039,0 -7.406,-3.899 -7.406,-10.254 0,-6.441 2.367,-10.253 7.099,-10.253 3.593,0 5.784,2.06 6.616,5.697 z"
         style="fill:#110f0e;fill-opacity:1;fill-rule:nonzero;stroke:none"
         transform="matrix(1.3333333,0,0,-1.3333333,284.29067,320.21707)"
         clip-path="url(#clipPath19)" /><path
         id="path20"
         d="m 0,0 h -0.044 l -3.724,-11.568 h 7.405 z m 7.23,-22.567 -1.84,6.003 H -5.345 l -2.06,-6.003 h -6.441 L -3.462,6.528 h 7.055 l 10.254,-29.095 z"
         style="fill:#110f0e;fill-opacity:1;fill-rule:nonzero;stroke:none"
         transform="matrix(1.3333333,0,0,-1.3333333,319.28373,303.4496)"
         clip-path="url(#clipPath21)" /><path
         id="path22"
         d="M 0,0 C 3.505,0 4.951,1.797 4.951,4.338 4.951,6.748 3.505,8.545 0,8.545 H -5.784 V 0 Z M -11.875,-15.512 V 13.583 H 0.964 c 5.696,0 9.334,-4.162 9.334,-9.421 0,-5.301 -3.638,-9.113 -9.334,-9.113 h -6.748 v -10.561 z"
         style="fill:#110f0e;fill-opacity:1;fill-rule:nonzero;stroke:none"
         transform="matrix(1.3333333,0,0,-1.3333333,374.0832,312.85627)"
         clip-path="url(#clipPath23)" /><path
         id="path24"
         d="M 0,0 V 29.095 H 21.384 V 24.013 H 5.916 V 17.79 h 14.24 V 12.664 H 5.916 V 5.17 H 22.085 V 0 Z"
         style="fill:#110f0e;fill-opacity:1;fill-rule:nonzero;stroke:none"
         transform="matrix(1.3333333,0,0,-1.3333333,408.14187,333.5384)"
         clip-path="url(#clipPath25)" /><path
         id="path26"
         d="M 0,0 V 19.937 L -5.434,0 h -6.047 l -5.39,19.849 V 0 h -5.652 v 29.095 h 8.939 L -8.326,7.756 -3.068,29.095 H 5.696 V 0 Z"
         style="fill:#110f0e;fill-opacity:1;fill-rule:nonzero;stroke:none"
         transform="matrix(1.3333333,0,0,-1.3333333,487.94827,333.5384)"
         clip-path="url(#clipPath27)" /><path
         id="path28"
         d="M 0,0 V 29.095 H 21.384 V 24.013 H 5.916 V 17.79 h 14.24 V 12.664 H 5.916 V 5.17 H 22.085 V 0 Z"
         style="fill:#110f0e;fill-opacity:1;fill-rule:nonzero;stroke:none"
         transform="matrix(1.3333333,0,0,-1.3333333,517.21587,333.5384)"
         clip-path="url(#clipPath29)" /><path
         id="path30"
         d="M 0,0 -12.445,19.542 V 0 h -5.652 v 29.095 h 6.441 l 11.568,-18.71 v 18.71 H 5.609 V 0 Z"
         style="fill:#110f0e;fill-opacity:1;fill-rule:nonzero;stroke:none"
         transform="matrix(1.3333333,0,0,-1.3333333,591.12107,333.5384)"
         clip-path="url(#clipPath31)" /><path
         id="path32"
         d="m 0,0 v 24.013 h -8.764 v 5.082 H 14.899 V 24.013 H 6.091 V 0 Z"
         style="fill:#110f0e;fill-opacity:1;fill-rule:nonzero;stroke:none"
         transform="matrix(1.3333333,0,0,-1.3333333,630.78773,333.5384)"
         clip-path="url(#clipPath33)" /></g></g></svg>
