<?xml version="1.0" encoding="UTF-8" standalone="no"?>
<!-- Created with Inkscape (http://www.inkscape.org/) -->

<svg
   width="136.12813mm"
   height="22.568972mm"
   viewBox="0 0 136.12813 22.568972"
   version="1.1"
   id="svg1"
   xml:space="preserve"
   xmlns="http://www.w3.org/2000/svg"
   xmlns:svg="http://www.w3.org/2000/svg"><defs
     id="defs1"><style
       id="style1">
      .st0 {
        fill: #020202;
      }
    </style></defs><g
     id="g1"
     transform="matrix(0.26458333,0,0,0.26458335,-508.19842,-255.4155)"><g
       id="g11"
       transform="translate(1900.35,827.94994)"><polygon
         class="st0"
         points="534.9,172.5 126.6,173.9 20.4,172.5 126.6,169.5 "
         id="polygon1" /><g
         id="g14"><g
           id="g10"><path
             class="st0"
             d="M 97.3,191.3 V 197 H 81.2 v 6.6 H 96 v 5.2 H 81.2 v 7.5 H 97.7 V 222 H 74.5 v -30.6 h 22.9 z"
             id="path1" /><path
             class="st0"
             d="m 121,214.4 c 0.4,0.7 0.9,1.3 1.5,1.7 0.6,0.4 1.3,0.8 2.2,1 0.8,0.2 1.7,0.3 2.6,0.3 0.9,0 1.2,0 1.9,-0.1 0.7,0 1.3,-0.3 1.9,-0.6 0.6,-0.3 1.1,-0.7 1.5,-1.2 0.4,-0.5 0.6,-1.1 0.6,-1.9 0,-0.8 -0.3,-1.5 -0.8,-2 -0.5,-0.5 -1.2,-0.9 -2.1,-1.3 -0.9,-0.3 -1.8,-0.6 -2.9,-0.9 -1.1,-0.3 -2.2,-0.5 -3.3,-0.9 -1.1,-0.3 -2.3,-0.6 -3.3,-1 -1.1,-0.4 -2.1,-0.9 -2.9,-1.6 -0.9,-0.7 -1.5,-1.5 -2.1,-2.5 -0.5,-1 -0.8,-2.2 -0.8,-3.6 0,-1.4 0.3,-2.9 1,-4.1 0.7,-1.2 1.5,-2.1 2.6,-2.9 1.1,-0.8 2.3,-1.3 3.7,-1.7 1.4,-0.4 2.7,-0.6 4.1,-0.6 1.4,0 3.1,0.2 4.6,0.5 1.5,0.4 2.8,0.9 3.9,1.7 1.1,0.8 2,1.8 2.7,3.1 0.7,1.2 1,2.7 1,4.5 h -6.5 c 0,-0.9 -0.2,-1.7 -0.6,-2.3 -0.3,-0.6 -0.8,-1.1 -1.3,-1.4 -0.5,-0.3 -1.2,-0.6 -1.9,-0.7 -0.7,-0.1 -1.5,-0.2 -2.3,-0.2 -0.8,0 -1.1,0 -1.6,0.2 -0.5,0.1 -1,0.3 -1.5,0.6 -0.4,0.3 -0.8,0.6 -1.1,1.1 -0.3,0.4 -0.4,1 -0.4,1.6 0,0.6 0.1,1.1 0.3,1.5 0.2,0.4 0.7,0.7 1.3,1 0.7,0.3 1.6,0.6 2.8,0.9 1.2,0.3 2.7,0.7 4.6,1.2 0.6,0.1 1.4,0.3 2.4,0.6 1,0.3 2,0.8 3,1.4 1,0.7 1.9,1.5 2.6,2.6 0.7,1.1 1.1,2.5 1.1,4.2 0,1.7 -0.3,2.7 -0.8,3.9 -0.5,1.2 -1.3,2.2 -2.4,3.1 -1.1,0.9 -2.4,1.5 -4,2 -1.6,0.5 -3.4,0.7 -5.5,0.7 -2.1,0 -3.3,-0.2 -4.9,-0.6 -1.6,-0.4 -3,-1.1 -4.2,-1.9 -1.2,-0.9 -2.2,-2 -2.9,-3.4 -0.7,-1.4 -1.1,-3 -1,-4.9 h 6.5 c 0,1 0.2,1.9 0.6,2.6 z"
             id="path2" /><path
             class="st0"
             d="m 177,199.5 c -0.4,-0.6 -0.9,-1.2 -1.5,-1.7 -0.6,-0.5 -1.3,-0.9 -2,-1.1 -0.8,-0.3 -1.5,-0.4 -2.4,-0.4 -1.5,0 -2.8,0.3 -3.9,0.9 -1.1,0.6 -1.9,1.4 -2.6,2.4 -0.7,1 -1.1,2.1 -1.4,3.4 -0.3,1.3 -0.4,2.6 -0.4,3.9 0,1.3 0.1,2.5 0.4,3.7 0.3,1.2 0.8,2.3 1.4,3.3 0.7,1 1.5,1.7 2.6,2.3 1.1,0.6 2.3,0.9 3.9,0.9 1.6,0 3.7,-0.6 4.8,-1.9 1.2,-1.3 1.9,-2.9 2.1,-5 h 6.5 c -0.2,1.9 -0.6,3.6 -1.3,5.2 -0.7,1.5 -1.7,2.9 -2.8,3.9 -1.2,1.1 -2.5,1.9 -4.1,2.5 -1.6,0.6 -3.3,0.9 -5.2,0.9 -1.9,0 -4.4,-0.4 -6.3,-1.2 -1.9,-0.8 -3.4,-1.9 -4.7,-3.4 -1.3,-1.4 -2.3,-3.1 -3,-5 -0.7,-1.9 -1,-4 -1,-6.2 0,-2.2 0.3,-4.4 1,-6.4 0.7,-2 1.7,-3.7 3,-5.1 1.3,-1.4 2.9,-2.6 4.7,-3.4 1.9,-0.8 4,-1.2 6.3,-1.2 2.3,0 3.3,0.2 4.8,0.7 1.5,0.5 2.8,1.2 4,2.1 1.2,0.9 2.2,2.1 2.9,3.4 0.8,1.4 1.3,2.9 1.5,4.7 h -6.5 c -0.1,-0.8 -0.4,-1.5 -0.8,-2.1 z"
             id="path3" /><path
             class="st0"
             d="m 218.1,191.3 11.4,30.6 h -7 l -2.3,-6.8 h -11.4 l -2.4,6.8 h -6.8 l 11.6,-30.6 z m 0.3,18.8 -3.9,-11.2 v 0 l -4,11.2 z"
             id="path4" /><path
             class="st0"
             d="m 259.6,191.3 c 1.9,0 3.5,0.3 4.9,0.8 1.3,0.6 2.4,1.3 3.3,2.2 0.8,0.9 1.5,2 1.8,3.1 0.4,1.2 0.6,2.4 0.6,3.6 0,1.2 -0.2,2.4 -0.6,3.6 -0.4,1.2 -1,2.2 -1.8,3.1 -0.8,0.9 -1.9,1.6 -3.3,2.2 -1.3,0.6 -3,0.8 -4.9,0.8 h -7.1 v 11 h -6.7 v -30.6 h 13.8 z m -1.8,14.4 c 0.8,0 1.5,0 2.2,-0.2 0.7,-0.1 1.3,-0.3 1.9,-0.7 0.5,-0.3 1,-0.8 1.3,-1.4 0.3,-0.6 0.5,-1.4 0.5,-2.4 0,-1 -0.2,-1.8 -0.5,-2.4 -0.3,-0.6 -0.8,-1.1 -1.3,-1.4 -0.5,-0.3 -1.2,-0.5 -1.9,-0.7 -0.7,-0.1 -1.5,-0.2 -2.2,-0.2 h -5.2 v 9.2 h 5.2 z"
             id="path5" /><path
             class="st0"
             d="m 311,191.3 v 5.7 h -16.1 v 6.6 h 14.8 v 5.2 h -14.8 v 7.5 h 16.5 v 5.7 h -23.2 v -30.6 h 22.9 z"
             id="path6" /><path
             class="st0"
             d="m 339,191.3 7.2,21 v 0 l 6.8,-21 h 9.5 v 30.6 h -6.3 v -21.7 0 l -7.5,21.7 h -5.2 L 336,200.4 v 0 21.5 h -6.3 v -30.6 h 9.5 z"
             id="path7" /><path
             class="st0"
             d="m 405,191.3 v 5.7 h -16.1 v 6.6 h 14.8 v 5.2 h -14.8 v 7.5 h 16.5 v 5.7 h -23.2 v -30.6 h 22.9 z"
             id="path8" /><path
             class="st0"
             d="m 430.3,191.3 12.8,20.5 v 0 -20.5 h 6.3 v 30.6 h -6.7 L 430,201.4 v 0 20.5 h -6.3 v -30.6 h 6.7 z"
             id="path9" /><path
             class="st0"
             d="m 466.6,197 v -5.7 h 25.1 v 5.7 h -9.2 v 24.9 h -6.7 V 197 Z"
             id="path10" /></g><g
           id="g13"><path
             class="st0"
             d="m 100.4,141.1 v -3.7 h 16.4 v 3.7 h -6 v 16.3 h -4.4 v -16.3 z"
             id="path11" /><path
             class="st0"
             d="m 127.4,137.4 v 7.7 h 8.1 v -7.7 h 4.4 v 20 h -4.4 v -8.6 h -8.1 v 8.6 H 123 v -20 z"
             id="path12" /><path
             class="st0"
             d="m 162.6,137.4 v 3.7 h -10.5 v 4.3 h 9.7 v 3.4 h -9.7 v 4.9 h 10.8 v 3.7 h -15.2 v -20 z"
             id="path13" /></g></g></g></g></svg>
