<?xml version="1.0" encoding="UTF-8" standalone="no"?>
<!-- Created with Inkscape (http://www.inkscape.org/) -->

<svg
   version="1.1"
   id="svg1"
   width="245.30296"
   height="67.598495"
   viewBox="0 0 245.30296 67.598495"
   xmlns="http://www.w3.org/2000/svg"
   xmlns:svg="http://www.w3.org/2000/svg">
  <defs
     id="defs1" />
  <g
     id="g1"
     transform="translate(-116.97892,-208.18626)">
    <g
       id="g527">
      <g
         id="g528"
         transform="translate(-8.3508997,12.52635)">
        <path
           style="fill:#d0d0d0;fill-opacity:1"
           d="m 230.90125,219.42857 -1.57143,-1.57143 v -1.7922 -1.79221 l 2.57351,-2.57351 2.5735,-2.57351 -0.18866,-1.81285 -0.18866,-1.81286 0.11516,-1.71482 0.11515,-1.71481 2,-1.07037 2,-1.07037 2,1.07037 2,1.07037 v 1.65036 1.65037 l -1.94135,2.06647 -1.94135,2.06647 1.81879,2.41124 1.8188,2.41123 1.19195,-2.22718 1.19195,-2.22717 -1.19184,-1.43608 L 242.08493,207 h 3.05205 3.05205 l -2.48028,4.4377 -2.48028,4.43769 1.97824,1.05872 1.97823,1.05872 1.57244,-0.6034 1.57244,-0.60341 v 0.58394 0.58393 l -2.5,1.63807 -2.5,1.63806 -2.29338,-1.50268 -2.29338,-1.50268 -1.89775,1.38767 L 236.94756,221 h -2.23744 -2.23744 z m 7.9273,-1.42652 0.61677,-0.99795 -1.77336,-3.00205 L 235.8986,211 h -0.7492 -0.74921 l -1.03519,1.93426 -1.03518,1.93426 v 0.49431 0.49431 l 1.57143,1.57143 1.57143,1.57143 h 1.36955 1.36956 z m 1.50127,-14.12449 V 202 h -1.44098 -1.44099 l -0.51078,0.82646 -0.51077,0.82646 0.5739,2.19461 0.57391,2.19462 1.37785,-1.14352 1.37786,-1.14352 z"
           id="path527" />
        <path
           style="fill:#d0d0d0;fill-opacity:1"
           d="m 278.32982,222 -2.5,-0.80064 1.77475,-0.0997 1.77475,-0.0997 0.97525,-2.5651 0.97525,-2.5651 v -2.3099 -2.3099 l -3.125,-0.625 -3.125,-0.625 h -2.26801 -2.26801 l -0.60699,1.58179 -0.60699,1.58178 v 2.86853 2.86852 l 1.75,1.01928 1.75,1.01928 -4,-0.0693 -4,-0.0693 -2.5,-0.80058 -2.5,-0.80064 1.77475,-0.0997 1.77475,-0.0997 0.89343,-2.34991 0.89344,-2.3499 0.7008,-8.03382 0.7008,-8.03382 -1.86899,-1.08587 -1.86898,-1.08586 4,0.0693 4,0.0693 2.5,0.70679 2.5,0.70679 -2.10099,0.56094 -2.10099,0.56095 -0.68218,4.26608 -0.68217,4.26609 0.28316,0.26275 0.28317,0.26275 5.5,0.35375 5.5,0.35375 0.32289,-3.96012 0.32289,-3.96011 -1.76402,-1.28989 -1.76402,-1.28988 3.94113,0.0997 3.94113,0.0997 2.5,0.70679 2.5,0.70679 -2.1145,0.56448 -2.1145,0.56447 -0.59532,3.37906 -0.59532,3.37905 -0.687,6.40606 -0.687,6.40605 1.83795,1.34395 1.83795,1.34394 -3.94113,-0.0997 -3.94113,-0.0997 z"
           id="path526" />
        <path
           style="fill:#d0d0d0;fill-opacity:1"
           d="m 200.2529,222.07692 -2.92308,-2.92307 v -3.94207 -3.94206 l 2.01564,-2.56247 2.01563,-2.56247 3.23437,-1.04829 3.23436,-1.04829 3,0.3314 3,0.33139 0.33734,2.89451 0.33734,2.8945 -2.53198,-2.3723 -2.53197,-2.37231 -2.48544,0.62381 -2.48544,0.6238 -1.56992,1.56993 -1.56993,1.56993 v 3.79371 3.79371 l 2.11469,2.68839 2.11468,2.68839 3.627,-0.30353 3.627,-0.30353 0.34687,-1.82909 0.34687,-1.8291 -0.60761,-2.4209 -0.6076,-2.42091 -1.73095,-0.0997 -1.73095,-0.0997 2.5,-0.80064 2.5,-0.80064 2.5,-0.0844 2.5,-0.0844 -1.28855,0.81752 -1.28854,0.81753 0.6404,4.00488 0.64041,4.00489 -3.50299,1.66227 L 210.52756,225 h -3.67579 -3.6758 z"
           id="path525" />
        <path
           style="fill:#d0d0d0;fill-opacity:1"
           d="m 297.15803,226.1686 -5.67179,-1.6686 -0.74488,-0.75 -0.74487,-0.75 h 1.55191 1.55192 l 2.09411,-7.70374 2.09411,-7.70374 -1.2004,-0.74189 -1.2004,-0.74188 0.51636,-0.51636 0.51635,-0.51635 7.70469,2.12267 7.70468,2.12267 v 1.78029 1.7803 l -1,0.61803 -1,0.61803 v -1.58376 -1.58377 l -2.5651,-0.97525 L 304.19962,209 h -1.82649 -1.82649 l -0.6664,2.65514 -0.6664,2.65515 1.30799,0.82954 1.30799,0.82954 2.75,0.0153 2.75,0.0153 v -1.16667 -1.16666 l 0.59516,0.59516 0.59516,0.59516 -0.67461,3.0715 L 307.17091,221 h -0.92055 -0.92054 v -1.42054 -1.42055 l -3.07151,-0.67462 -3.0715,-0.67461 -0.52322,0.52322 -0.52323,0.52322 -0.15527,3.23582 -0.15527,3.23581 3.48987,0.92687 3.48986,0.92688 1.74657,-1.09075 L 308.30268,224 h 0.54875 0.54876 l -1.07037,2 -1.07037,2 -2.21481,-0.0814 -2.21482,-0.0814 z"
           id="path524" />
        <path
           style="fill:#d0d0d0;fill-opacity:1"
           d="m 179.96964,231.49623 0.57705,-1.50376 -2.33423,-6.61199 -2.33423,-6.61198 -1.85586,-0.68653 -1.85586,-0.68653 2.59164,-1.18083 2.59163,-1.18083 6.74002,4.10204 6.74002,4.10203 0.62892,0.36526 0.62891,0.36525 -2.03726,-5.53041 -2.03725,-5.53041 -1.34166,0.51485 -1.34166,0.51484 v -0.74938 -0.74937 l 3.18406,-1.20185 3.18405,-1.20185 0.53699,0.53698 0.53698,0.53699 -1.29957,0.80317 -1.29957,0.80318 3.05041,8.64245 3.0504,8.64245 h -0.53737 -0.53738 l -8.34494,-4.92898 -8.34495,-4.92899 2.00225,5.92899 2.00225,5.92898 h 1.40819 1.4082 v 0.88337 0.88337 l -2.25,0.60297 -2.25,0.60298 -0.71862,0.0137 -0.71861,0.0137 z"
           id="path523" />
        <path
           style="fill:#d0d0d0;fill-opacity:1"
           d="M 317.65159,232.67392 314.47336,231.5 313.73492,230.75 312.99649,230 h 1.69141 1.69142 l 1.07386,-2.75 1.07387,-2.75 -1.2091,-5 -1.20911,-5 -1.51395,-2.40474 -1.51396,-2.40475 1.87445,0.75703 1.87444,0.75703 2.84637,1.02913 2.84638,1.02914 -1.16909,0.72254 -1.16908,0.72253 0.684,3.64605 0.684,3.64604 h 0.75385 0.75385 l 2.58936,-2.03679 2.58936,-2.03679 -0.55497,-1.44621 -0.55496,-1.44622 3.1119,1.08482 3.11191,1.08482 -5.50151,3.64818 -5.50151,3.64819 -1.10026,3.2887 -1.10025,3.2887 1.21277,1.4613 1.21277,1.4613 -0.87245,-0.0761 -0.87244,-0.0761 z"
           id="path522" />
        <path
           style="fill:#d0d0d0;fill-opacity:1"
           d="m 342.24763,244 -0.0897,-0.5 -2.25273,-9.5 -2.25273,-9.5 -2.70927,5.31133 -2.70927,5.31133 0.61531,1.93867 0.61532,1.93867 -0.81739,-0.0222 -0.81735,-0.0223 -2.5,-1.95553 -2.5,-1.95553 1.7356,-0.0222 1.73561,-0.0222 3.09158,-6.12439 3.09159,-6.12439 -0.59263,-2.36121 -0.59262,-2.3612 2.52077,1.14854 2.52076,1.14854 0.9125,3.58705 0.91249,3.58706 0.69977,3.5 0.69977,3.5 0.53491,0.90127 0.53491,0.90126 2.25267,-4.40126 2.25266,-4.40127 -1.02761,-1.25 -1.02762,-1.25 h 1.07539 1.07539 l 2.54706,1.16052 2.54705,1.16051 v 0.8081 0.8081 l -1.44051,-0.55277 -1.4405,-0.55278 -2.58708,5.10534 -2.58707,5.10534 -1.96868,3.22882 -1.96868,3.22882 z"
           id="path521" />
        <path
           style="fill:#d0d0d0;fill-opacity:1"
           d="m 158.171,232.64805 0.34119,-11.14805 0.35551,-0.36336 0.35551,-0.36336 7.3033,6.01064 7.30331,6.01064 2,0.40634 2,0.40634 -4.39273,2.28952 -4.39273,2.28952 0.6601,-1.7202 0.6601,-1.72019 -1.72202,-1.25917 -1.72202,-1.25918 -3.29535,1.57144 -3.29535,1.57144 v 2.24147 2.24146 l 1.75,0.37363 1.75,0.37362 -3,1.59776 -3,1.59775 z m 5.25257,-0.69822 1.96227,-1.05018 -0.58371,-0.94445 -0.5837,-0.94445 -1.9443,-1.04056 -1.94431,-1.04056 V 229.96482 233 h 0.56574 0.56574 z"
           id="path520" />
        <path
           style="fill:#d0d0d0;fill-opacity:1"
           d="m 352.92308,250.12393 -6.90673,-4.62393 1.73577,-0.33855 1.73578,-0.33854 3.93315,-6.08536 3.93316,-6.08535 -0.63554,-2.0024 -0.63553,-2.00239 3.37334,2.19616 3.37334,2.19617 3.75,2.16427 3.75,2.16427 v 1.19342 1.19341 l -1.68723,1.37245 -1.68723,1.37244 0.64784,-1.72915 0.64785,-1.72915 -3.54056,-2.70051 -3.54056,-2.70052 -0.95354,1.42966 -0.95354,1.42967 -0.98331,1.71564 -0.98331,1.71563 2.95345,1.52729 2.95345,1.52729 1.58244,-0.60724 1.58245,-0.60725 -1.7691,3.108 -1.7691,3.10799 -0.71862,0.006 -0.71861,0.006 0.53212,-1.38669 0.53212,-1.38668 -2.95102,-2.10131 -2.95102,-2.10132 -0.9798,1.238 -0.9798,1.238 -1.12632,2.17237 -1.12633,2.17237 3.52454,2.17829 3.52453,2.17828 2.55289,-0.64074 2.5529,-0.64073 -0.63948,1.0347 -0.63949,1.03471 -1.6943,0.8793 -1.69431,0.87931 z"
           id="path519" />
        <path
           style="fill:#d0d0d0;fill-opacity:1"
           d="m 138.85797,253.2463 0.47666,-2.7463 -5.30294,-7.5 -5.30294,-7.5 -1.69947,0.29384 -1.69946,0.29383 v -0.49579 -0.4958 l 4.57028,-3.14443 4.57027,-3.14443 0.67973,0.73329 0.67972,0.7333 -1.25,0.44643 -1.25,0.44643 v 1.1087 1.1087 l 5.12608,7.80797 5.12607,7.80796 h 1.02953 1.02954 l 3.34439,-2.55089 3.34439,-2.55089 V 240.74911 237.6 l 0.92924,0.95 0.92923,0.95 0.65293,2.64543 0.65293,2.64543 -4.33217,2.9568 -4.33216,2.9568 -4.22426,2.64407 -4.22426,2.64406 z"
           id="path518" />
        <path
           style="fill:#d0d0d0;fill-opacity:1"
           d="m 296.32982,262 v -1 h 1 1 v -5.8 -5.8 l -1.18333,-1.18333 -1.18334,-1.18334 0.60798,-0.60797 0.60797,-0.60797 1.82536,0.5812 1.82536,0.5812 3.5,4.47225 3.5,4.47225 0.75,0.0378 0.75,0.0379 v -3.44098 -3.44099 l -1,-0.61803 -1,-0.61803 V 246.94098 246 h 2.5 2.5 v 1 1 h -1 -1 l -0.0433,7.25 -0.0433,7.25 -5.03791,-5.5 -5.03791,-5.5 0.41348,5.75 0.41348,5.75 h -2.33227 -2.33227 z"
           id="path517" />
        <path
           style="fill:#d0d0d0;fill-opacity:1"
           d="m 279.82982,262 -0.61803,-1 h 1.05901 1.05902 v -6.5 -6.5 h -1 -1 v -1 -1 h 7 7 v 2.2 2.2 l -1.2,-1.2 -1.2,-1.2 h -2.8 -2.8 v 2.5 2.5 h 2.3 2.3 l 1.2,-1.2 1.2,-1.2 v 3.4 3.4 l -1.2,-1.2 -1.2,-1.2 h -2.3 -2.3 v 3 3 h 2.92857 2.92857 l 1.57143,-1.57143 1.57143,-1.57143 v 1.37143 1.37143 l -1.2,1.2 -1.2,1.2 h -5.74098 -5.74099 z"
           id="path516" />
        <path
           style="fill:#d0d0d0;fill-opacity:1"
           d="m 261.82982,262 -0.61803,-1 h 1.05901 1.05902 v -6.5 -6.5 h -1.2 -1.2 l 1.12464,-1.12464 1.12464,-1.12464 5.55764,0.69438 5.55764,0.69438 2.01772,2.56512 2.01772,2.56512 v 2.25435 2.25436 l -1.75,2.16014 -1.75,2.16013 -4,0.9268 -4,0.92679 -2.19098,0.0238 -2.19099,0.0239 z m 10.27749,-2.5567 2.22251,-1.55671 v -3.11455 -3.11456 L 272.67483,249.82874 271.01984,248 h -2.34501 -2.34501 v 6.5 6.5 h 1.77749 1.7775 z"
           id="path515" />
        <path
           style="fill:#d0d0d0;fill-opacity:1"
           d="m 248.67692,260.24683 -0.58729,-2.33997 0.53907,-0.53908 0.53908,-0.53907 1.1162,2.08564 1.11621,2.08565 h 1.9058 1.9058 l 0.68681,-1.1113 0.68682,-1.11129 -4.1278,-3.77318 -4.1278,-3.77318 v -0.96054 -0.96053 l 1.80147,-1.63031 1.80147,-1.63031 3.19654,0.22532 3.19655,0.22532 -0.0298,2.5 -0.0298,2.5 -1.32844,-1.75 -1.32844,-1.75 h -2.13979 -2.13976 v 1.33246 1.33246 l 3.73637,2.41788 3.73637,2.41789 0.35128,1.82406 0.35129,1.82406 -1.76046,1.94528 -1.76046,1.94529 -3.35999,-0.22629 -3.36,-0.22628 z"
           id="path514" />
        <path
           style="fill:#d0d0d0;fill-opacity:1"
           d="m 232.32982,262.05902 v -0.94099 l 1,-0.61803 1,-0.61803 V 254.5 249.11803 l -1,-0.61803 -1,-0.61803 V 246.94098 246 h 6.5 6.5 v 2.2 2.2 l -1.2,-1.2 -1.2,-1.2 h -2.8 -2.8 v 2.5 2.5 h 2.91667 2.91666 l 0.50439,-1.25 0.50439,-1.25 0.0789,3.45 0.0789,3.45 -1.2,-1.2 -1.2,-1.2 h -2.3 -2.3 v 3 3 h 2.92857 2.92857 l 1.61905,-1.61905 1.61905,-1.61905 0.33582,0.36905 0.33582,0.36905 -0.85122,2.25 -0.85121,2.25 h -6.53214 -6.53222 z"
           id="path513" />
        <path
           style="fill:#d0d0d0;fill-opacity:1"
           d="m 214.32982,262 v -1 h 1 1 v -6.5 -6.5 h -1 -1 v -1 -1 l 3.75,0.0997 3.75,0.0997 2.5,0.69131 2.5,0.69132 0.33036,2.29147 0.33036,2.29147 -1.57269,1.7378 -1.57268,1.73779 2.95677,2.83277 2.95676,2.83276 -0.52345,0.84697 L 229.21179,263 h -0.98111 -0.98111 l -3.94741,-4.25 -3.94741,-4.25 -0.0125,3.25 -0.0124,3.25 h 1.05902 1.05901 l -0.61803,1 -0.61803,1 h -2.94099 -2.94098 z m 8.84839,-8.88514 1.3484,-0.85451 -0.35861,-1.88018 -0.35861,-1.88017 -2.23979,-0.31955 -2.23978,-0.31955 V 250.93045 254 l 1.25,-0.0153 1.25,-0.0153 z"
           id="path512" />
        <path
           style="fill:#d0d0d0;fill-opacity:1"
           d="M 191.32982,262.12921 V 261 h 1 1 v -8.41667 -8.41666 l -1.25,-0.50439 -1.25,-0.50439 6.79966,-0.0789 6.79966,-0.0789 2.86705,1.48261 2.86705,1.48261 1.13254,3.43163 1.13254,3.43164 -1.46459,3.50526 -1.46459,3.50527 -1.86541,0.99833 -1.86541,0.99834 -7.21925,0.71136 -7.21925,0.71128 z m 11.79962,-2.2092 3.09808,-1.08 1.08116,-3.27596 1.08117,-3.27597 -0.92584,-2.43514 -0.92584,-2.43513 -1.35417,-1.11183 -1.35418,-1.11183 -3,-0.34707 -3,-0.34708 -0.29913,6.90079 -0.29912,6.90078 0.51774,1.34922 0.51774,1.34921 h 0.88216 0.88216 z"
           id="path511" />
        <path
           style="fill:#b9b9b9;fill-opacity:1"
           d="m 230.90125,219.42857 -1.57143,-1.57143 v -1.75425 -1.75426 l 2.44866,-2.3004 2.44867,-2.3004 0.30133,-4.12392 0.30134,-4.12391 h 3.4863 3.48631 l 0.3542,1.83921 0.3542,1.83921 -2.12302,2.25985 -2.12302,2.25985 1.89562,2.34099 1.89562,2.34099 1.20629,-2.25397 1.20629,-2.25397 -1.19184,-1.43608 L 242.08493,207 h 3.13499 3.13499 l -2.57257,4.07521 -2.57257,4.07521 1.23582,1.48908 1.23582,1.48907 2.57421,-0.57955 2.5742,-0.57956 -2.33696,1.99598 -2.33696,1.99598 -2.68146,-1.38663 -2.68145,-1.38664 -1.92271,1.40593 L 236.94756,221 h -2.23744 -2.23744 z m 7.9273,-1.42652 0.61677,-0.99795 -1.77336,-3.00205 L 235.8986,211 h -0.7492 -0.74921 l -1.07037,2 -1.07037,2 1.07037,2 1.07037,2 h 1.9058 1.9058 z m 1.50127,-14.12449 V 202 h -1.44098 -1.44099 l -0.51078,0.82646 -0.51077,0.82646 0.5739,2.19461 0.57391,2.19462 1.37785,-1.14352 1.37786,-1.14352 z"
           id="path484" />
        <path
           style="fill:#b9b9b9;fill-opacity:1"
           d="m 279.64131,222.30233 -2.1885,-0.42532 1.9385,-1.9385 L 281.32982,218 v -3.45469 -3.45468 l -3.36901,-0.63203 -3.36901,-0.63203 -2.38099,0.33671 -2.38099,0.33672 -0.32289,3.96012 -0.32289,3.96011 1.76402,1.28989 1.76402,1.28988 -3.44113,-0.0997 -3.44113,-0.0997 -2.5,-0.80064 -2.5,-0.80064 1.75,-0.0997 1.75,-0.0997 0.036,-0.25 0.036,-0.25 1.29796,-9.84462 1.29796,-9.84463 -1.40538,-1.40537 -1.40538,-1.40538 2.82143,0.11831 2.82143,0.11832 3,0.67006 3,0.67006 -2.14149,0.58963 -2.14149,0.58963 -0.70779,4.18938 -0.70779,4.18938 0.34928,0.30742 0.34928,0.30741 5.75,0.69716 5.75,0.69715 v -4.99863 -4.99863 l -1.75,-0.45732 -1.75,-0.45733 3.5,0.002 3.5,0.002 3,0.76337 3,0.76337 -1.77475,0.11832 -1.77475,0.11831 -0.89343,2.34991 -0.89344,2.3499 -0.7008,8.03382 -0.7008,8.03382 1.86899,1.08587 1.86898,1.08586 -3.5,-0.10577 -3.5,-0.10577 z"
           id="path483" />
        <path
           style="fill:#b9b9b9;fill-opacity:1"
           d="m 200.2529,222.07692 -2.92308,-2.92307 V 215 210.84615 l 2.92308,-2.92307 2.92307,-2.92308 2.32693,-0.14157 2.32692,-0.14157 2.5,-0.10843 2.5,-0.10843 0.73469,1 0.73468,1 0.0153,1.93856 0.0153,1.93856 -2.131,-2.28736 -2.131,-2.28736 -3.119,0.61227 -3.119,0.61227 -1.25,1.67766 -1.25,1.67766 v 4.12031 4.12031 l 2.09018,2.24355 2.09019,2.24355 3.6515,-0.30499 3.6515,-0.30499 0.34687,-1.82909 0.34687,-1.8291 -0.60761,-2.4209 -0.60757,-2.42091 -1.73095,-0.11831 -1.73095,-0.11832 3,-0.76337 3,-0.76337 2,-0.103 2,-0.103 -1.38183,0.87518 -1.38184,0.87518 0.67498,3.59796 0.67499,3.59797 -3.29315,2.0078 -3.29315,2.0078 -3.82692,0.004 -3.82693,0.004 z"
           id="path482" />
        <path
           style="fill:#b9b9b9;fill-opacity:1"
           d="m 297.16141,226.13179 -5.6684,-1.63179 -0.74826,-0.75 -0.74826,-0.75 h 1.62812 1.62812 l 1.0948,-4.25 1.09479,-4.25 1.03408,-3.2887 1.03407,-3.2887 -1.12484,-1.35535 -1.12484,-1.35535 8.03452,2.01774 8.03451,2.01775 v 1.81729 1.81729 l -1,0.61803 -1,0.61803 v -1.58376 -1.58377 l -2.5651,-0.97525 L 304.19962,209 h -1.82649 -1.82649 l -0.6664,2.65514 -0.6664,2.65515 1.30799,0.8757 1.30799,0.8757 3.28134,-0.3337 3.28134,-0.33371 -0.53134,1.38465 -0.53134,1.38464 V 219.58179 221 h -1 -1 v -1.42054 -1.42055 l -3.07151,-0.67462 -3.0715,-0.67461 -0.52322,0.52322 -0.52323,0.52322 -0.15527,3.23582 -0.15527,3.23581 3.48987,0.92687 3.48986,0.92688 1.74657,-1.09075 L 308.30268,224 h 0.54875 0.54876 l -1.07037,2 -1.07037,2 -2.21481,-0.11821 -2.21482,-0.11821 z"
           id="path481" />
        <path
           style="fill:#b9b9b9;fill-opacity:1"
           d="m 179.95456,231.53553 0.56197,-1.46447 -2.19856,-6.60667 -2.19856,-6.60667 -2.1448,-0.82114 -2.14479,-0.82114 2.9438,-0.76477 2.9438,-0.76477 2.5562,1.46772 2.5562,1.46772 4.79121,2.8085 4.7912,2.8085 -2.0407,-5.36917 -2.0407,-5.36917 -5.1e-4,-0.17668 -5e-4,-0.17667 -1.73358,-0.33386 -1.73357,-0.33385 3.67174,-1.12689 3.67175,-1.1269 -1.02327,1.63851 -1.02327,1.63851 2.5851,6.86798 2.5851,6.86797 v 1.35499 1.355 l -5.25,-3.07157 -5.25,-3.07156 -3.20194,-1.95434 -3.20194,-1.95435 2.04374,6.05185 2.04375,6.05186 h 1.40819 1.4082 v 0.88337 0.88337 l -2.25,0.60297 -2.25,0.60298 -0.71862,0.0137 -0.71861,0.0137 z"
           id="path480" />
        <path
           style="fill:#b9b9b9;fill-opacity:1"
           d="m 319.32982,233.27747 -1.5,-0.56463 -2.5,-0.9594 -2.5,-0.95941 2.19481,-0.84437 2.19481,-0.84438 0.60157,-3.30264 0.60157,-3.30264 -1.42618,-4.5 -1.42617,-4.5 -0.70984,-1.70476 -0.70983,-1.70476 4.1285,1.62172 4.1285,1.62172 -1.11158,0.68699 -1.11158,0.687 0.684,3.64605 0.684,3.64604 h 0.75385 0.75385 l 2.58936,-2.03679 2.58936,-2.03679 -0.55497,-1.44621 -0.55496,-1.44622 3.09442,1.07873 3.09443,1.07872 -5.4489,3.58838 -5.4489,3.58839 -1.21392,2.93068 -1.21393,2.93067 1.17734,1.88522 1.17734,1.88522 -0.75848,-0.0789 -0.75847,-0.0789 z"
           id="path479" />
        <path
           style="fill:#b9b9b9;fill-opacity:1"
           d="m 341.98061,243 -0.52428,-1.5 -1.87878,-8.5 -1.87879,-8.5 -2.76713,5.37989 -2.76714,5.37989 0.48217,1.84382 0.48217,1.84383 -3.1495,-1.67341 -3.14951,-1.67342 1.77505,-0.37845 1.77506,-0.37845 3.05669,-6.05526 3.05669,-6.05527 -0.48813,-1.86658 L 335.51706,219 h 1.33495 1.33495 l 1.39034,1.39033 1.39033,1.39034 1.3415,7.10966 1.3415,7.10967 h 0.64033 0.64033 l 2.26063,-4.65306 2.26063,-4.65306 -1.31137,-0.83162 -1.31136,-0.83163 1.5,0.0201 1.5,0.0201 2.37324,1.31571 2.37324,1.3157 -2.05506,0.53741 -2.05506,0.53741 -3.98065,7.86145 -3.98065,7.86145 z"
           id="path478" />
        <path
           style="fill:#b9b9b9;fill-opacity:1"
           d="m 158.171,232.64805 0.34119,-11.14805 0.35252,-0.36038 0.35253,-0.36037 6.3375,5.36037 6.3375,5.36038 2.31417,1.51931 2.31416,1.5193 -3.66873,1.7495 -3.66873,1.74949 0.61719,-1.94458 0.61718,-1.94458 -1.73106,-0.96876 -1.73107,-0.96875 -3.31277,1.57975 -3.31276,1.57974 v 2.24147 2.24146 l 1.75,0.37363 1.75,0.37362 -3,1.59776 -3,1.59775 z m 5.28913,-0.71779 1.99882,-1.06974 -1.23232,-1.48486 -1.23232,-1.48485 -1.62244,-0.86831 -1.62245,-0.8683 0.39961,3.4229 0.3996,3.4229 h 0.45634 0.45633 z"
           id="path477" />
        <path
           style="fill:#b9b9b9;fill-opacity:1"
           d="m 352.39727,249.74165 -6.43255,-4.24024 1.69697,-0.32681 1.69697,-0.3268 4.04337,-5.95413 4.04337,-5.95414 -0.68113,-2.14606 -0.68113,-2.14606 3.37334,2.21505 3.37334,2.21505 3.7423,2.21125 3.7423,2.21124 0.008,1.12756 0.008,1.12755 -1.52289,1.26389 -1.52289,1.26389 0.59055,-1.53895 0.59054,-1.53895 -3.66679,-2.7968 -3.66679,-2.7968 -1.87863,2.44431 -1.87863,2.4443 -0.0222,0.72432 -0.0222,0.72432 2.93665,1.5186 2.93666,1.51861 1.58244,-0.60724 1.58245,-0.60725 -1.7691,3.108 -1.7691,3.10799 -0.71862,0.006 -0.71861,0.006 0.53212,-1.38669 0.53212,-1.38668 -2.98615,-2.12633 -2.98614,-2.12632 -2.07736,2.91738 -2.07803,2.91803 v 0.51407 0.51407 l 3.5309,2.18221 3.53089,2.18222 2.64374,-0.66354 2.64373,-0.66353 -1.29707,1.56288 -1.29708,1.56288 -1.62755,-0.009 -1.62756,-0.009 z"
           id="path476" />
        <path
           style="fill:#b9b9b9;fill-opacity:1"
           d="m 138.90031,253.57518 0.60532,-2.41178 -5.20382,-8.1123 -5.20383,-8.11229 -1.88408,0.59798 -1.88408,0.59799 v -0.43451 -0.4345 l 3.97856,-2.63288 L 133.28694,230 h 0.42782 0.42782 l -0.49895,1.90798 -0.49895,1.90798 5.12305,7.59202 5.12304,7.59202 h 1.12513 1.12514 l 3.34439,-2.55089 3.34439,-2.55089 V 240.74911 237.6 l 1.0398,1.0398 1.0398,1.0398 0.2102,2.71983 0.2102,2.71983 -8.26742,5.43385 -8.26741,5.43386 z"
           id="path475" />
        <path
           style="fill:#b9b9b9;fill-opacity:1"
           d="m 297.07982,261.33772 1.25,-0.50439 V 254.5 248.16667 l -1.25,-0.50439 -1.25,-0.50439 2.51972,-0.0789 2.51973,-0.0789 3.98027,5.03883 3.98028,5.03882 0.31487,-4.18971 0.31487,-4.18972 -1.31487,-0.8338 -1.31487,-0.83379 3,0.0636 3,0.0636 -1.25,0.50439 -1.25,0.50439 -0.0243,7.16666 -0.0243,7.16667 -5.43675,-6 -5.43675,-6 -0.039,4.55 -0.039,4.55 1.2,1.2 1.2,1.2 -2.95,-0.079 -2.95,-0.0789 z"
           id="path474" />
        <path
           style="fill:#b9b9b9;fill-opacity:1"
           d="m 280.82982,253.99574 v -8.0799 l 5.98996,0.29208 5.98995,0.29208 0.35711,2 0.35711,2 -1.29707,-1.25 -1.29706,-1.25 h -3.3 -3.3 v 2.63167 2.63167 l 4,-0.53651 4,-0.53652 v 2.60485 2.60484 l -1.2,-1.2 -1.2,-1.2 h -2.8 -2.8 v 3 3 h 3.42857 3.42857 l 1.67928,-1.67928 1.67928,-1.67928 -0.36819,1.92928 -0.36819,1.92928 -6.48966,0.28782 -6.48966,0.28782 z"
           id="path473" />
        <path
           style="fill:#b9b9b9;fill-opacity:1"
           d="m 262.07982,261.33772 1.25,-0.50439 V 254.5 248.16667 l -1.25,-0.50439 -1.25,-0.50439 6.29545,-0.0789 6.29546,-0.0789 2.56629,2.56629 2.56628,2.56629 -0.61475,3.18371 -0.61475,3.18371 -2.10778,1.75 -2.10777,1.75 -6.13921,-0.079 -6.13922,-0.0789 z m 10.42126,-1.99271 1.82874,-1.65499 v -3.27358 -3.27358 L 272.75839,249.57143 271.18696,248 h -2.42857 -2.42857 v 6.5 6.5 h 2.17126 2.17126 z"
           id="path472" />
        <path
           style="fill:#b9b9b9;fill-opacity:1"
           d="m 233.07982,261.33772 1.25,-0.50439 V 254.41667 248 h -1 -1 v -1 -1 h 6.5 6.5 l -0.0789,2.25 -0.0789,2.25 -0.50439,-1.25 -0.50439,-1.25 h -3.41675 -3.41667 v 2.5 2.5 h 2.91667 2.91666 l 0.50439,-1.25 0.50439,-1.25 v 3.5 3.5 l -0.50439,-1.25 -0.50439,-1.25 h -2.91666 -2.91667 v 3 3 h 3.45031 3.45031 l 1.01928,-1.75 1.01928,-1.75 0.0304,2.25 0.0304,2.25 -7.25,-0.079 -7.25,-0.0789 z"
           id="path471" />
        <path
           style="fill:#b9b9b9;fill-opacity:1"
           d="m 215.07982,261.33772 1.25,-0.50439 V 254.5 248.16667 l -1.25,-0.53288 -1.25,-0.53288 6.5,0.19954 6.5,0.19955 0.33036,2.33247 0.33036,2.33246 -1.55691,1.72036 -1.5569,1.72035 2.92018,3.19718 2.92017,3.19718 -2.19363,-0.0275 -2.19363,-0.0276 -2.5,-3.44494 -2.5,-3.44494 -0.75,-0.0275 -0.75,-0.0276 v 2.91667 2.91666 l 1.25,0.50439 1.25,0.50439 h -4 -4 z M 223.82982,251 v -2.5 l -2.25,-0.31955 -2.25,-0.31955 V 251 v 3.1391 l 2.25,-0.31955 2.25,-0.31955 z"
           id="path470" />
        <path
           style="fill:#b9b9b9;fill-opacity:1"
           d="m 192.75839,260.42857 1.57143,-1.57143 V 252.5 246.14286 L 192.75839,244.57143 191.18696,243 h 6.62109 6.62109 l 2.86705,1.48261 2.86705,1.48261 1.1133,3.37335 1.11331,3.37335 -0.96876,2.54801 -0.96875,2.54801 -2.24982,2.09603 L 205.9527,262 h -7.38287 -7.38287 z m 10.91411,-0.53884 2.43678,-1.11027 1.11027,-2.43678 1.11027,-2.43679 V 252.5 251.09411 l -1.14733,-2.51813 -1.14734,-2.51813 -3.33311,-1.10002 -3.33312,-1.10003 -1.01955,0.63012 -1.01955,0.63011 V 253.05902 261 h 1.95295 1.95294 z"
           id="path469" />
        <path
           style="fill:#b9b9b9;fill-opacity:1"
           d="m 248.84636,260.20988 -0.61388,-2.44588 0.46765,-0.46765 0.46765,-0.46764 1.1162,2.08564 1.11621,2.08565 h 2.46481 2.46482 v -1.22812 -1.22811 l -4.12364,-3.76938 -4.12363,-3.76937 1.4987,-2.25251 1.4987,-2.25251 3.62494,-0.0322 3.62493,-0.0322 -0.0318,2.53219 -0.0318,2.53219 -1.32844,-1.75 -1.32844,-1.75 h -2.13976 -2.13976 v 1.36711 1.36712 l 4,2.64707 4,2.64708 v 1.86336 1.86337 l -1.6148,1.34016 -1.61479,1.34016 -3.32,0.11016 -3.32,0.11016 z"
           id="path468" />
        <path
           style="fill:#a3a3a3;fill-opacity:1"
           d="m 230.89467,219.07166 -1.74512,-1.92833 0.61567,-1.93978 0.61566,-1.93978 1.97447,-1.78687 1.97447,-1.78688 v -3.22256 -3.22257 l 1.44496,-1.19921 1.44496,-1.19921 2.29482,0.32677 2.29483,0.32676 0.35072,1.83921 0.35072,1.83921 -2.12302,2.25985 -2.12302,2.25985 1.89562,2.34099 1.89562,2.34099 1.13331,-2.11761 1.13331,-2.11761 -0.6034,-1.57244 L 243.11584,207 h 2.76198 2.76198 l -1.40499,1.75 -1.40499,1.75 -1.30741,2.32836 -1.30741,2.32836 1.23321,1.48593 1.2332,1.48592 2.49884,-0.62717 2.49883,-0.62716 -1.29707,1.56288 L 248.08493,220 h -2.45448 -2.45448 l -2.74002,-2.75 -2.74003,-2.75 -1.12643,-2 -1.12644,-2 -1.73396,1.71306 -1.73396,1.71306 1.20989,2.65543 1.2099,2.65543 3.21745,-0.60083 3.21745,-0.60083 -1.94113,1.48234 L 236.94756,221 h -2.15388 -2.15388 z m 9.43515,-15.1941 V 202 h -1.44098 -1.44099 l -0.62356,1.00895 -0.62357,1.00895 0.64865,2.0437 0.64865,2.0437 1.4159,-1.1751 1.4159,-1.17509 z"
           id="path441" />
        <path
           style="fill:#a3a3a3;fill-opacity:1"
           d="m 280.1404,222.28959 -2.68943,-0.41074 1.93943,-1.93943 L 281.32982,218 v -3.43261 -3.43261 l -1.75,-0.51043 -1.75,-0.51042 -4,-0.30696 -4,-0.30697 -0.29939,5.16716 -0.29938,5.16717 1.79938,0.46683 1.79939,0.46684 -3.5,0.0163 -3.5,0.0163 -2.5,-0.8006 -2.5,-0.80064 1.64159,-0.0997 1.64159,-0.0997 0.53429,-2.25 0.53429,-2.25 0.65603,-6 0.65604,-6 0.45203,-1.64463 0.45203,-1.64463 -1.7754,-1.77539 -1.7754,-1.7754 3.99146,0.65902 3.99145,0.65902 1.44113,0.011 1.44113,0.011 -1.75746,1.28509 -1.75746,1.28508 -0.56534,4.21492 -0.56534,4.21491 2.38167,0.011 2.38167,0.011 3.63428,0.60106 3.63428,0.60106 0.40539,-4.25097 0.40539,-4.25096 -1.3611,-1.3611 -1.3611,-1.3611 h 1.94643 1.94643 l 3.14085,0.62817 3.14084,0.62817 -1.69889,1.24226 -1.69889,1.24226 -0.73257,5.87957 -0.73257,5.87957 -0.0844,4.17668 -0.0844,4.17667 1.75,0.45732 1.75,0.45733 -3,-0.0338 -3,-0.0338 z"
           id="path440" />
        <path
           style="fill:#a3a3a3;fill-opacity:1"
           d="m 200.78721,222.717 -2.65415,-2.28299 -0.51105,-4.53403 -0.51105,-4.53402 2.46373,-2.86425 2.46372,-2.86425 5.6157,-0.61812 5.61569,-0.61812 0.53001,1.38118 0.53001,1.38117 V 208.58179 210 l -2,-2 -2,-2 h -2.30887 -2.30887 l -1.69478,1.25 -1.69478,1.25 -0.83222,3 -0.83223,3 0.85849,3.22692 0.85848,3.22691 2.0236,1.083 2.02359,1.08299 3.2038,-0.30991 3.20379,-0.30991 0.304,-3.12457 0.30401,-3.12457 -1.52044,-1.52043 -1.52044,-1.52044 3.56862,-0.66948 3.56862,-0.66948 0.56448,0.56449 0.56448,0.56448 h -1.29447 -1.29448 l 0.64072,4.00685 0.64072,4.00684 -3.26291,1.98942 -3.26291,1.98941 -3.69424,0.004 -3.69423,0.004 z"
           id="path439" />
        <path
           style="fill:#a3a3a3;fill-opacity:1"
           d="M 297.65006,226.15329 291.4703,224.5 l -0.73691,-0.75 -0.7369,-0.75 h 1.59928 1.59927 l 0.51078,-1.75 0.51077,-1.75 1.64093,-5.79594 1.64093,-5.79595 -1.16095,-1.39886 -1.16096,-1.39887 7.82664,2.0928 7.82664,2.0928 0.34131,0.27665 0.3413,0.27665 -0.73283,2.30894 -0.73282,2.30893 -0.75212,-2.03315 -0.75211,-2.03315 -3.6604,-1.12341 -3.6604,-1.12341 -0.98678,2.59544 -0.98678,2.59543 0.54942,1.43176 0.54942,1.43177 4.0134,-0.38274 4.01339,-0.38274 -0.522,1.36031 -0.522,1.36031 V 219.58179 221 h -1 -1 v -1.42054 -1.42055 l -3.12492,-0.68635 -3.12492,-0.68634 -0.88413,1.35689 -0.88413,1.35689 0.25905,2.46817 0.25905,2.46818 3.27136,0.93261 3.27135,0.93261 2.51,-1.14363 2.51,-1.14364 -1.06654,1.99285 -1.06654,1.99285 -1.71481,-0.0967 -1.71482,-0.0967 z"
           id="path438" />
        <path
           style="fill:#a3a3a3;fill-opacity:1"
           d="m 179.95456,231.53553 0.56197,-1.46447 -2.19856,-6.60667 -2.19856,-6.60667 -2.1448,-0.82114 -2.14479,-0.82114 2.9438,-0.76477 2.9438,-0.76477 2.5562,1.46772 2.5562,1.46772 4.71461,2.76361 4.71462,2.76362 -1.5885,-4.82429 -1.58849,-4.82428 -1.41495,-1.13864 -1.41496,-1.13864 3.15038,-1.09822 3.15038,-1.09823 -1.23905,1.49296 -1.23905,1.49297 2.6275,7.40127 2.62751,7.40127 v 1.04161 1.04162 l -8.248,-4.86765 -8.24801,-4.86764 -0.23885,0.23885 -0.23885,0.23885 2.34226,5.92981 2.34225,5.92981 1.3946,-0.26448 1.3946,-0.26449 -1.94113,1.51449 L 181.94756,233 h -1.27748 -1.27749 z"
           id="path437" />
        <path
           style="fill:#a3a3a3;fill-opacity:1"
           d="m 316.82982,232.05472 -4,-1.89282 1.77475,-0.081 1.77475,-0.081 1.0627,-2.75 1.0627,-2.75 -1.19877,-5.5 -1.19877,-5.5 -1.01113,-1.25 -1.01112,-1.25 h 0.97322 0.97322 l 3.2456,1.13142 3.2456,1.13142 -1.22821,0.75908 -1.22821,0.75907 0.67715,3.6095 0.67715,3.60951 h 0.99518 0.99518 l 2.92024,-2.15903 2.92024,-2.15902 -0.62478,-1.01092 -0.62478,-1.01091 1.74583,0.66994 1.74583,0.66994 h 1.05753 1.05752 l -5.59425,3.68411 -5.59425,3.6841 -1.13584,2.74218 -1.13585,2.74217 0.65817,2.07372 0.65818,2.07372 -0.31739,-0.0262 -0.31739,-0.0262 z"
           id="path436" />
        <path
           style="fill:#a3a3a3;fill-opacity:1"
           d="m 158.14257,231.97005 0.31276,-11.01052 1.14006,0.7046 1.14006,0.7046 7.66902,6.19154 7.66902,6.19154 -3.26004,1.55461 -3.26005,1.5546 0.45773,-1.75036 0.45774,-1.75037 -1.48215,-1.23007 -1.48215,-1.23008 -3.58737,1.4989 -3.58738,1.49891 V 237.44897 240 h 1.7 1.7 l -0.95,0.88761 -0.95,0.8876 -2,0.60268 -2,0.60269 z m 5.62185,-0.29857 1.81686,-1.32852 -2.87573,-2.27131 -2.87573,-2.2713 -0.32908,2.17255 -0.32908,2.17255 0.54769,1.42728 0.5477,1.42727 h 0.84026 0.84025 z"
           id="path435" />
        <path
           style="fill:#a3a3a3;fill-opacity:1"
           d="m 341.88736,242 -0.63436,-2.5 -1.77331,-7.5 -1.77331,-7.5 -2.77095,5.37989 -2.77094,5.37989 0.48217,1.84382 0.48217,1.84383 -3.1495,-1.67341 -3.14951,-1.67342 1.77697,-0.37882 1.77697,-0.37882 3.33143,-6.67148 3.33142,-6.67148 -0.49484,-1.40935 -0.49485,-1.40935 1.71824,0.65935 1.71823,0.65935 h 0.3694 0.3694 l 1.71912,8 1.71911,8 h 0.63044 0.63043 l 2.21796,-4.56524 2.21797,-4.56524 -0.57772,-0.93476 -0.57771,-0.93476 0.80901,0.0318 0.80902,0.0318 1.77939,1.34993 1.77939,1.34993 -1.49482,0.57361 -1.49482,0.57362 -3.93862,7.79465 -3.93862,7.79465 z"
           id="path434" />
        <path
           style="fill:#a3a3a3;fill-opacity:1"
           d="m 352.32982,249.69192 -6.5,-4.19192 2,-0.32419 2,-0.32419 3.78455,-6.02928 3.78455,-6.02928 -0.63134,-1.98918 -0.63134,-1.98917 5.84679,3.69394 5.84679,3.69394 1.25978,1.1942 1.25978,1.1942 -1.51223,1.9545 -1.51224,1.95451 0.55755,-1.61475 0.55754,-1.61475 -3.13182,-2.63525 L 362.17637,234 h -0.80827 -0.80826 l -1.73818,2.65279 -1.73817,2.6528 2.37316,1.85455 2.37317,1.85456 1.75,-0.41373 1.75,-0.41373 v 0.47212 0.47212 l -0.9961,1.86124 -0.9961,1.86123 -3.13342,-3.13342 -3.13342,-3.13342 -2.36551,2.95645 -2.36552,2.95644 -0.005,0.66844 -0.005,0.66844 3.5309,2.18221 3.53089,2.18222 2.71911,-0.61599 2.7191,-0.616 -1.94113,1.51534 -1.94113,1.51534 -1.05887,-0.0581 -1.05887,-0.0581 z"
           id="path433" />
        <path
           style="fill:#a3a3a3;fill-opacity:1"
           d="M 138.32982,255.20653 V 254.4 l 1.02015,-1.02015 1.02014,-1.02014 -5.64138,-8.70877 -5.64139,-8.70876 -1.87876,0.5963 -1.87876,0.5963 v -0.43451 -0.4345 l 3.97856,-2.63288 L 133.28694,230 h 0.42782 0.42782 l -0.49895,1.90798 -0.49895,1.90798 5.12305,7.59202 5.12304,7.59202 h 1.3928 1.3928 l 3.07672,-2.58889 3.07673,-2.5889 V 241.41111 239 h 1 1 v 1.41821 1.41822 l 0.53934,1.40549 0.53934,1.4055 -8.53934,5.68282 -8.53934,5.68282 z"
           id="path432" />
        <path
           style="fill:#a3a3a3;fill-opacity:1"
           d="m 297.07982,261.33772 1.25,-0.50439 V 254.5 248.16667 l -1.25,-0.50439 -1.25,-0.50439 2.5,-0.0388 2.5,-0.0388 4,5.08007 4,5.08007 0.31487,-4.27106 0.31487,-4.27107 -1.31487,-0.8338 -1.31487,-0.83379 3,0.0636 3,0.0636 -1.25,0.50439 -1.25,0.50439 -0.0243,7.16666 -0.0243,7.16667 -5.43675,-6 -5.43675,-6 -0.039,5.16667 -0.039,5.16666 1.25,0.50439 1.25,0.50439 h -3 -3 z"
           id="path431" />
        <path
           style="fill:#a3a3a3;fill-opacity:1"
           d="M 280.82982,254.53999 V 247 h 6.25 6.25 v 1.7 1.7 l -1.2,-1.2 -1.2,-1.2 h -3.3 -3.3 v 2.63167 2.63167 l 4,-0.53651 4,-0.53652 V 254 v 1.80969 l -4,-0.53652 -4,-0.53651 V 257.86833 261 h 3.95031 3.95031 l 1.08652,-1.75 1.08652,-1.75 -0.29717,2 -0.29717,2 -6.48966,0.28999 -6.48966,0.28999 z"
           id="path430" />
        <path
           style="fill:#a3a3a3;fill-opacity:1"
           d="M 262.82982,254.5 V 247 h 5.02749 5.0275 l 2.10824,1.47667 2.10824,1.47667 0.63548,2.53196 0.63549,2.53196 -1.48424,2.87019 -1.48423,2.87019 -1.61877,0.62118 L 272.16625,262 h -4.66822 -4.66821 z m 9.92857,4.92857 1.57143,-1.57143 0.11515,-1.67857 0.11516,-1.67857 -0.18777,-2 -0.18776,-2 -1.61852,-1.25 -1.61852,-1.25 h -2.30887 -2.30887 v 6.5 6.5 h 2.42857 2.42857 z"
           id="path429" />
        <path
           style="fill:#a3a3a3;fill-opacity:1"
           d="m 233.1711,261.14906 1.34129,-0.87993 -0.34129,-6.63666 -0.34128,-6.63667 5.75,0.002 5.75,0.002 -0.0789,1.75 -0.0789,1.75 -0.50439,-1.25 -0.50439,-1.25 h -3.91675 -3.91667 v 2.60504 2.60503 l 4,-0.38146 4,-0.38146 -0.0789,2.52642 -0.0789,2.52643 -0.50439,-1.25 -0.50439,-1.25 h -3.48309 -3.48308 l 0.31642,2.75 0.31642,2.75 3.31532,0.31823 3.31533,0.31823 1.5973,-1.31823 1.59729,-1.31823 -0.49232,1.5 -0.49231,1.5 -6.92031,0.26449 -6.9203,0.26449 z"
           id="path428" />
        <path
           style="fill:#a3a3a3;fill-opacity:1"
           d="m 215.1711,261.11925 1.34129,-0.85012 -0.34129,-6.63666 -0.34128,-6.63667 4.55,0.002 4.55,0.002 1.2,1.2 1.2,1.2 v 1.83138 1.83139 l -1.5,0.5756 -1.5,0.57561 v 0.78725 0.78726 l 2.90121,3.10575 2.90121,3.10576 h -1.79762 -1.79762 l -3.07304,-3.5 -3.07304,-3.5 h -0.63995 -0.63996 l 0.4086,3.5 0.40861,3.5 -3.0492,-0.0153 -3.0492,-0.0153 z M 223.82982,251 v -2.5 l -2.25,-0.31955 -2.25,-0.31955 V 251 v 3.1391 l 2.25,-0.31955 2.25,-0.31955 z"
           id="path427" />
        <path
           style="fill:#a3a3a3;fill-opacity:1"
           d="m 192.57982,260.9199 1.75,-1.01928 V 252.5 245.09938 l -1.75,-1.01928 -1.75,-1.01928 6.79966,-0.0304 6.79966,-0.0304 2.82916,1.46301 2.82916,1.46302 0.62118,1.61877 0.62118,1.61877 v 3.82932 3.82932 l -3.07673,2.5889 -3.07672,2.58889 -7.17328,-0.0304 -7.17327,-0.0304 z m 13.54015,-2.64707 1.29671,-1.77283 0.56985,-2.26941 0.56985,-2.26941 -1.2166,-2.93714 -1.2166,-2.93713 -3.37713,-1.11456 -3.37713,-1.11455 -1.01955,0.63012 -1.01955,0.63011 v 8.07183 8.07182 l 3.74672,-0.608 3.74672,-0.60801 z"
           id="path426" />
        <path
           style="fill:#a3a3a3;fill-opacity:1"
           d="m 251.32982,262.27111 -1.5,-0.571 -0.73469,-1.10005 -0.73468,-1.10006 -0.0153,-1.20455 -0.0153,-1.20454 2.44447,2.44447 2.44447,2.44447 1.55553,-0.59691 1.55553,-0.59692 -0.0124,-1.64301 -0.0124,-1.64301 -3.48762,-2.25919 -3.48761,-2.2592 v -2.45562 -2.45562 l 1.97948,-1.05939 1.97948,-1.05938 2.52052,0.63261 2.52052,0.63261 V 249.10841 251 l -1.97732,-1.97732 -1.97732,-1.97732 -1.52268,0.58431 -1.52268,0.58431 v 1.31145 1.31145 l 3.44837,2.13121 3.44837,2.13121 0.67866,2.13828 0.67867,2.13827 -2.23782,1.81208 -2.23782,1.81207 -1.13921,-0.079 -1.13922,-0.0789 z"
           id="path425" />
        <path
           style="fill:#8c8c8c;fill-opacity:1"
           d="m 230.89467,219.07166 -1.74512,-1.92833 0.64925,-2.04558 0.64924,-2.04558 2.19089,-1.77608 2.19089,-1.77609 -0.32226,-2.81047 -0.32226,-2.81047 1.23667,-1.49009 1.23666,-1.49009 2.57704,0.30056 2.57705,0.30056 0.34905,1.83921 0.34906,1.83921 -2.12302,2.25985 -2.12302,2.25985 2.0122,2.40094 2.0122,2.40094 1.04399,-1.5 1.04399,-1.5 -0.38501,-2.25 -0.385,-2.25 h 2.3312 2.33119 l -2.46987,3.63955 -2.46986,3.63954 v 1.3414 1.34141 l 2.44316,0.61319 2.44317,0.6132 1.30683,-0.78611 1.30684,-0.7861 -1.37244,1.69196 L 248.08493,220 h -2.42301 -2.42301 l -2.23438,-2.25 -2.23437,-2.25 -1.71679,-2.46767 -1.71678,-2.46767 -1.68073,1.68073 -1.68073,1.68073 1.20989,2.65543 1.2099,2.65543 3.21745,-0.60083 3.21745,-0.60083 -1.94113,1.48234 L 236.94756,221 h -2.15388 -2.15388 z m 9.43515,-15.1941 V 202 h -1.44098 -1.44099 l -0.62356,1.00895 -0.62357,1.00895 0.64865,2.0437 0.64865,2.0437 1.4159,-1.1751 1.4159,-1.17509 z"
           id="path398" />
        <path
           style="fill:#8c8c8c;fill-opacity:1"
           d="m 279.82982,222 -3,-0.76337 1.73095,-0.11832 1.73095,-0.11831 0.59713,-2.37917 0.59713,-2.37917 -0.32808,-2.87083 -0.32808,-2.87083 -5,-0.60787 -5,-0.60787 -0.75,0.41689 -0.75,0.41688 v 4.85765 4.85765 l 1.25,0.50439 1.25,0.50439 -2.5,-0.0394 -2.5,-0.0394 -3,-0.76337 -3,-0.76337 1.73095,-0.11832 1.73095,-0.11831 0.4605,-2.25 0.46051,-2.25 1.0884,-7.99158 1.0884,-7.99159 -1.77985,-1.37838 -1.77986,-1.37839 4,0.60897 4,0.60896 1.44113,0.011 1.44113,0.011 -1.75746,1.28509 -1.75746,1.28508 -0.54797,4.08541 -0.54797,4.08541 5.69849,0.71198 5.69849,0.71198 0.27427,-0.33247 0.27427,-0.33248 0.57747,-3.74264 0.57748,-3.74263 -1.50736,-1.50737 -1.50737,-1.50736 2.32143,0.11831 2.32143,0.11832 3,0.76337 3,0.76337 -1.75,0.11832 -1.75,0.11838 -0.036,0.25 -0.036,0.25 -1.28363,9.73284 -1.28364,9.73283 0.56963,0.86722 0.56962,0.86722 1.5,0.571 1.5,0.571 -3,-0.0394 -3,-0.0394 z"
           id="path397" />
        <path
           style="fill:#8c8c8c;fill-opacity:1"
           d="m 202.63218,223.98821 -2.19764,-0.88502 -1.55236,-3.00194 -1.55236,-3.00193 V 215 212.90068 l 1.46301,-2.82916 1.46302,-2.82916 1.78698,-0.76357 1.78699,-0.76357 4.75,-0.67833 4.75,-0.67833 v 0.73893 0.73894 l 0.61432,1.60088 0.61432,1.60089 -3.03304,-1.74073 -3.03304,-1.74072 -2.82896,0.99489 -2.82895,0.99489 -1.33129,2.77763 -1.33128,2.77764 1.32896,4.19154 1.32896,4.19155 2.75,1.31212 2.75,1.31212 2.75,-1.32379 2.75,-1.32379 -0.32223,-2.98077 -0.32223,-2.98078 -1.6189,-1.25 -1.6189,-1.25 h 2.10934 2.10935 l 1.33178,-0.51014 1.33179,-0.51013 -0.035,4.70422 -0.035,4.70423 -2.96503,1.80065 -2.96504,1.80064 -3,-0.0581 -3,-0.0581 z"
           id="path396" />
        <path
           style="fill:#8c8c8c;fill-opacity:1"
           d="m 297.45719,225.96761 -6.37263,-1.87953 -0.54404,-0.54404 L 289.99649,223 h 1.58911 1.58912 l 1.0213,-3.25 1.0213,-3.25 1.11535,-4.32633 1.11534,-4.32633 -1.11625,-1.34501 -1.11626,-1.34501 7.80716,2.09976 7.80716,2.09975 0.37354,0.27846 0.37354,0.27845 -0.65106,1.69663 -0.65106,1.69662 -1.22248,-1.65714 -1.22248,-1.65715 -3.29709,-0.94005 -3.29709,-0.94005 -1.08437,2.37993 -1.08437,2.37993 0.54931,1.43149 0.54932,1.43149 2.83214,0.54362 2.83215,0.54362 1.113,-0.92008 1.113,-0.92009 -0.48382,2.53092 -0.48381,2.53092 -1.28227,-1.06418 -1.28226,-1.06419 -3.00005,-0.8604 -3.00005,-0.86041 -0.99201,3.90821 -0.99201,3.9082 0.65276,0.40343 0.65275,0.40342 3.63709,0.68232 3.63709,0.68232 2.15102,-1.15119 2.15103,-1.1512 -1.28628,2.05966 -1.28627,2.05966 -1.50946,-0.0764 -1.50945,-0.0764 z"
           id="path395" />
        <path
           style="fill:#8c8c8c;fill-opacity:1"
           d="m 180.01888,231.97333 1.18907,-1.25146 -2.46911,-6.61093 -2.4691,-6.61094 -1.45442,-1.09888 -1.45441,-1.09887 0.65112,-0.65113 L 174.66315,214 h 1.85321 1.8532 l 3.73013,2.34965 3.73013,2.34964 3.18694,1.64343 3.18694,1.64342 -1.56082,-4.74307 -1.56082,-4.74307 -1.40551,-1.13173 -1.40551,-1.13174 1.61118,-0.61826 L 189.49339,209 h 0.88683 0.88683 l -0.4873,1.2699 -0.48731,1.26989 2.51654,7.39893 2.51653,7.39892 -0.45776,0.45777 -0.45777,0.45776 -7.76016,-4.57317 -7.76016,-4.57317 -0.3459,0.3459 -0.3459,0.34589 2.37277,5.85069 2.37276,5.85069 1.44321,-0.32143 1.44322,-0.32143 -1,0.95904 -1,0.95903 -2.5,0.72479 -2.5,0.72479 z"
           id="path394" />
        <path
           style="fill:#8c8c8c;fill-opacity:1"
           d="m 316.86014,232.09992 -3.96969,-1.75176 2.17415,-0.56855 2.17414,-0.56855 0.69385,-2.7645 0.69384,-2.7645 -1.27715,-5.09103 -1.27714,-5.09103 -0.99361,-1.25 -0.9936,-1.25 h 1.00764 1.00763 l 3.30565,1.38992 3.30566,1.38993 -1.50258,0.36007 -1.50259,0.36008 1.06174,4.2921 1.06174,4.2921 3.5,-2.61115 3.5,-2.61116 -0.29089,-1.05362 -0.2909,-1.05363 1.62268,0.62268 1.62268,0.62268 1.16822,0.0228 1.16821,0.0228 -3,1.50995 -3,1.50995 -3.44727,2.85252 -3.44727,2.85252 -0.0527,4.11159 -0.0527,4.11159 v -0.071 -0.071 z"
           id="path393" />
        <path
           style="fill:#8c8c8c;fill-opacity:1"
           d="m 158.14263,231.97867 0.31281,-11.02541 2.68719,1.96279 2.68719,1.96278 5.49291,4.56059 5.49291,4.56058 1.00709,0.0354 1.00709,0.0354 -2.5,1.42913 -2.5,1.42913 -0.75,0.0354 -0.75,0.0355 v -1.37756 -1.37755 l -1.54803,-1.28475 -1.54803,-1.28476 -3.5574,1.69641 -3.55739,1.6964 0.40128,3.43725 0.40128,3.43726 -1.37764,0.52865 -1.37764,0.52865 -0.16822,0.002 -0.16821,0.002 z m 7.10575,-0.5639 0.42266,-0.42266 -2.34492,-2.49605 L 160.98119,226 h -0.82568 -0.82569 v 3.60841 3.60841 l 2.74795,-0.6897 2.74795,-0.68969 z"
           id="path392" />
        <path
           style="fill:#8c8c8c;fill-opacity:1"
           d="M 342.03259,242.45844 341.46828,240.5 339.79867,232.75 338.12906,225 h -0.38278 -0.38277 l -2.59951,5.12989 -2.59951,5.12989 0.48217,1.84382 0.48217,1.84383 -2.8995,-1.4994 -2.89951,-1.49939 V 235.47432 235 l 1.21955,0.25 1.21955,0.25 3.67667,-6.93868 3.67666,-6.93867 -0.50321,-1.31133 L 336.11584,219 h 1.08394 1.08393 l 1.44489,2.25 1.44489,2.25 1.21306,6.27435 1.21306,6.27436 0.71111,0.43948 0.7111,0.43949 2.27669,-4.86082 2.27668,-4.86082 -0.68639,-1.11061 -0.68639,-1.11061 2.61269,1.19043 2.61269,1.19042 -1.56694,0.8769 -1.56694,0.87691 -3.8485,7.6487 -3.8485,7.6487 z"
           id="path391" />
        <path
           style="fill:#8c8c8c;fill-opacity:1"
           d="m 352.89853,249.90764 -5.93129,-3.93689 -0.53823,-0.53823 -0.53823,-0.53823 1.59298,0.61129 1.59297,0.61128 4.21356,-6.67169 4.21355,-6.6717 -0.4637,-1.77321 -0.46371,-1.77321 6.39305,4.00843 6.39305,4.00842 0.41766,0.6758 0.41766,0.67579 -0.9187,1.45226 -0.9187,1.45225 -0.0153,-1.66844 -0.0153,-1.66844 -3.62562,-2.24076 -3.62561,-2.24075 -1.85215,2.40919 -1.85215,2.4092 -0.0222,0.63499 -0.0222,0.63499 2.46482,1.61501 2.46481,1.61501 h 1.57037 1.57037 l -1.24144,2.25 -1.24144,2.25 -0.32963,-1.55559 -0.32963,-1.55559 -3.03335,-1.79184 -3.03335,-1.79185 -0.23342,0.34744 -0.23343,0.34743 -1.7389,2.77825 -1.7389,2.77824 0.60497,0.97887 0.60497,0.97886 3.0443,1.57427 3.04429,1.57426 2.64229,-0.59671 2.6423,-0.59672 -1.94113,1.51534 -1.94113,1.51534 -1.05887,-0.0777 -1.05887,-0.0777 z"
           id="path390" />
        <path
           style="fill:#8c8c8c;fill-opacity:1"
           d="m 139.20693,253.64807 1.12201,-1.35193 -5.6208,-8.67698 -5.6208,-8.67698 -1.87876,0.5963 -1.87876,0.5963 v -0.43451 -0.4345 l 3.97856,-2.63288 L 133.28694,230 h 0.42782 0.42782 l -0.49895,1.90798 -0.49895,1.90798 5.12305,7.59202 5.12304,7.59202 h 1.45375 1.45375 l 3.06486,-2.75 3.06486,-2.75 0.16372,-2.25 0.16372,-2.25 h 0.78719 0.7872 v 1.41821 1.41822 l 0.54682,1.42497 0.54681,1.42498 -7.85478,5.15681 L 139.71389,255 h -0.81448 -0.81448 z"
           id="path389" />
        <path
           style="fill:#8c8c8c;fill-opacity:1"
           d="m 297.07982,261.33772 1.25,-0.50439 V 254.5 248.16667 l -1.25,-0.50439 -1.25,-0.50439 2.15997,-0.0789 2.15996,-0.0789 4.63749,5.25 4.63748,5.25 -0.29745,-5.25062 -0.29745,-5.25062 1,-0.002 1,-0.002 -0.3377,7.75103 -0.3377,7.75103 -2.1623,-2.52353 -2.1623,-2.52353 -3.25,-3.95301 -3.25,-3.95302 v 5.64451 5.64451 l 1.25,0.50439 1.25,0.50439 h -3 -3 z"
           id="path388" />
        <path
           style="fill:#8c8c8c;fill-opacity:1"
           d="m 281.28674,260.55191 1.28382,-1.54691 -0.43418,-6.0025 L 281.7022,247 h 5.81381 5.81381 l -0.079,1.75 -0.0789,1.75 -0.50439,-1.25 -0.50439,-1.25 h -3.98309 -3.98308 l 0.31642,2.75 0.31642,2.75 3.25,-0.14745 3.25,-0.14745 v 1.19665 1.19665 l -3.5,-0.40861 -3.5,-0.4086 v 3.1094 V 261 h 3.95031 3.95031 l 1.08652,-1.75 1.08652,-1.75 -0.29717,2 -0.29717,2 -6.90311,0.29942 -6.90312,0.29941 z"
           id="path387" />
        <path
           style="fill:#8c8c8c;fill-opacity:1"
           d="M 262.82982,254.5 V 247 h 5.13922 5.13921 l 2.05061,1.75 2.05061,1.75 0.17533,2 0.17533,2 -0.11516,1.71104 -0.11515,1.71105 -2.18856,2.03895 L 272.9527,262 h -5.06144 -5.06144 z m 10.00887,5.11717 1.89113,-1.38283 V 254.5 250.76566 L 272.83869,249.38283 270.94756,248 h -2.30887 -2.30887 v 6.5 6.5 h 2.30887 2.30887 z"
           id="path386" />
        <path
           style="fill:#8c8c8c;fill-opacity:1"
           d="m 233.1711,261.14906 1.34129,-0.87993 -0.34129,-6.63666 -0.34128,-6.63667 5.75,0.002 5.75,0.002 -0.0789,1.75 -0.0789,1.75 -0.50439,-1.25 -0.50439,-1.25 h -3.91675 -3.91667 v 2.53138 2.53139 l 1.56377,0.60007 1.56377,0.60008 2.43623,-1.11002 2.43623,-1.10982 v 1.75498 1.75499 l -4,-0.38146 -4,-0.38146 V 257.89496 261 h 3.8 3.8 l 1.325,-1.25 1.325,-1.25 -0.4547,1.5 -0.45469,1.5 -6.92031,0.26449 -6.9203,0.26449 z"
           id="path385" />
        <path
           style="fill:#8c8c8c;fill-opacity:1"
           d="M 215.82982,254.5 V 247 h 4.55 4.55 l 1.2,1.2 1.2,1.2 v 1.75031 1.75031 l -1.69557,0.94889 -1.69558,0.94889 2.74647,3.6008 2.74646,3.6008 h -1.4473 -1.4473 l -3.07304,-3.5 -3.07304,-3.5 h -0.63995 -0.63996 l 0.4086,3.5 0.40861,3.5 h -2.0492 -2.0492 z m 8,-3.5 v -2.5 l -2.25,-0.31955 -2.25,-0.31955 V 251 v 3.1391 l 2.25,-0.31955 2.25,-0.31955 z"
           id="path384" />
        <path
           style="fill:#8c8c8c;fill-opacity:1"
           d="m 192.57982,260.9199 1.75,-1.01928 V 252.5 245.09938 l -1.75,-1.01928 -1.75,-1.01928 7.17327,-0.0304 7.17328,-0.0304 3.07672,2.58889 3.07673,2.5889 v 4.32221 4.32221 l -3.07673,2.5889 -3.07672,2.58889 -7.17328,-0.0304 -7.17327,-0.0304 z m 11.20283,-0.90197 2.58304,-0.98206 1.04841,-2.75753 1.04841,-2.75753 -0.61119,-3.25791 -0.61119,-3.25792 -2.9055,-1.50249 L 201.42914,244 h -2.04966 -2.04966 v 8.5 8.5 h 1.9349 1.9349 z"
           id="path383" />
        <path
           style="fill:#8c8c8c;fill-opacity:1"
           d="m 251.68176,262.22554 -2.14807,-0.33793 -0.50796,-1.94247 -0.50797,-1.94247 2.46985,1.94279 2.46986,1.94279 1.43617,-0.55112 1.43618,-0.55111 v -1.79423 -1.79424 l -3.5,-2.06505 -3.5,-2.06505 v -2.49854 -2.49854 l 1.76064,-0.94227 1.76065,-0.94227 2.73935,0.52366 2.73936,0.52366 V 249.11658 251 l -2.0625,-2.0625 -2.0625,-2.0625 -1.1875,0.39537 -1.1875,0.39536 -0.32167,1.65857 -0.32168,1.65857 3.52733,2.08118 3.52734,2.08118 0.62696,1.97537 0.62696,1.97538 -1.11538,1.34394 -1.11538,1.34395 -1.71724,0.3898 -1.71724,0.38979 z"
           id="path382" />
        <path
           style="fill:#767676;fill-opacity:1"
           d="m 230.73786,218.5 -1.63806,-2.5 1.67328,-2.55374 1.67327,-2.55375 1.26291,-0.48462 1.26291,-0.48463 -0.43602,-2.97079 -0.43602,-2.97079 1.23729,-1.49084 L 236.57471,201 h 2.40894 2.40894 l 0.54562,1.42186 0.54562,1.42186 -1.11219,2.07814 L 240.25945,208 h -1.16481 -1.16482 l 1.2,-1.2 1.2,-1.2 v -1.8 -1.8 h -2 -2 v 1.37788 1.37787 l 1.44222,3.45173 1.44223,3.45173 1.63399,1.35609 1.63399,1.3561 0.94746,-1.4357 0.94746,-1.4357 -0.38501,-2.25 -0.385,-2.25 h 2.3312 2.33119 l -2.46987,3.63955 -2.46986,3.63954 v 1.3414 1.34141 l 2.44316,0.61319 2.44317,0.6132 1.30683,-0.78611 1.30684,-0.7861 -1.37244,1.69196 L 248.08493,220 h -2.17755 -2.17756 l -1.02927,-1.02927 -1.02927,-1.02927 -2.92073,1.52311 -2.92073,1.52311 -1.72695,0.006 -1.72694,0.006 z m 8.56576,-0.46264 1.47379,-0.93202 -2.47379,-2.80267 -2.4738,-2.80267 -0.22583,-0.3925 -0.22584,-0.3925 -1.52416,1.26494 -1.52417,1.26495 v 1.67755 1.67756 l 1.2,1.2 1.2,1.2 1.55,-0.0153 1.55,-0.0153 z"
           id="path355" />
        <path
           style="fill:#767676;fill-opacity:1"
           d="m 280.32982,222 -3.5,-0.73672 1.64301,-0.13164 1.64301,-0.13164 0.60699,-1.58179 0.60699,-1.58178 v -3.3592 -3.3592 l -0.75,-0.45442 -0.75,-0.45443 -4.99727,-0.35459 -4.99728,-0.35459 -0.58301,4.34828 -0.58301,4.34829 1.48639,1.4864 1.4864,1.4864 -4.90611,-0.71282 -4.90611,-0.71281 -0.41667,-0.37187 L 260.99649,219 h 1.64761 1.64762 l 0.49648,-2.25 0.49649,-2.25 1.04669,-7.99578 1.04668,-7.99578 -1.77412,-1.3307 -1.77412,-1.33071 5,0.70462 5,0.70461 0.41667,0.37187 0.41666,0.37187 h -1.55003 -1.55004 l -0.60297,2.25 -0.60298,2.25 -0.0137,2.61916 -0.0136,2.61916 3.75,0.61983 3.75,0.61984 2.11833,0.011 2.11833,0.011 0.59098,-4.25 0.59099,-4.25 -1.70932,-1.32648 -1.70931,-1.32649 5,0.70462 5,0.70461 0.41667,0.37187 0.41666,0.37187 h -1.59928 -1.59927 l -0.49543,1.75 -0.49543,1.75 -0.64392,6.5 -0.64392,6.5 -0.46198,1.64463 -0.46199,1.64463 1.60537,1.60537 1.60538,1.60537 -1.82143,-0.13164 -1.82143,-0.13164 z"
           id="path354" />
        <path
           style="fill:#767676;fill-opacity:1"
           d="m 202.43989,223.60449 -2.38993,-1.32463 -1.32463,-2.38993 -1.32464,-2.38993 -0.0354,-2.29966 -0.0354,-2.29966 1.46301,-2.82916 1.46302,-2.82916 1.78698,-0.76357 1.78699,-0.76357 4.75,-0.67833 4.75,-0.67833 v 0.73893 0.73894 l 0.61432,1.60088 0.61432,1.60089 -3.03304,-1.74073 -3.03304,-1.74072 -2.82896,0.99489 -2.82895,0.99489 -1.40265,2.92654 -1.40266,2.92653 1.40033,4.03993 1.40033,4.03993 2.82471,1.35064 2.82471,1.35065 2.8798,-1.19285 2.87979,-1.19285 -0.57808,-3.14753 -0.57808,-3.14752 -1.56756,-1.25 -1.56755,-1.25 h 2.10934 2.10935 l 1.33178,-0.51014 1.33179,-0.51013 -0.0206,4.76013 -0.0206,4.76014 -3.47941,1.74845 -3.4794,1.74844 -2.5,-0.0339 -2.5,-0.0339 z"
           id="path353" />
        <path
           style="fill:#767676;fill-opacity:1"
           d="m 298.32982,226.21681 -5.5,-1.55039 -0.3925,-0.30905 -0.3925,-0.30904 0.97733,-1.27416 0.97734,-1.27417 1.76036,-6.69145 1.76037,-6.69146 L 296.866,207.05855 296.21179,206 h 0.66467 0.66467 l 6.13506,1.58975 6.13506,1.58976 0.71561,0.44227 0.71561,0.44227 -0.60532,1.57743 -0.60531,1.57744 -0.87867,-1.57009 -0.87867,-1.5701 -3.66611,-1.01226 -3.66611,-1.01226 -0.40096,0.40096 -0.40096,0.40095 -0.15527,3.22745 -0.15527,3.22744 2.94039,0.80893 2.94039,0.80893 1.17261,-0.97318 1.17261,-0.97318 -0.48382,2.53092 -0.48381,2.53092 -1.28227,-1.06418 -1.28226,-1.06419 -3.00005,-0.8604 -3.00005,-0.86041 -0.99201,3.90821 -0.99201,3.9082 0.74052,0.45767 0.74052,0.45767 4.1492,0.66348 4.1492,0.66348 1.66608,-1.37694 1.66607,-1.37694 -1.4012,2.25 -1.4012,2.25 -1.50946,-0.1164 -1.50945,-0.1164 z"
           id="path352" />
        <path
           style="fill:#767676;fill-opacity:1"
           d="m 315.82982,231.53611 -3,-1.37367 1.71482,-0.0812 1.71481,-0.0812 1.15057,-2.14986 1.15057,-2.14985 -0.61676,-4.49971 -0.61675,-4.4997 -1.42198,-2.85044 L 314.48311,211 h 0.80854 0.80855 l 3.30565,1.38992 3.30566,1.38993 -1.50258,0.36007 -1.50259,0.36008 1.06174,4.26527 1.06174,4.26527 3.77587,-2.5689 3.77587,-2.5689 -0.58489,-0.94637 -0.58488,-0.94637 0.80901,0.0703 0.80902,0.0703 2,0.85943 2,0.85943 -1.36602,0.0703 -1.36603,0.0703 -4.81155,3.532 -4.81155,3.53201 -0.76292,3.21799 -0.76293,3.218 0.1905,0.75 0.1905,0.75 -0.75,-0.0451 -0.75,-0.0451 z"
           id="path351" />
        <path
           style="fill:#767676;fill-opacity:1"
           d="m 180.01444,232.01256 1.18463,-1.28181 -2.39583,-6.60042 -2.39582,-6.60042 -1.66169,-1.21506 -1.6617,-1.21506 2.4848,-0.62364 2.48479,-0.62364 6.74817,4.13034 6.74818,4.13033 0.36573,-0.36573 0.36573,-0.36573 -1.81551,-4.78277 -1.81551,-4.78278 -1.41029,-0.89277 -1.4103,-0.89277 1.16821,-0.0153 1.16822,-0.0153 1.59312,-0.61134 1.59313,-0.61134 -0.58717,1.53014 -0.58717,1.53014 2.60421,7.21948 2.60422,7.21949 -0.44443,0.44442 -0.44443,0.44443 -7.80791,-4.52542 -7.80791,-4.52542 -0.27313,0.27313 -0.27313,0.27313 1.63523,4.91958 1.63523,4.91958 1.51684,1.75 1.51685,1.75 h -1.0732 -1.07321 l -1.83178,0.64718 -1.83179,0.64718 z"
           id="path350" />
        <path
           style="fill:#767676;fill-opacity:1"
           d="M 341.82073,240.7909 341.253,238.5 l -1.71159,-7.30215 -1.71159,-7.30215 -3.19606,6.26468 -3.19605,6.26469 1.19605,1.44199 1.19606,1.442 -3.25,-1.68021 -3.25,-1.68021 v -0.44294 -0.44293 l 1.35013,0.51809 1.35013,0.5181 3.65475,-6.95499 3.65474,-6.95499 -0.65651,-1.71082 -0.6565,-1.71083 2.03398,1.08856 2.03398,1.08855 0.47412,1.27778 0.47411,1.27778 1.32699,6.75 1.327,6.75 h 0.6456 0.64561 l 2.29362,-4.89698 2.29362,-4.89698 -0.68639,-1.11061 -0.68639,-1.11061 2.7549,1.25522 2.7549,1.25522 -1.51727,0.2922 -1.51727,0.2922 -3.40879,7.0463 -3.40878,7.04631 -0.73582,0.45476 -0.73583,0.45477 z"
           id="path349" />
        <path
           style="fill:#767676;fill-opacity:1"
           d="m 158.14347,231.93242 0.31366,-11.07166 1.68545,1.31962 1.68546,1.31962 6.00089,4.8622 6.00089,4.86221 0.77713,0.71492 0.77712,0.71492 -2.77712,1.26191 -2.77713,1.2619 0.75218,-0.75788 0.75218,-0.75788 -1.65717,-1.83115 -1.65717,-1.83115 -1.09501,0.004 -1.09501,0.004 -3.19415,1.9476 -3.19415,1.94759 0.85362,2.97642 0.85363,2.97641 -1.49126,0.57225 -1.49126,0.57225 -0.16822,0.002 -0.16821,0.002 z m 4.50209,0.93213 2.18426,-1.13546 0.42061,-0.36849 0.42061,-0.36849 -2.34492,-2.49605 L 160.98119,226 h -0.82568 -0.82569 v 4 4 h 0.56574 0.56574 z"
           id="path348" />
        <path
           style="fill:#767676;fill-opacity:1"
           d="m 256.56189,249 -1.24902,-2 h 1.50848 1.50847 v 2 2 h -0.25945 -0.25946 z"
           id="path347" />
        <path
           style="fill:#767676;fill-opacity:1"
           d="m 353.64014,250.33446 -5.18968,-3.53986 4.56481,-6.86483 4.5648,-6.86482 -0.5056,-1.93342 -0.5056,-1.93341 6.13047,3.9576 6.13048,3.9576 0.70836,0.7017 0.70836,0.7017 -0.94305,1.49164 -0.94304,1.49164 -0.0153,-1.66844 -0.0153,-1.66844 -3.62562,-2.24076 -3.62561,-2.24075 -1.85215,2.40919 -1.85215,2.4092 -0.0222,0.63499 -0.0222,0.63499 2.29168,1.50157 2.29168,1.50156 1.64121,0.36345 1.64121,0.36344 -1.43289,1.94113 -1.43299,1.94113 v -1.47552 -1.47552 l -3.11431,-1.83967 -3.11431,-1.83967 -0.91918,1.37406 -0.91917,1.37406 -1.01276,1.77067 -1.01276,1.77066 0.60966,0.98645 0.60965,0.98644 3.0443,1.57427 3.04429,1.57426 2.64229,-0.64731 2.6423,-0.64732 -2,1.53414 -2,1.53413 -1,-0.031 -1,-0.031 z"
           id="path346" />
        <path
           style="fill:#767676;fill-opacity:1"
           d="m 288.82982,254 0.61803,-1 h 0.94099 0.94098 v 1 1 h -1.55902 -1.55901 z"
           id="path345" />
        <path
           style="fill:#767676;fill-opacity:1"
           d="m 139.24828,253.59824 1.16336,-1.40175 -5.54681,-8.59825 -5.5468,-8.59824 -1.2441,-0.0318 -1.24411,-0.0318 2,-1.54147 2,-1.54147 1.65184,-0.90938 1.65185,-0.90937 -0.47832,1.82909 -0.47832,1.82909 5.17656,8.15356 5.17656,8.15356 h 0.41394 0.41394 l 3.45888,-2.25 3.45889,-2.25 1.211,-2.9011 1.211,-2.90111 0.7458,1.90111 0.74581,1.9011 0.0703,0.64991 0.0703,0.64992 -8.0331,5.10008 L 139.26361,255 h -0.58934 -0.58934 z"
           id="path344" />
        <path
           style="fill:#767676;fill-opacity:1"
           d="m 242.32982,254.96795 -1.5,-0.96795 1.5,-0.96795 1.5,-0.96796 0.33333,0.96796 0.33334,0.96795 -0.33334,0.96795 -0.33333,0.96796 z"
           id="path343" />
        <path
           style="fill:#767676;fill-opacity:1"
           d="M 297.82982,254.5 V 247 h 1.15997 1.15996 l 4.63749,5.25 4.63748,5.25 -0.29745,-5.25062 -0.29745,-5.25062 1,-0.002 1,-0.002 -0.3377,7.75103 -0.3377,7.75103 -2.1623,-2.52353 -2.1623,-2.52353 -3.25,-3.95301 -3.25,-3.95302 v 5.64451 5.64451 l 1.25,0.50439 1.25,0.50439 -2,0.0789 -2,0.079 z"
           id="path342" />
        <path
           style="fill:#767676;fill-opacity:1"
           d="M 281.82982,254.5 V 247 h 5.75 5.75 l -0.079,1.75 -0.0789,1.75 -0.50439,-1.25 -0.50439,-1.25 h -3.80434 -3.80435 l -0.0375,6.5 -0.0375,6.5 h 3.72518 3.72518 l 1.25925,-1.25 1.25924,-1.25 -0.66623,1.75 -0.66624,1.75 h -5.643 -5.64301 z"
           id="path341" />
        <path
           style="fill:#767676;fill-opacity:1"
           d="M 262.82982,254.5 V 247 h 5.02749 5.0275 l 2.2225,1.5567 2.22251,1.55671 v 3.87071 3.87072 l -2.63486,2.07258 L 272.0601,262 h -4.61514 -4.61514 z m 9.48446,5.50832 1.85298,-0.99169 0.66966,-3.04895 0.66966,-3.04896 -1.61143,-2.45936 L 272.28371,248 h -2.97694 -2.97695 v 6.5 6.5 h 2.06574 2.06574 z"
           id="path340" />
        <path
           style="fill:#767676;fill-opacity:1"
           d="m 255.07982,261.33772 1.25,-0.50439 v -1.8351 -1.83511 l -3.55526,-2.19727 -3.55525,-2.19727 0.30525,-2.55717 0.30526,-2.55717 1.17131,-0.38423 1.17132,-0.38422 -0.53,2.02671 -0.52999,2.0267 3.51937,2.07649 3.51938,2.07648 0.58572,1.52636 0.58572,1.52635 -1.0316,1.92756 -1.0316,1.92756 -1.71481,-0.079 -1.71482,-0.0789 z"
           id="path339" />
        <path
           style="fill:#767676;fill-opacity:1"
           d="m 249.016,259.90795 -0.54708,-2.09204 1.93045,1.74703 1.93045,1.74704 V 261.65499 262 h -1.38337 -1.38337 z"
           id="path338" />
        <path
           style="fill:#767676;fill-opacity:1"
           d="M 233.82982,254.54123 V 247 h 5.75 5.75 l -0.0789,1.75 -0.0789,1.75 -0.50439,-1.25 -0.50439,-1.25 h -3.80434 -3.80435 l -0.0375,6.5 -0.0375,6.5 h 3.72518 3.72518 l 1.325,-1.25 1.325,-1.25 -0.45437,1.5 -0.45437,1.5 -5.92063,0.29123 -5.92063,0.29123 z"
           id="path337" />
        <path
           style="fill:#767676;fill-opacity:1"
           d="M 215.82982,254.5 V 247 h 4.55 4.55 l 1.2,1.2 1.2,1.2 v 1.83138 1.83139 l -1.5,0.5756 -1.5,0.57561 v 0.81628 0.81629 l 2.58889,3.07672 2.5889,3.07673 h -1.54626 -1.54627 l -2.79263,-3.49997 -2.79263,-3.49997 -0.85941,-3e-5 -0.8594,-3e-5 0.4086,3.5 0.40861,3.5 h -2.0492 -2.0492 z m 8,-3.5 v -2.5 l -2.25,-0.31955 -2.25,-0.31955 V 251 v 3.1391 l 2.25,-0.31955 2.25,-0.31955 z"
           id="path336" />
        <path
           style="fill:#767676;fill-opacity:1"
           d="m 193.07982,261.33772 1.25,-0.50439 v -7.86697 -7.86698 l -1.75,-1.08838 -1.75,-1.08837 7.68672,0.30492 7.68672,0.30492 2.56328,2.40808 2.56328,2.40808 v 3.90261 3.90261 l -2.92308,2.92307 -2.92307,2.92308 -6.82693,-0.079 -6.82692,-0.0789 z m 12.79545,-2.79227 2.45455,-2.45454 v -3.43467 -3.43467 l -1.75,-2.1412 -1.75,-2.1412 -3.75,-0.60043 -3.75,-0.60042 V 252.36916 261 h 3.04545 3.04546 z"
           id="path335" />
        <path
           style="fill:#606060;fill-opacity:1"
           d="m 303.32982,217.78684 -3.5,-1.96807 2.84565,0.63367 2.84566,0.63368 1.26734,-1.05181 1.26735,-1.0518 -0.47958,2.50875 -0.47957,2.50874 -0.13343,-0.12254 -0.13342,-0.12255 z"
           id="path304" />
        <path
           style="fill:#606060;fill-opacity:1"
           d="m 231.40403,219.07421 -1.92578,-1.92578 0.54872,-2.09834 0.54873,-2.09834 2.27414,-1.78884 2.27414,-1.78884 -0.51475,-2.69278 -0.51476,-2.69278 1.24012,-1.49426 1.24012,-1.49425 1.12755,0.0789 1.12756,0.0789 -1.25,0.50439 -1.25,0.50439 v 2.35765 2.35765 l 0.88669,0.548 0.8867,0.54801 1.23133,-1.48366 1.23133,-1.48367 -0.52441,-2.00532 L 239.51706,201 h 0.79939 0.79939 l 0.60341,1.57244 0.6034,1.57244 -1.0316,1.92756 -1.0316,1.92756 h -0.96481 -0.96482 v 1.09227 1.09227 l 1.97467,2.51038 1.97466,2.51039 0.94398,-2.35266 0.94398,-2.35265 0.54997,-1.75 0.54997,-1.75 h 1.50125 1.50125 l -2.46987,3.63955 -2.46986,3.63954 v 1.38546 1.38545 l 2.98377,0.59675 2.98377,0.59676 -0.54279,0.87824 L 248.21179,220 h -2.24099 -2.24098 l -1.02927,-1.02927 -1.02927,-1.02927 -2.92073,1.52311 -2.92073,1.52311 -1.25,0.006 -1.25,0.006 z m 8.56033,-1.57421 0.28878,-1 -2.39258,-2.92978 -2.39257,-2.92978 -1.56909,1.30223 -1.56908,1.30222 v 1.67755 1.67756 l 1.24298,1.24298 1.24297,1.24297 2.42991,-0.29297 2.4299,-0.29298 z"
           id="path303" />
        <path
           style="fill:#606060;fill-opacity:1"
           d="m 280.82982,222 -4,-0.71619 1.68261,-0.1419 1.68261,-0.14191 0.50871,-1.75 0.50871,-1.75 0.30868,-3.49973 0.30868,-3.49973 -5.5,-0.68118 -5.5,-0.68118 -0.62214,0.68091 -0.62214,0.68091 -0.63141,4.19832 -0.63142,4.19832 1.75356,1.11825 1.75355,1.11825 -3.375,-0.56657 -3.375,-0.56657 -2.125,-0.0634 -2.125,-0.0634 2.07792,-0.84073 2.07791,-0.84074 1.20838,-9.83276 1.20837,-9.83276 -1.78629,-1.38809 -1.78629,-1.3881 2.5,0.61132 2.5,0.61132 3,0.0926 3,0.0926 -1.5,0.571 -1.5,0.571 -0.73469,1.10005 -0.73468,1.10006 -0.0153,3.625 -0.0153,3.625 3.125,0.625 3.125,0.625 h 2.74719 2.74719 l 0.6761,-4.2281 0.67611,-4.22811 -1.7983,-1.34838 -1.79829,-1.34838 5,0.70462 5,0.70461 0.41667,0.37187 0.41666,0.37187 h -1.64761 -1.64762 l -0.4755,2.25 -0.4755,2.25 -1.00409,8 -1.00408,8 1.65167,1.25 1.65166,1.25 -1.44113,-0.14191 -1.44113,-0.1419 z"
           id="path302" />
        <path
           style="fill:#606060;fill-opacity:1"
           d="m 202.11609,223.44703 -2.71374,-1.4729 -1.17904,-3.93528 -1.17903,-3.93527 1.27992,-3.09001 1.27992,-3.09 2.11285,-1.15444 2.11285,-1.15443 4.75,-0.62807 4.75,-0.62807 v 0.73893 0.73894 l 0.66957,1.83178 0.66956,1.83179 -1.99831,-1.75 -1.9983,-1.75 h -2.44875 -2.44876 l -2.14332,1.50124 -2.14333,1.50124 -0.63588,2.89517 -0.63589,2.89517 1.50475,3.60135 1.50474,3.60136 2.5069,1.14222 2.5069,1.14222 3.09347,-1.28136 3.09346,-1.28135 -0.64192,-3.10863 -0.64192,-3.10863 -1.44228,-1.13642 -1.44228,-1.13641 3.2858,-0.38441 3.28579,-0.38442 -0.0942,4.52083 -0.0942,4.52083 -3.4058,1.74845 -3.4058,1.74844 -2.5,-0.0385 -2.5,-0.0385 z"
           id="path301" />
        <path
           style="fill:#606060;fill-opacity:1"
           d="m 298.82982,226.26154 -6,-1.53995 -0.3925,-0.33663 -0.3925,-0.33663 0.98614,-1.27416 0.98614,-1.27417 1.73143,-6.33317 1.73144,-6.33316 -0.54369,-1.41684 L 296.39259,206 h 0.78711 0.78712 l 5.4315,1.5526 5.4315,1.5526 1.31338,0.44034 1.31338,0.44033 -0.68838,1.11383 -0.68838,1.11383 -0.625,-0.94297 -0.625,-0.94296 -3.39922,-1.1638 L 302.03137,208 h -0.77132 -0.77132 l -0.67063,3.25 -0.67063,3.25 -1.45066,4.40817 -1.45066,4.40816 0.92075,0.92075 0.92075,0.92075 4.11152,0.55147 4.11151,0.55147 1.67023,-1.38038 1.67022,-1.38039 -1.4012,2.25 -1.4012,2.25 -1.00946,-0.0993 -1.00945,-0.0992 z"
           id="path300" />
        <path
           style="fill:#606060;fill-opacity:1"
           d="m 317.07982,232.31067 -1.75,-0.45732 V 230.92668 230 h 0.85534 0.85534 l 0.94695,-3.25 0.94695,-3.25 -1.42596,-5 -1.42595,-5 -0.99878,-1.25 -0.99878,-1.25 0.87245,0.0761 0.87244,0.0761 3.5,1.34784 3.5,1.34784 -1.81739,0.0761 -1.81739,0.0761 0.5199,1.75 0.5199,1.75 0.6559,2.75 0.6559,2.75 h 0.45831 0.45831 l 3.42354,-2.61126 3.42353,-2.61125 -0.6543,-1.05869 -0.6543,-1.05868 1.74583,0.66994 1.74583,0.66994 h 0.58101 0.581 l -5.55799,3.97999 -5.55799,3.97999 -1.09282,3.13488 -1.09283,3.13488 0.54704,0.88513 0.54704,0.88513 -0.80901,-0.116 -0.80902,-0.116 z"
           id="path299" />
        <path
           style="fill:#606060;fill-opacity:1"
           d="m 179.97808,232.04892 1.14825,-1.24543 -2.48862,-7.40175 -2.48862,-7.40174 -1.65963,-0.0677 -1.65964,-0.0677 2.22709,-1.07491 2.22709,-1.07491 7.17699,4.15517 7.177,4.15518 0.35659,-0.3566 0.35659,-0.35659 -1.53701,-4.40599 -1.53702,-4.40599 -1.66479,-1.25 -1.66479,-1.25 h 1.10934 1.10935 l 1.50882,-0.57899 1.50882,-0.57899 -0.47734,1.82899 -0.47734,1.82899 2.58964,6.87733 2.58964,6.87733 -0.48223,0.48223 -0.48223,0.48223 -7.67421,-4.65912 -7.67421,-4.65912 -0.38548,0.38548 -0.38549,0.38549 2.01764,5.86435 2.01763,5.86436 1.23496,0.78441 1.23495,0.7844 -1.16821,0.0153 -1.16822,0.0153 -1.83178,0.64718 -1.83179,0.64718 z"
           id="path298" />
        <path
           style="fill:#606060;fill-opacity:1"
           d="M 341.82073,240.7909 341.253,238.5 l -1.71159,-7.30496 -1.71159,-7.30496 -3.33951,6.09464 -3.33951,6.09465 1.33951,1.61484 1.33951,1.61485 -3.25,-1.68021 -3.25,-1.68021 v -0.44294 -0.44293 l 1.44431,0.55423 1.44431,0.55424 3.62185,-7.19203 3.62184,-7.19202 -0.54365,-1.41674 -0.54365,-1.41673 1.93088,1.03338 1.93088,1.03337 1.71692,7.98977 1.71691,7.98976 h 0.65876 0.65877 l 2.29362,-4.89698 2.29362,-4.89698 -0.68639,-1.11061 -0.68639,-1.11061 2.7549,1.25522 2.7549,1.25522 -1.51727,0.2922 -1.51727,0.2922 -3.40879,7.0463 -3.40878,7.04631 -0.73582,0.45476 -0.73583,0.45477 z"
           id="path297" />
        <path
           style="fill:#606060;fill-opacity:1"
           d="m 158.14252,231.98494 0.31269,-11.01913 5.68731,4.53963 5.6873,4.53964 2.79144,2.29806 2.79143,2.29807 -2.60514,1.18698 -2.60514,1.18699 0.54012,-0.87395 0.54013,-0.87394 -1.97413,-1.78655 -1.97412,-1.78656 -4.00229,1.80478 -4.0023,1.80479 0.0153,1.59812 0.0153,1.59813 0.9319,1.47361 0.9319,1.4736 -1.19722,0.76108 -1.19721,0.76108 -0.5,0.0174 -0.5,0.0173 z m 4.50304,0.87961 2.18426,-1.13546 0.42061,-0.36849 0.42061,-0.36849 -2.34492,-2.49605 L 160.98119,226 h -0.82568 -0.82569 v 4 4 h 0.56574 0.56574 z"
           id="path296" />
        <path
           style="fill:#606060;fill-opacity:1"
           d="M 256.53349,248.95452 255.31287,247 h 1.03986 1.03986 l 0.59215,1.54313 0.59216,1.54313 -0.4114,0.41139 -0.41139,0.41139 z"
           id="path295" />
        <path
           style="fill:#606060;fill-opacity:1"
           d="m 354.0986,250.45424 -5.66865,-3.54576 4.93952,-7.56659 4.93952,-7.56658 -0.70091,-1.13766 -0.70091,-1.13765 2.96133,1.91911 2.96132,1.91911 3.6843,2.4203 3.68431,2.4203 -0.60917,1.58748 -0.60917,1.58747 -0.59943,-1.70883 -0.59943,-1.70884 -2.9757,-1.96146 -2.97571,-1.96146 -0.72695,-0.007 -0.72694,-0.007 -1.64135,2.50501 -1.64134,2.505 1.24405,1.49899 1.24405,1.49899 2.80114,0.74601 2.80114,0.746 -1.4269,1.94113 -1.4269,1.94113 v -1.66545 -1.66545 l -3.1327,-1.61998 -3.1327,-1.61998 -0.90079,1.3443 -0.90078,1.3443 -1.10151,1.93649 -1.10151,1.9365 2.885,2.30854 2.88499,2.30854 2.30902,0.005 2.30901,0.005 -0.61803,1 -0.61803,1 h -0.72227 -0.72228 z"
           id="path294" />
        <path
           style="fill:#606060;fill-opacity:1"
           d="m 289.82982,254 0.61803,-1 h 0.44099 0.44098 v 1 1 h -1.05902 -1.05901 z"
           id="path293" />
        <path
           style="fill:#606060;fill-opacity:1"
           d="m 139.70972,253.45238 0.62729,-1.63468 -5.48117,-8.40885 -5.48116,-8.40885 -1.27243,-0.0318 -1.27243,-0.0318 2,-1.54147 2,-1.54147 1.65184,-0.90938 1.65185,-0.90937 -0.52117,1.99294 -0.52116,1.99293 5.24539,7.98972 5.2454,7.98971 h 0.42698 0.42698 l 3.63449,-2.4697 3.63449,-2.4697 1.14261,-2.7803 1.14261,-2.7803 0.51112,2.64511 0.51112,2.64511 -7.96497,5.14842 -7.96497,5.14843 z"
           id="path292" />
        <path
           style="fill:#606060;fill-opacity:1"
           d="M 297.82982,254.5 V 247 l 1,-0.0198 1,-0.0198 4.79039,5.26983 4.7904,5.26983 -0.2904,-5.25062 -0.29039,-5.25062 1,-0.002 1,-0.002 -0.33798,7.75233 -0.33797,7.75233 -1.66203,-2.05044 -1.66202,-2.05043 -3.79406,-4.44957 -3.79405,-4.44956 0.29405,6.25182 0.29406,6.25182 -1,-0.002 -1,-0.002 z"
           id="path291" />
        <path
           style="fill:#606060;fill-opacity:1"
           d="M 281.82982,254.5 V 247 h 5.75 5.75 l -0.079,1.75 -0.0789,1.75 -0.50439,-1.25 -0.50439,-1.25 h -3.85416 -3.85417 v 6.5 6.5 h 3.7375 3.7375 l 1.25925,-1.25 1.25924,-1.25 -0.66623,1.75 -0.66624,1.75 h -5.643 -5.64301 z"
           id="path290" />
        <path
           style="fill:#606060;fill-opacity:1"
           d="m 263.16291,254.38539 0.3331,-7.61927 5.56676,0.46164 5.56677,0.46164 1.35014,1.84643 1.35014,1.84643 v 3.23629 3.23629 l -2.63486,2.07258 -2.63486,2.07258 -4.61514,0.002 -4.61514,0.002 z M 273.32982,259 l 2,-2 v -2.27749 -2.2775 l -1.5567,-2.2225 L 272.21641,248 h -2.94329 -2.9433 v 6.5 6.5 h 2.5 2.5 z"
           id="path289" />
        <path
           style="fill:#606060;fill-opacity:1"
           d="m 256.05881,259.63738 0.45164,-2.36262 -3.64557,-2.25309 -3.64557,-2.25309 0.30525,-2.55717 0.30526,-2.55717 1.17131,-0.38423 1.17132,-0.38422 -0.51883,1.98399 -0.51882,1.98399 3.54569,2.32312 3.5457,2.32311 0.42105,1.60797 0.42106,1.60796 -0.91893,1.64204 L 257.23044,262 h -0.81164 -0.81164 z"
           id="path288" />
        <path
           style="fill:#606060;fill-opacity:1"
           d="m 249.32982,260.37756 v -1.62245 l 1.5,1.24489 1.5,1.24489 V 261.62244 262 h -1.5 -1.5 z"
           id="path287" />
        <path
           style="fill:#606060;fill-opacity:1"
           d="M 233.82982,254.54123 V 247 h 5.75 5.75 l -0.0789,1.75 -0.0789,1.75 -0.50439,-1.25 -0.50439,-1.25 h -3.80434 -3.80435 l -0.0375,6.5 -0.0375,6.5 h 3.72518 3.72518 l 1.325,-1.25 1.325,-1.25 -0.45437,1.5 -0.45437,1.5 -5.92063,0.29123 -5.92063,0.29123 z"
           id="path286" />
        <path
           style="fill:#606060;fill-opacity:1"
           d="M 215.82982,254.5 V 247 h 4.62756 4.62755 l 1.20506,1.45201 1.20507,1.45201 -0.65001,2.04799 L 226.19504,254 h -0.93261 -0.93261 v 0.92327 0.92328 l 2.58889,3.07672 2.5889,3.07673 h -1.51609 -1.51609 l -2.98061,-3.616 -2.98061,-3.61599 -1.19294,0.73727 -1.19294,0.73728 0.57575,2.87872 0.57574,2.87872 h -1.725 -1.725 z m 8.32352,-3.82352 0.32351,-2.82351 -2.82351,0.32351 -2.82352,0.32352 -0.32352,2.82352 -0.32351,2.82351 2.82351,-0.32351 2.82352,-0.32352 z"
           id="path285" />
        <path
           style="fill:#606060;fill-opacity:1"
           d="m 193.07982,261.40431 1.25,-0.57098 v -7.86697 -7.86698 l -1.75,-1.08838 -1.75,-1.08837 7.85799,0.31357 7.85799,0.31357 2.39201,2.78088 2.39201,2.78088 v 3.38847 3.38847 l -2.37944,2.76627 -2.37944,2.76626 -7.37056,0.27715 -7.37056,0.27714 z m 12.79545,-2.85886 2.45455,-2.45454 V 252.5 248.90909 L 205.87527,246.45455 203.42073,244 h -3.04546 -3.04545 v 8.5 8.5 h 3.04545 3.04546 z"
           id="path284" />
        <path
           style="fill:#494949;fill-opacity:1"
           d="m 240.28154,205.62697 0.90223,-2.37302 -1.12698,-1.12698 L 238.92982,201 h 1.09301 1.09301 l 0.60341,1.57244 0.6034,1.57244 -1.0316,1.92756 -1.0316,1.92756 h -0.44006 -0.44007 z"
           id="path244" />
        <path
           style="fill:#494949;fill-opacity:1"
           d="m 304.14232,208.31689 1.3125,-0.52522 0.60417,0.60416 0.60416,0.60417 -1.91666,-0.0789 -1.91667,-0.0789 z"
           id="path243" />
        <path
           style="fill:#494949;fill-opacity:1"
           d="M 308.54039,210.46196 307.25097,209 h 1.53942 1.53943 v 1.5 1.5 l -0.25,-0.038 -0.25,-0.038 z"
           id="path242" />
        <path
           style="fill:#494949;fill-opacity:1"
           d="m 302.82982,217.49284 -3,-1.34472 3.74552,0.17594 3.74551,0.17594 0.004,1.25 0.004,1.25 -0.75,-0.0812 -0.75,-0.0812 z"
           id="path241" />
        <path
           style="fill:#494949;fill-opacity:1"
           d="m 242.78769,218.93183 -0.66017,-1.06818 -1.34792,0.51725 -1.34792,0.51724 0.46419,-1.20965 0.46418,-1.20966 -2.76511,-3.05038 -2.76512,-3.05038 -0.30868,-3.51789 -0.30867,-3.5179 1.58284,-1.31364 1.58284,-1.31364 0.6425,0.6425 0.6425,0.6425 h -1.16666 -1.16667 v 1.97316 1.97316 l 2.40225,4.27684 2.40224,4.27684 0.84776,-0.0685 0.84775,-0.0685 0.98701,-2.93153 0.98701,-2.93152 1.01299,-0.73469 1.01299,-0.73468 h 1 1 l -1.04465,0.73468 -1.04466,0.73469 -2.16393,3.73698 -2.16394,3.73698 1.89285,1.01302 1.89285,1.01302 1.81574,0.0153 1.81574,0.0153 -1.5,0.96945 -1.5,0.96937 -1.69098,0.0153 -1.69099,0.0153 z"
           id="path240" />
        <path
           style="fill:#494949;fill-opacity:1"
           d="m 232.07982,219.9199 -1.75,-1.01928 v -2.82787 -2.82786 l 1.56288,-1.29708 1.56288,-1.29707 -0.67455,2.68761 -0.67454,2.68762 1.23411,1.48702 1.23411,1.48701 2.12755,0.0153 2.12756,0.0153 -1.5,0.9694 -1.5,0.96937 -1,-0.0151 -1,-0.0151 z"
           id="path239" />
        <path
           style="fill:#494949;fill-opacity:1"
           d="m 280.82982,222.09323 -4,-0.62295 2.13312,-0.61096 2.13312,-0.61095 0.46736,-4.37419 0.46736,-4.37418 -0.60048,-0.66966 -0.60048,-0.66965 -5.45038,-0.33035 -5.45038,-0.33034 -0.89655,4.44254 -0.89654,4.44254 1.84692,1.43244 1.84693,1.43243 -2.5,-0.61132 -2.5,-0.61132 -3,-0.077 -3,-0.077 2.06393,-0.83556 2.06393,-0.83556 1.28145,-9.79472 1.28146,-9.79473 -1.84538,-1.44086 -1.84539,-1.44087 1.83179,0.63454 1.83178,0.63453 3.66822,0.0789 3.66821,0.0789 -1.5,0.571 -1.5,0.571 -0.73469,1.10005 -0.73468,1.10006 -0.0153,3.625 -0.0153,3.625 3.125,0.625 3.125,0.625 h 2.7871 2.7871 l 0.70575,-4.17725 0.70574,-4.17724 -1.86785,-1.44773 -1.86784,-1.44773 2.5,0.61132 2.5,0.61132 3,0.12966 3,0.12965 -1.74932,0.45719 -1.74932,0.4572 -0.47811,2.1768 -0.47812,2.17681 -1.04669,7.99578 -1.04668,7.99578 1.71525,1.25422 1.71525,1.25422 -1.44113,-0.14191 -1.44113,-0.1419 z"
           id="path238" />
        <path
           style="fill:#494949;fill-opacity:1"
           d="m 203.1682,223.91302 -2.66163,-1.02077 -1.65753,-3.493 -1.65754,-3.493 0.62103,-2.82754 0.62104,-2.82755 2.45424,-2.30564 2.45425,-2.30565 4.91355,-0.63035 4.91354,-0.63035 0.44848,2.34608 0.44848,2.34607 -1.69689,-1.53566 L 210.67234,206 h -3.09868 -3.09868 l -2.07258,2.63486 -2.07258,2.63486 0.004,2.61514 0.004,2.61514 1.96524,3.22316 1.96524,3.22317 2.32005,0.58229 2.32006,0.5823 2.78931,-1.0605 2.78932,-1.06049 -0.69382,-3.24497 -0.69383,-3.24496 -0.9097,-1.1328 -0.90971,-1.13281 3.0566,-0.44861 3.0566,-0.44862 -0.90868,0.90868 -0.90869,0.90869 0.76292,3.38265 0.76291,3.38265 -2.46643,1.61606 -2.46642,1.61607 -3.16922,0.39092 -3.16923,0.39092 z"
           id="path237" />
        <path
           style="fill:#494949;fill-opacity:1"
           d="m 299.82982,226.38271 -5,-1.478 -1.36262,-0.46419 -1.36263,-0.46419 1.02322,-1.23816 1.02323,-1.23817 1.64887,-6.37384 1.64887,-6.37384 -0.52809,-1.37616 -0.52808,-1.37616 1.21861,0.0703 1.21862,0.0703 2,0.85943 2,0.85943 -1.17054,0.0703 -1.17055,0.0703 -0.773,3.25 -0.773,3.25 -0.12098,0.5 -0.12098,0.5 -1.16558,3.96989 -1.16559,3.96989 1.0238,1.0238 1.0238,1.0238 4.82554,0.006 4.82553,0.006 -0.47621,1.25 -0.47622,1.25 -1.14301,-0.0696 -1.14301,-0.0696 z"
           id="path236" />
        <path
           style="fill:#494949;fill-opacity:1"
           d="m 317.50573,232.12964 -1.32408,-0.83949 1.53641,-3.67715 1.53641,-3.67715 -1.94942,-6.21805 -1.94943,-6.21804 -0.0129,-0.19798 -0.0129,-0.19798 3.09637,1.0794 3.09638,1.0794 -1.07257,0.66288 -1.07256,0.66288 1.08078,3.9557 1.08078,3.9557 0.32973,0.35099 0.32973,0.35098 3.55594,-2.71224 3.55593,-2.71224 -0.6543,-1.05869 -0.6543,-1.05868 1.74583,0.66994 1.74583,0.66994 h 0.58966 0.58966 l -4.73981,3.13952 -4.73981,3.13952 -1.53645,2.34492 -1.53646,2.34493 -0.14518,2.51485 -0.14518,2.51485 -0.5,-0.0146 -0.5,-0.0146 z"
           id="path235" />
        <path
           style="fill:#494949;fill-opacity:1"
           d="m 180.16239,232.12464 1.33257,-0.84473 -2.71224,-7.63996 -2.71224,-7.63995 -1.62033,-0.0677 -1.62033,-0.0677 2.21266,-1.06847 2.21265,-1.06847 7.11388,4.22628 7.11389,4.22628 0.43414,-0.43414 0.43413,-0.43414 -1.53701,-4.40599 -1.53702,-4.40599 -1.66479,-1.25 -1.66479,-1.25 h 1.10934 1.10935 l 1.50882,-0.57899 1.50882,-0.57899 -0.48791,1.86579 -0.48791,1.86578 2.5142,6.92655 2.5142,6.92655 -0.33788,0.33788 -0.33789,0.33788 -7.75088,-4.58245 -7.75088,-4.58245 -0.48114,0.48113 -0.48113,0.48114 2.50636,6.48539 2.50636,6.4854 -1.47157,0.56469 -1.47157,0.5647 -0.66822,-0.0153 -0.66821,-0.0153 z"
           id="path234" />
        <path
           style="fill:#494949;fill-opacity:1"
           d="m 342.02246,241.4265 -0.55418,-1.9265 -1.66961,-7.75 -1.66961,-7.75 h -0.38523 -0.38522 l -3.04885,6.03974 -3.04885,6.03974 0.58639,0.94881 0.5864,0.9488 -1.39682,-0.53601 -1.39683,-0.53601 3.93212,-7.50402 3.93211,-7.50402 -0.56472,-1.47165 -0.56473,-1.47166 1.89128,1.01218 1.89128,1.01218 1.73087,8.01096 1.73087,8.01096 h 0.68441 0.68441 l 2.29362,-4.89698 2.29362,-4.89698 -0.68639,-1.11061 -0.68639,-1.11061 2.7549,1.25522 2.7549,1.25522 -1.44119,0.28862 -1.4412,0.28863 -4.12659,7.64025 -4.12659,7.64025 z"
           id="path233" />
        <path
           style="fill:#494949;fill-opacity:1"
           d="m 158.32982,231.81363 v -11.12361 l 1.75,1.47115 1.75,1.47115 6,4.88669 6,4.88669 0.77713,0.62428 0.77712,0.62427 -2.59083,1.18046 -2.59083,1.18047 0.54012,-0.87395 0.54013,-0.87394 -1.97413,-1.78655 -1.97412,-1.78656 -4.00229,1.80478 -4.0023,1.80479 v 2.14812 2.14813 l 1.06722,1.06722 1.06721,1.06721 -1.56721,0.6014 -1.56722,0.6014 z m 5.07828,0.64589 2.97896,-1.54048 -2.92298,-2.45952 L 160.54111,226 h -0.60565 -0.60564 v 4 4 h 0.54966 0.54966 z"
           id="path232" />
        <path
           style="fill:#494949;fill-opacity:1"
           d="m 290.82982,248 -2,-0.85943 1.69098,-0.0703 1.69099,-0.0703 0.61803,1 0.61803,1 -0.30901,-0.0703 -0.30902,-0.0703 z"
           id="path231" />
        <path
           style="fill:#494949;fill-opacity:1"
           d="m 243.32982,248 -1.5,-0.96937 1.75,-0.0153 1.75,-0.0153 v 1 1 l -0.25,-0.0153 -0.25,-0.0153 z"
           id="path230" />
        <path
           style="fill:#494949;fill-opacity:1"
           d="M 256.53349,248.95452 255.31287,247 h 1.03986 1.03986 l 0.59215,1.54313 0.59216,1.54313 -0.4114,0.41139 -0.41139,0.41139 z"
           id="path229" />
        <path
           style="fill:#494949;fill-opacity:1"
           d="m 354.15232,250.43716 -5.67751,-3.50929 4.96543,-7.49807 4.96543,-7.49806 -0.66694,-1.07913 -0.66694,-1.07913 5.87902,3.72046 5.87901,3.72046 0.70836,0.65116 0.70836,0.65116 -0.94305,1.49164 -0.94304,1.49164 -0.0153,-1.68191 -0.0153,-1.6819 -2.90437,-2.0681 L 362.52108,234 h -1.07258 -1.07257 l -1.64135,2.50501 -1.64134,2.505 1.24405,1.49899 1.24405,1.49899 2.80114,0.74601 2.80114,0.746 -1.4269,1.94113 -1.4269,1.94113 v -1.57612 -1.57612 L 359.865,242.61501 357.40019,241 h -0.81958 -0.81957 l -1.87216,3.16931 -1.87216,3.1693 2.90655,2.32573 2.90655,2.32573 2.30902,0.005 2.30901,0.005 -0.61803,1 -0.61803,1 -0.69099,-0.0268 -0.69098,-0.0268 z"
           id="path228" />
        <path
           style="fill:#494949;fill-opacity:1"
           d="m 139.99188,253.43828 0.58346,-1.52047 -5.62929,-8.45891 -5.62929,-8.4589 -1.24347,-0.0318 -1.24347,-0.0318 2,-1.54147 2,-1.54147 2,-1.09044 2,-1.09045 -1.25703,1.52465 -1.25702,1.52465 5.11132,7.88907 5.11132,7.88907 0.82251,0.8768 0.8225,0.8768 3.68476,-2.27731 3.68475,-2.2773 1.24882,-2.97006 1.24882,-2.97007 0.46337,2.42395 0.46336,2.42394 -7.78444,5.176 -7.78444,5.176 z"
           id="path227" />
        <path
           style="fill:#494949;fill-opacity:1"
           d="M 297.82982,254.5 V 247 l 1,-0.0198 1,-0.0198 4.79039,5.26983 4.7904,5.26983 -0.2904,-5.25062 -0.29039,-5.25062 1,-0.002 1,-0.002 -0.33195,7.58659 -0.33195,7.58659 -3.66805,-4.28381 -3.66805,-4.2838 -1.77985,-2.05045 -1.77985,-2.05046 0.27985,6.25182 0.27985,6.25182 -1,-0.002 -1,-0.002 z"
           id="path226" />
        <path
           style="fill:#494949;fill-opacity:1"
           d="M 281.82982,254.5 V 247 l 1.5,-0.002 1.5,-0.002 -0.33206,7.00226 L 284.1657,261 h 3.88206 3.88206 l 1.25925,-1.25 1.25924,-1.25 -0.66623,1.75 -0.66624,1.75 h -5.64301 -5.64301 z"
           id="path225" />
        <path
           style="fill:#494949;fill-opacity:1"
           d="M 263.32982,254.5 V 247 l 1.75,-0.002 1.75,-0.002 -0.33479,7.07194 -0.33479,7.07193 3.30359,-0.31968 3.3036,-0.31968 1.49818,-2.68193 1.49817,-2.68192 -0.98359,-2.79682 -0.98358,-2.79682 -2.4834,-1.25651 -2.48339,-1.25652 1.31574,-0.0147 1.31574,-0.0147 2.18426,1.1497 2.18426,1.14971 0.73469,1.10029 0.73468,1.1003 0.0153,3.17742 0.0153,3.17742 -2.63486,2.07258 L 272.0601,262 h -4.36514 -4.36514 z"
           id="path224" />
        <path
           style="fill:#494949;fill-opacity:1"
           d="m 256.05123,259.67701 0.45922,-2.40225 -3.64557,-2.25309 -3.64557,-2.25309 0.30525,-2.55717 0.30526,-2.55717 1.17131,-0.38423 1.17132,-0.38422 -0.49268,1.88399 -0.49267,1.88398 3.62865,2.76771 3.62866,2.76771 -0.3073,2.57829 -0.30729,2.57829 -1.1189,0.36676 -1.11891,0.36675 z"
           id="path223" />
        <path
           style="fill:#494949;fill-opacity:1"
           d="m 249.32982,260.37756 v -1.62245 l 1.5,1.24489 1.5,1.24489 V 261.62244 262 h -1.5 -1.5 z"
           id="path222" />
        <path
           style="fill:#494949;fill-opacity:1"
           d="M 233.82982,254.5 V 247 l 1.5,-7.6e-4 1.5,-7.6e-4 -0.26553,7.00076 L 236.29876,261 h 3.81553 3.81553 l 1.25925,-1.25 1.25924,-1.25 -0.66623,1.75 -0.66624,1.75 h -5.64301 -5.64301 z"
           id="path221" />
        <path
           style="fill:#494949;fill-opacity:1"
           d="m 223.32982,258 -3.16806,-4 h 1.54885 1.54884 l 0.96541,-1.80388 0.96541,-1.80388 -0.68023,-1.04618 -0.68022,-1.04617 -1.5,-0.571 -1.5,-0.571 2.12756,-0.0789 2.12755,-0.0789 1.20506,1.45201 1.20507,1.45201 -0.65001,2.04799 -0.65001,2.0479 h -0.93261 -0.93261 v 1.19528 1.19528 l 2.68709,2.80472 L 229.704,262 h -1.60306 -1.60306 z"
           id="path220" />
        <path
           style="fill:#494949;fill-opacity:1"
           d="M 216.32982,254.5 V 247 l 1.25,0.002 1.25,0.002 v 7.49847 7.49846 l -1.25,-3e-4 -1.25,-6.3e-4 z"
           id="path219" />
        <path
           style="fill:#494949;fill-opacity:1"
           d="m 194.15735,253.45977 0.32753,-8.7459 -1.32753,-0.92972 -1.32753,-0.92972 7.44902,0.4535 7.44903,0.45351 2.30097,2.67504 2.30098,2.67505 v 3.38847 3.38847 l -2.36527,2.74979 -2.36527,2.7498 -6.38473,0.40881 -6.38473,0.40881 z m 11.71792,5.08568 2.45455,-2.45454 V 252.5 248.90909 L 205.87527,246.45455 203.42073,244 h -3.04546 -3.04545 v 8.5 8.5 h 3.04545 3.04546 z"
           id="path218" />
        <path
           style="fill:#333333;fill-opacity:1"
           d="m 304.14232,208.31689 1.3125,-0.52522 0.60417,0.60416 0.60416,0.60417 -1.91666,-0.0789 -1.91667,-0.0789 z"
           id="path179" />
        <path
           style="fill:#333333;fill-opacity:1"
           d="m 212.37779,207.5578 -1.19691,-1.44219 -3.17553,-0.33272 -3.17553,-0.33271 4.17748,-0.4946 4.17749,-0.4946 0.43384,2.26951 0.43385,2.26951 h -0.23889 -0.23888 z"
           id="path178" />
        <path
           style="fill:#333333;fill-opacity:1"
           d="m 308.32982,210 -1.5,-0.96937 1.75,-0.0153 1.75,-0.0153 v 1 1 l -0.25,-0.0153 -0.25,-0.0153 z"
           id="path177" />
        <path
           style="fill:#333333;fill-opacity:1"
           d="m 304.89458,218.10478 -0.55327,-0.89521 1.49425,-0.5734 1.49426,-0.5734 V 217.53138 219 h -0.94098 -0.94099 z"
           id="path176" />
        <path
           style="fill:#333333;fill-opacity:1"
           d="m 242.78769,218.93183 -0.66017,-1.06818 -1.45079,0.55672 -1.45079,0.55672 0.56847,-0.91979 0.56846,-0.91979 -2.39273,-3.52588 -2.39273,-3.52588 -0.3738,0.37176 -0.37379,0.37177 -0.26428,-3.78035 -0.26427,-3.78034 1.37727,-1.14304 1.37728,-1.14304 -0.44615,2.33387 -0.44615,2.33387 2.4854,4.42488 2.48539,4.42487 h 0.84776 0.84775 l 0.9568,-3.25 0.95679,-3.25 h 0.79321 0.7932 l -0.004,0.75 -0.004,0.75 -1.91149,3.13477 -1.91149,3.13477 1.11523,1.11523 1.11575,1.11523 2.55,0.0153 2.55,0.0153 -1.5,0.9694 -1.5,0.96937 -1.69098,0.0153 -1.69099,0.0153 z"
           id="path175" />
        <path
           style="fill:#333333;fill-opacity:1"
           d="m 265.32982,220.09333 -4.5,-0.60628 2.11014,-0.61333 2.11014,-0.61333 1.23642,-9.823 1.23643,-9.823 -1.84656,-1.44173 -1.84657,-1.44173 1.83179,0.63454 1.83178,0.63453 3.66822,0.0789 3.66821,0.0789 -1.5,0.571 -1.5,0.571 -0.73469,1.10005 -0.73468,1.10006 -0.0153,3.67668 -0.0153,3.67667 1.75,0.45732 1.75,0.45733 -2.11408,0.116 -2.11407,0.116 -0.6519,4.75 -0.6519,4.75 1.7071,1.25 1.70711,1.25 -0.94113,-0.15019 -0.94113,-0.1502 z"
           id="path174" />
        <path
           style="fill:#333333;fill-opacity:1"
           d="m 232.54252,219.88298 -2.2127,-0.81853 v -2.90978 -2.90978 l 1.49939,-1.24438 1.49938,-1.24438 -0.58559,2.92795 -0.58559,2.92795 1.33621,1.08637 1.3362,1.08638 2,0.39805 2,0.39805 -2.0373,0.56032 -2.03729,0.56031 z"
           id="path173" />
        <path
           style="fill:#333333;fill-opacity:1"
           d="m 281.32982,222.09333 -4.5,-0.60628 2.25,-0.6499 2.25,-0.64991 0.16667,-3.09362 0.16666,-3.09362 0.0833,-1.75 0.0833,-1.75 -4,-0.60809 -4,-0.6081 4.1621,-0.1419 4.1621,-0.14191 0.70575,-4.17725 0.70574,-4.17724 -1.86785,-1.45729 -1.86784,-1.45729 1.83179,0.63454 1.83178,0.63453 3.66822,0.0634 3.66821,0.0634 -2.07792,0.84073 -2.07791,0.84074 -1.20838,9.83276 -1.20837,9.83276 1.72742,1.26312 1.72742,1.26312 -0.94113,-0.15019 -0.94113,-0.1502 z"
           id="path172" />
        <path
           style="fill:#333333;fill-opacity:1"
           d="m 213.67155,218.73244 -0.15828,-4.00103 -1.34172,-0.85039 -1.34173,-0.85039 2.56314,-0.0153 2.56314,-0.0153 0.22661,4.37776 0.22661,4.37776 -1.28975,0.48897 -1.28975,0.48897 z"
           id="path171" />
        <path
           style="fill:#333333;fill-opacity:1"
           d="m 203.82982,224.05464 -2,-0.81858 -1.87738,-2.08753 -1.87739,-2.08753 -0.10409,-3.96966 -0.10409,-3.96965 2.40579,-2.56085 L 202.67845,206 h 0.89826 0.89827 l -2.07258,2.63486 -2.07258,2.63486 0.0147,2.61514 0.0147,2.61514 1.24917,2.5 1.24917,2.5 3.48609,1.74845 3.48609,1.74844 -2,-0.0618 -2,-0.0618 z"
           id="path170" />
        <path
           style="fill:#333333;fill-opacity:1"
           d="m 295.57982,225.29427 -2.25,-0.43337 0.008,-0.68045 0.008,-0.68045 1.984,-6.5 1.98472,-6.5 0.008,-2.11133 0.008,-2.11133 2.4621,0.47066 2.46209,0.47066 -1.46209,1.4621 -1.4621,1.4621 V 212.07143 214 l -0.0986,0.75 -0.0986,0.75 -0.76306,1.5 -0.76306,1.5 -0.66316,2.77304 -0.66317,2.77303 2.27484,0.91358 2.27483,0.91358 -1.5,-0.0728 -1.5,-0.0728 z"
           id="path169" />
        <path
           style="fill:#333333;fill-opacity:1"
           d="m 186.82982,222.45574 -7,-4.40057 -0.85841,-0.0276 -0.85841,-0.0276 0.56695,2.75 0.56694,2.75 -1.56112,-3.5 -1.56113,-3.5 -1.11938,-0.69621 -1.11939,-0.6962 1.72911,-0.66352 1.72911,-0.66352 7.0694,4.19985 7.06941,4.19986 0.43414,-0.43414 0.43413,-0.43414 -1.52406,-4.31966 -1.52406,-4.31965 -1.01214,-1.21955 -1.01214,-1.21955 1.52553,-0.5854 1.52552,-0.5854 v 1.79346 1.79347 l 2.44043,7.17515 2.44042,7.17515 -0.69042,-0.0718 -0.69043,-0.0718 z"
           id="path168" />
        <path
           style="fill:#333333;fill-opacity:1"
           d="m 302.82982,227.07335 -2,-0.78608 3.63647,-0.42958 3.63648,-0.42958 -0.49346,1.28594 -0.49347,1.28595 -1.14301,-0.0703 -1.14301,-0.0703 z"
           id="path167" />
        <path
           style="fill:#333333;fill-opacity:1"
           d="m 180.98611,229.79367 -0.57696,-2.20633 0.29789,-0.2979 0.2979,-0.29789 1.141,2.50422 1.141,2.50423 h -0.86193 -0.86193 z"
           id="path166" />
        <path
           style="fill:#333333;fill-opacity:1"
           d="m 318.07982,232.31067 -1.75,-0.45732 v -0.30455 -0.30455 l 1.46729,-3.51173 1.46729,-3.51172 -1.80267,-6.50099 -1.80267,-6.501 2.93175,1.02202 2.93176,1.02201 -1.07257,0.66288 -1.07256,0.66288 1.08078,3.9557 1.08078,3.9557 0.36819,0.38945 0.36819,0.38945 3.54596,-2.70463 3.54595,-2.70463 -0.52012,-0.84156 -0.52011,-0.84156 1.99806,0.5225 1.99805,0.5225 -4.56504,3.02376 -4.56504,3.02376 -1.53645,2.34492 -1.53646,2.34493 -0.14518,2.51485 -0.14518,2.51485 v -0.1153 -0.11529 z"
           id="path165" />
        <path
           style="fill:#333333;fill-opacity:1"
           d="m 365.82982,236.64251 -3,-2.93512 2,1.07303 2,1.07303 1.90149,1.42063 1.90149,1.42063 -0.90149,0.44146 -0.90149,0.44147 z"
           id="path164" />
        <path
           style="fill:#333333;fill-opacity:1"
           d="M 340.3782,233.71239 338.16564,224 h -0.40351 -0.40352 l -3.04885,6.03974 -3.04885,6.03974 0.58639,0.94881 0.5864,0.9488 -1.39682,-0.53601 -1.39683,-0.53601 3.93212,-7.50402 3.93211,-7.50402 -0.57154,-1.48943 -0.57155,-1.48942 1.73432,0.96472 1.73431,0.96473 2.10386,8.82618 2.10387,8.82619 2.71428,-5.35123 2.71428,-5.35123 -0.52014,-1.35546 -0.52014,-1.35546 2.54673,1.16037 2.54674,1.16037 -1.7382,0.60973 -1.73821,0.60973 -3.72606,7.39898 -3.72607,7.39897 z"
           id="path163" />
        <path
           style="fill:#333333;fill-opacity:1"
           d="m 158.32982,231.90438 v -11.03285 l 7.75,6.23339 7.75,6.2334 0.77713,0.65796 0.77712,0.65797 -2.59083,1.18046 -2.59083,1.18047 0.54012,-0.87395 0.54013,-0.87394 -1.97413,-1.78655 -1.97412,-1.78656 -4.00229,1.80478 -4.0023,1.80479 v 2.14812 2.14813 l 1.06722,1.06722 1.06721,1.06721 -1.56721,0.6014 -1.56722,0.6014 z m 5.16456,0.51052 3.06524,-1.5851 -0.8649,-0.67988 -0.8649,-0.67988 -2.75,-2.40933 -2.75,-2.40934 V 229.32569 234 h 0.54966 0.54966 z"
           id="path162" />
        <path
           style="fill:#333333;fill-opacity:1"
           d="m 362.34513,245.87197 -0.0153,-1.62803 -2.25,-1.56953 -2.25,-1.56954 3.25,1.1668 3.25,1.16681 -0.0153,0.53076 -0.0153,0.53076 -0.96937,1.5 -0.96937,1.5 z"
           id="path161" />
        <path
           style="fill:#333333;fill-opacity:1"
           d="m 350.24344,247.71731 -1.54487,-0.97448 4.89123,-7.34457 4.89124,-7.34457 -0.69874,-1.13057 -0.69873,-1.13057 2.52618,1.65521 2.52618,1.65522 -2.40305,2.40306 -2.40306,2.40305 V 239.45455 241 h -1.04889 -1.04889 l -1.72186,3.8459 -1.72186,3.84589 z"
           id="path160" />
        <path
           style="fill:#333333;fill-opacity:1"
           d="m 243.82982,248 -0.61803,-1 h 1.05901 1.05902 v 1 1 h -0.44098 -0.44099 z"
           id="path159" />
        <path
           style="fill:#333333;fill-opacity:1"
           d="m 256.32982,248.5 -1.24489,-1.5 h 1.01546 1.01545 l 0.57561,1.5 0.5756,1.5 h -0.34617 -0.34617 z"
           id="path158" />
        <path
           style="fill:#333333;fill-opacity:1"
           d="m 357.86658,252.65054 -1.84551,-1.34947 3.14417,0.46147 3.14417,0.46146 -0.54881,0.888 -0.54881,0.888 h -0.74986 -0.74985 z"
           id="path157" />
        <path
           style="fill:#333333;fill-opacity:1"
           d="m 140.32982,252.85611 v -1.37391 l -5.51746,-8.2411 -5.51746,-8.2411 -1.23254,-0.0318 -1.23254,-0.0318 2,-1.54147 2,-1.54147 2,-1.09044 2,-1.09045 -1.24956,1.51565 -1.24956,1.51565 5.60207,8.64807 5.60207,8.64807 h 0.66536 0.66535 l 3.66081,-2.48758 3.6608,-2.48758 0.7193,-2.26242 0.71929,-2.26242 0.70661,2 0.70662,2 -4.60458,3.08548 -4.60458,3.08549 -2.75,1.77952 -2.75,1.77953 z"
           id="path156" />
        <path
           style="fill:#333333;fill-opacity:1"
           d="m 274.09796,258.08128 1.67511,-2.91872 -0.98823,-2.81003 -0.98823,-2.81002 -2.4834,-1.25651 -2.48339,-1.25652 1.31574,-0.0147 1.31574,-0.0147 2.18426,1.1497 2.18426,1.14971 0.73469,1.10029 0.73468,1.1003 0.0153,3.09501 0.0153,3.09501 -1.82874,1.65499 L 273.67234,261 h -0.62475 -0.62475 z"
           id="path155" />
        <path
           style="fill:#333333;fill-opacity:1"
           d="M 297.82982,254.5 V 247 h 1.09346 1.09347 l 4.40653,5.23759 4.40654,5.23759 0.587,-5.48759 0.58701,-5.48759 0.16299,7.97784 0.163,7.97785 -3.25,-3.95302 -3.25,-3.95301 -2.28269,-2.52483 -2.2827,-2.52483 0.2827,6.25182 0.28269,6.25182 -1,-0.002 -1,-0.002 z"
           id="path154" />
        <path
           style="fill:#333333;fill-opacity:1"
           d="M 281.82982,254.5 V 247 l 1.5,-0.002 1.5,-0.002 -0.33628,7.10981 -0.33627,7.10981 4.58627,-0.36476 4.58628,-0.36527 v 0.7572 V 262 h -5.75 -5.75 z"
           id="path153" />
        <path
           style="fill:#333333;fill-opacity:1"
           d="m 269.14232,261.31689 1.3125,-0.52522 0.60417,0.60416 0.60416,0.60417 -1.91666,-0.079 -1.91667,-0.0789 z"
           id="path152" />
        <path
           style="fill:#333333;fill-opacity:1"
           d="M 263.82982,254.5 V 247 h 1.171 1.17099 l 0.32901,7.50233 0.329,7.50233 -1.5,-0.002 -1.5,-0.002 z"
           id="path151" />
        <path
           style="fill:#333333;fill-opacity:1"
           d="m 256.04286,259.72082 0.45084,-2.35844 -3.63911,-2.77569 -3.63911,-2.77568 0.30717,-2.07718 0.30717,-2.07717 1.17131,-0.38544 1.17132,-0.38543 -0.49268,1.88399 -0.49267,1.88398 3.62865,2.76771 3.62866,2.76771 -0.3073,2.57829 -0.30729,2.57829 -1.1189,0.36676 -1.11891,0.36675 z"
           id="path150" />
        <path
           style="fill:#333333;fill-opacity:1"
           d="m 249.34513,260.25 0.0153,-1.75 0.74632,1 0.74632,1 0.90503,0.75 0.90503,0.75 h -1.66664 -1.66667 z"
           id="path149" />
        <path
           style="fill:#333333;fill-opacity:1"
           d="M 234.15882,254.50233 234.48783,247 l 1.17099,-0.002 1.171,-0.002 -0.32978,6.94421 -0.32979,6.9442 4.82979,0.3778 4.82978,0.3778 -6,0.18258 -6,0.18258 z"
           id="path148" />
        <path
           style="fill:#333333;fill-opacity:1"
           d="m 223.72587,258.4526 -2.70573,-3.54739 2.15484,-1.50931 2.15484,-1.50931 v -0.87187 -0.87186 L 223.75839,248.57143 222.18696,247 h 0.63717 0.63717 l 1.93426,1.03518 1.93426,1.03519 v 1.40811 1.40811 l -2.06581,1.44695 -2.06582,1.44695 3.16941,3.60976 L 229.537,262 h -1.5527 -1.5527 z"
           id="path147" />
        <path
           style="fill:#333333;fill-opacity:1"
           d="M 216.32982,254.5 V 247 h 1.25 1.25 v 7.5 7.5 h -1.25 -1.25 z"
           id="path146" />
        <path
           style="fill:#333333;fill-opacity:1"
           d="m 194.15735,253.45977 0.32753,-8.7459 -1.32753,-0.84162 -1.32753,-0.84162 5.28212,-0.0153 5.28212,-0.0153 3.38739,1.41534 3.38739,1.41534 1.08049,2.01892 1.08049,2.01892 v 3.00997 3.00998 l -2.36527,2.74979 -2.36527,2.7498 -6.38473,0.40881 -6.38473,0.40881 z m 11.71792,5.08568 2.45455,-2.45454 V 252.5 248.90909 L 205.87527,246.45455 203.42073,244 h -3.04546 -3.04545 v 8.5 8.5 h 3.04545 3.04546 z"
           id="path145" />
      </g>
    </g>
  </g>
</svg>
