<?xml version="1.0" encoding="UTF-8" standalone="no"?>
<!-- Created with Inkscape (http://www.inkscape.org/) -->

<svg
   version="1.1"
   id="svg1"
   width="391.80707"
   height="113.24294"
   viewBox="0 0 391.80707 113.24294"
   xmlns="http://www.w3.org/2000/svg"
   xmlns:svg="http://www.w3.org/2000/svg">
  <defs
     id="defs1" />
  <g
     id="g1"
     transform="translate(-1.6004961,138.13437)">
    <g
       id="g2"
       transform="translate(0,-139.89143)">
      <path
         style="fill:#d0d0d0;fill-opacity:1"
         d="M 196.75,113.9199 195,112.90062 v -0.82747 -0.82748 l 4.43364,0.49974 4.43364,0.49974 3.58009,-2.21262 3.58009,-2.21262 4.37038,-6.15995 L 219.76823,95.5 223.88412,87.272197 228,79.044395 v -0.696512 -0.696511 l -2.25,2.061463 -2.25,2.061463 -4.49019,2.255708 -4.49018,2.255708 h -5.17282 -5.17283 l -3.33699,-1.940146 -3.33699,-1.940146 -1.46125,-4.179742 -1.46126,-4.179743 1.19214,-5.683534 1.19213,-5.683534 2.8665,-6.089434 2.8665,-6.089435 4.70001,-5.199636 4.7,-5.199635 5.69792,-2.787732 5.69792,-2.787732 8.1797,-0.01263 8.1797,-0.01263 2.825,2.12022 2.82499,2.12022 -0.30696,2.37978 L 244.88607,43.5 243.86548,46.75 242.8449,50 H 241.92245 241 v -3.444236 -3.444237 l -2.283,-2.654141 -2.28299,-2.654142 -4.59843,-0.518309 -4.59842,-0.518309 -3.52557,1.163542 -3.52556,1.163541 -4.41292,4.717771 -4.41293,4.717771 -2.85155,4.865804 -2.85155,4.865805 -2.32854,6.415059 L 201,71.090978 v 4.280197 4.280197 l 2.31445,2.174314 L 205.6289,84 l 3.93555,-0.02196 3.93555,-0.02196 4.16147,-1.889512 4.16148,-1.889511 4.04703,-4.047036 4.04704,-4.047035 2.04149,-4.001653 L 234,64.079676 V 63.539838 63 H 229.5 225 V 61.968615 60.93723 l 1.25,-0.384535 1.25,-0.384536 8.40623,-0.564825 8.40622,-0.564825 -2.01901,2.230746 L 240.27442,63.5 233.88721,77.99786 227.5,92.49572 l -4.64362,7.120109 -4.64362,7.120111 -3.41021,2.60109 -3.4102,2.60109 -3.66406,1.53094 L 204.06424,115 201.28212,114.9696 198.5,114.9392 Z M 58.3264,101.99821 54.1528,101.13038 51.3264,99.647609 48.5,98.164842 44.812623,94.332421 41.125247,90.5 37.497485,84.5 33.869722,78.5 29.408131,69.197758 24.94654,59.895517 25.532287,58.947758 26.118034,58 h 3.539854 3.539854 L 36.716931,56.330035 40.23612,54.660071 42.114322,51.580035 43.992524,48.5 43.996262,44.306704 44,40.113408 41.777494,38.556704 39.554988,37 h -2.7094 -2.7094 L 31.987144,40.018055 29.8381,43.036109 22.075453,59.268055 14.312806,75.5 12.520545,80.25 10.728284,85 H 8.0641421 5.4 L 4.2166667,86.183333 3.0333333,87.366667 2.3169147,86.650248 1.600496,85.933829 5.3721071,79.216915 9.1437181,72.5 l 8.3780219,-17 8.378023,-17 -1.941851,-0.318499 -1.94185,-0.318498 -4.022798,2.260939 -4.022797,2.260939 -2.025869,3.433591 -2.0258682,3.433591 -0.5794033,-0.579403 -0.5794033,-0.579403 0.6666193,-3.553387 0.6666195,-3.553387 4.736746,-2.400291 4.736747,-2.400291 6.247233,-1.229068 6.247233,-1.229068 6.005189,0.544531 6.005188,0.544532 2.508886,1.643885 2.508886,1.643885 0.996664,2.621425 0.996664,2.621426 -0.63938,2.911079 -0.639381,2.91108 -4.151918,4.311475 L 41.5,57.792559 37,59.076614 l -4.5,1.284056 -0.313188,0.216187 -0.313189,0.216187 4.177985,8.353478 4.177985,8.353478 4.429415,6.700987 4.429415,6.700987 3.98397,3.155362 3.983969,3.155362 4.456295,1.341148 4.456296,1.341148 L 70.734476,98.58809 75.5,97.281186 77.25,96.533604 79,95.786022 v 1.16322 1.163219 l -4.292481,1.898769 -4.29248,1.89877 -3.95752,0.47802 L 62.5,102.86605 Z M 87.950604,86.440482 86.656319,84.880963 88.199209,80.190482 89.742099,75.5 91.877157,70 94.012215,64.5 89.895985,69 85.779756,73.5 82.875483,79.25 79.97121,85 h -0.926588 -0.926588 l -0.669026,-1.082506 -0.669026,-1.082507 3.191302,-6.923616 3.191301,-6.923616 -0.390384,-1.171153 -0.390385,-1.171153 -4.940908,7.522416 L 72.5,81.69028 71.353571,83.59514 70.207141,85.5 68.89799,84.244419 67.588838,82.988838 70.283554,77.494419 72.978269,72 H 70.048152 67.118034 L 66.5,71 65.881966,70 h -0.873595 -0.873596 l -0.704385,2.25 -0.704385,2.25 -2.910149,4.2487 -2.910149,4.2487 -2.961885,1.531651 -2.961884,1.53165 L 48.990969,84.995167 47,83.929632 47.0098,80.714816 47.0196,77.5 l 2.335062,-5 2.335061,-5 2.69909,-3.196552 2.699089,-3.196552 2.20608,-0.692428 2.20608,-0.692427 2.272524,-2.436846 2.272523,-2.436846 1.109847,0.369949 1.109847,0.369949 0.11763,6.955877 L 68.5,69.5 71.15585,69.807337 73.811701,70.114675 76.65585,64.807337 79.5,59.5 l 1,0.5 1,0.5 -0.0064,2.69547 -0.0064,2.695469 2.205526,-2.071983 2.205525,-2.071983 1.664335,0.638665 1.664334,0.638665 -0.516584,1.975421 -0.516584,1.975421 4.256122,-3.487573 L 96.705984,60 H 98.352992 100 v 0.979902 0.979902 L 96,72 92,82.040196 V 83.520098 85 h 1.803833 1.803833 l 2.948447,-3.25 2.948447,-3.25 2.37946,-4.736384 2.37946,-4.736383 4.78187,-4.472882 4.78187,-4.472882 2.82649,-0.709403 2.82648,-0.709403 1.33134,-1.331332 L 124.14286,56 h 1.5119 1.51191 l -0.42111,1.25 -0.4211,1.25 1.58777,1.218197 1.58777,1.218196 -2.31272,0.0318 -2.31271,0.0318 -2.93233,6.467103 -2.93232,6.467104 -1.20377,4.500755 -1.20377,4.500755 0.62345,0.623448 0.62345,0.623447 1.98785,-0.630919 1.98785,-0.63092 4.74991,-4.896432 4.74991,-4.896432 3.0876,-5.737173 3.0876,-5.737174 1.70204,-1.041411 1.70203,-1.041412 0.70188,0.70188 0.70188,0.701879 -3.20831,6.960517 -3.20831,6.960517 -0.57645,3.552234 L 134.73832,82 h 1.4808 1.4808 l 3.90004,-2.826132 3.90004,-2.826133 2.55712,-3.423867 2.55712,-3.423868 1.77164,-4.739658 1.77164,-4.739659 0.80793,-0.499331 0.80794,-0.499331 1.1827,1.425067 1.1827,1.425067 -1.0694,1.998181 L 156,65.868517 v 0.77815 0.778149 l 4.99375,-4.918659 4.99375,-4.918659 1.18782,1.187821 1.18782,1.187821 -4.68314,9.76843 -4.68315,9.76843 0.002,1.75 L 159,83 h 2.00332 2.00331 l 4.74905,-4.75 4.74904,-4.75 2.13128,-3 2.13128,-3 0.69738,0.664354 0.69738,0.664353 -1.21684,2.273694 -1.21685,2.273694 -4.58269,4.899274 -4.5827,4.899274 -2.73182,1.412678 L 161.09932,86 H 158.04966 155 v -3.06554 -3.065541 l 3.50816,-7.592962 3.50817,-7.592962 -0.38153,-0.381529 -0.38153,-0.38153 -4.02118,4.802856 -4.02118,4.802856 -2.81963,5.749118 -2.81963,5.749118 -1.03582,-0.359559 -1.03583,-0.359559 0.0304,-2.53575 0.0304,-2.535749 -3.11388,2.375069 -3.11387,2.375069 -3.16401,0.632801 -3.16401,0.632802 -1.50248,-1.246949 L 130,82.755111 v -2.064647 -2.064646 l -2.75,2.53373 -2.75,2.53373 -2.47251,1.653361 L 119.55499,87 h -2.71848 -2.71848 l -0.7071,-1.144111 -0.7071,-1.144111 0.0846,-2.976336 0.0846,-2.976335 -1.9814,2.12679 -1.98141,2.126791 -2.48076,1.625455 -2.48076,1.625455 -1.72437,-1.54815 -1.72438,-1.54815 -3,2.411384 -3,2.411384 -2.627555,0.005 L 89.244889,88 Z m -30.455007,-8.613193 2.66203,-4.0226 1.435655,-4.069078 1.435655,-4.069079 -0.605034,-1.906293 -0.605034,-1.906293 -2.05034,1.823027 -2.05034,1.823027 -2.858306,6 -2.858305,6 -7.89e-4,2.718615 L 52,82.93723 53.416783,82.39356 54.833566,81.849889 Z M 116.60407,68.75 120.02514,62 h -0.87771 -0.87771 l -2.46157,1.936266 -2.46156,1.936266 -3.05985,5.813734 -3.05985,5.813734 -0.72847,2.5 -0.72846,2.5 3.70651,-3.5 3.70652,-3.5 z M 278.75,86.919901 277,85.90062 V 83.915126 81.929632 L 275.06574,82.964816 273.13148,84 h -2.04669 -2.04669 l -0.59573,-2.373591 -0.59573,-2.373592 -3.08807,2.820511 -3.08806,2.820511 -2.9535,1.223379 -2.9535,1.223379 L 254.13176,86.31945 252.5,85.298302 252.18328,82.104136 251.86657,78.90997 248.39849,81.954985 244.93041,85 h -1.89782 -1.89781 l -0.56271,-1.772928 -0.56271,-1.772928 0.95335,-3.324113 0.95334,-3.324112 3.0534,-4.758312 3.0534,-4.758312 1.77778,-1.608868 1.77778,-1.608868 6.78346,-3.53578 L 265.14533,55 h 0.53432 0.53433 l -0.59013,1.537854 -0.59013,1.537854 1.48314,0.569135 L 268,59.213978 V 60.106989 61 h -2.06272 -2.06271 l -2.80437,6.25 -2.80437,6.25 -1.22408,3.791241 -1.22408,3.791242 0.5732,1.493729 0.5732,1.493729 2.81983,-1.458193 2.81984,-1.458193 3.98326,-4.326778 3.98327,-4.326777 2.93739,-6.75 2.93739,-6.75 h 1.30886 1.30886 l 0.61838,1.611467 0.61838,1.611466 -1.67399,2.833837 -1.67399,2.833837 -2.46718,6.554697 L 272.01719,81 h 0.83642 0.83641 l 1.56222,-1.75 1.56222,-1.75 4.02816,-8.75 4.02816,-8.75 h 1.04556 1.04556 l 0.58754,2.340968 0.58755,2.340969 -3.49691,6.409031 -3.4969,6.409032 -0.68288,3.75 -0.68288,3.75 h 1.83465 1.83465 l 5.52664,-5.901203 5.52664,-5.901203 2.23139,-5.198645 2.23139,-5.198646 -1.57163,0.603093 -1.57163,0.603093 -0.95832,-0.592272 -0.95832,-0.592272 1.17101,-1.410973 L 296.24489,60 h 2.15827 2.15827 l 3.71905,-7.516066 3.71905,-7.516065 3.48768,-1.663159 3.48768,-1.663158 0.65422,0.65422 0.65422,0.65422 -2.03471,1.775004 L 312.21391,46.5 308.52089,53.25 304.82787,60 H 310.41393 316 v 1.5 1.5 h -6.26731 -6.26731 l -2.31716,5.833755 -2.31716,5.833755 -0.16553,3.416245 L 298.5,81.5 l 2.19086,0.311801 2.19087,0.311802 2.59034,-1.69726 2.59035,-1.69726 0.58016,0.580166 0.58017,0.580166 L 319.37393,59.694708 329.52511,39.5 336.01256,28.622188 342.5,17.744377 348.37365,11.333925 354.24731,4.9234733 356.87365,3.5657396 359.5,2.2080059 362,1.993312 364.5,1.7786181 366.29545,1.889309 368.09091,2 370.54545,4.4545455 373,6.9090909 V 10.954545 15 h -0.81953 -0.81954 L 369.93047,11.758705 368.5,8.5174104 365.90159,7.6189755 363.30318,6.7205406 359.56182,7.4224248 355.82045,8.1243091 351.24676,12.312155 346.67307,16.5 341.7319,24 l -4.94117,7.5 -6.46719,13.37382 -6.46719,13.373821 -0.93636,2.462795 -0.93635,2.462794 3.37621,-2.086615 L 328.73607,59 H 330.36803 332 v 0.810018 0.810019 l -3.52615,7.157604 -3.52615,7.157604 -0.22385,3.743807 -0.22385,3.743807 1.71694,0.355528 1.71694,0.355528 4.02175,-3.816957 4.02175,-3.816958 3.76131,-6.907498 3.76131,-6.907497 1.70204,-1.057133 1.70203,-1.057133 0.70188,0.70188 0.70188,0.701879 -3.20831,6.960517 -3.20831,6.960517 -0.57645,3.552234 L 340.73832,82 h 1.90299 1.903 l 3.76227,-3.101181 3.76227,-3.101181 2.38789,-4.712274 2.38789,-4.712275 4.14743,-3.746955 4.14744,-3.746956 2.18025,0.310411 L 369.5,59.5 l 0.29757,2.554662 0.29758,2.554662 -2.10123,2.67127 -2.10122,2.67127 -3.9298,1.177398 -3.9298,1.177397 -0.62643,3.339141 -0.62643,3.33914 0.5785,1.50753 L 357.93723,82 h 2.08105 2.08104 l 2.70034,-1.410724 2.70034,-1.410723 2.64554,-2.839277 2.64554,-2.839276 3.61703,-7.25 3.61703,-7.25 h 1.08105 1.08105 l 0.48939,1.871449 0.4894,1.87145 3.86911,-2.119322 3.86911,-2.119322 1.22075,1.220747 1.22075,1.220747 -1.15919,2.544145 -1.15919,2.544145 -1.91559,-1.196304 -1.91559,-1.196305 -2.60152,1.704582 -2.60152,1.704582 -2.36014,3.738699 -2.36013,3.7387 -2.68698,5.302491 -2.68698,5.302491 -1.19946,-0.417696 -1.19946,-0.417697 0.0795,-2.149453 0.0795,-2.149453 -1.57947,1.380073 L 366.5,82.758822 363.29966,84.379411 360.09932,86 h -2.39467 -2.39467 L 353.65499,84.171259 352,82.342519 V 80.664987 78.987455 L 347.84996,81.993728 343.69992,85 h -3.3714 -3.3714 l -1.14964,-2.523187 -1.14964,-2.523186 -2.57892,2.401 -2.57892,2.401 -2.18426,1.122187 L 325.13148,87 h -2.45875 -2.45875 L 319.60699,85.418213 319,83.836425 319.027,81.668213 319.0541,79.5 l 2.95678,-6.932834 2.95678,-6.932834 -0.57347,-0.567166 -0.57347,-0.567166 -2.22936,2.789419 -2.22936,2.789419 -3.89672,7.992362 -3.89673,7.992361 -1.53428,-0.312988 -1.53428,-0.312989 0.0653,-2.08719 0.0653,-2.08719 -4.06526,1.846436 -4.06526,1.846436 -2.22695,0.02196 L 296.04611,85 294.3741,82.448201 292.7021,79.896402 289.60105,82.828207 286.5,85.760012 284.31574,86.880006 282.13148,88 281.31574,87.969591 280.5,87.939183 Z M 255.51217,68.84489 259.10906,62 h -1.18646 -1.18645 l -3.25561,3.451955 -3.25561,3.451955 -2.0199,4.298045 -2.0199,4.298045 -0.70759,2.5 -0.70758,2.5 3.57266,-3.40511 3.57266,-3.405109 z M 364.4433,66.777494 366,64.554988 V 63.19416 61.833333 l -1.24083,0.413612 -1.24084,0.413611 -1.85122,3.169722 L 359.8159,69 h 1.53534 1.53535 z m -220.97675,-17.831625 -0.65484,-1.05954 0.6132,-2.443164 L 144.0381,43 H 146.01905 148 v 2.464816 2.464816 l -1.93931,1.037889 -1.93931,1.037888 z m 206,0 -0.65484,-1.05954 0.6132,-2.443164 L 350.0381,43 H 352.01905 354 v 2.464816 2.464816 l -1.93931,1.037889 -1.93931,1.037888 z"
         id="path9" />
      <path
         style="fill:#b9b9b9;fill-opacity:1"
         d="M 197.25,114.01416 195,113.06445 v -0.90939 -0.90939 l 4.43364,0.49974 4.43364,0.49974 3.36407,-2.07911 3.36406,-2.07911 3.02849,-3.79346 3.02849,-3.79347 4.06339,-7 4.06339,-7 1.61041,-3.872124 L 228,78.755752 v -0.55219 -0.55219 l -2.25,2.061463 -2.25,2.061463 -4.21016,2.112851 L 215.07968,86 h -5.5895 -5.5895 l -2.81549,-1.455949 -2.8155,-1.455949 -1.63485,-3.44518 L 195,76.197742 V 73.204206 70.21067 l 1.98524,-6.427465 1.98524,-6.427465 3.86738,-5.98358 3.86737,-5.98358 3.86668,-3.187245 3.86668,-3.187245 4.30864,-2.025296 4.30863,-2.025297 5.72207,-0.592997 5.72207,-0.592998 4.0912,1.107032 4.09119,1.107031 1.52706,1.754218 L 245.7365,39.5 244.24018,44.75 242.74385,50 H 241.87193 241 v -3.444236 -3.444237 l -2.34914,-2.731041 -2.34915,-2.731042 -5.90085,-0.412396 -5.90086,-0.412395 -4.1719,2.837673 -4.17189,2.837674 -3.2112,4 -3.2112,4 -3.98015,8.226186 -3.98014,8.226186 -0.5135,6.397077 -0.51349,6.397077 2.12673,2.126737 L 205,84 h 4.54966 4.54966 l 3.20034,-1.618055 3.20034,-1.618054 3.22259,-2.411929 3.22259,-2.411929 2.96983,-4.316498 2.96982,-4.316498 0.60602,-2.414577 0.60602,-2.414576 -4.66851,0.371302 -4.66852,0.371302 0.45004,-1.360244 0.45005,-1.360244 8.42004,-0.642791 8.42003,-0.642791 0.41054,0.38666 0.41053,0.38666 -1.59342,1.760709 -1.59342,1.760709 -3.42672,7.995422 -3.42672,7.995422 -4.74627,9.5 -4.74626,9.5 -3.89515,5.20844 -3.89515,5.20845 -4.24898,2.48989 -4.24898,2.4899 -4,0.5336 -4,0.53359 z M 59.461335,101.92101 54.422671,101.26993 51.341377,99.676533 48.260083,98.083134 43.663343,92.970453 39.066603,87.857772 31.954426,73.841095 24.842249,59.824418 25.247396,59.419271 25.652542,59.014125 31.076271,57.99757 36.5,56.981015 39,55.144109 41.5,53.307202 42.735258,50.903601 43.970516,48.5 43.985258,44.306704 44,40.113408 41.777494,38.556704 39.554988,37 h -3.19316 -3.193159 L 25.258607,52.75 17.348545,68.5 13.924273,76.736948 10.5,84.973896 7.95,84.986948 5.4,85 4.2166667,86.183333 3.0333333,87.366667 2.3632233,86.696557 1.6931132,86.026447 4.9069401,80.263223 8.1207671,74.5 l 8.9334919,-18 8.933492,-18 0.0061,-0.680194 0.0061,-0.680195 -2.80842,0.805444 -2.808419,0.805445 -3.071239,1.588199 -3.071239,1.588199 -2.160977,3.662583 -2.1609762,3.662582 -0.5238478,-0.523848 -0.5238477,-0.523847 0.683336,-3.642495 0.6833357,-3.642494 3.882595,-1.980752 3.882594,-1.980752 6.233619,-1.596979 6.233619,-1.596979 6.113093,0.490701 6.113094,0.4907 2.892731,1.38645 2.892731,1.38645 1.257535,2.623759 1.257536,2.62376 -0.661256,3.306276 -0.661255,3.306276 -4.242285,4.242286 -4.242285,4.242285 -4.344886,1.248905 L 32.5,60.36067 l -0.348415,0.251414 -0.348416,0.251413 5.661604,10.896664 5.661603,10.896663 4.402625,5.609399 4.402624,5.609399 4.738659,2.777039 4.73866,2.77704 5.071474,-0.07331 5.071473,-0.07331 3.167304,-1.637876 3.167303,-1.637876 0.502369,0.812849 0.502369,0.81285 -2.880422,1.701507 -2.880421,1.701505 -4.315197,0.76802 L 64.5,102.57209 Z M 87.950604,86.440482 86.656319,84.880963 88.199209,80.190482 89.742099,75.5 91.944805,70 94.147511,64.5 90.616116,67.90511 87.084721,71.310219 83.487832,78.15511 79.890944,85 H 78.914087 77.93723 l -0.511393,-1.332669 -0.511393,-1.33267 2.635452,-5.247066 2.635451,-5.247067 0.880232,-3.170264 L 83.945811,65.5 81.017826,69 78.08984,72.5 74.413116,78.75 70.736392,85 H 69.836811 68.93723 L 68.400472,83.60123 67.863714,82.20246 70.448703,77.10123 73.033692,72 H 70.216846 67.4 L 66.075,70.75 64.75,69.5 64.341653,70.600042 63.933305,71.700085 60.716653,77.007071 57.5,82.314056 54.099842,84.11185 50.699684,85.909643 48.849842,84.919638 47,83.929632 v -3.305093 -3.305094 l 3.085026,-6.173684 3.085026,-6.173684 3.259365,-2.486038 L 59.688782,60 h 0.790938 0.790939 l 2.387194,-2.575825 2.387194,-2.575826 1.227477,0.450826 L 68.5,55.75 l -0.310845,1.307534 -0.310844,1.307534 -0.105768,4.643373 -0.105768,4.643373 0.72563,1.174093 L 69.118034,70 h 2.377514 2.377514 L 76.686531,64.75 79.5,59.5 l 1,0.5 1,0.5 -0.156894,2.836845 -0.156893,2.836845 2.356012,-2.213359 2.356013,-2.213358 1.664335,0.638665 1.664334,0.638665 -0.534394,2.043527 -0.534395,2.043528 4.339238,-3.555679 L 96.836594,60 h 1.022686 1.022686 l 0.516712,0.836057 0.516711,0.836057 -3.930675,9.913943 L 92.054038,81.5 92.027019,83.25 92,85 h 1.760218 1.760219 l 2.76442,-2.563316 2.764423,-2.563315 2.20065,-4.686685 2.20066,-4.686684 5.0247,-5.17614 5.02471,-5.176139 2.9901,-0.742529 2.99009,-0.742529 1.33134,-1.331332 L 124.14286,56 h 1.5119 1.51191 l -0.42111,1.25 -0.4211,1.25 1.58777,1.218197 1.58777,1.218196 -2.31507,0.0318 -2.31507,0.0318 -3.40083,7.360655 -3.40083,7.360656 -0.66191,4.139344 L 116.74438,84 h 1.25978 1.25977 l 3.26119,-2.015523 3.26118,-2.015524 2.85685,-3.650755 2.85685,-3.650756 3.06405,-5.515135 3.06405,-5.515136 1.63798,-1.033216 1.63799,-1.033216 0.54512,0.545119 0.54512,0.545119 -3.49715,8.069956 L 135,76.80089 V 79.400445 82 h 2.10407 2.10407 L 145.10407,75.974522 151,69.949043 v -0.891616 -0.891616 l 2.03942,-4.757772 2.03942,-4.757772 1.5582,1.558202 1.5582,1.558201 -1.09762,2.050924 L 156,65.868517 v 0.702583 0.702584 l 5.08263,-4.754209 5.08264,-4.754208 1.05407,1.05407 1.05407,1.054071 -4.11467,8.313296 L 160.04408,76.5 159.39704,79.75 158.75,83 h 2.0902 2.09021 l 3.59348,-3.155115 3.59347,-3.155115 3.00352,-4.365462 3.00352,-4.365461 0.9405,0.581265 0.94051,0.581265 -1.15755,2.162894 -1.15754,2.162895 -4.89501,5.175742 -4.895,5.175743 -2.85521,1.182667 -2.85521,1.182668 -2.34495,-0.331993 L 155.5,85.5 l -0.31209,-2.193069 -0.31209,-2.193068 3.13048,-7.306932 3.13048,-7.306931 0.50603,-1.5 0.50603,-1.5 -4.59204,4.992646 -4.59205,4.992646 -2.6679,5.778846 -2.6679,5.778846 -1.06447,-0.369109 -1.06448,-0.369109 0.0267,-2.488756 0.0267,-2.488755 -4.4725,2.836373 L 136.60844,85 H 134.50422 132.4 l -1.2,-1.2 -1.2,-1.2 v -1.823254 -1.823253 l -5.1553,4.075029 -5.1553,4.07503 -3.0947,-0.301776 L 113.5,86.5 l -0.31812,-3.880139 -0.31813,-3.880138 -3.18187,2.985487 -3.18188,2.985488 -1.67689,0.58521 -1.67688,0.58521 -1.13545,-1.368124 -1.13544,-1.368125 -3.577216,2.427566 L 93.720906,88 H 91.482898 89.244889 Z M 56.891149,78.933358 59.086527,75.96395 61.043264,71.39907 63,66.834189 V 64.417095 62 H 62.088894 61.177787 L 58.449414,65.242487 55.721041,68.484975 53.86052,72.825393 52,77.165811 v 2.88571 2.885709 l 1.347886,-0.517232 1.347885,-0.517232 z M 111.24335,77.5 l 2.49166,-3 3.14689,-6.25 3.14689,-6.25 h -1.44159 -1.44159 l -3.09888,3.75 -3.09888,3.75 -1.88136,4 -1.88136,4 -0.69369,2.356279 -0.69368,2.35628 1.47696,-0.85628 L 108.75168,80.5 Z M 278.75,86.919901 277,85.90062 V 83.378881 80.857143 L 275.42857,82.428571 273.85714,84 h -2.40952 -2.40952 l -0.63123,-2.515017 -0.63122,-2.515017 -3.86262,3.489637 -3.86261,3.489638 -2.53819,0.637047 -2.5382,0.637047 -1.48702,-1.234112 L 252,84.755111 V 81.773963 78.792816 L 248.4652,81.896408 244.93041,85 h -1.89782 -1.89781 l -0.58186,-1.833266 -0.58186,-1.833266 1.48728,-4.215394 1.48728,-4.215394 3.19137,-4.443906 3.19137,-4.443905 2.58582,-1.744305 L 254.5,60.526258 259.89092,57.763129 265.28184,55 h 0.42647 0.42647 L 265.5,57 264.86522,59 H 266.43261 268 v 1 1 l -2.25,0.0085 -2.25,0.0085 -3.28315,7.741504 L 256.93369,76.5 256.336,80.25 255.73832,84 h 0.6805 0.6805 l 2.70034,-1.417579 2.70034,-1.417579 3.64956,-3.832421 3.64957,-3.832421 3.613,-7.25 3.61301,-7.25 h 0.92841 0.92842 l 0.66902,1.082506 0.66903,1.082507 -3.16555,6.867735 -3.16554,6.867734 -0.87466,3.049759 L 272.13961,81 h 0.77521 0.7752 l 1.58798,-1.754691 1.58797,-1.754691 4.02123,-8.745309 L 284.90843,60 h 1.02674 1.02673 l 0.58734,2.340169 0.58735,2.340168 -2.8886,4.909832 L 282.35939,74.5 281.1797,77.899223 280,81.298447 V 83.149223 85 h 1.70094 1.70093 l 5.54907,-5.824208 5.54906,-5.824209 2.21175,-5.232169 2.21174,-5.232169 -1.71174,0.171532 L 295.5,63.230309 294.62756,63.115154 293.75511,63 295,61.5 l 1.24489,-1.5 2.12755,-0.0043 2.12756,-0.0043 3.89105,-7.579153 3.89105,-7.579152 3.34639,-1.595783 3.3464,-1.595782 0.57316,0.573163 0.57316,0.573164 -2.4852,2.485201 -2.4852,2.485201 -3.0898,6.12086 L 304.97121,60 H 310.4856 316 v 1.5 1.5 h -6.39855 -6.39854 l -2.69573,7.391219 -2.69573,7.39122 0.35449,1.85878 0.35449,1.858781 2.18065,0.311801 2.18065,0.311802 2.51516,-1.647997 2.51516,-1.647997 0.9119,0.563585 0.9119,0.563586 4.20176,-9.22739 4.20177,-9.22739 8.5828,-16 8.5828,-16 4.97644,-7.5 4.97643,-7.5 4.62108,-4.8284551 L 354.5,4.8430899 357.20034,3.4215449 359.90068,2 h 3.46787 3.46788 l 1.61877,0.6211813 1.61877,0.6211814 1.46302,2.8291587 L 373,8.9006801 v 2.3829929 2.382994 l -0.63972,0.639722 -0.63972,0.639723 -1.61028,-3.212335 -1.61028,-3.2123349 -2.59841,-0.9004508 -2.59841,-0.9004507 -3.74136,0.7018842 -3.74137,0.7018843 -4.57369,4.1878459 -4.57369,4.187845 -4.94506,7.5 -4.94506,7.5 -6.75437,14 -6.75438,14 -0.63698,1.831489 -0.63699,1.831488 3.36792,-2.081488 L 328.73607,59 H 330.36803 332 v 0.578132 0.578131 l -3.60497,7.495045 -3.60497,7.495045 -0.5267,3.926823 L 323.73666,83 h 2.17039 2.1704 l 4.12998,-3.85241 4.12999,-3.85241 3.59378,-6.796482 3.59378,-6.796481 1.68955,-1.065739 1.68954,-1.065739 0.54512,0.545119 0.54512,0.545119 -3.49715,8.069956 L 341,76.80089 V 79.400445 82 h 1.77216 1.77215 l 3.62618,-2.989003 3.62618,-2.989004 3.00272,-5.320532 3.00273,-5.320532 3.69814,-3.247015 3.69815,-3.247016 2.15079,0.306551 L 369.5,59.5 l 0.29757,2.554662 0.29758,2.554662 -2.10123,2.67127 -2.10122,2.67127 -3.9298,1.177398 -3.9298,1.177397 -0.62643,3.339141 -0.62643,3.33914 0.5785,1.50753 L 357.93723,82 h 2.85139 2.85138 l 4.22919,-3.620025 4.22918,-3.620026 3.96198,-7.879974 L 380.02232,59 h 0.88185 0.88185 l 0.61024,1.590242 0.61023,1.590242 -0.64341,1.04105 -0.6434,1.04105 3.87229,-2.631292 L 389.46427,59 h 1.29925 1.29925 l 0.54562,1.421859 0.54562,1.42186 -1.14675,2.142707 -1.14674,2.142707 -1.38227,-1.147185 -1.38227,-1.147185 -2.00407,0.636067 -2.00407,0.636066 -2.60884,3.100431 -2.60884,3.10043 -3.48178,6.913889 -3.48178,6.913888 -1.2033,-0.427999 -1.2033,-0.428 0.23053,-2.096417 0.23053,-2.096418 -3.65743,2.481996 -3.65742,2.481996 -2.24401,0.563211 -2.24401,0.56321 -1.8291,-0.341494 -1.82909,-0.341493 -1.52833,-3.053544 -1.52834,-3.053545 -3.87034,2.806482 L 343.70265,85 h -3.38355 -3.38355 l -0.85036,-2.25 -0.85036,-2.25 0.57097,-1 0.57098,-1 -4.16318,3.72462 -4.16318,3.724621 -2.67999,0.672634 -2.67998,0.672634 -1.59523,-0.998116 -1.59522,-0.998117 -0.30846,-2.566581 -0.30845,-2.566582 3.05845,-7.187266 L 325,65.790582 v -1.050279 -1.050278 l -1.96021,1.773967 -1.96021,1.773967 -4.56417,8.837071 -4.56417,8.837071 -0.77337,0.477967 -0.77336,0.477966 -1.34797,-0.833092 -1.34797,-0.833092 0.58516,-1.524925 0.58517,-1.524924 -4.18945,1.902038 -4.18945,1.902037 -2.22695,0.02196 -2.22694,0.02196 -1.63915,-2.501658 -1.63915,-2.501658 -3.495,3.068645 -3.49499,3.068646 -2.45401,0.933012 L 280.8698,88 280.6849,87.969591 280.5,87.939183 Z M 255.87815,68.5 l 3.03682,-6 -1.15811,-0.400207 -1.1581,-0.400208 -3.31307,3.832655 -3.31307,3.832654 -2.48631,5.255628 L 245,79.876149 v 1.29722 1.297219 L 248.92066,78.485294 252.84133,74.5 Z M 364.4433,66.777494 366,64.554988 V 63.19416 61.833333 l -1.24083,0.413612 -1.24084,0.413611 -1.85122,3.169722 L 359.8159,69 h 1.53534 1.53535 z M 143,47.581787 V 46.163575 L 143.60699,44.581787 144.21398,43 H 146.10699 148 v 1.418213 1.418212 L 147.39301,47.418213 146.78602,49 H 144.89301 143 Z M 349,47.269551 V 45.4 l 1.2,-1.2 1.2,-1.2 h 1.36642 1.36642 l -0.31642,2.75 -0.31642,2.75 -2.25,0.319551 -2.25,0.319551 z"
         id="path8" />
      <path
         style="fill:#a3a3a3;fill-opacity:1"
         d="m 198.07414,114.15348 -2.42586,-0.70865 -0.44245,-1.32735 -0.44246,-1.32736 2.36832,0.7548 2.36831,0.7548 1,0.008 1,0.008 2.29762,-0.15754 2.29762,-0.15753 4.77948,-4.77948 4.77948,-4.77948 4.26199,-7.297532 4.26198,-7.29753 2.45345,-5.547669 2.45344,-5.547668 -3.17606,2.672477 -3.17606,2.672478 -3.82663,1.952202 L 215.07968,86 h -5.96312 -5.96311 l -3.00997,-2.532726 -3.00998,-2.532726 -1.15114,-3.488008 -1.15115,-3.488008 0.69736,-4.229266 0.69736,-4.229266 2.37535,-5.893659 2.37536,-5.893658 4.00361,-5.302751 4.00362,-5.302751 4.48906,-3.088559 4.48907,-3.088558 6.65643,-1.64264 6.65644,-1.642639 5.50955,1.15564 5.50955,1.155641 1.77876,1.609757 1.77877,1.609758 -1.37185,4.558312 -1.37185,4.558312 -1.0539,1.053897 L 241,50.4 V 46.623077 42.846154 L 238.07692,39.923077 235.15385,37 h -5.23907 -5.23906 l -4.2427,2.486384 -4.24269,2.486385 -3.57871,4.87518 -3.57872,4.87518 -3.63244,7.648897 -3.63244,7.648896 -0.51075,6.362802 -0.51074,6.362802 2.12673,2.126737 L 205,84 h 4.53984 4.53984 l 3.93235,-2.006139 3.93236,-2.00614 3.45712,-3.035393 3.45713,-3.035393 2.57068,-4.386537 L 234,65.14386 v -1.449093 -1.449093 l -4.5,0.507216 -4.5,0.507215 v -1.06878 -1.068779 L 229.5,60.561273 234,60 238.5,59.438727 243,58.877454 V 59.938727 61 h -0.89112 -0.89113 l -4.23697,9.75 -4.23698,9.75 -5.45339,10.742074 -5.4534,10.742076 -4.29333,4.41751 -4.29334,4.41752 -2.90972,1.50468 -2.90973,1.50468 -3.46545,0.51679 -3.46544,0.51679 z M 52.478678,100.12931 48.457355,98.302548 43.891746,93.224491 39.326136,88.146435 32.070114,73.999505 24.814091,59.852575 25.157046,59.596008 25.5,59.339441 31.471224,58.048497 37.442448,56.757552 40.721224,53.478776 44,50.2 V 45.254988 40.309975 L 42.171259,38.654988 40.342519,37 H 36.751434 33.160349 L 24.777712,53.75 16.395075,70.5 13.254599,77.75 10.114124,85 H 7.7570618 5.4 L 4.2166667,86.183333 3.0333333,87.366667 2.5327898,86.866123 2.0322463,86.36558 14.016123,62.674854 26,38.984129 V 38.06187 37.139611 l -2.80842,0.805444 -2.808419,0.805445 -3.13202,1.61963 -3.13202,1.619631 L 12.343953,44.99488 10.568785,48 H 9.7049372 8.8410895 L 9.5517711,44.764288 10.262453,41.528575 11.881226,40.286201 13.5,39.043827 l 5.113526,-1.956817 5.113526,-1.956816 5.954803,-0.67371 5.954803,-0.673709 5.569834,1.156293 5.569833,1.156293 1.470809,1.702319 1.470808,1.70232 0.581212,2.379261 0.581212,2.379261 -1.550253,3.874463 -1.550252,3.874463 -2.938126,2.47227 -2.938127,2.47227 -4.951804,1.758725 L 32,60.469438 32.007,61.484719 32.014,62.5 l 6.242959,11.215234 6.242958,11.215235 3.778493,4.50931 3.778493,4.50931 4.675016,2.739741 4.675015,2.739741 5.046491,-0.02616 L 71.5,99.376243 74.75,97.662441 78,95.94864 v 1.005356 1.005356 L 74.039838,99.979676 70.079676,102 63.289838,101.97804 56.5,101.95608 Z M 87.962067,85.929122 86.853766,83.858243 87.832255,81.179122 88.810744,78.5 l 2.604008,-7 2.604008,-7 -4.617677,4.966365 -4.617676,4.966364 -2.336675,5.283636 L 80.110058,85 H 79.114046 78.118034 L 77.570217,84.113614 77.0224,83.227228 79.866125,76.863614 82.70985,70.5 83.261305,68.25 83.812761,66 h -0.374836 -0.374837 l -3.850664,5.25 -3.850665,5.25 -2.36502,4.25 -2.365021,4.25 h -0.70887 -0.70887 L 68.617589,83.445837 68.021201,81.891674 70.472747,77.053781 72.924293,72.215887 70.212147,71.749373 67.5,71.282859 l -1.579401,-0.682954 -1.579401,-0.682953 -1.824981,4.047086 -1.824981,4.047085 -3.447882,3.55017 -3.447881,3.55017 L 50.647737,84.805731 47.5,84.5 47.176916,81.119605 46.853833,77.739209 49.987138,71.374563 53.120443,65.009916 56.404612,62.504958 59.688782,60 h 0.975273 0.975274 l 2.173722,-2.5 2.173722,-2.5 h 1.135444 1.135444 l -0.647962,4.88458 -0.647963,4.88458 0.994381,2.61542 L 68.950498,70 h 2.507905 2.507905 l 2.49783,-4.929231 2.497831,-4.92923 1.026078,-0.634152 1.026079,-0.634151 0.624396,1.627152 0.624397,1.627152 -1.162377,2.551138 -1.162376,2.551139 3.107642,-2.614908 L 86.153451,62 H 87.076725 88 l 0.115154,1.25 0.115155,1.25 -0.181611,1.771238 -0.181611,1.771239 4.316457,-4.008772 L 96.5,60.024933 97.690983,60.012466 98.881966,60 l 0.556694,0.90075 0.556694,0.90075 -2.897982,6.84925 -2.897983,6.84925 -1.267598,4.282096 -1.267599,4.282096 0.923753,0.923753 0.923754,0.923754 3.239768,-2.051276 3.239768,-2.051276 3.614815,-6.879008 3.61482,-6.879007 4.33046,-3.991679 4.33046,-3.99168 2.7992,-0.702555 2.7992,-0.702555 1.33134,-1.331332 L 124.14286,56 h 1.39718 1.39719 l -0.5756,1.5 -0.57561,1.5 H 126.89301 128 v 1 1 l -1.75,0.0025 -1.75,0.0025 -3.75,8.904434 -3.75,8.904435 V 81.406931 84 h 1.04966 1.04966 l 2.82404,-1.460368 2.82404,-1.460367 3.99438,-4.789633 3.99439,-4.789632 2.67257,-5.296986 2.67257,-5.296985 1.50247,-0.576553 1.50248,-0.576553 0.43473,0.434733 0.43473,0.434733 -3.46565,7.938806 L 135.02442,76.5 135.01221,79.25 135,82 h 2.08 2.08 l 5.75988,-5.759877 5.75987,-5.759878 1.75855,-5.294492 1.75855,-5.294491 1.65158,0.342684 1.65157,0.342683 -0.13891,1.461686 -0.13892,1.461685 -0.78543,2 -0.78544,2 5.25698,-4.867367 5.25699,-4.867366 1.06746,1.06746 1.06746,1.06746 -3.52873,6.799906 -3.52872,6.799907 -1.21253,3.791241 -1.21254,3.791242 0.5732,1.493729 0.5732,1.493729 2.81983,-1.458193 2.81984,-1.458193 3.94813,-4.326778 L 173.5,72.5 l 1.57769,-2.43331 1.57769,-2.433309 0.67429,1.091013 0.67428,1.091014 -4.04478,5.117032 -4.04478,5.117033 -4.17253,3.022562 -4.17252,3.022562 -3.03467,-0.297299 L 155.5,85.5 l -0.31247,-2.195927 -0.31246,-2.195927 3.59857,-8.184632 3.59858,-8.184632 -0.42918,-0.429174 -0.42917,-0.429174 -4.34628,5.045714 -4.34627,5.045713 -2.51066,5.26402 L 147.5,84.5 l -1,-0.5 -1,-0.5 0.0327,-2.163358 0.0327,-2.163357 -2.73847,1.949959 -2.73847,1.94996 -2.97334,1.036515 -2.97335,1.036515 -2.07088,-1.108301 L 130,82.929632 v -2.349293 -2.349293 l -4.25,3.912296 -4.25,3.912296 -2.17091,0.560737 -2.1709,0.560738 -1.8291,-0.348239 L 113.5,86.480635 113,82.662702 112.5,78.84477 109.56291,81.922385 106.62582,85 h -2.25389 -2.2539 l -0.61627,-0.997146 -0.61627,-0.997147 -3.674878,2.497147 L 93.535731,88 h -2.232682 -2.232681 z m -31.563262,-6.207561 2.500588,-3.27844 2.028341,-4.47156 L 62.956076,67.5 62.978038,64.75 63,62 h -1.363999 -1.363999 l -2.58973,3.75 -2.58973,3.75 -1.546271,3.717881 L 52,76.935763 V 79.967881 83 h 0.949109 0.949108 z M 111.85503,76.75 l 3.91982,-5.25 2.17101,-4.3247 2.17101,-4.324701 -0.4226,-1.175299 -0.42259,-1.1753 -4.26356,4.426363 -4.26355,4.426363 -2.36252,5.073637 -2.36251,5.073637 -0.01,1.25 L 106,82 h 0.96761 0.9676 z M 278.60537,86.462515 277,84.857143 V 82.773584 80.690025 L 275.17126,82.345012 273.34252,84 H 271.17126 269 l -0.11848,-1.75 -0.11849,-1.75 0.21119,-1.462815 0.2112,-1.462815 -4.53361,4.178928 -4.5336,4.178929 -2.57209,0.645554 -2.57209,0.645554 -1.48702,-1.234112 L 252,84.755111 V 81.773963 78.792816 L 248.4652,81.896408 244.93041,85 h -1.85822 -1.85821 l -0.55362,-1.442701 -0.55361,-1.442701 0.81328,-2.835771 0.81329,-2.835771 2.03076,-3.971528 2.03077,-3.971528 4.34116,-4.290828 4.34116,-4.290829 2.51141,-0.611662 2.51142,-0.611662 2.38486,-1.84751 L 264.26972,55 h 0.93253 0.93253 L 265.5,57 264.86522,59 H 265.93261 267 v 1.043837 1.043837 L 265.34432,60.793837 263.68864,60.5 l -3.81268,9 -3.81267,9 -0.0316,2.75 L 256,84 h 1.55986 1.55986 l 5.36365,-5.072713 5.36364,-5.072713 3.52721,-7.427287 L 276.90142,59 h 1.08067 1.08068 l 0.49754,1.296566 0.49754,1.296567 -3.41145,7.453433 -3.41144,7.453434 -0.68487,2.25 -0.68487,2.25 h 1.55825 1.55824 l 5.11629,-10.607139 5.11629,-10.607139 1.64286,1.660236 1.64285,1.660236 -3.72555,6.867899 -3.72555,6.867899 -0.65226,4.079004 L 279.74438,85 h 1.90495 1.90495 l 2.99366,-2.75 2.99366,-2.75 2.60858,-3.5 2.60857,-3.5 2.0899,-4.807653 2.08989,-4.807652 -1.71927,0.172807 L 295.5,63.230309 294.62756,63.115154 293.75511,63 295,61.5 l 1.24489,-1.5 2.12755,-0.01078 2.12756,-0.01078 3.98193,-7.583472 3.98193,-7.583472 2.71841,-1.405745 L 313.90068,42 h 1.13855 1.13856 l -2.64972,3.149014 -2.64972,3.149013 -2.95357,5.850987 L 304.97121,60 H 310.4856 316 v 0.893011 0.893011 L 314.41821,62.393011 312.83643,63 h -4.84637 -4.84636 l -2.19307,5.75 -2.19308,5.75 -0.12877,3.5 -0.12878,3.5 2.30782,0.327127 2.30781,0.327128 2.47043,-1.618688 2.47043,-1.618687 0.83777,0.517771 0.83778,0.517772 4.26009,-9.226212 4.26009,-9.226211 7.99417,-15 7.99418,-15 6.30039,-9.54952 6.30039,-9.549519 4.587,-4.2281488 4.587,-4.2281488 2.55742,-0.9723317 L 361.1302,2 h 2.85311 2.85312 l 1.61877,0.6211813 1.61877,0.6211814 1.46302,2.8291587 L 373,8.9006801 v 2.4906429 2.490643 L 372,14.5 371,15.118034 V 13.513562 11.909091 L 368.54545,9.4545455 366.09091,7 362.29545,7.00374 358.5,7.00748 l -3.02695,1.8459172 -3.02694,1.8459168 -3.47306,3.679706 -3.47305,3.679705 -3.83118,5.720639 -3.83117,5.72064 -8.02201,16.313486 -8.022,16.313487 0.55052,0.550518 0.55052,0.550518 2.68752,-2.114005 L 328.26972,59 H 330.13486 332 v 0.396208 0.396209 l -3.58891,7.557226 -3.58891,7.557227 -0.54276,4.046565 L 323.73666,83 h 2.15401 2.15402 l 4.36722,-4.025566 4.36722,-4.025566 3.69939,-7.039955 3.6994,-7.039956 1.45417,-0.558017 1.45417,-0.558017 0.43473,0.434733 0.43473,0.434733 -3.46565,7.938806 L 341.02442,76.5 341.01221,79.25 341,82 h 1.99712 1.99712 l 4.05942,-3.667446 4.05943,-3.667446 1.31836,-3.155281 1.31836,-3.155282 3.31322,-3.773547 3.31322,-3.773548 2.30319,-0.875673 2.30319,-0.875672 1.50869,0.578936 L 370,60.213978 v 2.316088 2.316088 L 366.92308,67.923077 363.84615,71 h -1.85164 -1.85165 L 358.57143,72.571429 357,74.142857 V 77.371429 80.6 l 1.10118,1.101177 1.10117,1.101177 3.09188,-0.886737 3.09187,-0.886738 3.91238,-3.764439 3.91238,-3.76444 3.39378,-7.373103 3.39377,-7.373103 1.54631,1.283317 1.5463,1.283317 -0.52177,1.359704 -0.52177,1.359705 3.7084,-2.519919 L 389.46427,59 h 1.29925 1.29925 l 0.54562,1.421859 0.54562,1.42186 -1.16965,2.1855 -1.16964,2.1855 -1.10736,-1.10736 L 388.6,64 h -1.69641 -1.69641 l -3.1152,3.54802 -3.1152,3.548021 -3.53509,7.019746 -3.53509,7.019747 -1.2033,-0.427999 -1.2033,-0.428 0.23053,-2.096417 0.23053,-2.096418 -3.58111,2.430206 -3.58111,2.430205 -3.57363,0.670417 -3.57363,0.670417 -1.89205,-2.336586 -1.89205,-2.336586 0.4759,-1.819849 0.4759,-1.819849 -3.71911,2.945591 -3.71911,2.945591 -2.61836,0.657166 -2.61836,0.657165 -2.07217,-0.657682 L 336,83.865225 v -2.510536 -2.510535 l -4.22318,3.614886 -4.22318,3.614886 -2.4316,0.610291 -2.43159,0.610292 -1.59523,-0.999382 -1.59522,-0.999382 -0.30507,-2.03734 -0.30506,-2.037341 3.15391,-8.178357 3.1539,-8.178357 -0.52519,-0.525189 -0.52519,-0.52519 -3.17451,4.343014 -3.17452,4.343015 -2.42101,5.423896 -2.42101,5.423896 -1.1108,1.338435 -1.11081,1.338435 -1.30788,-1.085444 -1.30788,-1.085444 0.54755,-1.426887 L 309.21398,81 h -1.04797 -1.04798 l -0.60124,0.972825 -0.60123,0.972825 -3.9536,1.064594 -3.95361,1.064595 -2.00417,-1.072603 L 294,82.929632 V 81.464816 80 h -0.87756 -0.87755 l -1.28363,1.54668 -1.28363,1.546681 -2.58882,1.822123 -2.58881,1.822124 -2.14463,0.66514 -2.14463,0.66514 z m -27.10225,-10.466762 3.52158,-4.797356 2.07121,-4.682307 2.07121,-4.682308 -0.47855,-0.478543 -0.47854,-0.478544 -3.55818,3.124127 -3.55819,3.124126 -3.04683,6.097248 L 245,79.319445 v 1.308893 1.308892 l 1.49077,-0.572061 1.49077,-0.572061 z M 364.17126,67.345012 366,65.690025 v -1.928346 -1.928346 l -1.24083,0.413612 -1.24084,0.413611 -1.85122,3.169722 L 359.8159,69 h 1.26331 1.26331 z M 143.18045,46.852128 143.5,44.704255 l 1.70204,-1.066758 1.70203,-1.066758 0.66806,0.66806 0.66806,0.668061 -0.63915,2.54657 L 146.9619,49 h -2.0505 -2.0505 z m 206,0 0.31955,-2.147873 1.70204,-1.066758 1.70203,-1.066758 0.66806,0.66806 0.66806,0.668061 -0.63915,2.54657 L 352.9619,49 h -2.0505 -2.0505 z"
         id="path7" />
      <path
         style="fill:#8c8c8c;fill-opacity:1"
         d="M 198.5825,114.09201 195.665,113.5 l -0.45081,-1.35494 -0.45082,-1.35494 2.36832,0.82281 2.36831,0.8228 2.71513,-0.0726 2.71514,-0.0726 3.42623,-2.61332 3.42623,-2.61331 3.49937,-4.78197 3.49938,-4.78197 3.55952,-6.5 3.55952,-6.5 1.56539,-3.755343 1.56539,-3.755342 -4.4716,3.413254 -4.47161,3.413254 -3.65611,1.206625 -3.65611,1.206626 -5.39562,-0.447448 -5.39563,-0.447447 -2.46329,-2.314139 -2.46329,-2.31414 -1.15518,-3.50025 -1.15519,-3.50025 1.24647,-5.6027 1.24647,-5.6027 3.09523,-6.365903 3.09522,-6.365904 4.53447,-4.826721 4.53447,-4.826721 5.94588,-2.720358 5.94587,-2.720358 7.05413,-0.03109 7.05412,-0.0311 3.25,1.719757 3.25,1.719757 v 2.506439 2.506438 L 243.28665,46.782119 241.57329,50.5 241.23121,46.29225 240.88913,42.084499 237.86784,39.54225 234.84655,37 h -5.22749 -5.2275 l -4.53769,2.87772 -4.5377,2.87772 -4.66116,7.011387 -4.66116,7.011386 -2.49692,6.633723 L 201,70.045658 V 75.022829 80 l 2,2 2,2 h 4.76481 4.76481 L 218.51481,81.897605 222.5,79.795211 225.38442,77.147605 228.26885,74.5 231.13442,70.054219 234,65.608439 V 63.82335 62.038261 l -4.5,0.616793 -4.5,0.616794 V 62.135924 61 l 1.75,-0.03272 1.75,-0.03272 6.98453,-0.899422 6.98452,-0.899422 0.44248,0.442473 0.44247,0.442473 -1.50378,1.239667 -1.50378,1.239668 -4.30593,10 -4.30592,10 -3.98039,8 -3.98038,8 -3.40914,4.509703 -3.40914,4.5097 -4.72777,3.13208 -4.72777,3.13209 -3,0.45023 -3,0.45022 z M 54.238879,100.66513 50.977757,99.48242 47.390186,96.61983 43.802615,93.757239 39.525896,87.12862 35.249178,80.5 30.124589,70.268169 25,60.036337 v -0.404625 -0.404624 l 4.736825,-0.710331 4.736826,-0.710331 2.674878,-1.383234 2.674879,-1.383233 2.088296,-2.654838 L 44,49.730283 V 45.020129 40.309975 L 42.171259,38.654988 40.342519,37 H 36.701822 33.061125 L 24.225823,54.75 15.390522,72.5 12.723847,78.75 10.057172,85 H 7.728586 5.4 L 4.2166667,86.183333 3.0333333,87.366667 2.5569658,86.890299 2.0805983,86.413932 14.246575,62.246575 26.412552,38.079219 l -0.642235,-0.642235 -0.642235,-0.642236 -5.58406,2.556467 -5.58406,2.556467 -1.729981,3.039837 L 10.5,47.987355 9.641592,47.993677 8.7831839,48 9.4546426,45.25 10.126101,42.5 11.837099,40.753729 13.548097,39.007458 19.524049,36.84484 25.5,34.682222 l 8.540706,-0.0554 8.540706,-0.0554 3.459294,2.014166 3.459294,2.014167 0.272009,4.450119 0.27201,4.450119 -1.974269,3.195666 -1.974268,3.195666 -2.669805,1.749323 -2.669804,1.749323 -4.819634,1.631607 -4.819635,1.631608 6.457435,11.958569 6.457435,11.958569 4.483023,5.124769 4.483024,5.124769 5.197584,2.590066 L 63.392689,100 66.446344,99.978038 69.5,99.956076 73.75,98.02693 78,96.097784 v 0.930784 0.930784 L 74.039838,99.979676 70.079676,102 63.789838,101.92392 57.5,101.84784 Z m 33.789908,-14.611341 -1.041581,-1.946211 1.561733,-4.599978 1.561733,-4.599977 1.969796,-4.595346 1.969795,-4.595347 -0.378918,-0.378918 -0.378918,-0.378919 -4.233,4.592263 -4.233,4.592262 -2.400603,5.428191 L 80.02522,85 h -0.953593 -0.953593 l -0.518495,-0.838942 -0.518494,-0.838942 3.557879,-8.229323 3.55788,-8.229322 -0.508243,-0.508244 -0.508243,-0.508243 -3.947626,5.326508 L 75.285066,76.5 72.958392,80.75 70.631718,85 h -0.70887 -0.70887 L 68.68643,83.625232 68.158881,82.250464 70.533436,77.125232 72.90799,72 h -2.262865 -2.262866 l -1.900708,-1.389832 -1.900708,-1.389831 -1.69094,3.776837 -1.690941,3.776837 -3.715843,4.112994 L 53.767275,85 H 50.990626 48.213978 L 47.606989,83.418213 47,81.836425 v -1.3807 -1.3807 L 49.04447,73.61069 51.08894,68.146354 55.162117,64.073177 59.235294,60 h 1.814965 1.814966 l 0.600506,-1.892029 0.600507,-1.89203 2.029176,-0.530641 2.029175,-0.530642 -0.662369,5.301422 -0.662369,5.301422 1.167333,2.181181 1.167333,2.181181 2.682741,-0.309932 L 74.5,69.5 l 2.238447,-4.438447 2.238447,-4.438447 0.97877,-0.97877 0.978771,-0.978771 0.664242,1.730987 0.664242,1.730988 -1.162377,2.551138 -1.162376,2.551139 3.107642,-2.614908 L 86.153451,62 H 87.076725 88 v 3.12736 3.12736 L 92.477657,64.12736 96.955314,60 h 0.963326 0.963326 l 0.529646,0.856985 0.529646,0.856986 -3.539965,8.682858 -3.539965,8.682858 -0.561507,3.460156 L 91.738315,86 h 0.982959 0.98296 l 3.32056,-2.25 3.320556,-2.25 3.2828,-6.5 3.28279,-6.5 4.5564,-4.173151 4.55639,-4.17315 2.91904,-0.641128 2.91903,-0.641129 1.19155,-1.435721 L 124.24489,56 h 1.34617 1.34617 l -0.5756,1.5 -0.57561,1.5 H 126.89301 128 v 1 1 h -1.86135 -1.86136 l -3.26076,7.75 -3.26076,7.75 -0.50955,3.75 -0.50956,3.75 h 2.21829 2.2183 l 5.43031,-5.562064 5.43031,-5.562064 3.02057,-5.983712 3.02057,-5.983712 1.50562,-0.577763 1.50563,-0.577762 0.43473,0.434733 0.43473,0.434733 -3.46565,7.938806 L 135.02442,76.5 135.01221,79.25 135,82 h 2.20094 2.20093 l 5.61873,-5.777785 5.61872,-5.777784 1.87789,-5.222216 L 154.39509,60 h 1.24344 1.24344 l 0.59988,0.970632 0.59988,0.970633 -1.67935,3.279367 -1.67936,3.279368 5.71218,-5.376308 5.71218,-5.376309 0.96726,0.967253 0.96725,0.967253 -4.02733,8.327994 -4.02732,8.327994 -0.63366,3.37769 -0.63366,3.37769 0.52711,0.527108 0.52711,0.527108 2.8948,-1.496959 2.8948,-1.496959 4.03982,-4.382694 4.03983,-4.382694 1.02042,-1.82338 1.02041,-1.82338 1.1267,0.379296 1.12669,0.379297 -3.74708,4.955436 -3.74708,4.955437 -4.38821,3.346997 -4.38821,3.346997 -3.10351,-0.302434 L 155.5,85.5 l -0.31651,-2.226825 -0.31652,-2.226825 3.65697,-8.099383 3.65698,-8.099382 -0.44425,-0.444246 -0.44424,-0.444246 -4.08946,4.436538 -4.08946,4.436537 -3.09043,6.122118 -3.09044,6.122118 -1.06049,-0.655419 -1.06049,-0.655419 0.46204,-2.417027 0.46205,-2.417027 -2.11788,1.562404 -2.11787,1.562404 -3.41841,1.555624 -3.4184,1.555625 -2.3316,-1.062346 L 130,83.042878 V 80.394079 77.74528 l -4.44089,4.093473 -4.4409,4.093474 -2.55687,0.641733 -2.55687,0.641734 -1.50223,-0.576462 L 113,86.06277 V 82.427793 78.792816 L 109.4652,81.896408 105.93041,85 h -1.88187 -1.88187 l -0.3893,-1.1679 -0.3893,-1.1679 -3.926171,2.6679 L 93.535731,88 h -2.232682 -2.232681 z m -31.629982,-6.332228 2.500588,-3.27844 2.028341,-4.47156 L 62.956076,67.5 62.978038,64.75 63,62 H 61.568094 60.136188 L 58.051724,64.92736 55.967259,67.854721 54.005592,72.17736 52.043924,76.5 52.021962,79.75 52,83 h 0.949109 0.949108 z m 54.477775,-1.388003 3.02219,-3.666442 3.12445,-5.86206 3.12445,-5.86206 -0.37256,-1.117669 -0.37256,-1.11767 -3.65444,3.208646 -3.65445,3.208645 -3.04683,6.097248 L 106,79.319445 V 80.659722 82 h 0.9272 0.92719 z M 253.2,85.8 252,84.6 v -2.847123 -2.847123 l -3.94915,3.173624 -3.94915,3.173625 -1.55085,-0.595117 L 241,84.06277 241.009,80.781385 241.018,77.5 l 2.93368,-5.114902 2.93369,-5.114902 4.69772,-4.135098 L 256.28158,59 h 2.25222 2.25222 l 0.52236,-1.361237 0.52235,-1.361236 2.12572,-0.555888 2.12572,-0.555887 -0.60847,1.917124 L 264.86522,59 H 265.93261 267 v 0.888889 0.888889 L 265.32885,60.638889 263.65769,60.5 l -3.45055,7.947911 -3.45054,7.94791 -0.50997,3.80209 L 255.73666,84 h 1.43739 1.43739 l 3.02238,-2.25 3.02238,-2.25 2.99952,-3.5 2.99953,-3.5 3.11983,-6.75 3.11984,-6.75 h 0.99352 0.99353 l 0.67412,1.090754 0.67412,1.090754 -3.56168,7.659246 -3.56169,7.659246 -0.66467,2.761304 -0.66466,2.761304 1.41416,-0.542665 1.41417,-0.542666 1.90894,-3.218638 1.90895,-3.218639 3.62233,-7.494074 3.62232,-7.494075 1.17065,2.187377 1.17065,2.187376 -4.00484,7.604206 L 280,79.095017 V 82.047508 85 h 2.0373 2.03731 l 4.4377,-4.566059 4.4377,-4.566059 2.97809,-6.183941 2.97809,-6.183941 -2.01073,-0.327103 -2.01072,-0.327104 0.38475,-1.172896 0.38475,-1.172897 2.69625,-0.318677 2.69625,-0.318678 3.88642,-7.729705 3.88642,-7.729704 2.63726,-1.201618 L 314.09411,42 h 1.14003 1.14004 l -2.58137,2.75 -2.58136,2.75 -3.12012,6.25 -3.12012,6.25 h 4.95538 4.95538 l 0.54777,0.88631 0.54777,0.88631 -2.23876,0.600035 -2.23875,0.600036 -4.13386,0.01365 -4.13385,0.01365 -2.25762,5.562405 -2.25761,5.562405 -0.10853,3.687595 L 298.5,81.5 l 2.30782,0.327127 2.30781,0.327128 2.52895,-1.65703 2.52895,-1.657031 0.58771,0.587716 0.58772,0.587715 12.33672,-24.179547 12.33671,-24.179547 6.40948,-9.627785 6.40948,-9.627785 4.587,-4.2281488 4.587,-4.2281488 2.55742,-0.9723317 L 361.1302,2 364.3151,2.031803 367.5,2.063606 369.08666,3.2818027 370.67331,4.5 371.83666,6.6842585 373,8.8685171 v 2.5067249 2.506724 L 372,14.5 371,15.118034 V 13.693876 12.269717 L 368.92742,9.6348587 366.85484,7 h -4.27694 -4.27694 l -4.3961,2.9524549 -4.3961,2.9524551 -4.80109,6.297545 -4.8011,6.297545 -9.42251,18.947443 -9.42251,18.947442 0.40355,0.403545 0.40354,0.403545 3.41007,-2.600988 L 328.68878,59 H 330.34439 332 v 0.396208 0.396209 l -3.58891,7.557226 -3.58891,7.557227 -0.54276,4.046565 L 323.73666,83 h 2.49483 2.49483 l 4.55859,-4.873502 4.55859,-4.873503 3.11575,-6.172273 3.11576,-6.172274 1.50562,-0.577763 1.50563,-0.577762 0.47421,0.474211 0.47421,0.474211 -3.11286,6.652024 -3.11286,6.652024 -0.53615,3.997303 L 340.73666,82 h 2.12879 2.12879 l 4.08056,-3.686545 4.08057,-3.686544 2.32907,-4.563456 2.32907,-4.563455 2.84324,-2.637656 2.84325,-2.637655 2,-0.589516 2,-0.589516 1.38535,0.869837 1.38534,0.869838 -0.66078,2.63277 -0.66078,2.63277 -2.00582,2.005814 -2.00581,2.005814 -3.00427,0.600853 -3.00426,0.600853 -0.96449,1.802156 L 357,74.868517 v 3.458753 3.458752 l 1.5559,0.597054 1.55589,0.597054 3.19411,-1.373681 3.1941,-1.37368 3.70297,-3.866385 3.70298,-3.866384 3.0946,-6.832963 3.0946,-6.832962 1.49793,1.243176 1.49794,1.243177 -0.5662,1.475497 -0.56621,1.475498 2.2707,-1.650969 2.27069,-1.650969 2.27713,-1.157617 2.27712,-1.157617 L 392.2,59.8 393.34575,60.945749 392.125,63.625 390.90425,66.304251 389.75213,65.152126 388.6,64 h -1.60383 -1.60384 l -3.09394,3.25 -3.09395,3.25 -3.64892,7.317767 -3.64892,7.317767 -1.2033,-0.427999 -1.2033,-0.428 0.23949,-2.147002 0.23949,-2.147002 -3.75585,2.485507 -3.75586,2.485507 -2.98363,0.583821 -2.98364,0.58382 -1.875,-1.390079 -1.875,-1.39008 v -2.52027 -2.520271 L 347.77451,81.651743 342.79902,85 H 340.59951 338.4 l -1.2,-1.2 -1.2,-1.2 v -1.877923 -1.877923 l -4.22318,3.614886 -4.22318,3.614886 -2.4316,0.610291 -2.43159,0.610292 -1.59523,-0.999382 L 319.5,85.295745 319.18445,83.178423 318.8689,81.061101 322.34678,72.53055 325.82465,64 h -0.82343 -0.82343 l -2.75244,3.25 -2.75244,3.25 -2.94382,6.5 -2.94383,6.5 -1.02531,1.262331 -1.02531,1.262331 -1.30788,-1.085444 -1.30788,-1.085444 0.54755,-1.426887 L 309.21398,81 H 308.30699 307.4 l -1.07774,1.077736 -1.07773,1.077736 -3.80695,0.858607 -3.80695,0.858606 -1.81532,-0.971526 L 294,82.929632 V 80.905291 78.880949 L 289.18564,82.940474 284.37129,87 H 281.16064 277.95 l -0.60709,-3.035448 -0.60709,-3.035448 -1.79351,1.623101 -1.7935,1.623101 -1.82441,-0.346204 -1.8244,-0.346203 -0.32142,-2.793285 -0.32143,-2.793284 -3.98085,3.596462 -3.98085,3.596461 -2.51283,0.955374 L 255.8698,87 H 255.1349 254.4 Z m -1.8348,-9.653446 3.38366,-4.646554 2.184,-4.3247 2.18401,-4.324701 -0.35716,-1.071471 -0.35716,-1.071471 -3.65444,3.208646 -3.65445,3.208645 -3.04683,6.097248 L 245,79.319445 v 1.308893 1.308892 l 1.49077,-0.572061 1.49077,-0.572061 z M 364.25,67.192908 366,65.690025 365.95936,63.095012 365.91872,60.5 362.95936,63.962226 360,67.424452 v 1.346791 1.346791 l 1.25,-0.711121 1.25,-0.711122 z M 143,47.2 v -1.8 l 1.2,-1.2 1.2,-1.2 h 1.3 1.3 v 1.8 1.8 l -1.2,1.2 -1.2,1.2 h -1.3 -1.3 z m 206.18045,-0.347872 0.31955,-2.147873 1.70204,-1.066758 1.70203,-1.066758 0.66806,0.66806 0.66806,0.668061 -0.63915,2.54657 L 352.9619,49 h -2.0505 -2.0505 z"
         id="path6" />
      <path
         style="fill:#767676;fill-opacity:1"
         d="m 195.5612,113.09902 -0.55684,-0.90098 4.82332,0.15098 4.82333,0.15098 3.73545,-2.84738 3.73545,-2.84739 3.37817,-4.65261 3.37817,-4.65262 3.99391,-7.5 3.99391,-7.5 1.05663,-2.787915 1.05663,-2.787915 -4.56405,3.484913 -4.56406,3.484913 -3.53767,1.167539 -3.53768,1.167539 -5.39562,-0.447448 -5.39563,-0.447447 -2.50355,-2.351959 -2.50354,-2.35196 -1.03719,-3.851814 -1.03718,-3.851815 1.56285,-6.100414 1.56285,-6.100415 3.18577,-5.977118 3.18577,-5.977117 4.32946,-4.454687 4.32946,-4.454687 5.46672,-2.502745 5.46671,-2.502745 7.26911,-0.07531 7.2691,-0.07531 3.23452,1.672636 3.23452,1.672635 -0.006,1.72432 -0.006,1.72432 -1.04143,3.75 -1.04143,3.75 H 241.953 241 v -3.325686 -3.325686 l -2.33987,-2.198196 -2.33987,-2.198195 -3.32536,-0.9537 -3.32536,-0.953701 -2.58477,0.619482 -2.58477,0.619482 -3.73795,1.872278 -3.73796,1.872279 -3.96312,5.013722 -3.96312,5.013722 -3.0273,6.222099 -3.02731,6.2221 -1.48371,5.814551 -1.48371,5.814552 0.60064,3.003174 0.60063,3.003173 2.42616,1.589682 2.42616,1.589681 4.30646,-0.0651 4.30646,-0.0651 3.18857,-1.648875 3.18857,-1.648874 3.91843,-3.540064 3.91843,-3.540064 1.95577,-3.164507 1.95577,-3.164508 1.0776,-2.834281 1.07759,-2.834281 -5.01153,0.689261 L 225,63.187676 V 62.24935 61.311024 l 8.75,-1.064778 8.75,-1.064779 0.427,0.419599 0.427,0.419599 -1.57177,1.239667 -1.57178,1.239668 -4.71248,11 -4.71248,11 -4.0541,7.845968 -4.05411,7.845972 -4.83194,5.28691 -4.83194,5.28691 -3.40783,1.61712 L 206.19774,114 h -5.03985 -5.03986 z M 52.5,99.616709 47.5,97.252956 44.857231,94.376478 42.214462,91.5 38.575906,85.749068 34.93735,79.998136 l -4.995197,-10.21465 -4.995198,-10.21465 5.381908,-1.074653 5.381908,-1.074653 2.630687,-1.723692 2.630687,-1.723693 1.575481,-2.404488 1.575481,-2.404488 0.05775,-4.184502 0.05775,-4.184503 L 42.369304,39.018478 40.5,37.242792 37.795958,36.613879 35.091917,35.984966 33.144783,38.074969 31.197649,40.164972 24.58012,53.449193 17.962591,66.733414 14.121809,75.616707 10.281027,84.5 7.3905133,84.838485 4.5,85.176971 3.25,86.21093 2,87.244889 V 86.631197 86.017504 L 9.3278308,72.258752 16.655662,58.5 21.327831,48.436661 26,38.373322 v -0.705713 -0.705713 l -2.75,0.631296 -2.75,0.631297 -3.789949,2.428381 -3.789949,2.428381 -1.120566,2.459374 L 10.67897,48 H 9.820433 8.9618959 L 9.5864728,45.25 10.21105,42.5 12.146522,40.80651 14.081994,39.11302 19.790997,36.953937 25.5,34.794855 l 8.5,-0.0567 8.5,-0.0567 3.128819,1.622291 3.128818,1.62229 0.621182,1.618772 L 50,41.163575 v 3.186078 3.186078 l -2.462608,3.624054 -2.462609,3.624054 -5.233736,2.60808 L 34.607311,60 H 32.78926 30.97121 l 3.136284,6.25 3.136285,6.25 4.034112,6.941585 4.034112,6.941585 4.093999,4.459938 4.093998,4.459939 5,2.338707 5,2.338708 3,-0.01219 3,-0.01219 4.25,-1.929146 L 78,96.09779 v 1 1 l -4.25,1.92915 -4.25,1.92915 -6,0.0122 -6,0.0122 z M 88.666667,87.333333 88,86.666667 v -2.807302 -2.807302 l 3.039983,-7.652715 3.039984,-7.652715 -0.42667,-0.426669 -0.426669,-0.42667 -3.644806,3.803353 L 85.937017,72.5 82.917426,78.75 79.897836,85 H 78.948918 78 V 83.120843 81.241686 L 80.403572,75.870843 82.807143,70.5 83.547817,68.007842 84.288491,65.515684 82.644246,66.880287 81,68.244889 V 67.195025 66.14516 L 83.634859,64.07258 86.269717,62 H 87.134859 88 v 3.12736 3.12736 L 92.477657,64.12736 96.955314,60 h 0.963326 0.963326 L 99.337908,60.75 99.79385,61.5 95.947625,71 92.1014,80.5 92.0507,83.25 92,86 h 0.852117 0.852117 l 3.32056,-2.25 3.320556,-2.25 3.2828,-6.5 3.28279,-6.5 4.5564,-4.173151 4.55639,-4.17315 2.91904,-0.641128 2.91903,-0.641129 1.19155,-1.435721 L 124.24489,56 h 1.34617 1.34617 l -0.5756,1.5 -0.57561,1.5 H 126.89301 128 v 1 1 h -1.90668 -1.90668 l -2.99686,7.25 -2.99685,7.25 -0.99724,3.682561 -0.99723,3.682562 0.56743,0.567438 L 117.33333,84 h 1.89855 1.89855 l 5.33924,-5.339232 5.33923,-5.339232 3.13305,-6.206544 3.13306,-6.206544 1.50562,-0.577763 1.50563,-0.577762 0.47421,0.474211 0.47421,0.474211 -3.11286,6.652024 -3.11286,6.652024 -0.53615,3.997303 L 134.73666,82 h 2.33261 2.3326 l 5.61873,-5.777785 5.61872,-5.777784 1.87789,-5.222216 L 154.39509,60 h 1.13579 1.13579 l 0.62701,0.627016 0.62702,0.627016 -1.50819,3.622984 L 154.90433,68.5 159.73651,63.75 164.5687,59 H 166.28435 168 v 0.431673 0.431673 l -4.5,9.245747 -4.5,9.245747 V 81.17742 84 h 1.66 1.66 l 5.68988,-5.75 5.68988,-5.75 1.01223,-1.879297 1.01223,-1.879296 1.1267,0.379296 1.12669,0.379297 -3.7388,4.91031 -3.73881,4.91031 -3.69597,2.970836 -3.69598,2.970836 -3.80402,0.118854 L 155.5,85.5 l -0.30077,-2.106686 -0.30077,-2.106685 2.65672,-5.893315 2.65672,-5.893314 1.4844,-3.5 1.4844,-3.5 -4.5605,4.428908 -4.56049,4.428908 -3.65979,6.964598 -3.6598,6.964598 -0.91233,-1.630256 -0.91234,-1.630256 1.04228,-1.947508 L 147,78.131483 v -0.616427 -0.616428 l -3.25,3.059823 -3.25,3.059823 -3.3246,0.930853 -3.32459,0.930853 -1.47566,-0.566264 -1.47566,-0.566263 -0.57679,-2.883976 -0.5768,-2.883976 -4.31384,3.976363 -4.31385,3.976363 -2.57209,0.645554 -2.57209,0.645554 -1.48702,-1.234112 L 113,84.755111 V 81.773963 78.792816 L 109.4652,81.896408 105.93041,85 h -1.88187 -1.88187 L 101.74943,83.75 101.33219,82.5 97.362342,85.25 93.392499,88 H 91.362916 89.333333 Z M 111.31656,77.75 114.76701,73.5 117.8979,67.25 121.02879,61 h -0.9796 -0.9796 l -3.48796,3.062474 -3.48797,3.062474 -3.04683,6.097248 L 106,79.319445 V 80.659722 82 h 0.93305 0.93305 z m 142.24357,7.917627 -1.83496,-1.341754 0.46784,-3.187561 0.46783,-3.187561 -2.58042,2.402438 -2.58042,2.402438 -2.27067,1.168431 -2.27066,1.168431 -0.97934,-0.605262 L 241,83.881966 241.009,80.690983 241.018,77.5 l 2.8951,-5.04735 2.89511,-5.04735 4.0703,-3.67727 4.0703,-3.677271 2.77521,-0.691023 2.77521,-0.691024 1,-1.194619 1,-1.19462 1.81539,-0.633444 1.81539,-0.633445 L 265.498,57.006292 264.86522,59 H 265.93261 267 v 0.888889 0.888889 L 265.29065,60.638889 263.5813,60.5 260.17912,68.37207 256.77694,76.244139 256.2568,80.12207 255.73666,84 h 1.45353 1.45353 l 3.59141,-2.75 3.59142,-2.75 2.46418,-3 2.46417,-3 3.05984,-6.75 3.05983,-6.75 h 0.95573 0.95572 l 0.56053,1.460717 0.56053,1.460716 -3.95354,8.436636 L 272,78.794704 V 80.397352 82 h 0.91844 0.91844 l 2.27324,-3.678172 2.27323,-3.678171 3.26927,-6.821829 L 284.9219,61 h 0.93206 0.93206 l 0.57829,1.50699 0.57829,1.506991 -3.9713,7.540518 L 280,79.095017 V 82.047508 85 h 2.02632 2.02631 l 4.41779,-4.417789 4.41779,-4.417789 3.05589,-6.053694 L 299,64.057033 V 63.528517 63 h -2 -2 v -0.933578 -0.933577 l 2.75,-0.316423 2.75,-0.316422 4,-7.743889 4,-7.743889 2.97814,-1.444641 2.97813,-1.444641 0.44248,0.442473 0.44247,0.442473 -2.06203,2.246057 L 311.21716,47.5 308.10858,53.721483 305,59.942967 V 60.471483 61 l 5.75,0.118315 5.75,0.118315 -3,0.76337 -3,0.76337 -3.62686,0.118315 L 303.24629,63 l -2.24882,5.227516 -2.24882,5.227516 -0.47802,3.563974 -0.47803,3.563974 1.43184,1.188328 1.43185,1.188327 3.8833,-1.979817 L 308.42288,79 H 308.71144 309 v 0.839485 0.839485 l -2.75,1.278844 -2.75,1.278844 -2.87773,0.848497 -2.87772,0.848497 -1.87228,-1.00201 L 294,82.929632 v -2.042739 -2.042739 l -4.22318,3.614886 -4.22318,3.614886 -2.4316,0.610291 -2.43159,0.610292 -1.59523,-0.999382 -1.59522,-0.999382 -0.33033,-2.230159 -0.33034,-2.230159 -1.84526,1.66994 -1.84526,1.669939 -1.8167,-0.349864 -1.8167,-0.349864 -0.5077,-2.848143 -0.50771,-2.848143 -2,2.218281 -2,2.218281 -2.5,1.760877 -2.5,1.760877 -2.05246,0.635886 -2.05245,0.635886 z M 250.3149,77.75 l 3.4488,-4.25 2.6751,-5.329145 2.6751,-5.329145 -0.35567,-1.067026 -0.35568,-1.067027 -3.65444,3.208646 -3.65445,3.208645 -3.04683,6.097248 L 245,79.319445 V 80.659722 82 h 0.93305 0.93305 z M 320.2,85.8 319,84.6 V 82.785528 80.971056 L 322.42164,72.485528 325.84328,64 h -0.83274 -0.83275 l -2.75503,3.25 -2.75502,3.25 -3.36415,7.25 -3.36415,7.25 H 310.46972 309 v -2.004531 -2.00453 L 320.81188,57.745469 332.62377,34.5 l 5.26471,-8.452706 5.26471,-8.452707 4.16125,-4.970155 4.16125,-4.9701557 4.45794,-2.8271382 L 360.39156,2 h 3.16936 3.16936 l 2.55808,2.012186 2.55808,2.0121859 0.64785,2.9496176 0.64784,2.9496175 -1.04066,1.788197 L 371.06082,15.5 371.03041,13.884859 371,12.269717 368.84042,9.5242618 366.68085,6.7788062 361.55034,7.2042679 356.41983,7.6297295 353.1108,10.064865 349.80176,12.5 344.83981,19 339.87787,25.5 330.43893,44.470463 321,63.440926 v 0.852341 0.852341 L 324.72784,62.072804 328.45569,59 H 330.22784 332 v 0.425612 0.425612 l -4,8.271491 -4,8.271491 V 79.697103 83 h 2.38235 2.38236 l 4.21167,-4.211671 4.21167,-4.211672 3.44115,-6.833211 3.44115,-6.833211 1.50795,-0.578656 1.50796,-0.578656 0.52663,0.526633 0.52663,0.526633 -2.19308,4.298803 -2.19309,4.298802 -1.86318,5.41543 -1.86318,5.41543 0.54552,0.882673 L 341.11803,82 h 1.93811 1.9381 l 4.08056,-3.686545 4.08057,-3.686544 2.32333,-4.563456 2.32333,-4.563455 2.34898,-2.183388 2.34899,-2.183387 2.67254,-1.012411 2.67254,-1.012411 1.19915,1.444895 1.19916,1.444895 -1.26255,3.048062 -1.26255,3.048062 -2.80948,1.452841 L 362.09932,71 h -1.51448 -1.51447 L 358.03518,72.934259 357,74.868517 v 3.506725 3.506724 l 1.05684,0.65316 1.05683,0.65316 2.52955,-0.634877 2.52956,-0.634878 4.76425,-4.456399 4.76425,-4.456399 3.24694,-7.044326 3.24694,-7.044327 1.44793,1.201674 1.44793,1.201674 -0.51413,1.339786 L 382.06277,64 h 0.42421 0.4242 l 3.68396,-2.5 3.68395,-2.5 h 0.89184 0.89184 l 0.54562,1.421859 0.54562,1.42186 -1.16965,2.1855 -1.16964,2.1855 -1.10736,-1.10736 L 388.6,64 h -1.60383 -1.60384 l -3.09394,3.25 -3.09395,3.25 -3.61479,7.25 -3.61479,7.25 h -0.92841 -0.92842 l -0.60526,-0.979333 -0.60526,-0.979334 1.15172,-2.152008 1.15172,-2.152008 -3.52722,2.690341 -3.52722,2.690341 -3.56368,0.983982 -3.56369,0.983981 -2.01457,-1.078165 L 353,83.929632 V 80.948233 77.966834 L 347.88779,81.483417 342.77558,85 H 340.58779 338.4 l -1.2,-1.2 -1.2,-1.2 v -1.987091 -1.987091 l -2.75,2.53373 -2.75,2.53373 -2.47251,1.653361 L 325.55499,87 H 323.47749 321.4 Z M 364.25,67.192908 366,65.690025 365.97069,63.095012 365.94137,60.5 362.97069,63.765777 360,67.031553 v 1.543241 1.54324 l 1.25,-0.711121 1.25,-0.711122 z m -316.827287,15.35518 -0.615391,-2.451913 1.650307,-4.968608 1.650307,-4.968609 4.033593,-4.582403 4.033593,-4.582404 2.376604,-0.596489 2.376604,-0.59649 0.568954,-1.792616 0.568954,-1.792615 1.964542,-0.513739 1.964541,-0.513739 -0.616886,5.248735 -0.616886,5.248736 1.186484,2.216965 1.186484,2.216965 2.682741,-0.309932 L 74.5,69.5 77,64.752894 l 2.5,-4.747106 1.366577,-0.0029 1.366577,-0.0029 -0.655144,2.75 -0.655144,2.75 -0.363315,2 -0.363315,2 -5.348118,8 L 69.5,85.5 69.19091,82.825988 68.88182,80.151975 70.961234,76.075988 73.040648,72 h -2.329194 -2.329195 l -1.900708,-1.389832 -1.900708,-1.389831 -1.69094,3.776837 -1.690941,3.776837 -3.715843,4.112994 L 53.767275,85 H 50.90269 48.038104 Z M 56.334888,79.75 58.771558,76.5 60.885779,72.289838 63,68.079676 v -3.575022 -3.575022 l -1.968625,1.053576 -1.968624,1.053576 -2.632248,4.491592 -2.632248,4.491591 -1.386288,4.606283 -1.386287,4.606284 0.546177,0.883733 L 52.118034,83 h 0.890092 0.890091 z M 143,47.2 v -1.8 l 1.2,-1.2 1.2,-1.2 h 1.3 1.3 v 1.8 1.8 l -1.2,1.2 -1.2,1.2 h -1.3 -1.3 z m 206,0.734259 V 46.868517 L 350.03518,44.934259 351.07037,43 H 352.53518 354 v 1.8 1.8 l -1.2,1.2 -1.2,1.2 h -1.3 -1.3 z"
         id="path5" />
      <path
         style="fill:#606060;fill-opacity:1"
         d="m 196.46058,112.93622 -0.65745,-1.06378 3.47695,0.65228 3.47696,0.65228 3.02089,-1.56217 3.0209,-1.56216 4.52333,-5.17084 4.52332,-5.170839 L 223.42274,88.97666 229,78.242329 v -0.627437 -0.627437 l -4.25,3.089205 -4.25,3.089205 -3.37212,1.417067 L 213.75575,86 209.12788,85.9963 204.5,85.9926 l -3.18618,-1.942751 -3.18618,-1.942751 -1.19376,-2.230568 -1.19376,-2.230568 0.0479,-5.072943 0.0479,-5.072943 2.14853,-5.73554 2.14853,-5.735541 3.94066,-5.901186 3.94066,-5.901186 3.61094,-2.754199 3.61094,-2.7542 4.89269,-1.859074 L 225.02145,35 h 7.03894 7.03893 l 2.95034,1.52568 L 245,38.05136 v 1.608301 1.6083 L 243.84171,45.13398 242.68342,49 H 241.84171 241 v -3.411106 -3.411107 l -2.97605,-2.504177 -2.97604,-2.504177 -2.94028,-0.645793 -2.94027,-0.645793 -4.25225,1.145012 -4.25225,1.145011 -5.31768,5.446698 -5.31768,5.446698 -3.96494,8.219367 -3.96494,8.219367 -1.09103,4.919512 -1.09104,4.919513 0.59891,2.726795 0.5989,2.726795 1.98456,1.796 1.98456,1.796 h 4.79275 4.79276 l 4.49965,-2.63697 4.49965,-2.63697 3.62304,-4.010277 3.62305,-4.010277 2.04331,-4.005223 L 235,63.079676 v -0.668669 -0.668668 l -5,0.663273 -5,0.663274 v -0.842532 -0.842532 l 8.75,-1.014735 8.75,-1.014736 0.427,0.333157 0.427,0.333157 -1.5533,1.239667 -1.55329,1.239668 -5.23339,12 -5.23338,12 -3.55164,6.821276 -3.55164,6.821274 -4.47612,4.97852 -4.47611,4.97851 -3.82273,1.95021 L 206.07968,114 h -4.48082 -4.48083 z M 54.759081,100.57707 51.018162,99.24192 48.538746,97.617344 46.05933,95.992769 41.883097,90.461388 37.706864,84.930007 31.352669,72.244278 24.998473,59.558549 l 5.356149,-1.069509 5.356149,-1.06951 2.630687,-1.723692 2.630687,-1.723693 1.642661,-2.507017 1.642661,-2.507017 0.102136,-3.895207 0.102137,-3.895206 -1.804466,-1.993913 -1.804466,-1.993912 -2.446924,-0.614138 -2.446923,-0.614139 -1.90014,1.016924 -1.900139,1.016924 L 24.12132,54.242722 16.083958,70.5 l -2.956191,7 -2.956192,7 L 7.3357877,84.838485 4.5,85.176971 3.25,86.21093 2,87.244889 V 86.617824 85.990758 L 9.4492773,72.245379 16.898555,58.5 21.605512,48.239568 26.31247,37.979136 l -0.633941,-0.63394 -0.63394,-0.63394 -4.493856,1.716219 -4.493856,1.716219 -2.43279,2.891206 -2.432789,2.891206 -0.458744,1.286947 L 10.27381,48.5 9.6699713,47.949733 9.066133,47.399466 9.8142616,44.449733 10.56239,41.5 l 5.968805,-3 5.968805,-3 8.287936,-0.354174 8.287935,-0.354174 3.517842,0.659951 3.517841,0.659951 1.944223,1.944223 L 50,40 v 3.80572 3.805721 l -2.479601,3.360909 -2.4796,3.360909 -2.7704,1.85439 -2.770399,1.85439 -4.206925,1.086849 -4.206926,1.086849 4.090177,8.142132 4.090177,8.142131 3.46969,5.5 3.469691,5.5 3.647058,3.836398 3.647058,3.836398 4.932753,2.523056 4.932752,2.523058 4.188812,-0.472143 4.188813,-0.47214 3.128435,-1.560669 L 78,96.153289 v 0.972248 0.972247 l -4.25,1.929146 -4.25,1.92915 -5.5,-0.0219 -5.5,-0.0219 z M 88.743056,87.409722 88,86.666667 v -2.807302 -2.807302 l 3.039983,-7.652715 3.039984,-7.652715 -0.599891,-0.59989 -0.59989,-0.59989 -3.432229,3.976573 L 86.015728,72.5 82.870587,78.75 79.725446,85 H 78.862723 78 V 83.120843 81.241686 L 80.403572,75.870843 82.807143,70.5 83.547817,68.007842 84.288491,65.515684 82.644246,66.880287 81,68.244889 V 67.277432 66.309975 L 82.828741,64.654988 84.657481,63 H 86.328741 88 v 2.62736 2.62736 L 92.477657,64.12736 96.955314,60 H 97.977657 99 L 98.98318,61.75 98.96636,63.5 95.5,72 92.033644,80.5 92.016822,83.25 92,86 h 1.155609 1.155609 l 3.429603,-2.615885 3.429599,-2.615886 1.97241,-4.601438 1.97241,-4.601439 3.53602,-4.315249 3.53602,-4.31525 7.01606,-3.467426 L 126.21939,56 h 0.44932 0.44932 l -0.6451,1.043805 -0.64511,1.043805 1.20853,1.456195 L 128.24489,61 h -2.00378 -2.00377 l -3.54281,8.25 -3.5428,8.25 -0.32587,3 -0.32586,3 2.36184,0.334207 2.36184,0.334207 5.33571,-5.508809 5.3357,-5.508808 3.08996,-6.121175 3.08996,-6.121174 1.50562,-0.577763 1.50563,-0.577762 0.46503,0.465036 0.46504,0.465036 -3.50817,7.592962 L 135,75.868919 V 78.93446 82 h 2.04284 2.04284 l 5.1134,-4.75 5.11339,-4.75 2.85372,-6.25 2.85372,-6.25 H 156.00996 157 v 1.4349 1.434901 l -1.04233,2.741536 -1.04233,2.741537 4.99949,-4.676437 L 164.91432,59 H 166.45716 168 v 0.431673 0.431673 l -4.5,9.245747 -4.5,9.245747 V 81.17742 84 h 1.66667 1.66666 l 6.19643,-6.25 6.19643,-6.25 0.5,-1.5 0.5,-1.5 0.75097,0.697401 0.75098,0.697401 -2.15241,3.482671 -2.15241,3.482672 -3.47516,3.051227 -3.47516,3.051228 -3.05418,1.579381 -3.05419,1.579382 -2.1721,-0.310682 -2.1721,-0.310681 -0.3227,-1.693713 -0.3227,-1.693714 2.42676,-5.806286 2.42676,-5.806287 1.72607,-4 1.72608,-4 -4.67674,4.5 -4.67673,4.5 -3.51982,6.935922 -3.51981,6.935922 -0.93608,-1.672672 -0.93607,-1.672672 1.04228,-1.947508 L 147,78.131483 V 77.449379 76.767275 L 142.99712,80.383638 138.99424,84 H 134.97212 130.95 l -0.60205,-3.01025 -0.60205,-3.010249 -4.31384,3.976363 -4.31385,3.976363 -2.57209,0.645554 -2.57209,0.645554 -1.57373,-1.306075 -1.57372,-1.306075 0.37742,-3.232874 0.37742,-3.232873 -3.79359,3.427281 L 105.99424,85 h -1.9238 -1.92379 l -0.32333,-1.647706 -0.32332,-1.647705 -3.150391,2.652784 -3.150391,2.652783 -2.856553,0.571311 -2.856554,0.571311 z M 117.62359,67.75 121.02514,61 h -0.97777 -0.97778 l -3.3767,2.964782 -3.3767,2.964781 -3.15809,5.925196 -3.1581,5.925196 0.041,2.360022 0.041,2.360023 4.07,-4.5 4.07,-4.5 z m 135.72241,17.761052 -1.65635,-1.211155 0.60964,-3.899948 0.60965,-3.899949 -2.05827,2.777998 -2.05827,2.777997 -2.92557,1.512869 -2.92557,1.51287 L 241.97063,84.48185 241,83.881966 v -2.744639 -2.744638 l 2.54805,-5.11328 2.54806,-5.11328 4.45805,-4.109285 4.45805,-4.109285 2.97147,-0.594294 2.97147,-0.594294 1.14487,-1.379486 L 263.24489,56 h 1.34617 1.34617 l -0.5756,1.5 -0.57561,1.5 H 265.89301 267 v 0.968615 0.968615 l -1.51328,-0.5807 -1.51328,-0.580701 -3.63536,7.862086 L 256.70272,75.5 256.22131,79.75 255.7399,84 h 1.26201 1.26202 l 3.32997,-2.058033 3.32997,-2.058034 3.07224,-3.879017 3.07224,-3.879018 3.03952,-6.703534 3.03953,-6.703535 1.47953,1.479525 1.47952,1.479525 -3.56785,7.109179 -3.56785,7.109178 -0.61037,3.051882 L 271.75,82 h 1.05691 1.0569 l 1.93831,-2.75 1.9383,-2.75 3.56472,-7.75 3.56472,-7.75 H 285.93493 287 v 2.357848 2.357848 l -3.5,6.714815 -3.5,6.714815 v 2.760671 2.76067 l 0.62678,0.626784 0.62679,0.626784 2.79355,-1.444602 2.79355,-1.444602 3.46152,-4.265516 L 293.7637,74.5 296.38185,69.283244 299,64.066487 V 63.533244 63 h -2 -2 v -0.933578 -0.933577 l 2.75,-0.316423 2.75,-0.316422 3.96571,-7.667655 3.96572,-7.667654 3.28428,-1.566167 L 315,42.032357 V 43.016179 44 h -0.90823 -0.90823 l -3.45816,6.291346 -3.45816,6.291345 -0.701,2.208655 -0.701,2.208654 5.81739,0.135126 5.81739,0.135126 -6.90128,1.114874 -6.90128,1.114874 -2.29713,6 -2.29712,6 -0.0516,3.143011 -0.0516,3.143011 1.63367,0.626898 1.63367,0.626898 3.49236,-2.060544 3.49236,-2.060544 0.48675,0.486748 0.48675,0.486748 -3.36278,2.076292 L 302.5,84.04481 298.5,83.772405 294.5,83.5 294.18045,81.25 293.8609,79 H 292.93045 292 v 0.91349 0.913489 L 287.803,83.91349 283.60599,87 h -2.38986 -2.38986 l -1.09588,-2.903315 -1.09588,-2.903315 -2.30953,1.513266 -2.30954,1.513267 -1.50772,-0.578567 L 269,83.06277 v -2.616372 -2.616371 l -4.51067,3.970448 -4.51067,3.970449 -2.48815,0.475641 -2.48816,0.475641 z M 250.31656,77.75 253.76701,73.5 256.8979,67.25 260.02879,61 h -1.01151 -1.01152 l -3.81407,3.445783 -3.81407,3.445784 -2.68881,5.491267 L 245,78.874101 V 80.43705 82 h 0.93305 0.93305 z m 69.58714,6.937999 -1.05341,-2.312001 1.96514,-5.437999 L 322.78057,71.5 324.4037,67.75 326.02684,64 h -0.92453 -0.92452 l -2.74763,3.25 -2.74763,3.25 -3.45229,7.25 -3.45229,7.25 H 310.38898 309 V 83.157543 81.315085 L 319.76589,59.907543 330.53179,38.5 l 4.93437,-8.266067 4.93438,-8.266066 5.05174,-6.733934 L 350.50402,8.5 355.36502,5.25 360.22603,2 h 3.25213 3.25212 l 2.52248,1.9841839 2.52248,1.9841839 0.61071,2.4332335 0.6107,2.4332337 -0.93494,2.332582 L 371.12677,15.5 371.06339,13.424314 371,11.348628 368.68555,9.174314 366.3711,7 h -4.53551 -4.53551 l -4.05472,2.937219 -4.05471,2.937219 -4.50454,6.312781 -4.50454,6.312781 -4.14702,7.318559 -4.14701,7.318558 -5.44377,11.897289 L 321,63.931694 v 0.708467 0.708467 l 2.25,-2.049351 2.25,-2.049351 2.27067,-1.171207 2.27066,-1.171208 0.93566,0.578268 0.93566,0.578268 -3.60297,7.179144 -3.60296,7.179144 -0.46872,4.158517 -0.46873,4.158516 1.21627,0.751694 1.21626,0.751694 4.49905,-3.17122 4.49904,-3.171219 -0.41128,1.299841 -0.41128,1.299842 -4.80168,3.25 -4.80168,3.25 h -1.90842 -1.90843 z M 354.75,84.919901 353,83.90062 V 80.95031 78 h -0.61798 -0.61799 l -3.40035,2.985551 -3.40036,2.985551 -2.63644,0.661703 -2.63643,0.661704 -1.57375,-0.992694 -1.57375,-0.992695 -0.69773,-3.40456 -0.69773,-3.40456 1.31397,-1.5 1.31396,-1.5 3.06316,-6.124158 3.06316,-6.124159 1.69226,-0.64938 1.69226,-0.64938 0.42234,0.422348 0.42235,0.422348 -2.95139,5.85119 -2.9514,5.851191 -1.08416,3.933585 -1.08417,3.933585 1.07068,1.290079 1.07067,1.290079 2.64941,-1.388345 2.64941,-1.388345 3.08843,-3.335319 3.08842,-3.335319 2.66087,-4.676864 2.66087,-4.676864 2.69604,-2.120709 2.69605,-2.120709 2.54611,0.297573 2.54611,0.297573 0.33618,1.772368 0.33618,1.772368 -3.47763,3.477632 L 363.2,71 h -2.49301 -2.49301 L 357.60699,72.581787 357,74.163575 v 3.949597 3.949598 l 1.65455,0.63491 1.65455,0.63491 4.32412,-2.293943 4.32413,-2.293942 2.45466,-3.218227 2.45466,-3.218227 3.26181,-6.614612 3.26181,-6.614613 1.20162,0.997255 1.20162,0.997254 -0.54492,2.213233 -0.54492,2.213232 2.39816,-2.125037 2.39815,-2.125037 2.05388,-1.055187 2.05388,-1.055188 1.39991,0.865188 1.3999,0.865188 -1.38358,2.585243 -1.38358,2.585242 -1.0202,-1.020206 L 388.6,64 h -1.68364 -1.68364 l -3.38184,3.75 -3.38185,3.75 -3.48452,6.746301 -3.48451,6.746302 -0.8635,0.0037 -0.8635,0.0037 0.42689,-2.908554 0.42688,-2.908553 -3.06338,2.27045 L 364.5,83.723794 361.10078,84.861897 357.70155,86 357.10078,85.969591 356.5,85.939183 Z m 8.21056,-15.898792 1.82907,-0.978891 1.04546,-2.999004 1.04546,-2.999005 -0.84912,-0.524787 -0.84913,-0.524787 -2.59115,3.079408 L 360,67.153451 V 68.576725 70 h 0.56574 0.56574 z M 48.033993,83.540959 46.823097,82.081919 47.53476,78.790959 48.246422,75.5 50.558989,70.90998 52.871556,66.31996 56.470574,63.15998 60.069592,60 h 1.397817 1.397816 l 0.600506,-1.892029 0.600507,-1.89203 1.941058,-0.507598 1.941057,-0.507598 -0.589139,5.649628 -0.58914,5.649627 1.985821,2.449627 1.98582,2.449628 2.428331,-1.591104 2.42833,-1.591103 1.852686,-4.108524 L 79.303749,60 h 1.456533 1.456534 l -0.743519,2.75 -0.743519,2.75 -0.167772,1.592821 -0.167773,1.592821 -5.4388,8.407179 L 69.516633,85.5 69.198826,83.326773 68.881019,81.153545 70.94051,77.116611 73,73.079676 V 72.539838 72 h -2.277494 -2.277494 l -2.144315,-1.501937 -2.144315,-1.501936 -1.18765,3.598614 -1.187649,3.598615 -4.219125,4.403322 L 53.342834,85 H 51.293862 49.244889 Z M 55.750874,80.75 57.850375,78.5 60.425188,73.354773 63,68.209546 V 64.604773 61 h -0.949109 -0.949108 l -2.436671,3.25 -2.43667,3.25 -2.030733,4.046513 -2.030734,4.046513 -0.694778,3.703487 L 50.777418,83 h 1.436977 1.436977 z M 143,47.934259 V 46.868517 L 144.03518,44.934259 145.07037,43 H 146.53518 148 v 1.8 1.8 l -1.2,1.2 -1.2,1.2 h -1.3 -1.3 z m 206,0 V 46.868517 L 350.03518,44.934259 351.07037,43 H 352.53518 354 v 1.8 1.8 l -1.2,1.2 -1.2,1.2 h -1.3 -1.3 z"
         id="path4" />
      <path
         style="fill:#494949;fill-opacity:1"
         d="m 196.53661,113.05923 -0.58143,-0.94076 3.36762,0.54649 3.36763,0.54649 3.02474,-1.56416 3.02475,-1.56416 4.40226,-4.89637 4.40227,-4.89638 5.72777,-11.024027 L 229,78.242329 v -0.672056 -0.672056 l -3.27844,2.500588 -3.27844,2.500588 -4.47156,2.028341 -4.47156,2.028342 -3.78212,0.02196 -3.78212,0.02196 -3.3901,-1.416474 -3.3901,-1.416475 -1.71024,-2.61016 -1.71024,-2.610161 0.50208,-7.017264 0.50208,-7.017265 3.57663,-7.236824 3.57664,-7.236824 4.57463,-4.640183 4.57464,-4.640184 4.72911,-2.293897 4.72911,-2.293897 6.22929,-0.400373 6.22928,-0.400373 3.34698,0.627898 3.34698,0.627897 1.81235,1.325223 1.81235,1.325223 -1.23835,5.162057 L 242.80052,49 h -1.00725 -1.00725 l 0.56479,-1.471824 0.5648,-1.471823 -1.03263,-2.962192 -1.03263,-2.962193 -2.18984,-1.434841 -2.18984,-1.434841 -3.15166,-0.692219 -3.15165,-0.69222 -4.22568,1.137857 -4.22567,1.137856 -5.19793,5.197928 -5.19793,5.197928 -4.16899,8.475292 -4.16899,8.475292 -1.10449,5.627247 -1.10448,5.627246 1.3634,2.843489 1.3634,2.843489 2.5,1.312538 2.5,1.312537 3.84177,-0.559764 3.84176,-0.559765 3.65824,-1.890987 L 222.5,80.165043 226.64542,75.832522 230.79084,71.5 232.89542,67.289838 235,63.079676 v -0.679129 -0.679129 l -5,0.592176 -5,0.592176 V 61.952885 61 l 4.25,-0.04355 4.25,-0.04355 4.5,-0.869671 4.5,-0.86967 0.427,0.423554 0.427,0.423554 -1.63344,1.239667 -1.63345,1.239668 -3.48015,8.190485 -3.48016,8.190485 -5.03315,10.309515 -5.03316,10.309515 -4.63819,5.284738 -4.63818,5.28475 -3.85222,1.96525 L 206.07968,114 h -4.48082 -4.48083 z M 54.747969,100.57325 50.995938,99.23428 47.626498,96.664283 44.257058,94.094285 40.752009,88.797143 37.24696,83.5 31.115772,71.25 24.984584,59 h 2.858485 2.858484 L 34.100777,57.865892 37.5,56.731785 40.658956,53.757969 43.817911,50.784154 44.477962,47.26578 45.138013,43.747406 44.001418,41.003423 42.864822,38.259439 40.385358,37.12972 37.905894,36 H 35.965492 34.025089 L 31.329917,40.25 28.634744,44.5 21.248259,59.883418 13.861775,75.266836 12.055336,79.883418 10.248897,84.5 7.3744484,84.838485 4.5,85.176971 3.25,86.21093 2,87.244889 V 86.605098 85.965306 L 7.1213164,76.880446 12.242633,67.795585 19.121316,53.457426 26,39.119267 v -1.168041 -1.168042 l -2.75,0.677896 -2.75,0.677895 -3,1.729523 -3,1.729523 -2,3.162469 -2,3.16247 L 9.730948,47.96148 8.9618959,48 9.6188354,45.25 10.275775,42.5 l 0.893598,-1.140401 0.893598,-1.1404 5.218514,-2.275842 5.218515,-2.275843 8.191227,-0.456074 8.191227,-0.456074 3.61455,0.678094 3.61455,0.678094 1.944223,1.944223 L 50,40 v 4.022343 4.022343 l -4.113128,4.462218 -4.113129,4.462217 -5.367144,1.691843 -5.367144,1.691843 6.230273,12.00194 6.230272,12.001939 5.29553,5.754492 5.29553,5.754491 4.270194,2.067165 L 62.631449,100 h 3.716394 3.716394 l 3.621422,-1.513127 3.621421,-1.513126 0.495356,0.495356 0.495356,0.495356 -4.398896,1.995808 L 69.5,101.95608 64,101.93415 58.5,101.91221 Z M 89.25,87.358514 88,86.833333 v -2.841108 -2.841109 l 3.06065,-7.643609 3.060649,-7.64361 -0.355323,-1.065969 -0.355323,-1.065969 -4.09987,4.896845 -4.09987,4.896844 -2.813774,5.737176 L 79.583364,85 H 78.791682 78 V 83.089788 81.179577 L 80.999211,74.839788 83.998422,68.5 83.957585,67 83.916747,65.5 80.393505,69.491652 76.870263,73.483303 73.861741,78.741652 70.853219,84 H 69.926609 69 V 82.460162 80.920324 L 71,77 73,73.079676 v -0.946218 -0.946219 l -1.998231,0.522549 -1.998232,0.52255 -2.362709,-1.548107 -2.36271,-1.548107 -2.346983,5.010905 -2.346982,5.010905 L 56.25728,82.078967 52.930408,85 h -1.93002 -1.93002 l -1.059386,-1.979481 -1.059386,-1.97948 0.667259,-2.77052 0.66726,-2.770519 2.29272,-4.59002 2.292721,-4.59002 3.599018,-3.15998 L 60.069592,60 h 1.43002 1.43002 L 64,58 65.070368,56 h 1.445685 1.445686 l -0.607074,4.429092 -0.607075,4.429091 0.617573,2.460607 0.617573,2.460608 1.649537,0.632986 1.649537,0.632987 2.158283,-1.414162 2.158283,-1.414161 1.865509,-4.136959 1.865508,-4.136958 1.085304,0.386063 L 81.5,60.715258 81.39986,62.107629 81.29972,63.5 80.521859,66 79.743999,68.5 82.324251,65.75 84.904502,63 h 1.661248 1.661249 l -0.429647,2.92737 -0.429647,2.92737 4.924301,-4.42737 L 97.216307,60 H 98.108154 99 v 1.399648 1.399648 L 95.5,71.861949 92,80.924602 V 83.462301 86 h 1.423275 1.423274 l 3.097921,-2.606728 3.09792,-2.606728 2.46511,-5.210825 2.46512,-5.210825 3.26369,-3.678827 L 112.5,63.00724 119.32266,59.50362 126.14533,56 h 0.62733 0.62734 l -1.1652,1.165202 -1.1652,1.165202 1.7152,1.302995 1.7152,1.302994 -2.11611,0.0318 -2.11612,0.0318 -3.04294,6.80542 -3.04295,6.80542 -1.16374,4.321783 -1.16373,4.321784 0.95789,0.957895 0.9579,0.957894 2.91677,-1.508321 2.91677,-1.50832 4.14137,-4.492862 4.14138,-4.492861 3.00762,-5.958075 3.00763,-5.958074 1.69226,-0.64938 1.69226,-0.64938 0.29872,0.298728 0.29873,0.298729 -3.37619,7.47481 -3.37619,7.47481 -0.31567,3 -0.31566,3 2.22236,0.315929 2.22236,0.315928 5.18387,-4.815928 5.18388,-4.815929 2.85372,-6.25 2.85372,-6.25 h 1.10662 1.10662 l -0.48798,2.25 -0.48798,2.25 -0.77597,2 -0.77598,2 3.89738,-3.553958 3.89738,-3.553958 1.7062,-1.282132 1.70619,-1.282132 0.97698,0.603807 0.97698,0.603807 -4.04044,8.07255 -4.04044,8.072549 -0.5244,3.909734 L 158.73666,84 h 1.32792 1.32792 l 3.8336,-2.656687 3.8336,-2.656687 3.55532,-4.843313 L 176.17034,69 H 176.58517 177 v 0.910202 0.910203 l -3.98124,5.036652 -3.98125,5.036653 -4.48323,2.62735 -4.48324,2.627351 -2.2753,-0.324205 -2.27531,-0.324206 -0.33217,-1.742902 -0.33217,-1.742901 3.63568,-8.257099 3.63568,-8.257098 0.58145,-1.5 0.58145,-1.5 -4.73156,4.5 -4.73156,4.5 -3.55776,7 -3.55775,7 -0.72807,-2 -0.72808,-2 1.50002,-2.947483 1.50002,-2.947483 -4.7686,4.197483 L 138.71842,84 h -3.84016 -3.84016 l -0.61319,-2.443165 -0.6132,-2.443164 0.79296,-1.306836 0.79295,-1.306835 -5.31945,4.761227 -5.31945,4.761227 -2.39235,0.60044 -2.39234,0.600441 -1.57373,-1.306075 -1.57372,-1.306075 0.37742,-3.232874 0.37742,-3.232873 -3.79359,3.427281 L 105.99424,85 H 103.99712 102 V 83.5 82 h -0.69528 -0.69528 L 98.054719,84.428677 95.5,86.857354 93,87.370524 90.5,87.883695 Z M 56.565728,79.75 l 2.743515,-3.25 1.823416,-4 1.823417,-4 0.02196,-3.75 L 63,61 h -0.825686 -0.825686 l -2.099502,2.25 -2.099501,2.25 -2.642574,5.280136 -2.642573,5.280136 -0.563081,3.469864 L 50.738315,83 h 1.541949 1.541949 z M 117.03171,68.822166 121.10125,61 h -1.34768 -1.34767 l -3.6355,3.75 -3.63549,3.75 -2.56746,5.145227 L 106,78.790454 v 2.30094 2.30094 l 3.48109,-3.374002 3.48108,-3.374001 z m 160.69868,15.274519 -1.09588,-2.903315 -2.30953,1.513266 -2.30954,1.513267 -1.50772,-0.578567 L 269,83.06277 v -2.727552 -2.727552 l -3.25,3.076173 -3.25,3.076173 -2.18426,1.119994 L 258.13148,86 h -2.54669 -2.54669 l -0.48746,-2.25 -0.48746,-2.25 0.27092,-3 0.27093,-3 3.71006,-7.25 3.71005,-7.25 h -1.30962 -1.30962 l -3.6355,3.75 -3.63549,3.75 -2.56746,5.145227 L 245,78.790454 V 80.395227 82 h 0.69528 0.69528 l 2.93433,-2.75 2.93433,-2.75 -1.11696,2.160623 -1.11696,2.160622 -3.49441,2.159666 -3.49442,2.159665 -1.01823,-0.629305 L 241,83.881966 v -2.744639 -2.744638 l 2.54805,-5.11328 2.54806,-5.11328 4.45805,-4.109285 4.45805,-4.109285 2.97147,-0.594294 2.97147,-0.594294 1.14487,-1.379486 L 263.24489,56 h 1.43657 1.43657 l -0.68713,1.111803 -0.68713,1.111804 1.37811,0.872884 1.37812,0.872883 -1.73315,0.01531 -1.73316,0.01531 -2.45173,4.838265 -2.45174,4.838265 -2.12346,6.303388 -2.12345,6.303389 1.00271,1.002712 1.00271,1.002711 3.04484,-1.261213 3.04484,-1.261213 3.61759,-4.004244 3.61759,-4.004244 3.53748,-7.448921 3.53748,-7.44892 1.29533,1.320013 1.29534,1.320012 -3.43039,7.078904 -3.43039,7.078904 -0.63422,3.171096 L 271.75,82 h 1.05691 1.0569 l 2.01717,-2.832856 2.01717,-2.832855 3.49403,-7.667145 L 284.88621,61 h 1.0569 H 287 v 2.296426 2.296426 l -3.47729,6.453574 -3.47728,6.453574 -0.0227,3.083333 -0.0227,3.083334 0.62678,0.626784 0.62679,0.626784 2.86822,-1.483214 2.86822,-1.483213 3.98893,-5.046384 3.98894,-5.046384 2.01606,-4.557638 L 299,63.745764 V 63.372882 63 h -2 -2 v -1 -1 h 2.79978 2.79977 l 3.84345,-7.883085 3.84344,-7.883084 3.35678,-1.600737 L 315,42.032357 V 43.016179 44 h -0.96606 -0.96606 l -4.02072,7.25 -4.02072,7.25 -0.0132,1.25 L 305,61 l 5.75,0.118511 5.75,0.11851 -6.90646,1.13149 -6.90645,1.131489 -2.29195,6 -2.29195,6 -0.0516,3.281385 -0.0516,3.281385 1.49335,0.57305 1.49334,0.573051 4.19897,-2.188626 4.19897,-2.188626 -1.22547,1.476604 -1.22547,1.476603 -2.84826,1.17979 -2.84827,1.179789 -3.36858,-0.322202 L 294.5,83.5 294.17697,80.681474 293.85393,77.862947 288.96981,82.431474 284.08568,87 h -2.6297 -2.62971 z m 42.36652,0.653315 -0.83865,-2.25 1.24106,-4 1.24105,-4 2.11522,-5.25 2.11523,-5.25 h -0.89652 -0.89651 l -2.70093,3.209867 -2.70092,3.209866 -3.60726,7.290134 L 311.56143,85 H 310.28071 309 v -1.443667 -1.443666 l 5.82621,-12.32695 5.8262,-12.32695 7.83413,-14.479384 7.83413,-14.479383 3.99407,-6 3.99408,-6 4.34749,-5.161711 4.34748,-5.1617119 4.31383,-2.0882886 L 361.63145,2 h 2.54942 2.54941 L 369.36514,4.0725801 372,6.1451603 371.86382,10.82258 371.72764,15.5 l -0.41709,-2.125726 -0.41708,-2.125727 -2.38754,-2.2429744 -2.38753,-2.2429743 -4.16755,0.057517 -4.16755,0.057517 -3.86641,2.5586682 -3.86641,2.5586685 -4.00512,5.066857 -4.00512,5.066857 -5.51205,9.735096 -5.51206,9.735096 -5.00807,11.187124 L 321,63.973123 v 0.687753 0.687752 l 2.25,-2.049351 2.25,-2.049351 2.18426,-1.124963 L 329.86852,59 H 330.43426 331 v 1.107033 1.107032 l -2.9063,6.142968 -2.90629,6.142967 -0.99689,3.69128 -0.99688,3.691281 1.26283,1.727021 1.26283,1.72702 3.5335,-2.183824 3.5335,-2.183825 2.46661,-3.234476 2.46661,-3.234477 3.09111,-6.124158 3.09111,-6.124159 1.54913,-0.594457 L 347,60.06277 v 0.940101 0.940102 l -2.35621,5.327805 -2.35621,5.327805 -1.23411,3.73941 -1.23412,3.739411 1.16355,1.401987 1.16354,1.401988 1.91303,-0.707676 1.91303,-0.707676 3.40768,-3.214207 3.40768,-3.214207 3.04778,-5.400377 3.04778,-5.400377 2.75363,-2.166002 2.75363,-2.166003 2.55466,0.297573 L 369.5,60.5 l -0.25282,2.5 -0.25282,2.5 -3.01296,2.75 -3.01295,2.75 h -2.46517 -2.46518 l -0.59273,2.361627 -0.59273,2.361628 0.32368,3.388372 L 357.5,82.5 l 2.06847,0.295763 2.06847,0.295762 4.89365,-3.295762 4.89365,-3.295763 4.23593,-7.982683 4.23593,-7.982683 1.05195,-0.35065 L 382,59.833333 v 2.672227 2.672227 L 385.07673,62.588894 388.15345,60 H 390.57673 393 v 0.452947 0.452947 l -1.15695,2.539237 -1.15696,2.539238 -1.33006,-1.103852 -1.33006,-1.103852 -2.42887,0.609608 -2.42887,0.609607 -3.83411,5.756793 L 375.5,76.509465 373.59813,80.754733 371.69625,85 h -0.96162 -0.96163 l 0.42398,-2.888772 0.42398,-2.888771 -3.64225,2.41033 -3.64226,2.41033 -2.92745,0.839583 -2.92745,0.839582 -2.24077,-0.828917 L 353,84.064448 v -3.648586 -3.648587 l -3.88761,3.512222 -3.88761,3.512223 -3.15335,0.692591 -3.15335,0.692592 -1.45904,-1.210896 L 336,82.755111 335.96673,80.127555 335.93346,77.5 l -1.82177,2.181762 -1.82176,2.181763 -3.78451,2.568237 L 324.72091,87 h -1.89268 -1.89268 z m 42.35829,-15.371181 1.61877,-0.621182 1.54811,-2.99372 1.54812,-2.993721 -0.84346,-0.843457 -0.84346,-0.843457 -1.0496,0.708359 L 363.38407,62.5 361.69204,64.972506 360,67.445012 V 68.722506 70 h 0.41821 0.41822 z M 143,47.934259 V 46.868517 L 144.03518,44.934259 145.07037,43 H 146.53518 148 v 1.8 1.8 l -1.2,1.2 -1.2,1.2 h -1.3 -1.3 z m 206.51277,0.08641 -0.60526,-0.979334 1.08143,-2.020666 L 351.07037,43 H 352.53518 354 v 1.8 1.8 l -1.2,1.2 -1.2,1.2 h -0.74098 -0.74099 z"
         id="path3" />
      <path
         style="fill:#333333;fill-opacity:1"
         d="m 196.53661,113.05923 -0.58143,-0.94076 3.36762,0.54649 3.36763,0.54649 2.95665,-1.52895 2.95666,-1.52895 4.04213,-4.38519 4.04213,-4.38519 4.16789,-7.136413 4.16789,-7.136413 1.98811,-4.638078 L 229,77.834189 v -0.535783 -0.535784 l -3.49365,2.66474 -3.49366,2.664739 -4.25634,1.931988 -4.25635,1.931987 -3.78212,0.02196 -3.78212,0.02196 -3.3901,-1.416474 -3.3901,-1.416475 -1.71024,-2.61016 -1.71024,-2.610161 0.4844,-6.770169 0.4844,-6.770169 3.17448,-6.65151 3.17447,-6.651511 4.86015,-5.317778 4.86015,-5.317777 4.72079,-2.357678 4.72079,-2.357679 6.29701,-0.505463 6.297,-0.505462 3.34564,0.660757 3.34564,0.660757 1.86338,1.411624 1.86338,1.411623 -1.21312,5.056853 L 242.80052,49 h -0.80664 -0.80664 l 0.49246,-1.88319 0.49247,-1.88319 -1.6525,-3.195588 -1.65251,-3.195587 L 235.4657,37.421222 232.06424,36 l -2.78212,0.02196 -2.78212,0.02196 -4.03871,1.834548 -4.03871,1.834548 -4.08751,4.64366 -4.08751,4.64366 -3.52743,6.74983 L 203.1927,62.5 201.59635,67.931501 200,73.363002 v 2.683641 2.68364 l 2.04333,2.597674 2.04333,2.597675 3.49981,0.656567 3.49981,0.656568 4.67869,-1.78681 4.6787,-1.786811 4.78531,-4.476096 4.78531,-4.476096 1.87883,-3.106477 1.87884,-3.106477 0.72997,-2.403024 0.72998,-2.403024 -5.11595,0.605909 L 225,62.90577 V 61.952885 61 l 4.75,-0.02386 4.75,-0.02386 3.97193,-0.920885 3.97192,-0.920885 0.45507,0.455074 0.45508,0.455074 -1.65858,1.239667 -1.65858,1.239668 -3.91664,9.065338 -3.91663,9.065339 -4.9938,9.934661 -4.99381,9.934659 -4.11924,4.66625 -4.11925,4.66624 -4.30446,2.08376 L 205.36855,114 h -4.12526 -4.12526 z M 55.479048,100.65911 51.458095,99.346261 48.669804,97.519303 45.881514,95.692345 41.554945,89.596172 37.228376,83.5 31.614188,72.266657 26,61.033313 v -0.880732 -0.880733 l 4.629799,-0.634585 4.629798,-0.634584 3.26374,-2.017102 3.26374,-2.017102 1.715917,-3.616028 1.715918,-3.616027 -0.586623,-3.61493 -0.586622,-3.614929 -1.772834,-1.29671 L 40.5,36.913141 38.095223,36.309316 35.690447,35.705491 34.095223,36.697089 32.5,37.688687 27.274299,47.594343 22.048598,57.5 15.84554,71.25 9.6424828,85 H 7.0212414 4.4 L 3.2,86.2 2,87.4 V 86.789533 86.179065 L 6.1743844,78.839533 10.348769,71.5 l 8.271937,-17 8.271936,-17 -1.019757,-0.357812 -1.019758,-0.357812 -4.405717,1.682558 -4.405717,1.682559 L 12.603371,44.28878 9.1650497,48.428067 9.8388454,44.964033 10.512641,41.5 16.506321,38.5 22.5,35.5 H 33.667243 44.834486 L 47.417243,37.924314 50,40.348628 49.996262,43.424314 49.992524,46.5 48.081401,49.63417 46.170277,52.768341 42.835139,55.256566 39.5,57.744791 35.25359,59.122396 31.007179,60.5 l 4.629299,9 4.6293,9 3.23156,5 3.231559,5 3.885552,3.881756 3.885551,3.881756 4,1.846282 4,1.846282 3.782119,0.02196 3.782118,0.02196 3.621422,-1.513127 3.621421,-1.513126 0.382217,0.382217 0.382218,0.382217 -3.785758,1.817731 L 70.5,101.37364 65,101.6728 59.5,101.97195 Z M 89.25,87.337719 88,86.833333 V 84.054204 81.275075 L 91,74 94,66.724925 V 65.175371 63.625818 L 91.187736,66.062909 88.375472,68.5 92.784483,64.25 97.193494,60 H 98.096747 99 v 1.443934 1.443933 L 95.5,71.56961 92,80.251353 V 83.125676 86 h 1.423275 1.423274 l 3.125888,-2.630261 3.125883,-2.630261 2.58149,-5.119739 2.58149,-5.119739 2.80577,-3.563624 2.80576,-3.563624 7.16631,-3.686376 L 126.20545,56 h 0.51972 0.51972 l -1.1779,1.419278 -1.17789,1.419278 1.80545,1.156227 1.80545,1.156228 -1.81759,-0.570056 -1.81758,-0.570056 -3.33148,7.244551 -3.33148,7.24455 -1.26884,4.282096 -1.26884,4.282096 1.053,1.053002 1.05301,1.053002 2.89638,-1.497776 2.89638,-1.497777 4.63438,-4.954534 4.63439,-4.954534 2.71528,-5.382788 2.71528,-5.382787 1.11886,-0.734687 1.11885,-0.734687 0.68728,-0.01531 0.68729,-0.01531 -2.80437,6.25 -2.80437,6.25 -1.2444,3.852805 -1.24439,3.852805 1.36319,1.363193 1.3632,1.363194 2.1587,-1.215999 2.15871,-1.215998 3.33958,-2.427572 3.33958,-2.427573 -2.5,2.772587 -2.5,2.772586 -2.70034,1.404986 L 137.09932,84 h -2.42722 -2.42721 l -1.20506,-1.452012 -1.20507,-1.452012 0.71807,-2.262441 0.71807,-2.26244 -5.11821,4.601719 -5.11822,4.60172 -2.61289,0.655792 -2.61289,0.655793 -1.49989,-1.244802 -1.4999,-1.244802 0.60962,-3.812325 0.60961,-3.812324 -4.01406,4.014067 L 106,85 h -2 -2 V 83.5 82 h -0.87756 -0.87755 l -1.299613,1.565937 -1.299611,1.565936 -2.773173,1.434064 L 92.09932,88 91.29966,87.921053 90.5,87.842105 Z M 117.74551,67.888595 120.91715,61.5 l -1.0499,-0.363774 -1.04989,-0.363774 -3.93144,3.838947 -3.93144,3.838947 -2.47724,4.971172 -2.47724,4.971171 0.0397,2.553655 0.0397,2.553656 4.24723,-4.611405 4.24722,-4.611406 z M 278.66667,86.333333 278,85.666667 v -2.863271 -2.863271 l -2.92781,2.164627 -2.92782,2.164626 -1.57218,-0.603304 L 269,83.06277 v -2.718476 -2.718476 l -2.75,2.53373 -2.75,2.53373 -2.47251,1.653361 L 258.55499,86 h -2.71011 -2.7101 l -0.60779,-1.914958 -0.60778,-1.914957 0.69905,-2.835043 0.69904,-2.835042 -4.70863,4.316671 -4.70864,4.316671 -1.20002,-0.417986 -1.20001,-0.417986 0.0835,-4.111213 0.0835,-4.111214 3.67812,-5.539643 3.67811,-5.539643 4.13838,-2.997828 L 257.30008,59 h 1.72751 1.72752 L 262,57.5 263.24489,56 H 264.12244 265 v 1.416667 1.416666 l 1.25,0.504386 1.25,0.504386 -2.02748,0.07895 -2.02747,0.07895 -2.79511,6.415992 -2.79511,6.415993 -1.41458,4.700274 -1.41457,4.700275 0.54618,0.883733 L 256.11803,84 h 1.8002 1.80019 l 4.55799,-4.012105 4.55799,-4.012105 4.31169,-8.420377 4.31169,-8.420377 1.18319,0.981955 1.18318,0.981954 -3.43304,7.430371 -3.43305,7.430372 -0.60403,3.020156 L 271.75,82 h 0.97001 0.97001 l 1.62534,-1.79598 1.62534,-1.795981 4.02127,-8.704019 L 284.98324,61 H 285.99162 287 v 2.484977 2.484978 l -3.05467,4.964465 -3.05466,4.964466 -0.56909,3.50687 -0.56909,3.50687 0.60579,1.578658 0.60579,1.578657 2.9176,-1.508748 2.91759,-1.508748 3.52911,-4.122964 3.5291,-4.122963 2.57126,-5.430595 L 299,63.945329 V 63.472665 63 h -2 -2 v -1 -1 l 2.75,-0.0043 2.75,-0.0043 3.90382,-7.603952 3.90382,-7.603951 3.04987,-1.854738 3.04987,-1.854737 0.37964,0.379645 0.37965,0.379644 -2.05427,2.054264 -2.05426,2.054264 -3.02907,6.000553 L 305,58.942967 V 59.971483 61 l 5.75,0.121942 5.75,0.121942 -6,0.870356 -6,0.870356 -1.07325,0.408493 -1.07325,0.408492 -2.17675,5.688194 L 298,75.177968 v 3.44324 3.44324 l 2.25,0.90439 2.25,0.904389 -3.775,0.06339 L 294.95,84 l -0.60336,-3.01678 -0.60335,-3.01678 -4.8288,4.51678 L 284.08568,87 h -2.37617 -2.37618 z m -25.1274,-12.884345 3.2676,-5.051011 1.54554,-3.698989 L 259.89795,61 h -1.40084 -1.40083 l -3.52143,3.625899 -3.52143,3.625899 -2.52671,5.070445 L 245,78.392689 v 2.477969 2.47797 L 247.63583,80.924314 250.27166,78.5 Z M 321.25,86.337719 320,85.833333 320.02705,82.166667 320.05411,78.5 323.02705,71.528845 326,64.55769 v -0.975012 -0.975012 l -3.4526,3.346389 -3.45259,3.346389 -3.7276,7.849778 L 311.63962,85 H 310.31981 309 V 83.429493 81.858986 L 317.97347,63.679493 326.94693,45.5 l 6.50181,-11.398696 6.5018,-11.398696 5.52846,-7.217886 5.52845,-7.2178853 3.92319,-2.7187723 3.92319,-2.7187723 3.99707,-0.536119 3.99706,-0.5361189 2.57602,2.5760183 L 372,6.9090909 371.9098,11.204545 371.8196,15.5 l -0.9567,-3.320619 -0.9567,-3.320619 -3.48968,-1.4580791 -3.48967,-1.458079 -3.76652,1.0142185 -3.76652,1.0142185 -4.14961,3.5519151 -4.14962,3.551915 -5.1723,7.712565 L 336.75,30.5 l -7.27018,15 -7.27017,15 -0.68321,2.284641 -0.6832,2.284642 4.56322,-3.216461 4.56323,-3.216461 0.70376,0.703759 0.70376,0.70376 -2.31356,4.72806 -2.31356,4.72806 -1.85603,5.351276 -1.85603,5.351275 1.01617,1.898725 L 325.07037,84 h 0.51447 0.51448 l 2.87068,-1.484485 2.87067,-1.484484 3.40316,-4.265516 L 338.647,72.5 l 2.81224,-5.695101 2.81225,-5.6951 1.36425,-0.523515 L 347,60.06277 346.98318,60.781385 346.96636,61.5 343.5,70 l -3.46636,8.5 -0.0168,1.781385 -0.0168,1.781385 1.52694,0.585943 1.52695,0.585944 3.94007,-2.730469 3.94006,-2.730469 4.53191,-7.271137 4.5319,-7.271138 2.56022,-1.677523 2.56022,-1.677524 2.19087,0.315037 2.19086,0.315036 -0.27599,2.459977 -0.27599,2.459976 -2.13394,2.271479 -2.13394,2.271478 -3.30598,0.620205 -3.30597,0.620204 -0.60093,1.893359 -0.60093,1.89336 -0.0867,3.048244 -0.0867,3.048244 1.05466,1.054665 1.05467,1.054666 2.98157,-0.654864 2.98158,-0.654863 3.95057,-3.381547 3.95058,-3.381546 3.64119,-7.564753 L 379.94901,60 H 380.9745 382 v 2.588894 2.588893 L 385.07673,62.588894 388.15345,60 H 390.57673 393 v 0.452947 0.452947 l -1.13263,2.485852 -1.13263,2.485851 -1.43138,-1.431378 -1.43138,-1.431379 -2.75176,1.422994 -2.75177,1.422995 -2.60645,3.819585 -2.60644,3.819586 -2.7861,5.75 -2.7861,5.75 H 370.66668 369.75 l 0.58702,-2.935083 0.58701,-2.935084 -4.83121,3.003247 -4.83121,3.003247 L 357.3808,84.818163 353.5,84.5 353,80.672385 l -0.5,-3.827615 -2.91495,3.0545 -2.91494,3.0545 -3.28609,1.084506 -3.28608,1.084506 -2.04897,-1.096575 L 336,82.929632 v -2.667764 -2.667764 l -3.75,3.584716 -3.75,3.584715 -2.18426,1.118232 L 324.13148,87 323.31574,86.921053 322.5,86.842105 Z M 363.88075,68.25 365.98306,66.5 366.24153,64 366.5,61.5 h -1.34165 -1.34166 l -2.50988,4.25 -2.50989,4.25 h 1.49075 1.49076 z M 155.74306,85.409722 155,84.666667 155.0155,83.083333 155.031,81.5 l 3.97384,-8.927349 3.97384,-8.927349 -0.33376,-0.333757 -0.33376,-0.333757 -5.12952,5.423712 -5.12952,5.423713 -2.67838,5.837393 -2.67837,5.837394 -0.43622,-1.829095 -0.43622,-1.829095 0.7471,-2.670905 0.74711,-2.670905 0.0914,-1 0.0915,-1 2,-2.92924 2,-2.92924 1.5,-3.988162 1.5,-3.988163 1.39153,-0.463106 1.39152,-0.463106 -0.51293,2.380509 -0.51293,2.380508 -0.8296,2 -0.82959,2 5.43382,-4.75 5.43383,-4.75 H 166.23286 167 v 1.059045 1.059044 l -4,8.263988 -4,8.263988 V 80.823033 84 h 1.26787 1.26786 l 3.615,-2.456458 3.61501,-2.456459 3.7368,-5.090539 3.7368,-5.09054 0.5,0.5 0.5,0.5 -3.58982,4.890311 -3.58982,4.890311 -3.8047,2.636656 -3.80469,2.636656 -2.9821,0.59642 -2.9821,0.59642 z M 48.185767,83.367463 47.272153,81.734926 48.19302,77.617463 49.113887,73.5 51.537331,69.355397 53.960775,65.210793 57.057113,62.605397 60.153451,60 h 1.388091 1.38809 L 64,58 65.070368,56 h 1.341979 1.341979 l -0.500508,4.440488 -0.500507,4.440488 0.601608,2.396999 0.601609,2.396998 2.271736,1.094833 L 72.5,71.864639 70.972506,71.93232 69.445012,72 67.157839,70.398001 64.870665,68.796002 64.588531,69.148001 64.306397,69.5 l -2.857149,5.332719 -2.857149,5.33272 -2.872775,2.41728 L 52.846549,85 H 50.972965 49.09938 Z M 56.565728,79.75 l 2.743515,-3.25 1.823416,-4 1.823417,-4 0.02196,-3.75 L 63,61 H 62.072804 61.145608 L 58.052501,64.75 54.959394,68.5 52.979697,73.787513 51,79.075025 V 81.037513 83 h 1.411106 1.411107 z M 78,83.346491 v -1.653508 l 2.426311,-5.1288 2.426311,-5.1288 0.723426,-2.967692 0.723425,-2.967691 -2.382503,2 -2.382504,2 1.433685,-2 1.433685,-2 1.490212,-1.25 1.490211,-1.25 h 1.340196 1.340196 l -0.220921,3.75 -0.220921,3.75 -2.129017,3 -2.129017,3 -1.833262,4.25 L 79.696251,85 H 78.848126 78 Z M 69,82.460162 V 80.920324 L 71,77 73,73.079676 V 71.539838 70 h 0.829063 0.829062 L 77,65 79.341875,60 h 0.770045 0.770046 l 0.605261,0.979333 0.605262,0.979334 -0.998635,1.865965 -0.998634,1.865965 -0.476608,2.628335 -0.476608,2.628335 -2.452947,3.276367 L 74.236109,77.5 72.592374,80.75 70.94864,84 H 69.97432 69 Z m 235,-0.508962 1.5,-1.018175 2,-1.022975 2,-1.022975 -2.36078,2.056462 L 304.77843,83 303.63922,82.984687 302.5,82.969374 Z M 143.51277,48.020667 142.90751,47.041333 143.98894,45.020667 145.07037,43 h 0.9058 0.9058 l 0.60526,0.979333 0.60526,0.979334 -1.08143,2.020666 L 145.92963,49 h -0.9058 -0.9058 z M 349.67643,48.25 349.23483,47.5 350.08519,45.25 350.93555,43 H 352.46778 354 v 1.8 1.8 l -1.2,1.2 -1.2,1.2 h -0.74098 -0.74099 z"
         id="path2" />
    </g>
  </g>
</svg>
