<?xml version="1.0" encoding="UTF-8" standalone="no"?>
<!-- Created with Inkscape (http://www.inkscape.org/) -->

<svg
   version="1.1"
   id="svg1"
   width="900.51819"
   height="350.37216"
   viewBox="0 0 900.51819 350.37216"
   xmlns="http://www.w3.org/2000/svg"
   xmlns:svg="http://www.w3.org/2000/svg">
  <defs
     id="defs1" />
  <g
     id="g1"
     transform="translate(-79.435875,-259.47696)">
    <g
       id="g2"
       transform="translate(28.706983,-66.150875)">
      <path
         style="fill:#d0d0d0;fill-opacity:1"
         d="m 288.90912,674.44649 -4.59087,-1.41421 -4.51977,-3.97847 -4.51978,-3.97846 -2.32181,-5.28767 -2.32182,-5.28768 -0.0102,-7 -0.0102,-7 2.04835,-4.55081 2.04834,-4.5508 3.13707,-3.57292 3.13706,-3.57292 5.14324,-2.21256 5.14323,-2.21256 5.22729,-0.5395 5.22729,-0.53951 5.27288,1.75137 5.27287,1.75137 3.9419,3.56127 3.9419,3.56127 -2.32802,1.79091 -2.32802,1.79092 -1.12756,0.0222 -1.12755,0.0222 -1.37245,-1.65848 -1.37244,-1.65848 -4,-1.81956 -4,-1.81956 -4.05366,-0.022 -4.05365,-0.022 -5.21085,2.59667 -5.21084,2.59668 -2.7355,4.65332 L 278.5,640.5 v 7.07842 7.07842 l 3,4.84394 3,4.84394 4.5,2.40555 4.5,2.40556 6.03164,-0.36141 6.03165,-0.3614 3.71835,-2.29807 L 313,663.83688 V 658.41844 653 h -9.5 -9.5 v -3.5 -3.5 h 13 13 v 10.4272 10.42719 l -3.75,3.10153 -3.75,3.10153 -4.9315,1.47127 L 302.637,676 298.0685,675.93035 293.5,675.8607 Z M 363,647.5 V 620 h 18 18 v 3.5 3.5 H 384.5 370 v 7.97254 7.97255 l 14.25,0.27745 14.25,0.27746 0.31336,3.25 0.31336,3.25 H 384.56336 370 v 9 9 h 14.5 14.5 v 3.5 3.5 h -18 -18 z m 77.45126,26.23358 -0.48597,-1.26642 0.26735,-25.98358 L 440.5,620.5 h 3.93759 3.9376 l 15.0624,20.46513 L 478.5,661.43026 478.77029,640.71513 479.04058,620 H 482.52029 486 v 27.5 27.5 h -3.43917 -3.43916 L 463.81083,654.12886 448.5,633.25773 448.23011,654.12886 447.96022,675 h -3.51149 -3.5115 z M 530,647.5 v -27.54512 l 18.25,0.27256 18.25,0.27256 v 3 3 l -14.25,0.27746 -14.25,0.27745 v 7.94433 7.94432 l 13.75,0.27822 13.75,0.27822 0.31336,3.25 0.31336,3.25 H 552.06336 538 v 8.97254 8.97255 l 14.25,0.27745 14.25,0.27746 v 3 3 l -18.25,0.27256 -18.25,0.27256 z m 93.87665,22.75 -2.05228,-4.75 -8.91219,-22.25941 L 604,620.98118 v -0.54809 -0.54809 l 4.184,0.3075 4.184,0.3075 8.38296,21.5 8.38297,21.5 0.79442,0.81139 0.79442,0.81138 2.54286,-6.81138 2.54286,-6.81139 6.17032,-15.75 6.17031,-15.75 H 652.07456 656 v 1.05527 1.05526 L 645.29972,648.55527 634.59944,675 h -4.33526 -4.33525 z M 695,647.5 V 620 h 18 18 v 3.5 3.5 H 716.5 702 v 7.97254 7.97255 l 14.25,0.27745 14.25,0.27746 0.31336,3.25 0.31336,3.25 H 716.56336 702 v 9 9 h 14.5 14.5 v 3.5 3.5 H 713 695 Z M 542.55691,610.43738 536,604.87475 V 603.93738 603 h 2.77889 2.77889 l 6.44222,6.5 6.44222,6.5 h -2.6642 -2.66421 z m -437.21022,-71.53214 -5.15332,-0.86096 -5.451966,-2.03984 -5.451969,-2.03985 -4.648151,-3.0788 -4.648152,-3.07881 -5.587825,-6.15349 -5.587824,-6.15349 -4.850233,-10 -4.850233,-10 -2.51649,-9.5 -2.51649,-9.5 -1.647582,-11.43365 -1.647582,-11.43366 0.434865,-22.06634 0.434864,-22.06635 2.758845,-12 2.758845,-12 3.902426,-10.03194 3.902426,-10.03193 5.109511,-7.78308 5.109511,-7.78307 6.855362,-6.78771 6.855362,-6.78771 6.794555,-3.56209 6.794555,-3.5621 6.5,-1.68678 6.5,-1.68679 12.5,0.39566 12.5,0.39565 6,2.75821 6,2.7582 3.58115,3.48581 3.58115,3.48581 1.30873,-5.45538 1.30873,-5.45538 0.75919,-1.22841 0.7592,-1.2284 1.72852,0.66329 1.72851,0.66329 -0.71206,8.16291 -0.71206,8.16291 -0.3653,20.06951 -0.36531,20.06952 -2.01488,0.31492 -2.01488,0.31492 -0.46226,-2.31492 -0.46226,-2.31492 -1.11569,-7.45059 -1.11568,-7.45059 -2.51493,-7.54941 -2.51493,-7.54941 -2.56759,-4 -2.5676,-4 -2.62487,-2.84158 -2.62488,-2.84159 -4,-2.14786 -4,-2.14786 -8,0.0436 -8,0.0436 -5.1076,2.6405 -5.1076,2.64049 -4.48108,4.98404 -4.481075,4.98404 -3.537493,6.82127 -3.537494,6.82128 -2.102197,6.5 -2.102197,6.5 -1.986954,8.5 -1.986953,8.5 -1.583615,12 -1.583615,12 v 19 19 l 1.543604,11.60076 1.543605,11.60075 2.506266,9.89925 2.506267,9.89924 3.946654,8.23681 3.946654,8.23681 4.782603,5.11299 4.78261,5.113 5.01981,2.58333 5.0198,2.58334 9,0.41171 9,0.41172 5.70163,-2.14861 5.70163,-2.1486 5.08887,-4.57533 5.08886,-4.57533 4.37649,-9.12092 4.37649,-9.12092 0.66247,-3.25 0.66247,-3.25 h 1.2981 1.2981 l 1.07954,1.30077 1.07954,1.30076 -1.53219,5.94924 -1.5322,5.94923 -3.51447,7.35809 -3.51446,7.35808 -6.23747,6.23747 -6.23747,6.23747 -5.75988,2.72486 -5.75989,2.72486 -6.66308,1.41222 -6.66308,1.41222 -6.5,-0.0995 -6.5,-0.0995 z m 797.39512,-6.04257 -3.4821,-6.36267 -19.00352,-34.5 -19.00352,-34.5 -5.66769,-10.66188 -5.66769,-10.66187 -1.56721,-1.30067 -1.5672,-1.30066 0.3895,45.46254 0.38949,45.46254 1.23607,2.21604 1.23607,2.21603 3.733,0.9426 3.73299,0.9426 4.75,0.65264 4.75,0.65264 v 1.37971 1.37971 l -1.03742,0.64115 -1.03741,0.64116 -32.21259,-0.0276 -32.21258,-0.0276 -0.30624,-1.95292 -0.30624,-1.95291 5.30624,-0.67077 5.30624,-0.67077 3.25768,-1.01089 3.25767,-1.01089 1.24233,-2.16992 L 819.5,524.5 l 0.29794,-92.74751 0.29794,-92.74752 -2.44069,-2.44069 -2.4407,-2.4407 -6.1591,-0.69682 -6.1591,-0.69683 0.30185,-1.86994 0.30186,-1.86994 30.5,-0.17146 30.5,-0.17147 0.3002,2.02874 0.30019,2.02873 -5.88288,0.61489 -5.88288,0.61488 -1.69509,0.65047 -1.6951,0.65047 -1.17,2.13235 -1.17001,2.13235 -0.35238,44.5 -0.35239,44.5 7.30894,-7.5 7.30893,-7.5 7.11753,-9.5 7.11753,-9.5 8.96381,-13.5 8.96381,-13.5 5.16741,-8.79339 5.1674,-8.7934 3.05949,-6.06081 3.05949,-6.06082 -0.48181,-1.25557 -0.4818,-1.25556 -8.15239,-1.04075 -8.15238,-1.04074 -0.52411,-0.52412 -0.52412,-0.52412 0.68165,-2.14768 0.68164,-2.14768 1.49145,0.57232 L 896.16357,329 H 919.08179 942 v 1.86232 1.86232 l -5.66672,0.66601 -5.66673,0.66601 -4.72123,2.56962 -4.72123,2.56961 -6.47773,8.65206 -6.47774,8.65205 -10.79667,15.5 -10.79667,15.5 -9.41913,13.25314 -9.41913,13.25314 6.25292,11.74686 6.25291,11.74686 13.92272,25 13.92271,25 10.46534,17.59226 10.46534,17.59226 2.80773,3.07407 2.80773,3.07407 3.88279,1.07809 3.88279,1.0781 3,0.0209 3,0.0209 1.35701,0.85984 1.35701,0.85984 -0.64268,2.0249 -0.64268,2.02491 -3.71433,-0.49428 -3.71433,-0.49428 -14.5,1.09823 -14.5,1.09823 -3.63805,0.60866 -3.63804,0.60867 z m -650.20092,3.38742 -51.95911,-0.26831 -0.91299,-0.91299 -0.91298,-0.91298 6.01353,-12.82791 6.01353,-12.8279 9.70001,-21.5 9.70001,-21.5 15.00561,-34.47696 15.00562,-34.47696 11.00233,-26.02304 11.00233,-26.02304 1.94661,-4.90372 1.9466,-4.90371 -23.29599,0.6003 -23.296,0.60029 -5.961,1.59567 -5.96101,1.59567 -3.18663,2.43056 -3.18662,2.43056 -2.14141,4.42355 -2.1414,4.42356 -3.2092,12.60363 -3.20919,12.60364 -0.50177,-0.0153 -0.50177,-0.0153 -1.15556,-0.73533 -1.15556,-0.73534 0.55722,-24.79814 0.55721,-24.79814 1.59835,0.79879 1.59834,0.79879 51.8219,0.2844 51.8219,0.2844 -0.69323,3.2156 -0.69323,3.2156 -2.28422,6 -2.28422,6 -11.44611,25.5 -11.4461,25.5 -8.78251,21.5 -8.78252,21.5 -18.36583,43.33648 L 232,528.17297 V 529.08648 530 l 12.25,-0.0313 12.25,-0.0313 15.5,-0.92767 15.5,-0.92768 5.04039,-1.51747 5.04038,-1.51747 2.60215,-2.77351 2.60215,-2.77351 2.49089,-5 2.49088,-5 2.50329,-8 2.50329,-8 0.68232,-4.13833 0.68232,-4.13833 1.93097,0.50496 1.93097,0.50496 v 3.06146 3.06146 l -1.49068,14.57191 -1.49067,14.57191 -0.59465,7.75 -0.59464,7.75 -4.66468,-0.2408 -4.66468,-0.2408 z m 82.74263,-0.9522 -0.46075,-1.20212 0.61193,-0.99011 0.61192,-0.9901 4.50319,-0.6753 4.50319,-0.6753 3.2235,-2.13392 3.2235,-2.13393 2.3259,-4.68591 2.3259,-4.68591 4.49671,-16.31265 4.4967,-16.31264 15.28879,-60 15.28879,-60 3.75037,-16 3.75037,-16 0.30204,-1.10717 0.30205,-1.10718 9.02707,-1.65152 9.02708,-1.65153 1.40394,-0.53874 1.40395,-0.53875 2.208,11.79745 2.208,11.79744 8.0202,37.5 8.0202,37.5 6.9868,30.5 6.9868,30.5 4.50241,18.42002 4.50241,18.42001 1.45857,2.82057 1.45857,2.82056 2.22919,1.40353 2.22919,1.40353 5.80915,0.68524 5.80916,0.68523 -0.30916,1.95774 -0.30915,1.95773 h -31 -31 l -0.29856,-1.87689 -0.29856,-1.87689 6.69791,-1.41019 6.69791,-1.41019 1.03728,-1.65764 1.03727,-1.65764 -7.50577,-36.84236 -7.50577,-36.84236 -21.58027,-0.26922 -21.58027,-0.26922 -4.60706,19.26922 -4.60706,19.26922 -1.94376,9 -1.94375,9 -0.67926,6.66601 -0.67926,6.666 0.6668,2.65673 0.66679,2.65673 4.2127,1.82868 4.21269,1.82869 5.30624,0.70015 5.30624,0.70016 -0.30624,1.93278 -0.30624,1.93279 -25.37787,0.21564 -25.37786,0.21564 z m 78.33589,-135.73763 -9.07327,-45.43973 -0.23957,0.23957 -0.23957,0.23956 -8.03282,33.75672 -8.03283,33.75671 -2.50068,11.07785 L 383,444.26878 V 444.63439 445 h 19.84634 19.84635 z m 91.38074,134.80637 -1.5e-4,-2.13337 2.25,-0.60297 2.25,-0.60298 2.5,-0.0192 2.5,-0.0192 3.71317,-1.03126 3.71316,-1.03126 1.20901,-3.71316 1.20901,-3.71317 0.40055,-92.0672 0.40055,-92.0672 -1.35954,-1.12831 -1.35954,-1.12832 -7.79285,-0.96749 -7.79286,-0.96749 -0.63496,-0.63496 -0.63496,-0.63496 0.96463,-1.49077 0.96463,-1.49078 36.5,-0.0646 36.5,-0.0646 6.75893,1.59099 6.75893,1.591 4.76088,2.41252 4.76087,2.41251 4.79521,5.12648 4.79522,5.12647 2.90124,6.22333 2.90125,6.22333 1.77481,6.5 1.77481,6.5 0.004,15 0.004,15 -2.25347,7.79149 -2.25347,7.79148 -3.39159,6.7348 -3.39159,6.73479 -4.15278,4.27916 -4.15278,4.27916 -4.69731,2.98043 -4.69731,2.98044 -6.35534,1.96412 L 580.78933,450 h -7.14785 -7.14784 l -6.99364,-2 -6.99364,-2 h -0.38874 -0.38874 l 0.56088,38.75 0.56088,38.75 0.6699,2.16812 0.6699,2.16812 2.65478,1.02837 2.65478,1.02838 7.19155,1.0535 7.19156,1.05351 h 0.62799 0.628 l -0.31955,2.09454 -0.31955,2.09453 -34.74985,0.15547 -34.74986,0.15546 z m 75.4615,-93.76958 3.77582,-2.87996 2.89951,-6.1961 2.8995,-6.19611 1.57808,-6.91244 1.57808,-6.91244 0.49575,-19 0.49575,-19 -2.13507,-10.36811 -2.13508,-10.36811 -2.39277,-4.72191 -2.39278,-4.72191 -3.56867,-3.13334 -3.56868,-3.13334 -5.63116,-1.63702 -5.63115,-1.63702 -5.94385,0.42994 -5.94386,0.42994 -0.76479,1.23746 -0.7648,1.23746 -0.65574,18.10329 L 552,373.32061 v 34.19905 34.19905 l 5.25,1.05804 5.25,1.05804 7.09292,-0.1789 7.09292,-0.17889 z m 70.89673,95.17362 -0.45087,-0.72934 1.01039,-1.88792 1.01038,-1.88792 6.78586,-0.6689 6.78586,-0.6689 1.1003,-0.71384 1.10029,-0.71385 1.39971,-2.5 1.3997,-2.5 0.26191,-91.5 0.26191,-91.5 -1.28316,-2.48339 -1.28317,-2.4834 -2.47874,-0.73958 -2.47875,-0.73958 -5.75,-0.59898 -5.75,-0.59898 3.1e-4,-2.17805 3.2e-4,-2.17804 h 53.6343 53.63431 l -0.62945,9.5 -0.62944,9.5 -0.005,12.63337 -0.005,12.63337 -2,0.52301 -2,0.52301 v -0.77539 -0.77539 l -1.4976,-8.58789 -1.4976,-8.58788 -2.0745,-5.29311 -2.07449,-5.2931 -2.63752,-2.77351 -2.63752,-2.77351 -4.97188,-1.47649 L 732.637,336 h -15.70192 -15.70193 l -0.62141,2.75 -0.62141,2.75 -0.64874,41.75 -0.64874,41.75 h 12.10435 12.10436 l 5.07078,-1.08749 5.07079,-1.08749 3.36563,-3.1742 3.36563,-3.1742 1.10723,-3.98831 1.10723,-3.98831 0.006,-3.25 L 742,402 h 2.63084 2.63084 l -0.61983,3.75 -0.61984,3.75 -0.011,24.75 L 746,459 h -1.805 -1.805 l -1.22473,-7.25 -1.22474,-7.25 -2.22027,-3.91159 -2.22026,-3.91159 -4,-2.08841 -4,-2.08841 -14.41435,-0.34726 -14.41435,-0.34727 0.64936,44.99276 0.64937,44.99275 0.96712,2.54371 0.96711,2.54371 2.29787,1.25688 2.29787,1.25688 16,0.0324 16,0.0324 4.97478,-1.42141 4.97477,-1.42142 4.08859,-4.20685 4.0886,-4.20685 3.12213,-6.35026 3.12213,-6.35025 2.58686,-8.93903 2.58686,-8.93902 0.43451,-0.43452 0.43451,-0.43451 1.65683,0.63578 1.65682,0.63579 -0.67675,5.73775 -0.67674,5.73776 -2.43757,16 -2.43757,16 -0.52384,2.5 -0.52385,2.5 h -56.57091 -56.57091 z"
         id="path9" />
      <path
         style="fill:#b9b9b9;fill-opacity:1"
         d="m 291.5,675.06169 -3,-0.73359 -4.12421,-2.1202 -4.12421,-2.1202 -2.78395,-3.29385 -2.78396,-3.29385 -1.95294,-4.3954 -1.95295,-4.3954 V 647.5 640.2908 l 1.95295,-4.3954 1.95294,-4.3954 2.70407,-3.19891 2.70407,-3.19891 5.20409,-2.51173 5.2041,-2.51172 5.1133,-0.65006 5.11331,-0.65006 5.67804,1.65065 5.67804,1.65065 4.03667,3.64689 4.03668,3.6469 -2.32802,1.79091 -2.32802,1.79092 -1.09501,0.0222 -1.09501,0.0222 -1.77746,-1.96406 -1.77745,-1.96406 -4.3844,-1.67442 -4.38439,-1.67442 -5.06209,0.59953 -5.06208,0.59953 -3.4399,2.12598 -3.43991,2.12598 -2.74115,4.66297 L 278.5,640.5 v 7.07842 7.07842 l 3,4.84394 3,4.84394 4.5,2.40555 4.5,2.40556 6.03164,-0.36141 6.03165,-0.3614 3.71835,-2.29807 L 313,663.83688 V 658.41844 653 h -9.56336 -9.56336 l 0.31336,-3.25 0.31336,-3.25 12.75,-0.27988 12.75,-0.27987 v 10.45707 10.45707 l -3.75,3.10153 -3.75,3.10153 -4.9315,1.47127 L 302.637,676 298.5685,675.89764 294.5,675.79528 Z M 363,647.5 V 620 h 18 18 v 3.5 3.5 H 384.5 370 v 8.5 8.5 h 14 14 v 3 3 h -14 -14 v 9 9 h 14.5 14.5 v 3.5 3.5 h -18 -18 z m 78,-0.0604 v -27.56036 l 3.65827,0.31036 3.65827,0.31037 15.09173,20.47984 L 478.5,661.45968 478.77029,640.72984 479.04058,620 H 482.52029 486 v 27.5 27.5 h -3.44027 -3.44027 L 463.80973,654.0298 448.5,633.0596 448.23011,654.0298 447.96022,675 H 444.48011 441 Z M 530,647.5 V 620 h 18 18 v 3.5 3.5 h -14 -14 v 8.5 8.5 h 14 14 v 3 3 h -14 -14 v 9 9 h 14 14 v 3.5 3.5 h -18 -18 z m 95.66247,26.75 -0.45556,-0.75 L 614.60346,647.3187 604,621.13739 v -0.62619 -0.6262 l 4.15591,0.3075 4.1559,0.3075 8.5941,22.22444 8.59409,22.22445 0.61122,0.0255 0.61121,0.0256 2.18189,-5.75 2.18189,-5.75 6.55963,-16.75 6.55962,-16.75 H 652.10273 656 v 0.7423 0.7423 L 645.31114,648.2423 634.62228,675 h -4.25212 -4.25213 z M 695,647.5 V 620 h 18 18 v 3.5 3.5 H 716.5 702 v 8.5 8.5 h 14 14 v 3 3 h -14 -14 v 9 9 h 14.5 14.5 v 3.5 3.5 h -18 -18 z m -152.58926,-37.25 -6.74922,-5.75 3.33362,-0.32562 3.33362,-0.32562 6.07562,6.07562 L 554.48,616 h -2.66002 -2.66002 z m -435.2495,-71.32592 -6.33875,-0.82231 -4.848104,-1.61028 -4.848103,-1.61028 -5.828615,-3.76721 -5.828616,-3.76722 -5.265156,-5.90737 -5.265157,-5.90738 L 63.998838,505.51602 59.058937,495.5 56.571135,485.80089 54.083333,476.10178 52.433657,464.30089 50.783982,452.5 51.311616,431 l 0.527634,-21.5 2.145979,-10 2.14598,-10 2.510583,-7.5 2.510584,-7.5 4.077312,-8.22986 4.077312,-8.22987 6.223824,-7.77013 6.223824,-7.77014 5.872676,-4.35187 5.872676,-4.35188 4.730843,-2.40526 4.730847,-2.40527 6.26915,-1.47808 6.26916,-1.47808 10,-0.003 10,-0.003 5,1.33235 5,1.33236 3.30974,1.71235 3.30973,1.71234 3.78606,3.42048 3.78605,3.42047 1.29409,-5.39436 1.29409,-5.39435 0.69007,-1.11656 0.69007,-1.11656 1.78315,0.68426 1.78315,0.68426 -0.59285,4.59961 -0.59285,4.59961 -0.67844,23.75 -0.67844,23.75 h -1.78054 -1.78053 l -0.62973,-4.75 -0.62972,-4.75 -2.42437,-10 -2.42436,-10 -3.03776,-6.18482 -3.03776,-6.18482 -4.86759,-4.37638 -4.86759,-4.37638 -3.96785,-1.1888 L 131.26796,331 h -4.45248 -4.45248 l -5.36831,1.59422 -5.36831,1.59421 -6.09606,6.15579 -6.096057,6.15578 -3.592956,7 -3.592955,7 -2.61386,8 -2.613859,8 -1.963005,9.5 -1.963004,9.5 -1.008196,8.5 -1.008195,8.5 -0.64193,12 -0.641929,12 1.099445,13.40789 1.099445,13.4079 1.531662,8.82787 1.531662,8.82788 2.536207,8.76423 2.536207,8.76423 3.147062,6.4009 3.147063,6.40089 4.946663,5.41244 4.94666,5.41244 4.75399,2.40902 4.75399,2.40903 5.53312,0.86768 5.53312,0.86768 5.42598,-0.73632 5.42597,-0.73632 4.87869,-2.15494 4.87869,-2.15495 3.38134,-3.19877 3.38134,-3.19878 3.65889,-5.58049 3.6589,-5.58049 2.43164,-7.66951 L 166.44375,490 h 1.15568 1.15568 l 1.07954,1.30077 1.07954,1.30076 -1.52602,5.94924 -1.52603,5.94923 -3.64633,7.44451 -3.64633,7.44451 -5.68043,5.80524 -5.68042,5.80524 -7.35432,3.47965 -7.35431,3.47965 -7,1.00079 -7,1.00079 -3.5,-0.10699 -3.5,-0.107 z M 901.47773,530.33718 896.69845,521.5 881.48413,494 866.2698,466.5 858.50327,452 850.73674,437.5 849.21338,435.75 847.69002,434 H 846.84501 846 l 0.0477,20.25 0.0477,20.25 0.82434,25.07662 0.82434,25.07662 1.1203,2.09329 1.1203,2.0933 3.25767,1.01089 3.25768,1.01089 5.25,0.66303 5.25,0.66304 -0.0153,0.65616 -0.0153,0.65616 -0.73468,1.12563 -0.73469,1.12563 -32.75,-0.008 -32.75,-0.008 v -1.73881 -1.73882 l 5.25,-0.66646 5.25,-0.66645 3.25768,-1.04246 3.25767,-1.04246 1.24233,-2.16992 L 819.5,524.5 l 0.28,-92.37974 0.28,-92.37974 -1.52054,-2.32064 -1.52055,-2.32065 -3.75945,-1.04404 -3.75946,-1.04404 -3.25,-0.006 L 803,333 v -1.85693 -1.85693 l 30.73633,0.10693 30.73632,0.10693 0.337,1.75 0.337,1.75 -3.82333,0.006 -3.82332,0.006 -3.73823,1.03818 -3.73824,1.03818 -1.11525,2.08388 -1.11526,2.08388 -0.85072,25.62236 -0.85072,25.62237 -0.0458,18.75 L 846,428 h 0.92745 0.92746 l 8.10564,-8.75 8.10564,-8.75 9.27462,-12.77651 9.27462,-12.7765 8.89052,-14.2235 8.89052,-14.22349 4.89609,-9.283 4.89609,-9.283 -0.51479,-1.34153 -0.5148,-1.34153 -4.82953,-0.65223 -4.82953,-0.65224 -3.80462,-0.57036 -3.80462,-0.57036 0.31824,-1.65288 0.31823,-1.65287 24.73639,-0.0884 L 942,329.32325 V 331.16163 333 h -3.3185 -3.3185 l -5.06527,1.50422 -5.06527,1.50423 -3.86623,3.78248 -3.86623,3.78247 -10.56569,14.9633 -10.56569,14.9633 -11.62356,16.5 -11.62357,16.5 -2.63545,3.63053 -2.63545,3.63052 3.20686,6.35275 3.20685,6.35275 8.48515,15.51672 8.48516,15.51673 14.55135,25.5 14.55136,25.5 5.95279,9.28712 5.95279,9.28713 3.01234,1.55774 3.01233,1.55774 5.97186,0.84411 5.97186,0.84412 0.5179,0.51789 0.51789,0.51789 -0.59216,1.54313 -0.59215,1.54313 -8.78139,0.0258 -8.78138,0.0258 -9.96061,0.9684 -9.96062,0.9684 -3.16088,0.59298 -3.16088,0.59299 z M 293.5,535.87821 l -13,-0.8004 -40.1956,0.18216 -40.1956,0.18216 -0.60014,-0.60013 -0.60014,-0.60014 6.6581,-14.37093 6.65811,-14.37093 6.98307,-15.5 6.98307,-15.5 9.02454,-20.5 9.02454,-20.5 10.98477,-25.5 10.98476,-25.5 9.5025,-22.5 9.5025,-22.5 0.54853,-1.37712 0.54853,-1.37713 -23.90577,0.4983 -23.90577,0.49829 -6.65627,2.14006 -6.65626,2.14006 -3.03737,3.45936 -3.03736,3.45937 -2.96443,9.2794 -2.96442,9.27941 -1.22205,6.25 -1.22205,6.25 -0.6199,-0.0153 -0.61989,-0.0153 -1.32854,-0.84224 -1.32853,-0.84224 1.08404,-18.44308 1.08404,-18.44308 -0.64001,-6.12329 -0.64001,-6.12329 4.38451,1.17393 L 216.5,329.5 h 49.25022 49.25021 l -2.1e-4,0.0201 -2.2e-4,0.0201 -1.94565,6.9799 -1.94565,6.9799 -3.52529,7.21672 -3.52529,7.21672 -8.645,19.78328 -8.645,19.78328 -11.7711,28.5 -11.77109,28.5 -11.51492,27 -11.51492,27 -4.09805,9.86628 L 232,528.23255 V 529.11628 530 l 16.75,-0.0158 16.75,-0.0158 11.54765,-0.95713 11.54765,-0.95714 4.43818,-1.56588 4.43818,-1.56588 2.65349,-2.54221 2.65349,-2.54221 3.05739,-6.66895 3.05739,-6.66894 2.55329,-8.86187 L 314,488.77627 V 487.38813 486 h 2 2 l -0.009,2.75 -0.009,2.75 -1.43232,12.5 -1.43232,12.5 -0.68742,10.25 -0.68743,10.25 -3.62118,-0.1607 -3.62118,-0.1607 z m 452.5,-0.0759 -16.5,-0.89316 -39.15739,0.54925 -39.15738,0.54925 0.51535,-1.97072 0.51536,-1.97073 1.64203,-0.45121 1.64203,-0.4512 5.50861,-0.62371 5.50861,-0.62371 1.09169,-0.70821 1.09168,-0.7082 1.36152,-2.5 1.36152,-2.5 0.92138,-44.5 0.92138,-44.5 -0.75427,-47.91652 -0.75426,-47.91653 -2.21558,-2.21558 -2.21558,-2.21558 -7.16335,-0.71939 L 653,332.79702 v -1.89584 -1.89584 l 40.25,0.61537 40.25,0.61538 12.95841,-1.0763 12.95841,-1.0763 0.10424,0.20825 0.10423,0.20826 -0.42125,22.16177 -0.42126,22.16177 -1.78778,0.46752 -1.78778,0.46751 -1.11883,-7.52244 -1.11882,-7.52244 -2.43409,-6.99921 -2.43408,-6.9992 -2.77292,-2.89431 -2.77292,-2.8943 -5.21307,-1.51548 -5.21307,-1.51548 -14.96816,-0.19786 -14.96816,-0.19785 -0.78499,0.77177 -0.78498,0.77177 -0.74831,10.72823 L 699.1265,358.5 699.06325,391.75 699,425 h 12.8185 12.8185 l 5.10645,-1.51645 5.10645,-1.51646 2.54875,-3.02901 2.54875,-3.02902 0.9657,-3.70453 0.9657,-3.70453 0.3106,-3 0.3106,-3 h 1.86738 1.86737 l -0.36737,12.5 -0.36738,12.5 0.3261,15.75 0.3261,15.75 H 744.0761 742 l -0.0119,-2.75 -0.0119,-2.75 -1.39888,-5.25481 -1.39889,-5.2548 -1.83925,-3.14766 -1.83924,-3.14766 -4,-2.09754 -4,-2.09753 -14.3966,-0.34689 -14.3966,-0.34688 0.51452,45.57084 0.51453,45.57083 1.64472,2.51017 1.64473,2.51018 2.73735,0.76587 2.73735,0.76588 15.5,-0.0158 15.5,-0.0158 4,-1.37306 4,-1.37305 2.67894,-1.87869 2.67895,-1.87869 3.9525,-5.91893 3.95251,-5.91892 3.77714,-11.81358 3.77714,-11.81358 0.19828,-0.27354 0.19828,-0.27354 1.6859,0.64694 1.6859,0.64694 -0.55042,4.1266 -0.55041,4.1266 -1.91385,13.5 -1.91385,13.5 -1.18116,6.75 -1.18116,6.75 -1.14734,-0.15224 -1.14735,-0.15225 z m -410,-1.68803 v -1.71417 l 5.91551,-1.22183 5.9155,-1.22182 2.86757,-3.26599 2.86757,-3.26598 1.68685,-4.46226 1.68685,-4.46227 3.96122,-14.5 3.96123,-14.5 8.51066,-33 8.51065,-33 10.47753,-42 10.47752,-42 0.33067,-2.43557 0.33067,-2.43557 10.5,-2.19737 10.5,-2.19737 0.0951,0.13294 0.0951,0.13294 2.71979,14 2.71978,14 6.49384,30.5 6.49383,30.5 7.48082,33 7.48082,33 5.00466,20.38511 5.00467,20.38512 1.4501,2.80418 1.4501,2.80418 2.18653,1.53151 2.18653,1.5315 5.81918,0.65837 5.81915,0.6584 V 534.12917 536 H 455.5 424 v -1.82349 -1.8235 l 6.18869,-1.15091 6.18868,-1.1509 1.5367,-1.5367 1.5367,-1.5367 -7.42722,-37.35935 -7.42722,-37.35934 -10.79817,-0.68328 L 403,450.89256 l -10.95037,0.69291 -10.95037,0.6929 -4.6323,19.11082 -4.6323,19.11081 -2.4094,11.5 -2.4094,11.5 -0.008,5.31574 -0.008,5.31574 0.97083,1.81401 0.97082,1.814 3.93068,1.57275 3.93067,1.57274 5.0985,0.67634 5.0985,0.67634 v 1.69805 1.69804 l -25.5,0.0874 -25.5,0.0874 z m 85.65157,-88.87963 1.15158,-0.73469 -9.05267,-45.26557 -9.05267,-45.26558 -0.32656,0.32657 -0.32656,0.32656 -6.45667,26.93901 -6.45666,26.93901 -4.13658,17.89716 -4.13658,17.89717 1.3209,0.83752 1.3209,0.83752 H 403 420.5 Z M 505,533.92854 v -1.74086 l 5.25,-0.66304 5.25,-0.66303 3.17001,-0.98196 3.17,-0.98195 1.12296,-3.19885 1.12297,-3.19885 1.02499,-32 1.025,-32 -0.31797,-60.21505 -0.31796,-60.21504 -1.51278,-1.51203 -1.51279,-1.51202 -7.98721,-1.10935 -7.98722,-1.10935 -0.27354,-0.27045 -0.27354,-0.27045 0.55555,-1.44774 0.55555,-1.44774 36.65723,-0.16927 36.65724,-0.16927 6.68685,1.39424 6.68685,1.39425 4.89371,2.47983 4.89371,2.47983 4.64606,4.96702 4.64606,4.96702 2.57092,5.07347 2.57093,5.07347 2.23084,7.80931 2.23084,7.80932 0.0324,14 0.0324,14 -1.82641,7.78688 -1.82642,7.78687 -3.867,7.71313 -3.867,7.71312 -4.2058,4.36666 -4.20581,4.36665 -4.60078,2.91922 -4.60078,2.91922 -6.35534,1.96412 L 580.78933,450 h -6.68457 -6.68456 l -5.9601,-1.53249 -5.9601,-1.53249 -1.75,-0.5349 -1.75,-0.5349 0.0618,33.31739 0.0618,33.31739 0.72574,7.23756 0.72574,7.23757 1.10825,1.10825 1.10826,1.10826 9.60418,1.56954 9.60418,1.56955 v 1.72607 1.72608 l -35,-0.0567 -35,-0.0567 z m 75.63303,-93.51924 3.81029,-3.08393 2.31294,-4.63801 2.31294,-4.63801 1.98054,-7.74384 1.98054,-7.74384 1.04106,-11.53083 1.04107,-11.53084 -0.63527,-9 -0.63527,-9 -1.79385,-9 -1.79384,-9 -2.22343,-4.72068 -2.22344,-4.72068 -3.76754,-3.40374 -3.76753,-3.40374 -5.2274,-1.73627 -5.22739,-1.73626 -6.37034,0.40564 -6.37034,0.40563 -0.78839,0.78652 -0.78838,0.78653 -0.64979,9.66852 -0.64978,9.66853 -0.10022,43.14182 -0.10021,43.14182 4.75,1.03783 4.75,1.03784 7.66137,-0.18305 7.66136,-0.18304 z"
         id="path8" />
      <path
         style="fill:#a3a3a3;fill-opacity:1"
         d="m 291.89734,675.11641 -3.60266,-0.75368 -4.61346,-2.70366 -4.61345,-2.70366 -2.50294,-3.28153 -2.50295,-3.28153 -1.60662,-3.84519 -1.60662,-3.84518 -0.0328,-6.10099 -0.0328,-6.10099 1.10818,-4.10584 1.10818,-4.10584 3.48375,-4.56252 3.48375,-4.56253 5.73087,-2.80386 5.73088,-2.80385 7.03565,0.005 7.03565,0.005 4.56047,2.21431 4.56048,2.21432 2.73677,2.85657 2.73677,2.85658 -2.51514,1.64798 -2.51515,1.64799 -4.61367,-3.25202 -4.61368,-3.25202 h -7.24145 -7.24146 l -4.2528,2.81437 -4.25279,2.81437 -2.41441,5.18563 -2.4144,5.18563 v 5 5 l 2.4144,5.18563 2.41441,5.18563 4.19239,2.7744 4.1924,2.7744 6.13343,0.354 6.13343,0.35399 4.5,-2.31402 4.5,-2.31403 0.2999,-5.75 0.29991,-5.75 h -9.61326 -9.61327 l 0.31336,-3.25 0.31336,-3.25 12.75,-0.27988 12.75,-0.27987 v 10.35556 10.35556 l -2.25,2.06146 -2.25,2.06147 -4.07374,2.04325 -4.07374,2.04325 -5.92626,0.50464 -5.92626,0.50464 z M 363,647.5 V 620 h 18.06336 18.06336 l -0.31336,3.25 -0.31336,3.25 -14.25,0.27746 -14.25,0.27745 V 635.52746 644 h 14 14 v 3 3 h -14 -14 v 8.97254 8.97255 l 14.25,0.27745 14.25,0.27746 0.31336,3.25 0.31336,3.25 H 381.06336 363 Z m 78,0 V 620 h 3.42977 3.42977 L 463.17977,640.82594 478.5,661.65189 478.76989,640.82594 479.03978,620 H 482.51989 486 v 27.5 27.5 h -3.41025 -3.41025 L 463.83975,653.94079 448.5,632.88157 448.23011,653.94079 447.96022,675 H 444.48011 441 Z m 89.45126,26.23358 -0.48597,-1.26642 0.26735,-25.98358 L 530.5,620.5 548.25,620.22693 566,619.95385 V 623.47693 627 h -14 -14 v 8.5 8.5 h 14 14 v 3 3 h -14 -14 v 9 9 h 14 14 v 3.5 3.5 h -17.53138 -17.53139 z m 93.98345,-2.48358 -1.59214,-3.75 -9.0331,-22.5 -9.03311,-22.5 -0.5197,-1.31392 -0.5197,-1.31393 4.23826,0.31393 4.23827,0.31392 8.64325,22.1798 8.64326,22.1798 0.5,0.48646 0.5,0.48646 8.90297,-22.91626 L 648.30593,620 H 652.15297 656 l 0.013,0.75 0.013,0.75 -10.76298,26.73611 -10.76298,26.7361 -4.23658,0.0139 L 626.02684,675 Z M 695,647.5 V 620 h 18.06336 18.06336 l -0.31336,3.25 -0.31336,3.25 -14.25,0.27746 -14.25,0.27745 V 635.52746 644 h 14 14 v 3 3 h -14 -14 v 8.97254 8.97255 l 14.25,0.27745 14.25,0.27746 0.31336,3.25 0.31336,3.25 H 713.06336 695 Z m -152.41752,-37.25 -6.8558,-5.75 3.28022,-0.32407 3.28022,-0.32406 5.35644,5.2899 L 553,614.43168 V 615.21584 616 h -1.78086 -1.78086 z M 107.5,538.98794 l -6,-0.86503 -5.606151,-1.9581 -5.60615,-1.9581 -4.07087,-2.56983 -4.07087,-2.56983 -3.635625,-3.19212 -3.635626,-3.19212 -4.456389,-6.24507 -4.45639,-6.24507 -2.975466,-6.56225 -2.975467,-6.56225 -2.477204,-8.54832 -2.477204,-8.54831 -1.746146,-9.23577 L 51.564296,461.5 51.532148,437 51.5,412.5 l 2.282659,-11.26285 2.282659,-11.26285 3.081616,-8.73715 3.081616,-8.73715 3.022585,-6 3.022585,-6 3.748612,-5.5 3.748612,-5.5 6.864528,-6.57823 6.864528,-6.57822 4.579907,-2.66712 4.579907,-2.66711 5.920096,-2.1811 5.92009,-2.1811 14.5,-0.0531 14.5,-0.0531 5.64709,2.26285 5.6471,2.26285 4.46446,3.92978 4.46447,3.92978 1.74949,-6.46312 1.74948,-6.46313 0.63896,0.0153 0.63895,0.0153 1.31661,0.83486 1.3166,0.83487 -0.66435,5.89982 -0.66435,5.89982 -0.65226,21.98819 -0.65225,21.98819 -1.67976,0.32161 -1.67976,0.3216 -0.66775,-4.80979 -0.66775,-4.8098 -1.48661,-7.5 -1.4866,-7.5 -3.10315,-7.5 -3.10315,-7.5 -5.65051,-5.66777 -5.65051,-5.66778 -4.39635,-1.18381 -4.39635,-1.18382 -6.01588,0.38679 -6.01587,0.38678 -4.69487,2.27733 -4.69487,2.27732 -4.10598,4.10598 -4.10598,4.10597 -3.300462,5.63139 -3.300464,5.63138 -2.649053,6.62159 -2.649053,6.62159 -2.489007,10.32853 -2.489007,10.32853 -1.452452,10.5 -1.452451,10.5 -0.679279,13 -0.679279,13 1.190216,14.5 1.190216,14.5 1.993843,10.38923 1.993844,10.38923 2.802762,8.34061 2.802763,8.3406 3.384282,5.65376 3.384281,5.65376 4.23011,4.26757 4.23012,4.26757 4.40542,2.13263 4.40543,2.13263 5.5371,0.90119 5.53709,0.90119 6.11604,-0.8645 6.11603,-0.8645 4.44044,-2.14958 4.44044,-2.14958 4.5478,-4.61296 4.54779,-4.61295 3.35422,-6.70468 3.35421,-6.70469 1.30793,-5.10326 L 166.3781,490 h 1.11095 1.11095 l 1.10672,1.10672 1.10672,1.10672 -1.97498,7.12694 -1.97498,7.12695 -3.66871,6.98156 -3.6687,6.98157 -5.27296,5.27295 -5.27295,5.27295 -4.74008,2.4003 -4.74008,2.40029 -5.17932,1.53664 -5.17932,1.53663 -7.82068,0.50138 -7.82068,0.50137 z m 796.42635,-4.1705 -2.18311,-4.31744 -22.50171,-41 -22.50172,-41 -4.01998,-7.2006 -4.01998,-7.2006 -1.5115,-0.58002 -1.51151,-0.58002 0.68418,40.28062 0.68418,40.28062 0.62803,6.82564 0.62803,6.82565 2.25894,1.48011 2.25894,1.48012 6.84043,1.09754 6.84043,1.09755 0.27354,0.20357 0.27354,0.20356 -0.57735,1.50454 -0.57734,1.50453 -32.99038,-0.0127 -32.99039,-0.0127 0.30381,-1.57755 0.30381,-1.57755 6.49038,-1.13166 6.49038,-1.13167 1.77778,-0.75714 1.77778,-0.75714 1.22222,-2.13235 L 819.5,524.5 l 0.2749,-92.66529 0.2749,-92.66528 -2.28623,-2.6579 -2.28622,-2.6579 -6.23868,-0.5657 L 803,332.72222 v -1.71608 -1.71609 l 30.75,0.10498 30.75,0.10497 v 1.5 1.5 l -5.03609,0.61472 -5.0361,0.61472 -2.21496,0.70301 -2.21497,0.703 -1.13267,2.11641 -1.13267,2.1164 -0.81545,25.56587 -0.81546,25.56587 -0.0508,18.75 L 846,428 h 0.92105 0.92106 l 4.68666,-4.68666 4.68665,-4.68666 5.64229,-6.97768 5.64229,-6.97769 7.02202,-9.84231 7.02202,-9.84231 8.10028,-12.74335 8.10027,-12.74334 5.21008,-9.40073 5.21008,-9.40073 0.16762,-2.59927 L 909.5,335.5 l -8.79603,-1.39171 -8.79604,-1.39171 0.30965,-1.60829 0.30965,-1.60829 24.73639,-0.0886 L 942,329.32274 V 331.16137 333 h -3.3185 -3.3185 l -5.27404,1.56622 -5.27403,1.56622 -4.15747,4.19066 -4.15746,4.19065 -20.30346,28.99313 -20.30346,28.99312 -4.12154,5.78304 -4.12154,5.78304 4.33553,8.21696 4.33552,8.21696 14.71999,26.52845 14.71998,26.52846 8.76789,14.97154 8.76789,14.97155 4.37729,6.65182 4.37729,6.65182 2.38905,1.56537 2.38905,1.56537 6.80645,1.08734 6.80645,1.08733 0.30235,0.30235 0.30235,0.30234 -0.63053,1.64313 -0.63053,1.64313 -8.14301,8.4e-4 -8.14301,8.3e-4 -11,1.00951 -11,1.00952 -2.69527,0.55708 -2.69528,0.55709 z M 294.5,535.87858 l -13,-0.80003 -40.69777,0.17962 -40.69777,0.17963 -0.56634,-0.56635 -0.56635,-0.56635 8.01027,-17.2048 8.01026,-17.2048 13.40559,-30.19775 13.4056,-30.19775 11.19419,-26 11.1942,-26 10.90406,-25.79781 L 286,335.90437 V 335.45219 335 h -18.27623 -18.27624 l -8.37625,1.05029 -8.37626,1.0503 -3.59751,1.50275 -3.59751,1.50276 -2.67743,2.56451 -2.67743,2.56452 -2.01552,4.6852 -2.01552,4.6852 -2.6959,10.94723 -2.6959,10.94724 -0.61951,0.70836 -0.61951,0.70836 -1.29657,-0.80132 -1.29656,-0.80133 1.10902,-18.79998 1.10902,-18.79999 -0.67726,-5.42064 -0.67727,-5.42064 6.37317,0.81359 L 220.5,329.5 h 47.23818 47.23817 l -0.42865,1.5 -0.42866,1.5 -1.07118,4.15017 -1.07119,4.15018 -4.57736,9.84982 -4.57737,9.84983 -8.52691,19.5 -8.52691,19.5 -11.96491,29 -11.9649,29 -11.32795,26.5 -11.32796,26.5 -4.10234,9.89304 -4.10234,9.89305 25.26114,-0.56526 25.26114,-0.56526 6,-1.16572 6,-1.16571 3.53494,-1.97534 3.53494,-1.97534 2.59277,-4.18673 2.59277,-4.18673 2.53767,-6.5 2.53768,-6.5 1.78815,-7.75 1.78815,-7.75 h 1.32785 1.32785 l 0.57326,1.49389 0.57326,1.49389 -1.59243,13.75611 -1.59243,13.75611 -0.65517,10.25 -0.65517,10.25 -3.10704,-0.1607 -3.10705,-0.1607 z m 451.5,-0.14803 -17.5,-0.83663 -38.65846,0.56099 -38.65846,0.56099 0.51016,-1.95083 0.51015,-1.95083 2.6483,-0.51925 2.64831,-0.51924 4.88357,-0.67145 4.88358,-0.67145 1.73475,-1.73475 1.73475,-1.73475 0.59365,-5.38167 0.59366,-5.38168 0.66425,-41.59005 0.66424,-41.59006 -0.74721,-46.82638 -0.74721,-46.82639 -2.21566,-2.21566 -2.21567,-2.21567 -7.16335,-0.71939 L 653,332.79702 v -1.88355 -1.88355 l 40.25,0.59263 40.25,0.59264 13,-1.01516 13,-1.01516 0.04,0.15757 0.04,0.15756 -0.3879,22.25 -0.38791,22.25 h -1.84079 -1.8408 l -0.6414,-4.75 -0.6414,-4.75 -1.42944,-6 -1.42943,-6 -2.74044,-5.40921 -2.74044,-5.4092 -3.92915,-2.0318 -3.92915,-2.03181 -15.57793,-0.97836 -15.57793,-0.97837 -2.63262,0.66074 -2.63262,0.66075 -0.73629,1.75863 -0.73629,1.75863 -0.50719,42.75 -0.50719,42.75 13.88318,-0.0439 13.88318,-0.0439 3.8162,-1.36102 3.81619,-1.36103 2.03619,-1.84272 2.03618,-1.84272 1.53259,-2.96369 1.53258,-2.9637 0.61504,-5.03867 L 742.5,402.5 h 1.87099 1.87099 l -0.37099,12 -0.37099,12 0.30764,16.33442 0.30764,16.33443 -1.74922,-0.33687 -1.74923,-0.33687 -1.23506,-6.69184 -1.23506,-6.69184 -1.64415,-3.4648 -1.64416,-3.4648 -1.863,-1.686 -1.86301,-1.68599 -3.81619,-1.36103 -3.8162,-1.36102 -13.39551,-0.0439 -13.3955,-0.0439 0.51343,45.47395 0.51343,45.47395 1.64472,2.51017 1.64473,2.51018 2.73735,0.76587 2.73735,0.76588 16,-0.008 16,-0.008 4.73941,-1.82038 4.73941,-1.82039 3.58381,-4.17133 3.5838,-4.17134 3.38424,-7.01647 3.38424,-7.01648 2.20368,-8.23352 2.20368,-8.23353 0.58887,0.0153 0.58886,0.0153 1.30029,0.82478 1.30028,0.82478 -3.08514,21.37468 -3.08514,21.37469 -0.57592,2.29467 -0.57593,2.29467 -0.63922,0.27414 -0.63922,0.27414 z m -410,-1.6885 v -1.78643 l 4.18668,-0.66948 4.18668,-0.66948 3.18266,-1.51027 3.18266,-1.51027 2.64205,-4.85432 2.64205,-4.85432 5.42811,-19.84374 5.4281,-19.84374 13.97266,-55 13.97265,-55 4.0118,-16.5 4.0118,-16.5 0.32605,-2.45007 0.32605,-2.45007 8.5,-1.68366 8.5,-1.68365 1.97236,-0.36628 1.97236,-0.36627 0.79452,4 0.79453,4 5.54025,27 5.54025,27 7.98381,36 7.9838,36 5.87712,24.62822 5.87712,24.62823 2.19166,8.12242 2.19167,8.12242 2.32882,2.24936 2.32881,2.24935 6.29792,1.00081 6.29792,1.00081 0.33687,1.74919 L 487.14665,536 H 455.5 423.85335 l 0.32785,-1.70238 0.32785,-1.70238 6.40083,-1.54762 6.40083,-1.54762 1.09464,-1.75854 1.09465,-1.75853 -7.47763,-36.86955 -7.47763,-36.86954 -11.23069,-0.6916 -11.2307,-0.69159 -10.51708,0.7045 -10.51708,0.70449 -0.46397,1.61518 -0.46398,1.61518 -4.99901,21 -4.999,21 -1.56162,8.36047 L 367,514.22094 v 4.95527 4.95527 l 1.08049,2.01892 1.08049,2.01892 3.16951,1.31778 3.16951,1.31779 5.75,0.71278 5.75,0.71278 v 1.71165 1.71165 l -25.5,0.0874 -25.5,0.0874 z m 86.34339,-88.79205 0.46143,-0.75 -9.23197,-46 -9.23196,-46 -1.53392,6.5 -1.53392,6.5 -9.29321,39.34415 -9.29321,39.34415 1.40669,0.89054 1.40668,0.89053 18.19098,0.0153 L 421.88197,446 Z M 505,533.90666 v -1.76275 l 5.75,-0.64215 5.75,-0.64216 2.6851,-1.02424 2.68509,-1.02423 1.10787,-3.15557 1.10788,-3.15556 1.02178,-32 1.02178,-32 -0.31475,-60.21505 -0.31475,-60.21505 -1.61596,-1.6152 -1.61596,-1.61519 -7.85632,-0.97537 -7.85632,-0.97537 -0.30126,-0.30126 -0.30126,-0.30125 0.55291,-1.44086 0.55291,-1.44085 36.68961,-0.16996 36.68962,-0.16995 6.80667,1.41923 6.80667,1.41923 5.0941,2.77256 5.09411,2.77256 4.86107,5.454 4.86107,5.454 2.99881,7.20346 2.99881,7.20347 1.63712,9.36843 1.63712,9.36842 -0.55456,10.5 -0.55457,10.5 -2.57447,8.80747 -2.57447,8.80746 -2.58936,5.10986 -2.58936,5.10986 -5.06321,5.3536 -5.06322,5.3536 -5.14045,2.94107 -5.14045,2.94107 -5.9048,1.53801 -5.9048,1.538 h -5.62994 -5.62993 L 560.5,448 552.68007,446 H 552.34004 552 l 0.0618,33.25 0.0618,33.25 0.73758,7.36674 0.73758,7.36673 1.69679,1.24073 1.6968,1.24073 9.0038,1.23042 9.0038,1.23043 v 1.80355 1.80355 l -35,-0.0567 -35,-0.0567 z m 73.63417,-91.82526 3.13417,-1.91112 2.69972,-3.53951 2.69971,-3.53952 2.31843,-6.85269 2.31843,-6.85269 1.26216,-7.94293 1.26215,-7.94294 0.026,-14.5 0.026,-14.5 -1.17589,-7.09734 -1.17589,-7.09733 -2.07432,-6.71587 -2.07432,-6.71586 -3.62209,-4.00922 -3.62208,-4.00921 -4.06822,-2.10025 -4.06821,-2.10024 -8,-0.37707 -8,-0.37707 -1.5,1.01247 -1.5,1.01246 -0.64979,9.78727 -0.64978,9.78726 -0.10022,43.10792 -0.10021,43.10792 4.25,1.02199 4.25,1.02199 7.5,0.11635 7.5,0.11635 z"
         id="path7" />
      <path
         style="fill:#8c8c8c;fill-opacity:1"
         d="m 292.14677,674.97209 -4.35324,-0.90305 -4.24028,-2.48497 -4.24028,-2.48497 -2.7251,-3.57279 -2.7251,-3.57279 -1.53871,-4.51586 -1.53871,-4.51586 0.39907,-7.2109 0.39908,-7.2109 1.89499,-3.9034 1.89498,-3.9034 3.46215,-3.46215 3.46214,-3.46215 4.10112,-1.86249 4.10112,-1.86249 7.78984,-0.022 7.78984,-0.022 4.21016,2.11002 4.21016,2.11002 2.74561,2.57287 2.74562,2.57287 -2.61275,1.71394 -2.61275,1.71394 -4.37289,-3.0823 -4.37289,-3.0823 -5.86737,-0.4244 -5.86737,-0.42441 -4.50107,1.99104 -4.50107,1.99104 -2.50343,3.36883 -2.50343,3.36884 -1.13811,3.39922 -1.1381,3.39923 v 4.20155 4.20155 l 1.1381,3.39923 1.13811,3.39922 2.41983,3.25923 2.41982,3.25923 4.18226,2.13363 4.18225,2.13362 h 5.13667 5.13666 l 4.37315,-2.40736 L 312.5,664.471 312.7999,658.7355 313.09981,653 H 304.0499 295 v -3 -3 h 12.5 12.5 v 9.94911 9.94911 l -3.30383,2.51995 -3.30382,2.51995 -3.52834,1.47423 -3.52833,1.47424 -4.91784,0.49427 -4.91784,0.49428 z M 363,647.5 V 620 h 18 18 v 3 3 H 384.5 370 v 9 9 h 14 14 v 3 3 h -14 -14 v 9.5 9.5 h 14.5 14.5 v 3 3 h -18 -18 z m 78,0 V 620 h 3.34969 3.34968 l 15.40032,20.91099 15.40031,20.911 0.26989,-20.911 L 479.03978,620 H 482.51989 486 v 27.5 27.5 h -3.29745 -3.29746 L 463.95255,653.90107 448.5,632.80215 448.23011,653.90107 447.96022,675 H 444.48011 441 Z m 90,0 V 620 h 17.5 17.5 v 2.97254 2.97255 L 551.75,626.22254 537.5,626.5 v 8.5 8.5 l 13.75,0.27822 13.75,0.27822 V 647.02822 650 h -14.03753 -14.03752 l 0.28752,9.25 0.28753,9.25 14.25,0.27746 14.25,0.27745 V 672.02746 675 H 548.5 531 Z m 93.99352,24.98296 -1.0008,-2.63231 -9.59781,-23.67533 -9.59782,-23.67532 -0.50553,-1.25 -0.50554,-1.25 h 4.01824 4.01824 l 7.7218,19.75 7.72181,19.75 1.45311,3.5 1.4531,3.5 7.90715,-20 7.90714,-20 1.08425,-3.25 1.08424,-3.25 H 652.07755 656 l -0.0419,0.75 -0.0419,0.75 -10.70806,26.5 -10.70806,26.5 -4.25284,0.30764 -4.25283,0.30763 z M 695,647.5 V 620 h 18 18 v 3 3 H 716.5 702 v 9 9 h 14 14 v 3 3 h -14 -14 v 9.5 9.5 h 14.5 14.5 v 3 3 h -18 -18 z m -152.93308,-37.75 -6.42466,-5.25 3.34244,-0.32556 3.34244,-0.32556 5.57556,5.57556 5.57556,5.57556 h -2.49335 -2.49334 z M 100.27451,537.46096 95.04902,536.05354 88.77451,532.88859 82.5,529.72365 76.314889,523.41949 70.129778,517.11534 64.569758,505.80767 59.009739,494.5 l -2.417434,-9.52295 -2.417434,-9.52296 -1.71429,-13.46857 -1.714291,-13.46858 0.540952,-18.00847 0.540952,-18.00847 1.621727,-8.76176 1.621728,-8.76175 2.53065,-8.73275 2.530651,-8.73274 3.912482,-8.34902 3.912482,-8.34902 4.473037,-6.2684 4.473037,-6.2684 6.991333,-6.4729 6.991334,-6.47291 6.519814,-3.20969 6.519811,-3.20969 6.78686,-1.43812 6.78686,-1.43812 7.70078,-0.0174 7.70078,-0.0174 5.29922,1.12536 5.29922,1.12537 4.34084,2.02746 4.34085,2.02747 3.54903,3.34717 3.54904,3.34717 h 0.24907 0.24908 l 1.75946,-6.5 1.75947,-6.5 0.60158,0.0153 0.60158,0.0153 1.32271,0.83864 1.32271,0.83864 -0.70853,3.77679 -0.70853,3.7768 -0.61418,24.10735 -0.61418,24.10736 -1.62854,0.31183 -1.62854,0.31183 -0.72111,-5.79994 -0.72112,-5.79993 -2.30189,-9.08896 -2.3019,-9.08896 -2.68258,-5.29383 -2.68259,-5.29382 -4.5084,-4.81985 -4.5084,-4.81984 -4.39771,-1.6795 -4.39771,-1.67951 -7.25976,0.47405 -7.25975,0.47405 -4,2.05614 -4,2.05614 -3.89215,3.78814 -3.89215,3.78813 -3.770439,5.83361 -3.77044,5.8336 -3.16066,8.73021 -3.16066,8.7302 -1.919648,8 -1.919647,8 -1.720061,11.5 -1.720061,11.5 -0.01251,22 -0.01252,22 1.72693,11 1.726931,11 2.505812,9.5 2.505812,9.5 3.932899,8.0315 3.9329,8.03151 4.911312,5.1224 4.91132,5.12241 4.0979,2.09059 4.09791,2.0906 6.9075,1.1845 6.9075,1.18451 6.89311,-1.69432 6.89311,-1.69432 5.24737,-3.60466 5.24737,-3.60465 3.93619,-5.8945 3.93619,-5.89449 2.13627,-5.70969 2.13627,-5.70969 0.55517,-2.77585 L 166.25,490 l 0.625,0.0153 0.625,0.0153 1.46821,0.92856 1.4682,0.92856 -1.19995,5.80613 -1.19996,5.80612 -4.00599,8.12751 -4.006,8.12752 -5.3052,5.37248 -5.3052,5.37249 -5.03192,2.71709 -5.03192,2.71709 -5.88523,1.53291 L 127.5798,539 116.5399,538.93419 105.5,538.86838 Z m 802.61755,-4.69726 -3.15057,-6.2637 -20.7611,-37.56132 -20.76111,-37.56132 -3.2363,-6.43868 -3.2363,-6.43868 -1.94143,-2.75 -1.94144,-2.75 H 846.93191 846 l 0.073,28.75 0.073,28.75 0.71766,17.76291 0.71765,17.76292 2.05791,2.0579 2.0579,2.0579 7.4201,1.17919 7.4201,1.17918 -0.2993,1.52815 -0.29929,1.52814 -32.9694,-0.0201 -32.9694,-0.0201 0.0153,-0.50807 0.0153,-0.50808 0.73468,-1.1026 0.73469,-1.10261 5.28915,-0.68703 5.28915,-0.68703 2.50922,-0.95401 2.50922,-0.954 1.58172,-3.75636 1.58173,-3.75636 0.50969,-81 0.5097,-81 -0.74306,-10.85327 -0.74306,-10.85327 -1.82465,-1.82465 -1.82465,-1.82465 -4.82208,-0.65614 -4.82208,-0.65614 -1.75,-0.48333 -1.75,-0.48333 v -1.18324 -1.18324 l 30.25,-0.0511 30.25,-0.0512 0.69721,1.02538 0.69722,1.02538 -1.19722,0.76108 -1.19721,0.76108 -3.28212,0.0153 -3.28212,0.0153 -3.39882,1.42012 -3.39882,1.42012 -1.07683,3.82988 -1.07683,3.82988 -0.65699,42.90175 -0.65699,42.90175 3.08633,-2.28183 3.08634,-2.28182 4.82842,-5.55731 4.82843,-5.55731 4.36694,-5.56262 4.36695,-5.56261 6.72516,-9.5 6.72517,-9.5 6.36395,-10 6.36394,-10 6.79395,-11.97548 L 910,339.54903 v -1.7155 -1.7155 l -0.92745,-0.57319 -0.92745,-0.5732 -8.07255,-1.1416 -8.07255,-1.14161 0.0153,-0.59422 0.0153,-0.59421 0.73468,-1.00155 0.73469,-1.00155 24.25001,0.002 24.25001,0.002 -10e-6,1.20469 -1e-5,1.20468 -3.75,0.63995 -3.75,0.63994 -3.5,0.89312 -3.5,0.89312 -3.14549,1.934 -3.14549,1.93399 -5.92937,7.82825 -5.92937,7.82826 -15.33835,22 -15.33836,22 -5.33679,7.24033 L 868,412.98067 v 1.12416 1.12416 l 12.99796,23.88075 12.99796,23.88075 13.61873,23.75475 13.61873,23.75476 5.31793,8.18411 5.31793,8.18411 2.47495,1.62165 2.47495,1.62165 6.84043,1.09754 6.84043,1.09755 0.27354,0.20357 0.27354,0.20356 -0.63053,1.64313 -0.63053,1.64313 -10.64301,0.008 -10.64301,0.008 -9,0.98957 -9,0.98957 -2.22869,0.51593 -2.22869,0.51593 z M 297.5,535.82052 l -12,-0.89502 -42.75053,0.28725 -42.75053,0.28725 -0.32428,-0.97442 -0.32427,-0.97442 5.44404,-11.52558 5.44404,-11.52558 11.24128,-25 11.24127,-25 L 245.97126,430 259.2215,399.5 272.61075,367.8452 286,336.19041 v -0.69778 -0.69777 l -24.25,0.45286 -24.25,0.45286 -5.26409,1.69264 -5.2641,1.69263 -3.35963,2.9498 -3.35963,2.94979 -2.24148,5.21048 -2.24149,5.21047 -2.45381,10.0468 -2.45382,10.04681 -0.46772,1.42754 -0.46772,1.42754 -1.43347,-1.43347 -1.43347,-1.43347 1.0655,-15.42271 1.06549,-15.42272 -0.34528,-8.38086 -0.34528,-8.38085 5,0.8095 5,0.8095 h 48.0864 48.08639 l -1.75437,6.5 -1.75438,6.5 -10.43846,23 -10.43847,23 -10.74954,26 -10.74953,26 -16.30087,38.5 -16.30086,38.5 -2.5231,6.25 -2.5231,6.25 20.17995,-0.0178 20.17994,-0.0178 8.64119,-0.9095 8.6412,-0.90949 4.28721,-1.28448 4.28721,-1.28448 3.1855,-3.18549 3.18549,-3.1855 3.27066,-7.85276 3.27065,-7.85277 2.11545,-8.73766 2.11544,-8.73766 1.28138,-0.0123 1.28139,-0.0123 0.51739,1.34829 0.51738,1.34828 -1.53131,12.42325 -1.53132,12.42325 -0.66986,11.72847 L 313.69519,537 311.5976,536.85777 309.5,536.71554 Z M 336,533.84631 V 532 l 2.25,-0.006 2.25,-0.006 3.70867,-1.03002 3.70867,-1.03001 3.03415,-3.03416 3.03416,-3.03416 3.48014,-11.18025 3.48013,-11.18025 7.53618,-29 7.53618,-29 13.44733,-54 13.44734,-54 0.50025,-2.50168 0.50026,-2.50168 8.79327,-1.64151 8.79327,-1.64151 1.40189,-0.35681 1.40189,-0.35681 3.81363,19 3.81362,19 5.13482,24 5.13482,24 7.44962,33 7.44962,33 5.54435,22.64051 5.54435,22.6405 1.85368,3.04813 1.85367,3.04813 3.80202,1.05579 3.80202,1.05579 3.25,0.006 L 486,532 v 1.80724 1.80725 l -31,0.0471 -31,0.0471 0.0153,-0.60437 0.0153,-0.60436 0.73468,-1.12753 0.73469,-1.12754 4.5,-0.71856 4.5,-0.71856 2.25,-1.42696 2.25,-1.42696 v -2.6935 -2.6935 L 431.87186,487.53345 424.74372,452.5 423.62186,451.76531 422.5,451.03063 402.28518,451.01531 382.07037,451 l -0.92143,1.75 -0.92142,1.75 -5.57816,23.53955 -5.57816,23.53954 -1.51923,9.46046 -1.51923,9.46045 0.78747,2.93227 0.78746,2.93227 2.56691,1.91648 2.56691,1.91648 7.12925,1.12258 7.12926,1.12258 -10e-5,1.52867 -1e-4,1.52867 -25.4999,0.0963 L 336,535.6926 Z m 87,-88.62781 v -0.78149 l -9.00326,-44.96851 -9.00326,-44.9685 -0.34179,-1 -0.3418,-1 -4.21836,17.5 -4.21835,17.5 -5.88556,25 -5.88557,25 -0.67883,4.25 -0.67884,4.25 H 402.87219 423 Z m 82,88.68441 v -1.59708 l 7.63237,-1.071 7.63237,-1.071 1.44788,-1.44788 1.44787,-1.44787 1.0974,-7.88404 1.0974,-7.88404 0.0724,-86.83673 0.0724,-86.83673 -2.2112,-1.79214 -2.21121,-1.79215 -7.53879,-0.70645 -7.5388,-0.70644 0.0153,-0.66468 0.0153,-0.66468 0.73468,-1 0.73469,-1 35,-0.20815 35,-0.20815 6.27404,0.98118 6.27405,0.98118 5.71858,2.1396 5.71859,2.1396 5.51657,5.58737 5.51658,5.58737 2.79274,5.79313 2.79274,5.79313 2.09093,7.70687 2.09094,7.70687 -0.0217,14 -0.0217,14 -2.12935,7.94198 -2.12936,7.94198 -3.58093,7.24725 -3.58094,7.24726 -5.24984,4.96508 -5.24985,4.96508 -5.91103,2.97788 -5.91103,2.97788 -5.9919,1.23892 -5.99191,1.23892 -6.50809,-0.62354 -6.5081,-0.62355 -4.90893,-1.49757 L 553.68214,446 h -0.90398 -0.90398 l 0.31291,39.25 0.31291,39.25 1.26701,2.21604 1.267,2.21603 3.733,0.95458 3.73299,0.95459 6.30323,0.68374 6.30322,0.68375 -0.31695,1.64563 -0.31696,1.64564 H 539.73627 505 Z m 69.32078,-89.97503 3.82078,-1.06097 3.80967,-3.44181 3.80967,-3.44181 2.24641,-5.22192 2.24641,-5.22191 2.06128,-9.51973 2.06128,-9.51973 -0.0159,-18 -0.0159,-18 -1.62281,-7.08035 -1.6228,-7.08035 -2.10546,-5.62735 -2.10546,-5.62735 -4.84215,-4.3535 -4.84214,-4.3535 -3.96785,-1.1888 L 569.26796,334 h -6.44285 -6.44285 l -1.94113,1.41881 -1.94113,1.41881 -0.32738,52.49423 -0.32738,52.49423 5.32738,1.04454 5.32738,1.04454 2.5,0.40624 2.5,0.40624 1.5,0.1306 1.5,0.13061 z m 77.67918,89.88339 4e-5,-1.68872 4.75,-0.57666 4.75,-0.57665 3.9976,-1.23462 3.9976,-1.23462 1.45482,-4 1.45483,-4 0.0476,-89.5 0.0476,-89.5 -0.76181,-2.72114 -0.7618,-2.72113 -2.03915,-1.09132 -2.03915,-1.09132 -6.94905,-0.58258 L 653,332.70993 v -1.715 -1.71499 l 44.25,0.46937 44.25,0.46937 9,-1.0224 9,-1.0224 v 0.16306 0.16306 l -0.28719,22.25 -0.28718,22.25 h -1.84759 -1.84759 l -0.71462,-5.75 -0.71462,-5.75 -2.38488,-7.5 -2.38487,-7.5 -1.89767,-3.08004 -1.89767,-3.08003 -3.70521,-1.75824 -3.7052,-1.75823 -6.16286,-0.89162 -6.16285,-0.89163 -11.71482,-0.0201 -11.71481,-0.0201 -1.2575,2.25 -1.25751,2.25 -0.38206,42.70475 -0.38207,42.70475 2.7407,0.68787 2.7407,0.68787 10.61368,-0.60539 10.61369,-0.6054 3.97745,-1.14703 3.97746,-1.14703 3.64286,-3.64287 3.64286,-3.64286 0.70274,-4.49733 0.70273,-4.49733 0.49434,-1.75 0.49434,-1.75 h 1.23724 1.23724 l -0.0546,27.99932 -0.0546,27.99932 -1.18261,6.8e-4 -1.18261,6.8e-4 -0.46426,-1.75 -0.46425,-1.75 -1.25678,-6.33011 -1.25678,-6.33011 -2.0978,-3.16989 -2.0978,-3.16989 -4.49856,-2.23174 -4.49855,-2.23175 -10.09582,-0.65847 -10.09582,-0.65847 -3.76572,0.70645 -3.76573,0.70646 0.40046,45.68376 0.40045,45.68376 1.23996,2.23819 1.23995,2.2382 2.72113,0.7618 L 707.5,529.5 h 17 17 l 4.57271,-2.11535 4.57271,-2.11534 3.55914,-4.38466 3.55914,-4.38465 2.55512,-5.09238 2.55513,-5.09238 2.75625,-9.40762 2.75625,-9.40762 0.16365,-0.27354 0.16364,-0.27354 1.5676,0.60155 1.5676,0.60154 -0.41168,3.172 -0.41168,3.17199 -2.06035,14.5 -2.06036,14.5 -1.01162,6 -1.01162,6 h -56.44086 -56.44085 z"
         id="path6" />
      <path
         style="fill:#767676;fill-opacity:1"
         d="m 285.10988,672.36747 -5.28281,-2.63254 -3.35246,-4.61746 -3.35247,-4.61747 -1.17679,-4.19914 -1.17679,-4.19914 0.41394,-6.80086 0.41395,-6.80086 1.88851,-3.9034 1.88851,-3.9034 3.15986,-3.15987 3.15987,-3.15986 3.9034,-1.90091 3.9034,-1.9009 7.62885,-0.38622 7.62886,-0.38621 4.37114,1.94222 4.37115,1.94222 3.31085,2.79826 3.31085,2.79826 -2.67799,1.75673 -2.67798,1.75674 -4.42113,-3.11631 -4.42113,-3.1163 -6.71174,-0.32004 -6.71173,-0.32004 -3.95841,2.298 -3.95841,2.298 -3.04159,4.32766 -3.04159,4.32765 v 8.32772 8.32772 l 3.0444,4.33614 3.04441,4.33614 4.32874,2.39286 4.32875,2.39285 h 5.2537 5.2537 l 4.37315,-2.40736 L 312.5,664.471 312.7999,658.7355 313.09981,653 H 304.0499 295 v -3 -3 h 12.5 12.5 v 9.94911 9.94911 l -3.30383,2.51995 -3.30382,2.51995 -3.66406,1.53094 L 306.06424,675 h -7.83578 -7.83577 z M 363,647.5 v -27.54615 l 17.75,0.27308 17.75,0.27307 0.31642,2.75 0.31642,2.75 H 384.56642 370 v 9 9 h 14 14 v 3 3 h -14 -14 v 9.5 9.5 h 14.56642 14.56642 l -0.31642,2.75 -0.31642,2.75 -17.75,0.27307 -17.75,0.27308 z m 78,0.0634 V 620 h 3.31693 3.31693 L 463.06693,640.96342 478.5,661.92683 478.76989,640.96342 479.03978,620 H 482.51989 486 v 27.5 27.5 h -3.31069 -3.31068 L 463.93931,653.81609 448.5,632.63217 448,653.56609 447.5,674.5 l -3.25,0.31336 -3.25,0.31336 z M 531,647.5 V 620 h 17.5 17.5 v 2.97254 2.97255 L 551.75,626.22254 537.5,626.5 v 8.5 8.5 l 13.75,0.27822 13.75,0.27822 V 647.02822 650 h -14.03753 -14.03752 l 0.28752,9.25 0.28753,9.25 14.25,0.27746 14.25,0.27745 V 672.02746 675 H 548.5 531 Z m 94.10829,25.30764 -0.88604,-2.30764 -9.67926,-24 -9.67926,-24 -0.53885,-1.25 -0.53886,-1.25 h 4 4 l 0.49836,1.25 0.49836,1.25 8.18393,21 8.18393,21 0.71624,0.74154 0.71623,0.74153 8.94192,-22.99153 L 648.46691,620 H 652.23346 656 l -0.0419,0.75 -0.0419,0.75 -10.70806,26.5 -10.70806,26.5 -4.25284,0.30764 -4.25283,0.30763 z M 695,647.5 v -27.54615 l 17.75,0.27308 17.75,0.27307 0.31642,2.75 0.31642,2.75 H 716.56642 702 v 9 9 h 14 14 v 3 3 h -14 -14 v 9.5 9.5 h 14.56642 14.56642 l -0.31642,2.75 -0.31642,2.75 -17.75,0.27307 -17.75,0.27308 z m -152.83689,-37.75 -6.29871,-5.25 3.23137,-0.32556 3.23137,-0.32556 5.57556,5.57556 5.57556,5.57556 h -2.50822 -2.50823 z M 100.63408,537.41354 94.768153,535.99371 88.634076,532.78038 82.5,529.56704 76.184603,523.12075 69.869205,516.67445 64.478879,505.58723 59.088553,494.5 l -2.467545,-10 -2.467544,-10 -1.314827,-8 -1.314827,-8 0.01905,-22.5 0.01905,-22.5 1.759715,-9 1.759716,-9 2.546925,-9 2.546926,-9 3.374058,-7.30784 3.374058,-7.30783 4.567691,-6.87079 4.567691,-6.87079 7.374029,-6.88653 7.37403,-6.88653 6.559767,-3.22936 6.559764,-3.22936 6.78686,-1.43812 6.78686,-1.43812 7.70078,-0.0174 7.70078,-0.0174 5.29922,1.12536 5.29922,1.12537 4.34084,2.02746 4.34085,2.02747 3.54903,3.34717 3.54904,3.34717 h 0.24907 0.24908 l 1.75946,-6.5 1.75947,-6.5 0.60158,0.0153 0.60158,0.0153 1.16218,0.73942 1.16218,0.73943 -0.86859,10.49526 -0.86859,10.49526 -0.0436,17.14301 -0.0436,17.14301 -1.64313,0.63053 -1.64313,0.63053 -0.18477,-0.27354 -0.18478,-0.27354 -1.77135,-10.38194 -1.77135,-10.38195 -1.76861,-5.14053 -1.7686,-5.14053 -2.53234,-4.99733 -2.53233,-4.99733 -4.9055,-4.58851 -4.90549,-4.58852 -3.83118,-1.2644 -3.83118,-1.26441 -7.11313,0.46464 -7.11313,0.46464 -4.36317,2.23614 -4.36317,2.23615 -4.13683,4.29266 -4.13683,4.29266 -3.29389,5.5003 -3.29389,5.5003 -3.461817,9.68574 -3.461816,9.68573 -2.440836,12.19325 -2.440836,12.19324 -1.05004,11.5 -1.05004,11.5 -0.0034,11.14405 -0.0034,11.14404 1.018682,10.35596 1.018683,10.35595 1.973752,10.5526 1.973752,10.55261 2.446349,7.19256 2.446349,7.19257 3.187605,5.98056 3.187604,5.98055 4.867649,5.07687 4.86766,5.07687 5.75596,2.67576 5.75595,2.67575 8.5,-0.0517 8.5,-0.0517 5.64878,-2.21065 5.64877,-2.21064 5.09783,-5.01805 5.09783,-5.01805 3.9145,-8.19798 3.91451,-8.19797 0.66582,-3.23853 0.66583,-3.23853 0.72081,-0.44549 0.72081,-0.44548 1.42046,0.87789 1.42046,0.87789 -1.19053,5.67593 -1.19054,5.67593 -3.98109,8.22492 -3.9811,8.22492 -5.43635,5.43636 -5.43635,5.43635 -4.93509,2.68601 -4.93509,2.68601 -5.88523,1.53291 L 127.5798,539 117.0399,538.91669 106.5,538.83337 Z m 801.96713,-5.21257 -3.43815,-6.82725 -17.933,-32.43686 -17.933,-32.43686 -5.8189,-11 -5.8189,-11 -1.89772,-2.75 -1.89773,-2.75 H 846.93191 846 l 0.0689,29.25 0.0689,29.25 0.72829,17.26941 0.7283,17.26941 2.05123,2.05124 2.05124,2.05123 7.15157,1.10696 7.15158,1.10696 v 1.60397 1.60397 l -32.99999,-0.0316 -32.99999,-0.0316 0.0153,-0.5 0.0153,-0.5 0.73468,-1.03739 0.73469,-1.03738 6.9099,-1.1503 6.9099,-1.15029 2.06277,-2.06277 2.06277,-2.06276 0.81671,-27.74956 L 821.07876,470.5 820.78938,405 820.5,339.5 l -1.22889,-2.14482 -1.22889,-2.14481 -3.17033,-1.10519 L 811.70155,333 h -2.76899 -2.76899 l -1.58178,-0.60699 -1.58179,-0.60699 10e-6,-1.14301 10e-6,-1.14301 30.47455,-0.0375 30.47455,-0.0375 0.47994,1.25071 0.47994,1.2507 -3.7045,0.57729 -3.7045,0.57728 -3.63137,0.96409 -3.63138,0.9641 -1.27954,1.54175 -1.27954,1.54176 -0.85708,21.3579 -0.85708,21.35791 0.26799,24.34574 0.268,24.34574 6.8756,-7 6.87561,-7 9.77,-13 9.76999,-13 8.9888,-14 8.98879,-14 6.10867,-11 6.10868,-11 0.007,-1.77475 0.007,-1.77475 -2.25,-0.84299 -2.25,-0.84299 -6.75,-0.71185 -6.75,-0.71186 0.0153,-0.6704 0.0153,-0.67041 0.73468,-1.00155 0.73469,-1.00155 24.25001,0.002 24.25001,0.002 -10e-6,1.25 L 942,332 h -0.31634 -0.31634 l -5.90194,1.09103 -5.90193,1.09103 -3.64888,1.86152 -3.64888,1.86152 -3.99094,4.79745 -3.99093,4.79745 -20.29128,29 -20.29129,29 -2.85062,3.6439 L 868,412.78781 v 1.20026 1.20027 l 11.15623,20.65583 11.15622,20.65583 15.4371,26.98984 15.4371,26.98984 5.3413,8.19427 5.34129,8.19427 2.47495,1.62165 2.47495,1.62165 6.84043,1.09754 6.84043,1.09755 0.27354,0.20357 0.27354,0.20356 -0.63053,1.64313 -0.63053,1.64313 -10.64301,0.008 -10.64301,0.008 -9,0.98957 -9,0.98957 -2.23032,0.51634 -2.23032,0.51634 z M 297.5,535.82456 l -12,-0.89099 -42.75058,0.28322 -42.75057,0.28321 -0.31302,-0.94079 -0.31302,-0.94079 8.41769,-18.05921 8.41769,-18.05921 15.28391,-34.5 15.28392,-34.5 14.52161,-34 14.52161,-34 5.09038,-12.23369 L 286,336.03261 v -0.61887 -0.61888 l -24.25,0.45286 -24.25,0.45286 -5.20258,1.67437 -5.20258,1.67437 -3.09127,2.60113 -3.09127,2.60113 -1.9593,3.84054 -1.9593,3.84055 -2.45499,8.78366 -2.45498,8.78367 -1.11769,4.38846 -1.11769,4.38846 -1.39439,-1.39439 -1.39439,-1.39439 1.0655,-15.42271 1.06549,-15.42272 -0.34528,-8.32278 -0.34528,-8.32278 5,0.75143 5,0.75142 h 48.11743 48.11744 l -1.81191,6.5 -1.81191,6.5 -6.93322,15 -6.93323,15 -9.5416,22.5 -9.54159,22.5 -12.50127,30 -12.50126,30 -11.01094,26 -11.01094,26 19.6815,0.29334 19.6815,0.29333 9.5,-1.03509 9.5,-1.0351 3.94398,-1.23556 3.94399,-1.23555 3.16991,-3.16992 3.16992,-3.16992 3.13988,-7.54233 3.13988,-7.54233 2.16215,-8.31043 2.16215,-8.31044 0.83407,-0.95 0.83407,-0.95 1.07795,1.07795 1.07794,1.07794 -1.5661,12.87206 -1.5661,12.87205 -0.66425,11.75 -0.66425,11.75 -2.09759,-0.14223 -2.0976,-0.14223 z m 38.5,-1.84942 v -1.71748 l 4.75,-0.63334 4.75,-0.63334 3.11349,-1.89778 3.11349,-1.89777 2.23209,-4.61088 2.23209,-4.61089 3.43016,-12.23683 3.43016,-12.23683 8.93232,-34.5 8.93231,-34.5 11.1128,-45 11.1128,-45 0.40214,-2.06651 0.40215,-2.06652 7.777,-1.30133 7.777,-1.30134 2.5,-0.44857 2.5,-0.44856 4.38559,22.31641 4.38558,22.31642 7.7863,35.5 7.7863,35.5 4.1229,18 4.1229,18 5.49868,22.55691 5.49868,22.55691 1.90452,3.13172 1.90451,3.13173 3.80202,1.05579 3.80202,1.05579 3.25,0.006 L 486,532 v 1.80724 1.80725 l -31,0.0471 -31,0.0471 0.0153,-0.60437 0.0153,-0.60436 0.73468,-1.12753 0.73469,-1.12754 4.5,-0.71856 4.5,-0.71856 2.25,-1.42696 2.25,-1.42696 -0.0337,-3.22694 -0.0337,-3.22695 -7.21634,-35 -7.21633,-35 -21.20424,-0.26975 -21.20425,-0.26976 -0.92208,1.76976 -0.92207,1.76975 -5.14948,21.30154 -5.14948,21.30154 -1.97181,11.53388 -1.97182,11.53387 0.63192,2.66459 0.63193,2.66458 1.52969,1.75996 1.5297,1.75997 5.0175,1.49003 L 380.363,532 H 383.6815 387 l -10e-5,1.75 -1e-4,1.75 -25.4999,0.0963 L 336,535.6926 Z m 87.00031,-88.72514 3.2e-4,-0.75 -9.18305,-45.92404 -9.18304,-45.92404 -0.77641,1.92404 L 403.08172,356.5 393.04086,399.17013 383,441.84026 V 443.92013 446 h 20 20 z M 505,533.95071 v -1.55243 l 7.61173,-1.09658 7.61172,-1.09658 1.46852,-1.46852 1.46852,-1.46852 1.0974,-7.88404 1.0974,-7.88404 0.0724,-86.83673 0.0724,-86.83673 -2.2112,-1.79214 -2.21121,-1.79215 -7.53879,-0.70645 -7.5388,-0.70644 0.0153,-0.66468 0.0153,-0.66468 0.73468,-1 0.73469,-1 35,-0.20815 35,-0.20815 6.27404,0.98118 6.27405,0.98118 5.71858,2.1396 5.71859,2.1396 5.51657,5.58737 5.51658,5.58737 2.79274,5.79313 2.79274,5.79313 2.09093,7.70687 2.09094,7.70687 -0.0217,14 -0.0217,14 -2.092,7.79592 -2.09199,7.79591 -3.05559,6.4024 -3.05558,6.4024 -4.94883,5.41481 -4.94883,5.41481 -6.77476,3.53474 -6.77475,3.53475 -5.9919,1.22325 -5.99191,1.22324 -6.50809,-0.62354 -6.5081,-0.62355 -4.90893,-1.49757 L 553.68214,446 h -0.8945 -0.89449 l 0.30342,39.25 0.30343,39.25 1.24894,2.18228 1.24894,2.18227 2.03176,0.64486 2.03176,0.64485 7.7193,1.17623 7.7193,1.17623 v 1.49664 1.49664 l -34.75,0.002 -34.75,0.002 z m 69.4967,-90.07141 3.9967,-1.10954 4.10496,-4.13488 4.10497,-4.13488 2.09852,-5.65437 2.09852,-5.65437 1.76457,-8.34563 1.76458,-8.34563 0.0227,-17.5 0.0227,-17.5 -1.81794,-8.5 -1.81794,-8.5 -1.97764,-4.59882 -1.97765,-4.59882 -4.19189,-4.10977 -4.19189,-4.10978 -4.37573,-1.5414 L 569.74855,334 h -6.68315 -6.68314 l -1.94113,1.41881 -1.94113,1.41881 -0.32738,52.49423 -0.32738,52.49423 5.32738,1.03552 5.32738,1.03552 2,0.43544 2,0.43544 2,0.11042 2,0.11043 z m 77.50327,89.93197 3e-5,-1.68872 4.75,-0.57666 4.75,-0.57665 3.9976,-1.23462 3.9976,-1.23462 1.45289,-4 1.45289,-4 0.0495,-89.5 0.0495,-89.5 -0.76181,-2.72114 -0.7618,-2.72113 -2.03915,-1.09132 -2.03915,-1.09132 -6.94905,-0.58258 L 653,332.70993 v -1.715 -1.71499 l 44.25,0.46937 44.25,0.46937 9,-1.0224 9,-1.0224 v 0.16306 0.16306 l -0.28719,22.25 -0.28718,22.25 h -1.83399 -1.83398 l -0.68862,-5.25 -0.68862,-5.25 -1.50354,-6.01815 -1.50355,-6.01815 -2.68666,-4.98185 L 745.5,340.5 l -3.73096,-1.82326 -3.73096,-1.82326 -6.26904,-0.90663 -6.26904,-0.90664 -11.62756,-0.0201 -11.62755,-0.0201 -1.37245,1.6534 -1.37244,1.6534 -0.35354,43.30156 -0.35355,43.30156 2.74987,0.69017 2.74986,0.69017 11.28984,-0.60503 11.28984,-0.60504 3.81384,-1.59314 3.81384,-1.59315 2.72688,-2.61189 2.72689,-2.6119 0.93891,-3.08506 0.9389,-3.08505 0.62953,-3.75 0.62952,-3.75 h 1.25931 1.25932 l -0.0546,27.99932 -0.0546,27.99932 -1.23095,6.8e-4 -1.23095,6.8e-4 -0.47968,-2.25 -0.47969,-2.25 -1.09746,-5.68832 -1.09746,-5.68832 -2.19335,-3.31168 -2.19335,-3.31168 -4.49856,-2.23174 -4.49855,-2.23175 -10.09582,-0.65847 -10.09582,-0.65847 -3.76572,0.70645 -3.76573,0.70646 0.40046,45.68376 0.40045,45.68376 1.2281,2.21604 1.22809,2.21603 4.21054,1.13378 4.21055,1.13378 15.52245,-0.38585 15.52245,-0.38585 4.5,-2.04717 4.5,-2.04717 3.39335,-3.86486 3.39335,-3.86486 3.31076,-7.05193 3.31075,-7.05194 2.2527,-8 2.2527,-8 0.15007,-0.27354 0.15006,-0.27354 1.46431,0.56191 1.4643,0.56191 -0.29905,2.71163 -0.29905,2.71163 -2.05617,15 -2.05618,15 -1.0251,6 -1.0251,6 h -56.44088 -56.44087 z"
         id="path5" />
      <path
         style="fill:#606060;fill-opacity:1"
         d="m 287.24017,673.19562 -4.25984,-1.69562 -3.53088,-3.36965 -3.53088,-3.36965 -2.20211,-4.13035 -2.20212,-4.13035 v -9 -9 l 2.1552,-4 2.1552,-4 3.33763,-3.19342 3.33763,-3.19342 4.5,-2.03462 4.5,-2.03462 7.05366,-0.022 7.05365,-0.022 5.06149,2.52225 5.06149,2.52224 1.87617,2.07314 1.87616,2.07315 -2.39225,1.93712 -2.39225,1.93713 -2.09906,-1.91554 L 310.5,629.23395 307.29966,627.61697 304.09932,626 h -5.5895 -5.5895 l -3.71016,1.90268 -3.71016,1.90268 -2.20227,2.36097 -2.20227,2.36096 -1.54773,3.70424 -1.54773,3.70423 0.022,5.78212 0.022,5.78212 1.84889,4.07074 1.84889,4.07074 3.80124,3.1333 3.80124,3.1333 4.73089,1.0146 4.73089,1.01459 5.11019,-1.32556 5.11018,-1.32557 1.98684,-1.79806 L 313,663.69002 V 658.34501 653 h -9 -9 v -3 -3 h 12.5 12.5 v 9.88131 9.88131 l -3.50039,2.66988 -3.50039,2.66988 -3.46749,1.44881 L 306.06424,675 298.78212,674.9456 291.5,674.8912 Z M 363,647.5 v -27.54615 l 17.75,0.27308 17.75,0.27307 0.31642,2.75 0.31642,2.75 H 384.56642 370 v 9 9 h 14 14 v 3 3 h -14 -14 v 9.5 9.5 h 14.56642 14.56642 l -0.31642,2.75 -0.31642,2.75 -17.75,0.27307 -17.75,0.27308 z m 78,0.0634 V 620 h 3.29667 3.29666 L 463.04667,641.06534 478.5,662.13069 478.76989,641.06534 479.03978,620 H 482.51989 486 v 27.5 27.5 l -3.25,-10e-4 -3.25,-10e-4 L 464,653.7488 448.5,632.5 l -0.5,21 -0.5,21 -3.25,0.31336 -3.25,0.31336 z M 531,647.5 V 620 h 17.5 17.5 v 2.97254 2.97255 l -14.25,0.27745 -14.25,0.27746 -0.28893,8.75 -0.28894,8.75 H 550.96107 565 v 3 3 h -14.03753 -14.03752 l 0.28752,9.25 0.28753,9.25 14.25,0.27746 14.25,0.27745 V 672.02746 675 H 548.5 531 Z m 84.65642,1.27077 L 605,622.44184 V 621.22092 620 h 3.34703 3.34704 l 8.90296,22.99011 8.90297,22.99011 0.60703,0.01 0.60703,0.01 8.25419,-21.25 8.25419,-21.25 0.92396,-1.75 0.92397,-1.75 H 652.53518 656 v 0.27503 0.27503 l -10.80151,26.97497 -10.80152,26.97497 -4.04206,0.29985 -4.04207,0.29986 z M 695,647.5 v -27.54615 l 17.75,0.27308 17.75,0.27307 0.31642,2.75 0.31642,2.75 H 716.56642 702 v 9 9 h 14 14 v 3 3 h -14 -14 v 9.5 9.5 h 14.56642 14.56642 l -0.31642,2.75 -0.31642,2.75 -17.75,0.27307 -17.75,0.27308 z m -152.5,-37.62489 -6,-5.10713 -0.41667,-0.38399 L 535.66667,604 h 3.00477 3.00478 l 5.91189,5.45492 5.91189,5.45491 -2.5,0.0362 -2.5,0.0362 z m -441.39107,-72.45653 -5.391067,-1.44979 -4.519215,-1.99907 -4.519215,-1.99906 -4.926518,-3.73533 -4.926519,-3.73533 -4.526282,-5.99952 -4.526282,-5.99952 -3.268713,-6.50048 -3.268713,-6.50048 -2.620138,-8.30775 -2.620137,-8.30774 -2.211,-11.69226 -2.211,-11.69225 -0.02068,-22.5 -0.02068,-22.5 1.691951,-9 1.69195,-9 2.595953,-9 2.595952,-9 3.229631,-7.50499 3.229631,-7.50499 3.92299,-5.99501 3.922991,-5.99501 7.543092,-7.59076 7.543091,-7.59076 7.5,-3.67221 7.499997,-3.6722 7,-1.46967 7,-1.46967 6.61351,-0.0174 6.61351,-0.0174 5.31333,1.00765 5.31332,1.00765 5.13975,2.35306 5.13974,2.35305 3.5551,3.66057 3.5551,3.66057 1.82109,-7.02127 1.82108,-7.02128 0.55724,0.0153 0.55723,0.0153 1.11477,0.73468 1.11476,0.73469 -0.81621,10 -0.81621,10 -0.0485,17.64301 L 165,382.78602 163.41821,383.39301 161.83643,384 h -0.30299 -0.30299 l -0.67856,-5.75 -0.67856,-5.75 -1.92625,-8.28509 -1.92624,-8.28509 -2.95946,-5.96481 -2.95945,-5.96482 -2.73393,-3.58436 -2.73392,-3.58436 -5.06704,-2.90635 -5.06704,-2.90635 -7.59028,-0.009 -7.59028,-0.009 -6.14029,3.06834 -6.1403,3.06835 -3.59695,4.18165 -3.596953,4.18166 -3.352665,6 -3.352665,6 -2.124141,5.42486 -2.124142,5.42487 -2.397032,9.57513 -2.397032,9.57514 -1.770879,11.5 -1.770879,11.5 -0.02584,22.5 -0.02584,22.5 1.289219,9 1.289218,9 2.491281,10.5 2.491281,10.5 4.369573,9 4.369573,9 4.150653,4.71325 4.15065,4.71325 6.67748,3.28675 6.67747,3.28675 9.10686,-0.0325 9.10685,-0.0325 6.62106,-3.25953 6.62105,-3.25954 3.63288,-4.208 3.63288,-4.208 3.29485,-6.5 3.29485,-6.5 1.28282,-4.5 1.28283,-4.5 0.58978,-0.70836 0.58978,-0.70836 1.48468,0.91759 1.48469,0.91758 -1.75693,6.79078 -1.75692,6.79077 -3.03595,6.22394 -3.03595,6.22393 -4.96243,5.42968 -4.96242,5.42969 -4.73775,3.00573 -4.73774,3.00573 -6.85534,2.09065 L 127.78933,539 117.14466,538.93419 106.5,538.86838 Z M 895.67575,519.06611 885.01734,499.5 l -15.91097,-29 -15.91098,-29 -2.55922,-4.25 -2.55922,-4.25 H 847.03848 846 l 0.0963,29.75 0.0963,29.75 0.65367,16.72283 0.65366,16.72282 2.12761,2.12701 2.1276,2.127 7.1224,1.1215 7.12239,1.1215 v 1.56025 1.56024 l -32.84099,-0.0316 -32.84099,-0.0316 0.4226,-1.61607 0.4226,-1.61608 6.16839,-0.63709 6.16839,-0.63709 2.44617,-1.81456 2.44616,-1.81457 0.90882,-2.93227 0.90881,-2.93227 0.14502,-91 0.14502,-91 -1.26632,-2.21475 -1.26631,-2.21474 -3.73369,-0.99475 -3.73368,-0.99475 -3.75,-0.58582 -3.75,-0.58582 6e-5,-1.20468 6e-5,-1.20469 30.49994,-0.0417 L 864,329.41657 v 1.27266 1.27267 l -2.25,0.45427 -2.25,0.45427 -3.94022,0.53278 -3.94022,0.53278 -2.00543,2.00542 -2.00542,2.00543 -0.82086,21.77657 -0.82085,21.77658 0.2665,24 0.2665,24 7.37605,-7.5 7.37606,-7.5 8.24718,-11 8.24719,-11 8.52891,-13 8.5289,-13 7.14008,-12.5 7.14007,-12.5 0.58456,-2.32322 0.58457,-2.32321 -1.01103,-1.01103 -1.01104,-1.01104 -7.61575,-1.06866 -7.61575,-1.06867 -2e-5,-1.59708 -1e-5,-1.59709 h 24.49996 24.49995 l 6e-5,1.13337 6e-5,1.13337 -2.25,0.60297 -2.25,0.60298 -2.5,0.0234 -2.5,0.0234 -5.05561,2.35416 -5.05561,2.35416 -3.72274,4.34919 -3.72274,4.34919 -14.70101,21.03688 L 885.54128,388.5 876.77064,400.75775 868,413.0155 v 1.18985 1.18984 l 11.65223,21.5524 11.65222,21.55241 15.40969,26.88836 15.40968,26.88837 4.68809,7.09358 4.68809,7.09357 3.22029,2.14838 3.22029,2.14838 6.4184,0.68735 6.41839,0.68736 -0.46641,1.78352 -0.4664,1.78353 -17.17228,0.66097 -17.17228,0.66097 -4.58292,0.80394 -4.58292,0.80394 z M 298,535.8303 l -12.5,-0.88243 -42.75052,0.27607 -42.75052,0.27606 5.2e-4,-1.60352 5.2e-4,-1.60353 6.57802,-13.84357 6.57803,-13.84358 15.79076,-35.5529 L 244.73756,433.5 260.77242,396 276.80727,358.5 281.40364,347.52456 286,336.54912 v -0.88637 -0.88637 l -24.75,0.46344 -24.75,0.46343 -5.19854,1.78366 -5.19853,1.78366 -3.1911,3.11472 -3.1911,3.11471 -1.86006,4.3322 -1.86006,4.33219 -2.05735,8.16781 -2.05735,8.1678 -1.01878,3.88846 -1.01878,3.88846 -1.36938,-1.38846 -1.36938,-1.38846 1.0107,-14.3831 1.0107,-14.3831 -0.31549,-9.39296 -0.3155,-9.39296 4.5,0.77606 4.5,0.77606 h 48.61743 48.61743 l -1.80971,6.5 -1.80971,6.5 -5.54622,11.73891 -5.54623,11.73891 -8.1123,18.76109 -8.1123,18.76109 -10.28509,25 -10.28508,25 -11.51606,27 -11.51607,27 -4.18993,10 -4.18994,10 -0.56632,1.3835 -0.56633,1.38349 27.40821,-0.57204 27.40822,-0.57204 4.70946,-1.1338 4.70946,-1.13379 3.29054,-2.19264 3.29054,-2.19265 4.2149,-8.48501 4.21491,-8.48502 2.43685,-9.5 2.43686,-9.5 h 1.34824 1.34824 l -0.2131,4.5 -0.21309,4.5 -1.53691,14.75913 L 314,525.01826 V 531.00913 537 l -1.75,-0.14364 -1.75,-0.14364 z m 38,-1.9976 V 532 l 3.25,-0.022 3.25,-0.022 4.15401,-1.88617 4.154,-1.88617 2.53636,-4.34187 2.53635,-4.34187 3.01508,-10.5 3.01509,-10.5 8.41378,-32.5 8.41379,-32.5 12.1914,-49 12.19141,-49 0.68936,-2.42479 0.68937,-2.42479 9.86788,-1.874 9.86788,-1.874 0.1741,0.29879 0.1741,0.29879 3.7817,19.5 3.78169,19.5 6.50385,30 6.50384,30 6.45551,28.41509 6.4555,28.41509 4.54032,18.58491 4.54032,18.58491 1.88537,4.28377 1.88536,4.28378 3.50917,1.46622 L 477.93576,532 H 481.96788 486 v 1.79034 1.79034 l -31,0.0656 -31,0.0656 0.0153,-0.60594 0.0153,-0.60595 0.73468,-1.09818 0.73469,-1.09818 4.21747,-0.65844 4.21746,-0.65843 2.53254,-1.1539 2.53253,-1.1539 v -3.19168 -3.19168 l -7.00558,-34.75233 -7.00558,-34.75232 -0.55344,-0.89548 L 423.88197,451 h -21.40244 -21.40244 l -1.00275,3.75 -1.00275,3.75 -5.07699,21.39532 -5.07698,21.39533 -1.58019,10.21527 -1.58019,10.21527 1.37138,2.83895 1.37138,2.83895 3.09001,1.79907 3.09,1.79906 6.16,0.64385 6.15999,0.64384 -2.3e-4,1.60755 -2.2e-4,1.60754 -25.49978,0.0827 L 336,535.6654 Z m 87.00031,-89.0827 3.2e-4,-1.25 -9.15137,-45.76562 -9.15136,-45.76561 -0.31339,0.31338 -0.31338,0.31339 -7.97538,33.45223 -7.97537,33.45223 -2.91988,12.72365 -2.91988,12.72364 0.52636,0.52636 L 383.33333,446 H 403.16667 423 Z m 81.99973,89.10149 -4e-5,-1.64851 7.01661,-0.70465 7.01662,-0.70465 2.05096,-1.66077 2.05097,-1.66077 1.11058,-7.98607 1.11058,-7.98607 0.0718,-87.19806 0.0718,-87.19806 -1.15881,-1.16075 -1.1588,-1.16074 -8.3412,-1.05853 -8.34119,-1.05852 -0.27354,-0.18954 -0.27354,-0.18954 0.53465,-1.39313 0.53464,-1.39313 38.7389,0.0975 38.73889,0.0975 5.04313,1.50743 5.04313,1.50743 3.95687,1.86619 3.95687,1.86619 4.83005,4.81133 4.83006,4.81133 3.30224,7.21757 3.30223,7.21756 1.56344,6.5 1.56344,6.5 0.64895,8 0.64895,8 -1.16105,8.5 -1.16106,8.5 -2.92739,8.78829 -2.92739,8.7883 -3.36861,5.26598 -3.36861,5.26598 -4.38762,3.78458 -4.38763,3.78457 -4.7332,2.41948 -4.7332,2.41948 -5.7269,1.49167 L 578.5798,450 h -4.62994 -4.62993 L 561.5,448 553.68007,446 H 552.84004 552 v 35.86043 35.86043 l 0.64586,4.71209 0.64587,4.71209 2.10601,1.37991 2.10602,1.37992 7.49812,1.10354 7.49812,1.10354 1.23314,0.40617 1.23314,0.40617 -0.50845,1.32501 -0.50845,1.325 -34.47465,-0.0371 L 505.00008,535.5 Z M 576.5,443.10414 l 4,-1.85194 2.69346,-2.8761 2.69347,-2.8761 2.49494,-5.5 2.49495,-5.5 1.75116,-9 1.75116,-9 0.0594,-17 0.0594,-17 -1.36971,-7.5 -1.3697,-7.5 -1.91181,-5.14482 -1.91181,-5.14482 -2.87592,-3.9701 -2.87592,-3.97009 -5.28793,-2.63508 L 571.60731,334 h -8.18121 -8.18121 l -1.37245,1.65276 -1.37244,1.65275 -0.32761,52.30872 -0.3276,52.30871 2.34127,0.58762 2.34127,0.58762 4.98634,0.83329 4.98633,0.83329 3,0.0957 3,0.0957 z m 75.49995,90.76742 5e-5,-1.62844 7.67083,-1.14089 7.67083,-1.1409 1.32199,-1.09715 1.322,-1.09716 1.23349,-4.13351 1.2335,-4.13351 0.0237,-89 0.0237,-89 -0.76181,-2.72114 -0.7618,-2.72113 -2.03915,-1.09132 -2.03915,-1.09132 -6.94905,-0.58258 L 653,332.70993 v -1.607 -1.60699 l 50.25,0.002 50.25,0.002 3,-0.67624 3,-0.67624 -0.5,22.16393 -0.5,22.16393 -1.61547,0.30973 -1.61547,0.30972 -0.70279,-6.21189 -0.7028,-6.21189 -2.46333,-7.79782 -2.46333,-7.79783 -3.2301,-3.4249 -3.23009,-3.42489 -3.98831,-1.20318 -3.98831,-1.20318 -16.02489,-0.53334 -16.02488,-0.53333 -1.47512,1.77694 -1.47511,1.77693 V 381.90323 425.5 l 12.5,-0.0263 12.5,-0.0263 4.82366,-1.37431 4.82366,-1.37432 2.84848,-2.84848 2.84848,-2.84847 0.99365,-3.25094 0.99365,-3.25094 0.62953,-3.75 0.62952,-3.75 h 1.2471 1.24711 l -0.0424,27.99914 -0.0424,27.99915 -1.23095,8.5e-4 -1.23095,8.6e-4 -0.43354,-2.25 -0.43355,-2.25 -1.14333,-5.68792 -1.14333,-5.68792 -2.19217,-3.22013 -2.19218,-3.22013 -2.5,-1.80793 -2.5,-1.80793 -6.5,-1.02646 -6.5,-1.02647 -7,0.006 -7,0.006 -2.35502,0.63044 -2.35501,0.63044 0.3847,45.6059 0.3847,45.60591 1.23732,2.21604 1.23732,2.21603 4.233,1.14268 4.23299,1.14268 16,-0.41037 16,-0.41037 3.77629,-1.82476 3.77629,-1.82476 3.9611,-4.50005 3.96109,-4.50004 3.02166,-6.39535 3.02166,-6.39536 2.09249,-7.72818 2.09249,-7.72819 0.86568,-0.91722 0.86568,-0.91721 0.71151,1.85414 0.7115,1.85414 -1.2023,9.56308 -1.2023,9.56307 -2.0672,13 -2.0672,13 H 708.40917 651.9999 Z"
         id="path4" />
      <path
         style="fill:#494949;fill-opacity:1"
         d="m 288.38764,673.67392 -3.11236,-1.17392 -3.54982,-2.45916 -3.54983,-2.45917 -2.61408,-4.0315 -2.61407,-4.03151 -1.08508,-4.00933 -1.08509,-4.00933 0.46051,-6.50797 0.46051,-6.50798 1.76279,-3.49202 1.76279,-3.49203 3.13804,-3.33763 3.13805,-3.33763 4,-2.07804 4,-2.07804 7.72965,-0.46164 7.72965,-0.46163 5.36166,2.62321 5.36166,2.62322 1.9,2.09948 1.9,2.09948 -2.32612,1.88358 -2.32612,1.88358 -3.66519,-2.90164 -3.66519,-2.90164 -4.37019,-1.14824 -4.37019,-1.14824 -4.79162,1.1495 -4.79162,1.14949 -3.97047,3.39858 -3.97047,3.39857 -1.68915,4.22159 -1.68915,4.2216 v 5.16241 5.16241 l 1.62211,3.88884 1.62211,3.88883 3.16047,3.26546 3.16047,3.26546 5.33138,1.68057 5.33138,1.68057 4.70747,-1.22986 4.70747,-1.22987 2.5,-1.81798 2.5,-1.81799 0.2999,-5.64818 L 313.09981,653 H 304.0499 295 v -3 -3 h 12.5 12.5 v 9.95196 9.95196 l -4.25,2.88943 -4.25,2.88944 -3.39922,1.1586 L 304.70155,675 298.10078,674.9239 291.5,674.8478 Z M 363,647.5 V 621 h 17.5 17.5 v 2.5 2.5 h -14 -14 v 9 9 h 14 14 v 3 3 h -14 -14 v 9.5 9.5 h 14 14 v 2.5 2.5 H 380.5 363 Z m 78,0 V 621 l 3.75,0.0434 3.75,0.0434 15,20.54063 15,20.54063 0.27029,-20.58402 L 479.04058,621 H 482.52029 486 v 26.56037 26.56036 L 482.26619,673.81037 478.53237,673.5 463.51619,652.80619 448.5,632.11238 447.75,632.05619 447,632 v 21 21 h -3 -3 z m 90,0 V 621 h 17.5 17.5 v 2.5 2.5 H 551.5 537 v 9 9 h 14 14 v 3 3 h -14 -14 v 9.5 9.5 h 14.5 14.5 v 2.5 2.5 H 548.5 531 Z m 94.65507,25.75 -0.46296,-0.75 L 615.09606,647.24149 605,621.98298 v -0.55185 -0.55186 l 3.60423,0.31036 3.60423,0.31037 8.19417,21 8.19417,21 0.76865,2 0.76864,2 9.08666,-23.25 9.08665,-23.25 h 3.74851 3.74851 l -10.5937,26.5 -10.59371,26.5 h -4.24949 -4.24949 z M 695,647.5 V 621 h 17.5 17.5 v 2.5 2.5 h -14 -14 v 9 9 h 14 14 v 3 3 h -14 -14 v 9.5 9.5 h 14 14 v 2.5 2.5 H 712.5 695 Z m -152.5,-37.62489 -6,-5.10713 -0.41667,-0.38399 -0.41666,-0.38399 2.91666,0.002 2.91667,0.002 6,5.45226 6,5.45227 -2.5,0.037 -2.5,0.037 z M 100.1906,536.97502 92.8812,535.06017 87.771438,532.28008 82.661677,529.5 77.080838,523.90012 71.5,518.30023 67.730995,511.90012 63.961989,505.5 l -3.093804,-8 -3.093804,-8 -2.318831,-11 -2.31883,-11 -1.202388,-12.5 -1.202388,-12.5 0.6074,-14 0.6074,-14 1.638845,-9.5 1.638845,-9.5 2.450183,-8.5 2.450183,-8.5 2.643591,-6 2.643592,-6 4.044008,-6.9888 4.044009,-6.98881 8,-8.02538 8,-8.02537 6,-3.14044 6,-3.14044 5.46838,-1.60633 5.46838,-1.60633 8.10285,-0.62284 8.10285,-0.62283 6.92877,1.19203 6.92877,1.19203 5.06658,2.30246 5.06658,2.30246 3.58757,3.694 3.58757,3.69401 1.79847,-6.98146 1.79847,-6.98145 1.58066,0.84595 1.58067,0.84594 -0.71213,7.8308 -0.71214,7.8308 -0.0712,19.64301 L 165,382.78602 163.41821,383.39301 161.83643,384 h -0.27576 -0.27576 l -0.63125,-6.03951 -0.63125,-6.03951 -2.04436,-8.00693 -2.04435,-8.00693 -2.34221,-5.20356 -2.34221,-5.20356 -3.11035,-4.22161 -3.11034,-4.22161 -5.17752,-2.957 -5.17752,-2.957 -4.58677,-0.60689 -4.58678,-0.60689 -5.83264,1.54432 -5.83264,1.54431 -4.42543,3.04478 -4.42542,3.04477 -3.97015,5.25842 -3.970143,5.25842 -3.430525,7.43799 -3.430525,7.43799 -2.542057,8.78704 -2.542057,8.78704 -2.263456,12.71296 L 80.5715,407.5 80.5686,433 l -0.0029,25.5 1.745562,10 1.745563,10 2.415625,9.12891 2.415625,9.12891 3.130369,6.62544 3.130368,6.62543 3.893312,4.92541 3.893316,4.92541 4.34104,2.98672 4.34105,2.98672 5.88901,1.71198 5.88901,1.71198 6.84266,-0.57366 6.84266,-0.57367 5.20955,-2.39495 5.20956,-2.39496 3.10599,-2.62755 3.10598,-2.62755 3.70708,-5.38251 3.70708,-5.38252 2.90858,-8.39977 2.90857,-8.39977 0.77836,0.25 0.77836,0.25 1,0.33997 1,0.33996 -1.76253,6.81277 -1.76252,6.81276 -3.22072,6.5422 -3.22071,6.54219 -5.22475,5.64336 -5.22476,5.64336 -5.87346,3.13052 -5.87346,3.13053 -5.87864,1.53119 -5.87865,1.53119 -9.5399,-0.0551 -9.5399,-0.0551 z M 890.44306,509.33907 874.55138,480.5 862.46635,458.33219 850.38131,436.16438 849.06821,434.58219 847.75511,433 h -1.01624 -1.01623 l 0.52019,44.75 0.52019,44.75 1.07385,2.6977 1.07386,2.6977 2.36363,1.54872 2.36364,1.54871 6.181,0.64604 6.181,0.64604 6e-5,1.60755 7e-5,1.60754 H 833.47517 800.9502 l 0.2881,-1.49744 0.2881,-1.49743 5.88586,-0.73522 5.88586,-0.73522 2.39557,-1.56965 2.39558,-1.56964 1.16859,-2.6977 1.16858,-2.6977 0.0368,-90.5 0.0368,-90.5 -0.78559,-2.8159 -0.78559,-2.8159 -3.21441,-1.31099 -3.21441,-1.31099 -4.75,-0.68438 -4.75,-0.68439 2.7e-4,-1.18872 2.6e-4,-1.18873 h 30.49977 30.49977 l -4e-5,1.14315 -3e-5,1.14315 -6.20908,1.09371 -6.20908,1.09371 -1.99554,1.99553 -1.99553,1.99554 -0.80996,16.21943 -0.80995,16.21943 0.26457,29.52205 0.26457,29.52204 4.37068,-3.94926 4.37068,-3.94926 8.46334,-10.52461 8.46334,-10.52461 12.33282,-18.5 12.33283,-18.5 6.113,-11 6.11301,-11 0.61761,-2.40559 0.61761,-2.40559 -1.70812,-1.24901 -1.70813,-1.24901 -6.93933,-0.69689 -6.93934,-0.69689 -2.1e-4,-1.64851 -2.2e-4,-1.64851 24.22351,0.16989 24.22351,0.16989 0.36004,1.08011 0.36004,1.08011 h -1.87324 -1.87323 l -5.9211,1.54225 -5.92111,1.54225 -3.27421,2.49737 -3.27421,2.49736 -5.82946,7.71038 -5.82946,7.71039 -16.34305,23.5 -16.34305,23.5 -4.26743,5.57677 -4.26742,5.57678 6.54623,12.42322 6.54623,12.42323 11.97748,21.5 11.97747,21.5 11.65145,19.87662 11.65144,19.87663 3.76485,4.29369 3.76485,4.2937 5.03437,1.07968 5.03437,1.07968 h 2.85716 2.85716 l -0.48611,1.85889 -0.48611,1.8589 -17.67027,0.67304 -17.67027,0.67305 -4.08263,0.55713 -4.08262,0.55714 z M 302.5,535.84259 l -9,-0.88711 -46.75047,0.27226 -46.75046,0.27226 4.6e-4,-1.21639 4.7e-4,-1.21638 9.11046,-19.78362 9.11045,-19.78361 8.00501,-18 8.00501,-18 11.99272,-27.5 11.99272,-27.5 13.89181,-32.83351 L 286,336.83297 V 335.91649 335 l -21.75,0.0174 -21.75,0.0174 -6.92823,1.4677 -6.92824,1.46769 -3.72326,2.46395 -3.72327,2.46394 -2.57673,5.301 -2.57673,5.30099 -2.98618,11.88108 -2.98618,11.88107 -0.39309,0.39309 -0.39309,0.39309 -1.01908,-1.27416 -1.01908,-1.27417 0.82803,-10 0.82802,-10 0.0485,-13.68713 0.0486,-13.68713 3.75,0.68713 3.75,0.68713 h 48.81461 48.81461 l -0.65053,3.5 -0.65053,3.5 -1.83532,5 -1.83533,5 -8.94038,19.5 -8.94039,19.5 -10.75887,26 -10.75888,26 -18.86126,44.62069 -18.86126,44.62068 -0.66623,1.73618 -0.66624,1.73618 27.398,-0.506 27.398,-0.50601 4.70946,-1.1732 4.70946,-1.1732 3.29054,-2.17766 L 301.5,522.5 l 4.18293,-8.40744 4.18293,-8.40743 2.1091,-8.09257 2.10909,-8.09256 0.70798,-1.72468 0.70797,-1.72468 1.22825,0.77025 1.22824,0.77025 -1.50303,11.95443 -1.50303,11.95443 -0.62969,12.75 -0.62968,12.75 -1.09553,-0.13515 L 311.5,536.7297 Z m 33.72729,-1.7843 0.29001,-1.50589 4.16495,-0.71101 4.16495,-0.71101 3.12062,-1.61374 3.12063,-1.61374 1.95272,-3.20145 1.95273,-3.20145 1.97221,-6 1.97221,-6 6.89657,-26 6.89658,-26 15.79723,-63 15.79723,-63 0.22558,-0.30521 0.22558,-0.30521 9.27801,-1.90087 9.27802,-1.90087 0.71805,0.44378 0.71805,0.44379 0.68297,4.76229 0.68297,4.7623 7.01962,33.5 7.01962,33.5 8.45714,37.5 8.45714,37.5 4.94334,20.32793 4.94334,20.32794 1.91826,4.33654 1.91826,4.33654 2.27317,1.21657 2.27317,1.21656 5.05757,0.61896 5.05756,0.61896 0.28802,1.5 0.28801,1.5 h -30.52486 -30.52486 l 1.7e-4,-1.75 L 425,532 h 2.05718 2.05718 l 4.47559,-1.12697 4.47558,-1.12696 0.96106,-1.79575 0.96105,-1.79575 -7.50026,-36.6832 -7.50026,-36.6832 -0.55258,-0.89408 L 423.88197,451 h -21.40244 -21.40244 l -1.09639,4.07167 -1.09639,4.07168 -4.85211,20.32155 -4.85211,20.32155 -1.6726,9.81897 -1.67261,9.81896 0.59794,2.98974 0.59795,2.98973 2.12002,2.25666 2.12003,2.25666 5.61459,1.12692 5.61459,1.12692 2.2147,0.42469 2.21471,0.42469 -0.47679,1.2398 -0.4768,1.23981 -25.01927,0.0321 -25.01927,0.0321 z M 423,444.7185 v -1.28149 l -9.00326,-44.96851 -9.00326,-44.9685 -0.34187,-1 -0.34187,-1 -3.73905,15.5 -3.73905,15.5 -6.91545,29.5 -6.91544,29.5 -0.51943,2.25 -0.51942,2.25 H 402.48095 423 Z m 82.23271,89.31243 0.28277,-1.46907 7.39671,-1.11256 7.39672,-1.11256 1.7608,-2.1745 1.7608,-2.1745 0.83474,-7.74387 L 525.5,510.5 v -86.82995 -86.82994 l -1.81066,-1.32466 -1.81067,-1.32465 -7.18933,-0.70886 -7.18934,-0.70887 -0.79856,-0.47556 -0.79856,-0.47557 0.96433,-1.16097 0.96432,-1.16097 37.83423,0.068 37.83424,0.0681 5,1.31512 5,1.31513 5.82601,3.04667 5.82602,3.04667 3.4972,4.07016 3.4972,4.07016 3.32964,7 3.32964,7 1.67012,7.5 1.67012,7.5 0.004,11.06846 0.004,11.06846 -1.10995,6.12096 -1.10994,6.12096 -1.92182,5.58588 -1.92183,5.58588 -3.21784,6.03729 -3.21784,6.03729 -4.65828,4.18741 -4.65828,4.18741 -5.14338,2.79845 -5.14338,2.79845 -7.27566,1.5189 -7.27565,1.51889 -6,-0.69256 -6,-0.69255 -4.5,-1.36397 -4.5,-1.36396 -1.75,-0.0108 L 551,446 l 0.0738,24.75 0.0738,24.75 0.73756,15.28354 0.73756,15.28355 1.98378,1.98377 1.98378,1.98378 8.7049,1.1647 8.7049,1.16471 7e-5,1.56797 6e-5,1.56798 h -34.52509 -34.5251 z m 69.95023,-90.065 3.68295,-1.02291 4.40137,-4.89538 4.40137,-4.89539 2.21655,-6.75205 2.21654,-6.75205 1.44324,-9.57407 1.44325,-9.57408 0.002,-12 0.002,-12 -1.46171,-9 -1.46171,-9 -2.00358,-5.81734 -2.00358,-5.81735 -3.07277,-3.8797 -3.07278,-3.87969 -5.52203,-2.70168 -5.52203,-2.70168 -7.39844,-0.10128 -7.39844,-0.10128 -1.74511,1.74338 -1.74511,1.74338 -0.71389,22.25662 -0.71389,22.25662 -0.0784,29.69098 -0.0784,29.69099 1.19172,0.73652 1.19172,0.73652 5.55828,1.22003 5.55828,1.22002 3.5,0.0969 3.5,0.0969 z m 76.81701,89.88226 5e-5,-1.65182 6.25,-0.72191 6.25,-0.72191 2.29837,-0.86992 2.29837,-0.86991 1.7008,-3.75636 1.7008,-3.75636 8.3e-4,-90 8.3e-4,-90 -0.76181,-2.72114 -0.7618,-2.72113 -2.2382,-1.20973 -2.23819,-1.20973 -6.48928,-0.56913 -6.48928,-0.56914 -0.28601,-1.5 -0.286,-1.5 47.27528,0.3278 47.27529,0.32781 5.78906,-0.93255 5.78907,-0.93254 -0.42132,22.10474 -0.42131,22.10474 -1.47059,0.29498 -1.47059,0.29499 -0.61618,-5.8953 -0.61619,-5.89531 -2.56182,-8.10962 -2.56183,-8.10962 -2.46543,-2.92999 -2.46542,-2.92999 -4.25373,-1.77684 -4.25372,-1.77684 -16.53586,-0.44371 -16.53587,-0.44371 -1.30652,1.57426 -1.30652,1.57426 -0.94358,25.78622 -0.94358,25.78622 0.28596,18 0.28597,18 10.5,0.30892 10.5,0.30893 6,-1.14704 6,-1.14703 3.17905,-1.9496 3.17905,-1.9496 2.02822,-4.21229 2.02822,-4.21229 0.67054,-4.25 0.67054,-4.25 1.12219,-1.3e-4 1.12219,-1.4e-4 v 27.49816 27.49816 l -1.23095,0.002 -1.23095,0.002 -0.46176,-2.25 -0.46176,-2.25 -1.15708,-5.25019 -1.15707,-5.25019 -2.15022,-3.15786 -2.15021,-3.15786 -2.5,-1.83801 -2.5,-1.83801 -5.66987,-1.03981 -5.66986,-1.03981 -10.33014,0.28587 L 698.5,431.5 l -0.282,13.5 -0.28199,13.5 0.88782,32.54636 0.88783,32.54636 1.12306,2.09846 1.12306,2.09845 3.17033,1.10519 L 708.29845,530 H 722.6 736.90156 l 5.29922,-1.11025 5.29922,-1.11024 5.12931,-5.24391 5.12932,-5.24392 3.05204,-6.39584 3.05204,-6.39584 2.31145,-8.25 2.31144,-8.25 H 769.7428 771 l -0.015,3.25 -0.0149,3.25 -2.5118,16.5 -2.51179,16.5 -0.57496,4 -0.57496,4 h -56.39834 -56.39833 z"
         id="path3" />
      <path
         style="fill:#333333;fill-opacity:1"
         d="m 286.44439,672.6263 -5.05561,-2.35416 -3.71692,-4.34239 -3.71692,-4.34239 -1.47747,-4.97518 L 271,651.637 v -4.137 -4.137 l 1.57522,-5.30434 1.57522,-5.30434 4.70996,-4.70996 4.70997,-4.70997 4.89295,-1.66719 4.89296,-1.6672 h 4.95584 4.95584 l 3.8736,1.16056 3.87359,1.16056 4.09662,3.50654 4.09661,3.50655 -2.35419,1.77789 -2.35419,1.77788 -2.61422,-2.50199 -2.61422,-2.502 -4.88578,-1.47979 -4.88578,-1.4798 -4,0.65505 -4,0.65505 -2.5,1.29247 -2.5,1.29248 -2.63584,2.83927 -2.63584,2.83928 -1.73916,3.44206 -1.73916,3.44207 v 6.10275 6.10276 l 2.06609,4.04986 2.06608,4.04986 3.54579,3.11324 3.54578,3.11324 4.22112,1.13663 4.22112,1.13663 3.98051,-0.63651 3.98052,-0.63651 3.81149,-2.14218 L 313,664.63172 V 658.81586 653 h -9 -9 v -3 -3 h 12.5 12.5 v 9.31291 9.31291 l -2.75,2.62814 -2.75,2.62814 -4.5,2.03699 -4.5,2.03699 -7,0.0122 -7,0.0122 z M 363,647.5 V 621 h 17.5 17.5 v 2.5 2.5 h -14 -14 v 9 9 h 14 14 v 3 3 h -14 -14 v 9.5 9.5 h 14 14 v 2.5 2.5 H 380.5 363 Z m 78,-0.0604 v -26.56036 l 3.69584,0.31036 3.69584,0.31037 15.05416,20.46513 L 478.5,662.43026 478.77029,641.71513 479.04058,621 H 482.52029 486 v 26.5 26.5 h -3.44179 -3.44179 L 463.80821,653.02446 448.5,632.04893 447.75,632.02446 447,632 v 21 21 h -3 -3 z M 531,647.5 V 621 h 17.5 17.5 v 2.5 2.5 H 551.5 537 v 9 9 h 14 14 v 3 3 h -14 -14 v 9.5 9.5 h 14.5 14.5 v 2.5 2.5 H 548.5 531 Z m 93.93505,23.82918 -1.01544,-2.67083 L 614.4598,645.32323 605,621.98811 V 621.49405 621 h 3.41125 3.41125 l 7.7218,19.75 7.72181,19.75 1.45311,3.5 1.4531,3.5 7.90715,-20 7.90714,-20 1.08425,-3.25 1.08424,-3.25 H 651.57755 655 v 0.74134 0.74134 l -10.25,25.74713 -10.25,25.74712 -4.27475,0.0115 L 625.9505,674 Z M 695,647.5 V 621 h 17.5 17.5 v 2.5 2.5 h -14 -14 v 9 9 h 14 14 v 3 3 h -14 -14 v 9.5 9.5 h 14 14 v 2.5 2.5 H 712.5 695 Z M 542.1994,609.44904 535.8988,604 h 2.83476 2.83476 L 547,609.5 552.43168,615 550.46584,614.949 548.5,614.898 Z M 102.37453,537.50871 96.249057,536.17641 90.374529,533.43053 84.5,530.68465 76.973608,523.09232 69.447217,515.5 65.282414,507 l -4.164803,-8.5 -1.994605,-6.02788 -1.994604,-6.02787 -2.026279,-9.97213 -2.026278,-9.97212 -1.173476,-12 -1.173475,-12 0.589613,-13.5 0.589614,-13.5 1.989825,-11.5 1.989826,-11.5 3.056983,-9.34284 3.056982,-9.34283 4.522404,-8.65717 4.522404,-8.65716 5.012057,-6.26311 5.012056,-6.2631 5.714671,-4.52496 5.714671,-4.52496 6.446799,-3.10694 6.446801,-3.10694 9.42995,-1.54108 9.42995,-1.54107 8.81228,1.11231 8.81227,1.11232 4.48665,1.98465 4.48664,1.98466 4.51598,4.16268 4.51597,4.16268 1.00295,-3.82357 1.00295,-3.82357 0.66381,-2.75 0.66382,-2.75 h 1.54241 1.54242 l -0.64565,9.75 -0.64565,9.75 -0.005,18.13337 -0.005,18.13337 -1.87485,0.49028 -1.87485,0.49029 -0.64427,-6.28845 -0.64427,-6.28845 -2.00377,-7.83521 -2.00377,-7.8352 -2.85285,-6 -2.85285,-6 -3.62693,-4.16209 -3.62694,-4.16209 -4.74732,-2.30627 -4.74733,-2.30627 -7,0.0577 -7,0.0577 -4.6224,2.04802 -4.62241,2.04802 -4.131,3.7321 -4.13099,3.73211 -4.397756,7.13056 -4.397755,7.13057 -2.578056,7.25197 -2.578056,7.25196 -1.948509,7.74804 -1.948509,7.74803 -1.82228,11 -1.822279,11 0.02487,25.5 0.02488,25.5 2.175492,12.0831 2.175492,12.0831 3.019109,9.42504 3.019109,9.42504 3.591543,5.99186 3.591542,5.99186 4.188983,4.29643 4.18898,4.29642 5.32725,2.60872 5.32724,2.60872 7.25214,0.46541 7.25214,0.46542 5.78947,-1.68305 5.78948,-1.68305 3.63114,-2.32415 3.63114,-2.32416 2.68286,-2.86336 2.68287,-2.86335 3.40133,-5.66582 3.40133,-5.66583 2.27042,-7.19385 2.27041,-7.19385 1.46123,1.46123 1.46124,1.46124 -1.63557,6.31185 -1.63557,6.31186 -3.36789,6.68774 -3.36788,6.68773 -5.00976,5.48147 -5.00976,5.48148 -5.8957,3.14237 -5.8957,3.14238 -6.40693,1.51022 -6.40693,1.51022 -8.5,-0.0647 -8.5,-0.0647 z M 903.42981,532.84866 900.72595,527.5 885.4836,500 l -15.24235,-27.5 -9.71719,-18 -9.71719,-18 -1.55842,-1.75 -1.55843,-1.75 h -0.98288 -0.98288 l 0.51781,45.25 0.5178,45.25 1.03594,2.59383 1.03594,2.59384 2.83412,1.1496 2.83413,1.14961 5.48864,0.7687 5.48865,0.7687 0.28663,1.48786 0.28664,1.48786 h -32.55012 -32.55012 l 0.28816,-1.5 0.28817,-1.5 5.27803,-0.64581 5.27803,-0.64581 2.87286,-1.18998 2.87286,-1.18997 1.33578,-3.16422 L 820.5,522.5 v -92.22124 -92.22124 l -2.06843,-2.06942 -2.06844,-2.06941 -6.71384,-1.11252 -6.71384,-1.11252 0.31786,-0.95357 0.31785,-0.95357 30.21447,-0.14326 30.21447,-0.14325 -5e-5,1.18873 -5e-5,1.18872 -4.75,0.596 -4.75,0.59599 -2.5,1.25161 -2.5,1.2516 -1.38881,2.88944 -1.38881,2.88944 -0.50539,43.82423 L 845.7116,429 h 0.9255 0.92551 l 5.57367,-5.75 5.57367,-5.75 5.08915,-6.23477 5.08915,-6.23478 7.16666,-10.1079 7.16667,-10.1079 7.70463,-12.15732 L 898.63085,360.5 904.31542,350.35031 910,340.20061 v -2.53292 -2.53291 l -1.75,-0.50623 -1.75,-0.50623 -6.75,-0.67766 -6.75,-0.67765 -2.4e-4,-1.63351 -2.5e-4,-1.6335 h 23.98859 23.98859 l 0.44764,1.16497 0.44764,1.16496 -5.18599,0.70386 -5.18598,0.70386 -3.74826,1.48906 -3.74825,1.48905 -4.75751,5.20547 -4.7575,5.20547 -14.95784,21.43665 -14.95785,21.43665 -8.76448,12.22728 -8.76449,12.22728 10.09932,18.77272 10.09932,18.77272 10.97957,19.5 10.97957,19.5 9.1492,15.41934 9.1492,15.41935 4,4.41601 4,4.41601 7.25,1.13597 7.25,1.13598 v 1.63528 1.63528 l -17.75,0.67533 -17.75,0.67533 -4.18316,0.56672 -4.18316,0.56672 z M 303,535.85401 l -9.5,-0.87095 -46.75042,0.25847 -46.75042,0.25847 4.2e-4,-1.10399 4.2e-4,-1.10399 7.59323,-16.39601 7.59322,-16.39601 15.54039,-35 15.54038,-35 16.243,-38 16.243,-38 4.09371,-9.83672 4.09371,-9.83672 -25.72032,0.3851 -25.72032,0.3851 -5.58529,2.21184 -5.58529,2.21185 -2.11586,2.25223 -2.11587,2.25223 -2.06727,4.67341 -2.06726,4.6734 -2.93406,11.18329 -2.93406,11.18328 -0.56419,0.56419 -0.56418,0.56419 -0.86927,-0.93334 -0.86927,-0.93333 0.83738,-10 0.83738,-10 0.0485,-13.725 0.0486,-13.725 3.25,0.725 3.25,0.725 h 49.25021 49.25021 l -2.1e-4,1.0685 -2.1e-4,1.0685 -1.5259,5.13825 -1.5259,5.13826 -4.07808,8.79324 -4.07808,8.79325 -7.51224,17 -7.51223,17 -11.98055,29 -11.98055,29 -13.80237,32.5 -13.80238,32.5 -2.60086,6.42241 L 231,529.34482 v 0.44077 0.44077 l 27.75,-0.47856 27.75,-0.47856 5.5,-1.74319 5.5,-1.74319 3.65507,-3.83374 3.65506,-3.83374 3.02569,-7.84586 3.02568,-7.84586 2.06156,-7.87081 2.06156,-7.8708 0.28665,-0.28665 0.28665,-0.28665 1.11189,0.69562 1.11189,0.69563 -1.8496,16.5 -1.84961,16.5 -0.0412,8.25 L 314,537 l -0.75,-0.13752 -0.75,-0.13752 z m 33,-1.52905 v -1.19018 l 1.75,-0.48007 1.75,-0.48007 3.64855,-0.6136 3.64856,-0.6136 2.63459,-2.07237 2.63459,-2.07237 2.39753,-4.7313 2.39753,-4.73131 5.13437,-18.92004 5.13436,-18.92005 14.85319,-58.5 14.85319,-58.5 3.67462,-15.5 3.67461,-15.5 0.2957,-0.30521 0.2957,-0.30521 9.31455,-1.90836 9.31456,-1.90835 0.39806,0.39806 0.39806,0.39806 6.29845,30.8155 6.29844,30.81551 5.64177,25.5 5.64176,25.5 4.00095,17.5 4.00095,17.5 6.07998,24.8711 6.07998,24.8711 2.6709,2.98925 2.67089,2.98926 5.94472,0.63964 5.94472,0.63965 0.28678,1.5 0.28677,1.5 h -30.55004 -30.55005 l 0.28557,-1.5 0.28557,-1.5 2.48979,-0.31652 2.48978,-0.31651 3.73299,-0.96745 3.733,-0.96745 1.00409,-1.87617 1.00409,-1.87616 -7.48708,-37.17758 L 425,451.82459 v -0.43143 -0.43142 l -22.22532,0.26913 -22.22531,0.26913 -2.24051,9.5 -2.2405,9.5 -3.95982,17 -3.95983,17 -1.22289,8.0901 -1.2229,8.0901 0.66064,2.63222 0.66065,2.63223 2.13476,1.98882 2.13475,1.98883 5.60314,1.12435 5.60314,1.12436 2.2147,0.42469 2.21471,0.42469 -0.47658,1.2398 -0.47658,1.23981 -24.98812,0.008 L 336,535.516 Z m 87,-90.10646 v -1.78149 l -8.98702,-44.87219 -8.98702,-44.87219 -0.42167,-0.42168 -0.42168,-0.42167 -0.53734,1.82536 -0.53734,1.82536 -7.01026,29.5 -7.01027,29.5 -3.5437,15.44308 L 382,445.38616 V 445.69308 446 H 402.5 423 Z M 505.23822,534 l 0.28843,-1.5 5.23034,-0.64 5.23033,-0.64 2.49369,-0.62588 2.49369,-0.62587 1.589,-2.42513 1.58901,-2.42513 0.89087,-15.30899 0.89087,-15.309 0.0328,-78.05887 0.0328,-78.05887 -1.30926,-1.79053 -1.30927,-1.79052 -4.44073,-0.85705 -4.44074,-0.85706 -3.82332,-0.0436 -3.82333,-0.0435 0.32333,-1.54963 0.32332,-1.54964 33.5,-0.36545 33.5,-0.36545 7.41669,0.99149 7.4167,0.99149 5.13115,1.91981 5.13116,1.91981 4.15308,3.05421 4.15308,3.05421 3.96214,5.93335 3.96214,5.93335 2.07499,6.26622 2.07499,6.26623 1.05699,5.5 1.05698,5.5 -0.008,11.5 -0.008,11.5 -2.48059,9.75373 -2.48058,9.75372 -3.28869,6.24628 -3.28869,6.24627 -5.25309,5.19182 -5.25309,5.19182 -6.26488,2.97849 -6.26487,2.97848 -6.34812,1.14149 -6.34811,1.14149 -6.65189,-1.03319 -6.65188,-1.0332 -4.69712,-1.41482 -4.69711,-1.41481 -0.55289,0.55288 -0.55288,0.55288 0.0841,24.58334 0.0841,24.58333 0.67408,15.23043 0.67407,15.23043 2.09444,2.09445 2.09445,2.09445 8.38691,1.19203 8.3869,1.19203 0.28567,1.48309 0.28567,1.48309 h -34.55034 -34.55033 z m 75.00442,-92.60293 4.23228,-2.97455 2.74812,-5.46126 2.74811,-5.46126 1.5298,-6 1.5298,-6 1.12197,-9.4733 1.12198,-9.4733 -0.58147,-14.5267 -0.58147,-14.5267 -2.09571,-8.48011 -2.09571,-8.4801 -2.36501,-4.0199 -2.36501,-4.01989 -2.35761,-2.20115 -2.35762,-2.20116 -4.98755,-2.23578 -4.98754,-2.23578 -7.21341,-0.0631 -7.21342,-0.0631 -1.77698,1.77611 -1.77698,1.77611 -0.67671,21.72389 -0.67671,21.72389 -0.0829,30.73095 -0.0829,30.73095 2.25,0.54632 2.25,0.54632 4.5,0.91453 4.5,0.91453 5.75518,-0.25599 5.75518,-0.25598 z m 71.75731,92.45442 5e-5,-1.64851 7.07045,-0.71006 7.07046,-0.71005 2.60403,-2.2399 2.60404,-2.2399 0.8721,-13.90154 0.87209,-13.90153 -0.29659,-80.22278 -0.29658,-80.22278 -2.05137,-2.05081 -2.05137,-2.05081 -5.44863,-0.54056 -5.44863,-0.54056 -2.25,-0.4549 -2.25,-0.4549 -1.5e-4,-1.23095 -1.5e-4,-1.23095 h 53.04245 53.04245 l -0.45672,21.5 -0.45673,21.5 -1.58558,0.32332 -1.58557,0.32333 -0.007,-3.32333 -0.007,-3.32332 -1.98244,-8.26914 -1.98243,-8.26915 -1.98266,-3.88633 -1.98266,-3.88633 -2.59038,-2.03759 -2.59039,-2.0376 -3.68751,-1.28945 -3.68752,-1.28944 -16.99699,-0.0175 -16.99699,-0.0175 -0.71489,5.5 -0.71489,5.5 -0.28812,39.5 -0.28812,39.5 14.5,-0.0229 14.5,-0.0229 5,-2.47712 5,-2.47711 2.1836,-3.94951 2.1836,-3.94951 0.66024,-4.80049 0.66024,-4.80049 1.15616,-1.3e-4 1.15616,-1.4e-4 v 27.49816 27.49816 l -1.25,0.002 -1.25,0.002 -0.0174,-0.75 -0.0174,-0.75 -1.44542,-6.82175 -1.44542,-6.82174 -2.07492,-3.35731 -2.07493,-3.3573 -4.71229,-2.31194 -4.71229,-2.31195 -14,-0.009 -14,-0.009 -0.28154,14 -0.28154,14 0.89529,32.83597 0.89528,32.83596 2.16206,2.16404 2.16206,2.16403 16.93075,0.33359 16.93074,0.33359 5.36352,-1.55922 5.36351,-1.55921 4.24239,-4.27438 4.24238,-4.27437 3.42596,-7 3.42596,-7 2.26159,-8.24242 2.26159,-8.24243 1.39246,-0.008 1.39245,-0.008 -0.63334,6.25 -0.63334,6.25 -2.6482,17.5 -2.6482,17.5 H 708.36086 651.9999 Z"
         id="path2" />
    </g>
  </g>
</svg>
