<?xml version="1.0" encoding="UTF-8" standalone="no"?>
<!-- Created with Inkscape (http://www.inkscape.org/) -->

<svg
   version="1.1"
   id="svg1"
   width="750.04791"
   height="409.25613"
   viewBox="0 0 750.04791 409.25613"
   xmlns="http://www.w3.org/2000/svg"
   xmlns:svg="http://www.w3.org/2000/svg">
  <defs
     id="defs1" />
  <g
     id="g1"
     transform="translate(-121.95209,-17.731401)">
    <path
       style="fill:#000000"
       d="m 122.45335,425.58931 -0.50126,-1.30627 0.27395,-17.96638 0.27396,-17.96638 h 18.5 18.5 v 2.5 2.5 l -15.30372,0.27634 -15.30371,0.27633 0.30371,4.72367 0.30372,4.72366 9.25,0.28753 9.25,0.28752 v 2.46248 2.46247 h -9.5499 -9.54991 l 0.29991,5.75 0.2999,5.75 15.31388,0.27639 15.31387,0.27639 -0.31387,2.72361 -0.31388,2.72361 -18.27269,0.27265 -18.2727,0.27264 z M 172,410.78386 v -16.06642 l 2.71357,0.31642 2.71357,0.31642 7.03643,9.21349 7.03643,9.2135 0.67541,0.0365 0.67542,0.0365 6.62345,-9.5 6.62346,-9.5 H 209.04887 212 v 16.06642 16.06642 l -2.75,-0.31642 -2.75,-0.31642 -0.5,-10.97426 -0.5,-10.97426 -6.39211,8.63834 -6.39211,8.63834 -1.10789,-0.4686 -1.10789,-0.4686 -6.5,-8.60018 -6.5,-8.60018 -0.28174,11.6547 -0.28173,11.65471 H 174.46826 172 Z m 54,0.13284 v -16.06642 l 2.75,0.002 2.75,0.002 7.29737,9.49807 7.29737,9.49808 0.70263,-0.0449 0.70263,-0.0449 6.5,-9.44783 6.5,-9.44782 3.27539,-0.007 3.2754,-0.007 -0.2754,15.75 -0.27539,15.75 -2.75,0.31642 -2.75,0.31642 V 415.9167 404.85028 l -0.75,0.042 -0.75,0.042 -6.40699,8.64197 -6.40699,8.64197 -3.3377,-3.93397 -3.33771,-3.93398 -3.75531,-5.20201 -3.7553,-5.20201 -0.5,-0.0492 -0.5,-0.0492 v 11.25124 11.25119 l -2.75,0.31642 -2.75,0.31642 z m 50,14.88804 v -1.04553 l 8.62481,-14.95447 8.62481,-14.95446 3.12519,0.0223 3.12519,0.0223 8.75,14.94985 8.75,14.94986 v 1.0278 1.02789 h -2.97968 -2.97967 l -2.04065,-4 -2.04065,-4 h -10.8278 -10.8278 l -1.80375,4 -1.80375,4 H 278.84813 276 Z m 24.52285,-18.19366 -3.45807,-6.23921 -0.78239,-0.24788 -0.78239,-0.24789 -3.25,5.91632 -3.25,5.91633 v 0.57076 0.57077 h 7.49046 7.49045 z m 25.97404,17.05226 -0.57286,-2.31306 0.28798,-13.5 0.28799,-13.5 2.5,-0.28002 2.5,-0.28003 12.5,11.00153 12.5,11.00153 0.28275,-10.9715 0.28275,-10.97151 H 360.03275 363 v 16 16 h -1.80205 -1.80205 L 347.94795,416.7295 336.5,406.60871 l -2,-1.8208 -2,-1.82081 v 11.69159 11.69159 l -2.71512,0.31306 -2.71512,0.31305 z M 380,425.55738 l -2.5,-1.26341 -0.27673,-14.72185 -0.27674,-14.72184 H 379.97327 383 v 13 13 h 11 11 v -13 -13 h 3.5 3.5 v 13.54545 13.54546 l -2.45455,2.45454 -2.45454,2.45455 -12.29546,-0.0147 L 382.5,426.8208 Z m 45.48741,-0.93184 -0.56338,-2.27526 0.28798,-13.5 0.28799,-13.5 h 16 16 v 2 2 l -12.75,0.27988 -12.75,0.27987 v 3.47013 3.47012 h 7.5 7.5 v 3 3 h -7.5 -7.5 v 3.97012 3.97013 l 12.75,0.27987 12.75,0.27988 v 2.5 2.5 l -15.72461,0.27526 -15.7246,0.27527 z m 43.17926,1.55807 L 468,425.51695 v -15.33334 -15.33333 h 3.5 3.5 v 13 13 h 12 12 v 3 3 h -14.83333 -14.83334 z m 68.78668,-0.5943 -0.50126,-1.30627 0.27395,-17.96638 0.27396,-17.96638 h 18.5 18.5 v 2.5 2.5 l -15.30372,0.27634 -15.30371,0.27633 0.30371,4.72367 0.30372,4.72366 9.25,0.28753 9.25,0.28752 v 2.46248 2.46247 h -9.5499 -9.54991 l 0.29991,5.75 0.2999,5.75 15.31388,0.27639 15.31387,0.27639 -0.31387,2.72361 -0.31388,2.72361 -18.27269,0.27265 -18.2727,0.27264 z M 589,425.56255 l -2.5,-1.25826 -0.31037,-3.727 -0.31036,-3.72701 H 588.93963 592 v 2 2 h 11 11 v -4 -4 h -11.27749 -11.2775 l -2.2225,-1.5567 L 587,409.73687 v -5.87187 -5.87186 l 1.57143,-1.57143 1.57143,-1.57143 h 13.27358 13.27358 l 1.65499,1.82874 1.65499,1.82874 v 2.05463 2.05463 l -2.25,0.60297 -2.25,0.60298 -0.75,0.0137 -0.75,0.0136 v -2 -2 H 603.5 593 v 3.5 3.5 l 10.75,0.0147 10.75,0.0147 2.5,1.26479 2.5,1.2648 v 7.44101 7.44093 l -2.5,1.2648 -2.5,1.26479 H 603 591.5 Z m 44.71258,0.66697 L 633,425.51695 v -15.33334 -15.33333 h 15.4433 15.44329 l 1.55671,2.22251 1.5567,2.2225 v 5.05499 5.05499 l -1.5567,2.2225 -1.55671,2.22251 h -11.89558 -11.89558 l -0.29771,6.25 -0.29772,6.25 -2.53742,0.29591 -2.53743,0.29591 z m 26.09492,-21.62924 -0.3075,-4.25 -9.75,-0.28621 -9.75,-0.28621 v 4.53621 4.53621 h 10.0575 10.0575 z M 679.72209,424.84632 677,422.70512 v -12.27243 -12.27243 l 1.82874,-1.65499 1.82874,-1.65499 h 15.59983 15.59983 l 1.57143,1.57143 1.57143,1.57143 v 12.23744 12.23744 l -1.41728,1.94113 -1.41727,1.94113 -14.86064,0.31862 -14.86063,0.31861 z M 709,410.35028 v -10.5 h -13 -13 v 10.5 10.5 h 13 13 z m 21.25,14.99461 -2.25,-1.60802 v -3.50972 -3.50971 l 2.75,0.31642 2.75,0.31642 -0.29384,1.75 -0.29383,1.75 H 744.45616 756 v -4 -4 h -11.27749 -11.2775 l -2.2225,-1.5567 L 729,409.73687 v -5.87187 -5.87186 l 1.57143,-1.57143 1.57143,-1.57143 h 13.37186 13.37187 l 1.55671,2.22251 1.5567,2.2225 v 1.66086 1.66087 l -2.25,0.60297 -2.25,0.60298 -0.75,0.0137 -0.75,0.0136 v -2 -2 H 745.5 735 v 3.5 3.5 l 10.75,0.0147 10.75,0.0147 2.5,1.26074 2.5,1.26074 0.29008,6.47858 0.29009,6.47857 -1.45734,1.99594 -1.45733,1.99603 -13.33275,0.30132 L 732.5,426.95291 Z M 775,410.85028 v -16 h 3 3 v 16 16 h -3 -3 z M 804.71258,426.22952 804,425.51695 v -12.83334 -12.83333 h -7 -7 v -2.5 -2.5 h 17.5 17.5 v 2.5 2.5 h -6.97097 -6.97098 l -0.27902,13.25 -0.27903,13.25 -2.53742,0.29591 -2.53743,0.29591 z m 31.78742,-0.57419 -2,-1.13412 -0.73469,-1.08547 -0.73468,-1.08546 -0.0153,-12.09501 -0.0153,-12.09501 1.82874,-1.65499 1.82874,-1.65499 15.42126,0.0153 15.42126,0.0153 1.1003,0.73468 1.10029,0.73469 1.14971,2.18426 1.1497,2.18426 v 9.51869 9.51868 l -1.11027,2.43679 -1.11027,2.43678 -2.43678,1.11027 -2.43682,1.1103 -13.20294,-0.0304 L 838.5,426.78946 Z M 865,410.35028 v -10.5 H 852.25 839.5 v 10.5 10.5 H 852.25 865 Z m -399.5,-64.84679 -14,-8.22176 -48.23421,-27.82576 -48.23422,-27.82575 -4.54223,-3.99824 -4.54224,-3.99824 -2.82623,-4.14173 -2.82624,-4.14173 -2.16111,-5.82438 -2.16111,-5.82438 -0.001,-67.01311 -10e-4,-67.01311 1.11634,-4.14577 1.11634,-4.14576 2.49979,-4.93311 2.4998,-4.93312 5.14885,-5.115708 5.14885,-5.11571 63.80255,-36.77736 63.80256,-36.77736 3.19744,0.30944 3.19707,0.30944 v 37 37 l -3.69607,0.30715 -3.69606,0.30715 -1.13566,-4.30715 -1.13566,-4.30715 -2.36294,-4.08364 -2.36293,-4.08365 -4.16578,-3.76352 -4.16577,-3.76353 -3.46222,-1.44661 -3.46222,-1.4466 -4.51648,-0.84377 -4.51648,-0.84377 -5.66087,1.18032 -5.66086,1.18033 -17,9.81524 -17,9.81524 -18.5,10.54284 -18.5,10.542838 -3.26084,3.05582 -3.26085,3.05582 -2.23915,4.54332 -2.23916,4.54332 v 17.5 17.5 l 2.21138,4.13445 2.21137,4.13446 3.14475,3.14474 3.14474,3.14474 3.14388,1.72081 3.14388,1.7208 30.32178,0.30446 30.32178,0.30446 4.42124,-2.14029 4.42124,-2.14029 1.92307,-2.7007 1.92308,-2.70071 0.89747,-3.46347 0.89748,-3.46346 h 3.93643 3.93643 l 0.26644,26.8083 0.26645,26.8083 -4.11526,-0.3083 -4.11526,-0.3083 -1.32211,-3.86274 -1.3221,-3.86274 -2.74916,-2.86951 -2.74917,-2.86951 -4.12492,-1.57532 -4.12493,-1.57532 -28.95499,0.30757 -28.95499,0.30757 -4.06821,2.17758 -4.06822,2.17759 -3.56109,3.94171 -3.5611,3.9417 -1.37069,3.88071 -1.37069,3.88071 v 16 16 l 1.75829,4.55515 1.7583,4.55515 3.7417,3.6212 3.74171,3.62119 31.5,18.21561 31.5,18.21561 6.48854,3.06393 6.48854,3.06392 6.51146,-0.008 6.51146,-0.008 5.5,-2.56048 5.5,-2.56048 3.84798,-3.8872 3.84799,-3.8872 1.76669,-3.5 1.76669,-3.5 1.21288,-3.75 1.21287,-3.75 h 3.93477 3.93477 l -0.26232,36.75 -0.26232,36.75 -4,0.18748 -4,0.18749 z M 485,316.35028 v -34.5 h -1.31738 -1.31738 l -1.68935,5.35926 -1.68936,5.35926 -2.9969,4.1371 -2.9969,4.13711 -4.18257,3.02983 -4.18256,3.02983 -5.47882,1.59274 -5.47883,1.59273 -7.58497,-0.4552 -7.58498,-0.45521 -5,-2.5626 -5,-2.5626 -31.5,-18.17527 -31.5,-18.17528 -3.2277,-2.45973 -3.22771,-2.45974 -2.77229,-4.71612 -2.7723,-4.71611 v -21.07842 -21.07842 l 3.02914,-4.92158 3.02914,-4.92158 4.73082,-3.18117 4.73083,-3.18117 5.48846,-1.1394 5.48846,-1.1394 27.75157,0.32057 27.75158,0.32057 4.4613,2.5 4.4613,2.5 2.36112,3.5 2.36112,3.5 0.55258,2.75 0.55258,2.75 h 1.375 1.375 v -24.5 -24.5 h -1.42054 -1.42055 l -0.67754,3.0848 -0.67753,3.08481 -4.15192,4.31073 -4.15192,4.31073 -4,1.09889 -4,1.09889 -28.0685,0.006 -28.0685,0.006 -4.9315,-1.47128 -4.9315,-1.47127 -3.75099,-3.10235 -3.75099,-3.10234 -2.74901,-4.67638 -2.74901,-4.67723 -0.33312,-18.5 -0.33312,-18.5 1.16517,-4 1.16518,-4 2.49828,-3.66967 2.49827,-3.66967 3.66967,-2.45382 3.66967,-2.45383 34,-19.560018 34,-19.56002 4.74297,-1.18343 4.74296,-1.18343 6.35462,0.40463 6.35461,0.40464 6.69544,3.29615 6.69544,3.29615 3.91907,4.95799 3.91906,4.958 1.72054,5.45816 1.72053,5.45817 H 483.68262 485 v -34.5 -34.5 h -1.54223 -1.54222 l -63.43662,36.57882 -63.43661,36.57882 -4.62217,4.67118 -4.62216,4.671178 -2.77373,5.5 -2.77374,5.5 -1.12526,5.29922 -1.12526,5.29922 0.0119,61.70078 0.0119,61.70078 1.39605,5.24407 1.39606,5.24407 2.29259,4.75593 2.2926,4.75593 5.04948,5.04364 5.04948,5.04365 13.5,7.69558 13.5,7.69559 49,28.42411 49,28.42412 2.25,0.0867 2.24994,0.0866 z m 17.24708,-130.25 0.25292,-167.749998 3.17192,-0.30753 3.17192,-0.30754 24.82808,14.37126 24.82808,14.37125 27.5,15.83614 27.5,15.83614 13,7.68335 13,7.68335 4.75584,5.87443 4.75584,5.874438 2.16054,5.54236 2.16054,5.54235 0.44654,10.8171 0.44654,10.81709 -3.80329,-0.31709 -3.80329,-0.3171 -1.1994,-4.72405 -1.1994,-4.72405 -2.52812,-4.27595 -2.52812,-4.27595 -3.83211,-3.64439 -3.83211,-3.64438 -19,-10.96199 -19,-10.961978 -20.03442,-11.54704 -20.03443,-11.54703 -4.3282,-1.16547 -4.3282,-1.16546 -3.80943,0.6436 -3.80943,0.6436 -4.49032,2.84767 -4.49031,2.84768 -2.83763,4.82759 -2.83763,4.8276 -0.29744,35.830908 -0.29743,35.83091 1.51308,5.16909 1.51309,5.16909 3.03278,3.65977 3.03278,3.65977 5.19791,2.59023 5.19792,2.59023 h 31.90253 31.90252 l 3.43581,-1.6304 3.43581,-1.6304 2.962,-3.59341 2.96199,-3.59341 0.61461,-3.27619 0.61462,-3.27619 H 623.11129 627 v 27 27 l -3.75,-0.0111 -3.75,-0.0111 -2,-5.20442 -2,-5.20442 -4.33686,-3.03446 -4.33686,-3.0345 H 573.66314 540.5 l -5.348,2.96227 -5.34801,2.96227 -2.85155,4.14459 -2.85156,4.14459 -1.10257,4.39314 -1.10257,4.39314 0.30213,35.5 0.30213,35.5 2.15268,4 2.15268,4 2.34732,2.18793 2.34732,2.18793 4.5,2.04011 4.5,2.04011 4,0.0122 4,0.0122 5,-2.3306 5,-2.3306 36.69459,-21.22187 36.69459,-21.22187 4.13645,-4.13644 4.13644,-4.13645 2.07741,-4.05131 2.07741,-4.05132 1.1569,-4.5 1.1569,-4.5 h 3.43466 3.43465 l 0.31306,8 0.31305,8 -1.68192,6.27886 -1.68191,6.27887 -3.7196,5.75494 -3.71959,5.75493 -4.07795,3.4662 -4.07795,3.4662 -32.8336,18.95521 -32.83359,18.95518 -29.8993,17.2948 -29.8993,17.29479 h -3.85361 -3.85362 z m 17.4195,158.41479 10.83342,-6.3352 23.5,-13.56848 23.5,-13.56847 27.7681,-16.05923 27.7681,-16.05924 3.39756,-2.59144 3.39757,-2.59145 3.59408,-5.21846 3.59409,-5.21846 2.03056,-5.34399 2.03056,-5.344 0.60791,-7.88318 0.6079,-7.88319 h -1.57725 -1.57726 l -1.53192,5.26962 -1.53192,5.26961 -3.14815,4.75285 -3.14816,4.75284 -4.14088,3.3396 -4.14089,3.33961 -35.63834,20.56065 -35.63834,20.56064 -4.36166,2.23385 -4.36166,2.23385 -7,0.0343 -7,0.0343 -4.06821,-2.11842 -4.06822,-2.11843 -3.56109,-3.94171 -3.5611,-3.9417 -1.37069,-3.88071 -1.37069,-3.88075 v -37.5 -37.5 l 2.09184,-4.5 2.09183,-4.5 2.70407,-3.19891 2.70407,-3.19891 5.70409,-2.80109 5.7041,-2.80109 30.7696,-0.31526 30.7696,-0.31526 5.24497,1.52475 5.24498,1.52476 3.31021,3.41527 3.31021,3.41527 1.32021,3.84023 1.32021,3.84024 1.105,0.36833 1.10501,0.36834 v -24.58334 -24.58333 h -1.5 -1.5 v 1.66214 1.66214 l -2.4855,4.24119 -2.4855,4.24118 -5.21084,2.59668 -5.21085,2.59667 h -31.76614 -31.76614 l -5.4442,-2.03694 -5.4442,-2.03693 -4.16957,-4.52345 -4.16958,-4.52345 -1.67374,-3.68962 -1.67374,-3.68961 v -38.5 -38.499998 l 1.65283,-3.63956 1.65283,-3.63957 3.66075,-4.05201 3.66074,-4.052 4.37501,-1.67083 4.375,-1.67083 7.31142,0.39578 7.31142,0.39579 37,21.35777 37,21.357768 5.27782,3.47455 5.27781,3.47454 4.00483,5.59267 4.00482,5.59268 1.53832,5.29162 1.53832,5.29163 H 650.57096 652 l -0.0148,-4.75 -0.0148,-4.75 -1.48096,-6.28148 -1.48095,-6.28148 -2.09705,-4.11056 -2.09705,-4.11055 -4.63273,-4.952768 -4.63274,-4.95276 -11.52448,-6.7469 L 612.5,81.166892 560.24208,51.008592 507.98417,20.850282 H 506.49208 505 v 164.999998 165 h 1.91658 1.91657 z"
       id="path1" />
  </g>
</svg>
