<?xml version="1.0" encoding="UTF-8" standalone="no"?>
<!-- Created with Inkscape (http://www.inkscape.org/) -->

<svg
   version="1.1"
   id="svg1"
   width="500.70593"
   height="100.28905"
   viewBox="0 0 500.70593 100.28905"
   xmlns="http://www.w3.org/2000/svg"
   xmlns:svg="http://www.w3.org/2000/svg">
  <defs
     id="defs1" />
  <g
     id="g1"
     transform="translate(0.26093346,-41.005279)">
    <g
       id="g2"
       transform="translate(0,-167.70573)">
      <path
         style="fill:#d0d0d0;fill-opacity:1"
         d="m 154,307 v -2 h 0.91667 0.91666 l 0.45173,1.25 0.45174,1.25 3.23145,-3 3.23146,-3 2.99654,-4.32028 2.99653,-4.32027 -0.54511,-0.54511 -0.5451,-0.54511 -2.35988,2.74352 -2.35988,2.74352 -2.1914,-0.69552 L 159,295.86522 V 293.93261 292 l 2,-2 2,-2 h 0.92857 0.92857 l 1.58036,1.58036 1.58036,1.58035 0.9429,-0.33035 0.9429,-0.33036 3.79817,-5.40857 3.79817,-5.40856 1.70204,-1.05607 1.70203,-1.05606 0.62899,0.62898 0.62898,0.62899 -1.18851,2.22074 -1.1885,2.22075 -0.73693,-1.19237 -0.73692,-1.19236 -3.12545,4.80475 -3.12545,4.80475 1.71986,0.68223 1.71986,0.68223 -2,0.0721 -2,0.0721 -2.99062,4.74821 -2.99061,4.74821 -3.37575,3.75 -3.37574,3.75 H 156.38364 154 Z m 10.92963,-13.86852 1,-1.86851 -0.5963,-0.5963 -0.5963,-0.5963 -1.86851,1 -1.86852,1 V 293.53518 295 h 1.46482 1.46481 z M 96,288.08898 v -0.91101 L 98.138783,281.58898 100.27757,276 h 1.39675 1.39675 l 1.81968,4.25 1.81967,4.25 0.71218,2.25 0.71218,2.25 h -1.4604 -1.4604 l -0.57561,-1.5 -0.5756,-1.5 h -2.4244 -2.424392 l -0.575604,1.5 -0.575604,1.5 H 97.031385 96 Z m 6.98469,-4.83898 -0.0153,-0.75 -0.84595,-1.33453 -0.84594,-1.33454 -0.54512,2.08454 L 100.18724,284 H 101.59362 103 Z M 121,282.44521 v -6.55479 l 4.75,0.30479 4.75,0.30479 0.32676,2.30504 0.32677,2.30504 -1.13418,1.3666 -1.13417,1.3666 1.26955,2.03288 1.26956,2.03288 -0.80178,0.79548 -0.80178,0.79548 -2.19793,-2.75 -2.19793,-2.75 H 124.21244 123 v 2.5 2.5 h -1 -1 z M 128,279.5 V 278 h -2.5 -2.5 v 1.5 1.5 h 2.5 2.5 z m 19.66667,8.83333 L 147,287.66667 V 282.83333 278 h -2 -2 v -1 -1 h 5.5 5.5 v 1 1 h -2 -2 v 5.5 5.5 h -0.83333 -0.83334 z M 213,282.5 V 276 h 1.5 1.5 v 6.5 6.5 h -1.5 -1.5 z m 18,0 V 276 l 1.25,0.007 1.25,0.007 2.73416,4.24281 2.73416,4.2428 0.0158,-4.33333 0.0158,-4.33334 1.25,0.41667 1.25,0.41667 v 5.83333 5.83333 l -1.19319,0.39773 -1.1932,0.39774 -2.8068,-4.25779 -2.80681,-4.25779 -0.3075,4.19339 L 232.885,289 H 231.9425 231 Z m 27.90445,3.83128 -1.10786,-2.83128 -1.35394,-3.75 -1.35393,-3.75 h 1.39091 1.39091 l 1.26562,3.5 1.26562,3.5 H 261 h 0.59822 l 1.26562,-3.5 1.26562,-3.5 h 1.42169 1.4217 l -2.31612,6.19323 -2.31611,6.19323 -1.16416,0.38805 -1.16415,0.38805 z m 21.50435,1.29166 -0.52842,-1.37706 0.30981,-4.87294 L 280.5,276.5 l 4.75,-0.30479 4.75,-0.30479 V 276.94521 278 h -3.5 -3.5 v 1.5 1.5 h 3 3 v 1 1 h -3 -3 v 1.43664 1.43664 l 3.17299,0.31336 3.17299,0.31336 0.41034,1.25 0.41035,1.25 h -4.61472 -4.61472 z M 305,282.5 V 276 l 1.25,0.007 1.25,0.007 2.73416,4.24281 2.73416,4.2428 0.0158,-4.25 L 313,276 h 1 1 v 6.5 6.5 h -0.98581 -0.98581 l -2.76419,-4.19339 -2.76419,-4.19339 -0.3075,4.19339 L 306.885,289 H 305.9425 305 Z m 28,1 V 278 h -2 -2 v -1 -1 h 5.5 5.5 v 1 1 h -2 -2 v 5.5 5.5 h -1.5 -1.5 z m 21,-1 V 276 h 1.5 1.5 v 6.5 6.5 h -1.5 -1.5 z m 18.2,5.3 -1.2,-1.2 v -4.2433 -4.24329 l 2.22251,-1.55671 2.2225,-1.5567 h 1.2775 H 378 l 2,2 2,2 v 3.34501 3.34501 l -1.82874,1.65499 L 378.34252,289 H 375.87126 373.4 Z m 5.62418,-1.67018 1.32419,-0.83955 -0.32419,-3.39513 L 378.5,278.5 l -2.11965,-0.30247 -2.11965,-0.30247 -0.56479,2.15979 -0.5648,2.15979 0.90969,2.39268 0.9097,2.39268 0.77475,-0.0153 0.77475,-0.0153 z M 395,282.5 V 276 l 1.25,0.007 1.25,0.007 2.73416,4.24281 2.73416,4.2428 0.0158,-4.25 L 403,276 h 1.54772 1.54771 l -0.29771,6.17063 -0.29772,6.17063 -1.19319,0.39377 -1.1932,0.39377 -2.8068,-4.25779 -2.80681,-4.25779 -0.3075,4.19339 L 396.885,289 H 395.9425 395 Z M 10.168273,248.92367 5.8365459,246.71012 3.1682729,242.67809 0.5,238.64606 v -8.23689 -8.23689 l 3.0415915,-4.32765 3.0415914,-4.32766 3.9584081,-2.27806 3.958409,-2.27807 8.5,0.26958 8.5,0.26958 0.30226,5.25 0.302259,5.25 -1.302259,-0.0216 -1.30226,-0.0216 -1.5,-3.2144 -1.5,-3.2144 -3.182589,-0.88929 -3.182589,-0.88928 -2.490339,0.62503 -2.490339,0.62504 -3.213046,2.7036 -3.2130468,2.7036 -1.3640256,3.26457 L 6,224.93576 v 4.46702 4.46702 l 1.0613339,2.8151 1.0613339,2.8151 3.1535592,3.26932 3.153559,3.26932 3.806511,1.02499 3.80651,1.02498 2.728597,-1.30778 L 27.5,245.47305 V 239.48653 233.5 L 24.25,233.18664 21,232.87328 v -1.29973 -1.29973 l 6.75,-0.55692 6.75,-0.55692 0.991641,0.96165 0.991641,0.96165 -1.311257,0.8104 -1.311256,0.8104 0.226881,7.7702 0.226881,7.7702 -1.779884,0.99607 -1.779884,0.99607 -8.127381,0.4503 L 14.5,251.13721 Z m 32.314461,1.04839 -0.6353,-1.02793 2.109672,-1.72207 L 46.066778,245.5 45.783389,229.5 45.5,213.5 43.25,212.51287 41,211.52574 V 210.26287 209 h 11.352117 11.352117 l 3.329155,2.25 3.329156,2.25 0.735135,2.76081 0.735135,2.76081 -0.950852,3.4437 -0.950852,3.44371 -2.515739,1.97888 -2.515739,1.97888 -1.068383,0.35613 -1.068383,0.35612 3.620003,7.18837 3.620003,7.18837 2.498563,1.63712 L 75,248.23002 V 249.61501 251 H 72.368077 69.736154 L 66.579767,247.65325 63.42338,244.30651 60.46169,237.68014 57.5,231.05377 54.25,231.02688 51,231 v 7 7 l 2.036475,2.03647 2.036474,2.03648 -0.595491,0.96352 L 53.881966,251 H 48.5 43.118034 Z M 64.25,224.91614 66,222.77843 V 219.38922 216 l -2,-2 -2,-2 H 56.5 51 v 7.33333 7.33334 l 0.75,0.76748 0.75,0.76748 5,-0.57389 5,-0.57389 z m 16.208879,25.01733 -0.659155,-1.06654 1.850138,-1.35272 L 83.5,246.1615 83.851018,230.2532 84.202036,214.34489 82.601018,212.74388 81,211.14286 V 210.07143 209 h 13 13 v 3 3 h -1.41667 -1.41666 l -0.41104,-1.23311 -0.41103,-1.2331 -6.422302,-0.0169 L 90.5,212.5 l -0.293862,7.84987 -0.293862,7.84987 5.293862,-0.71691 5.293862,-0.71691 0.79969,-1.38296 L 102.09938,224 H 103.04969 104 v 6 6 h -1.43045 -1.43045 l -0.31955,-2.25 -0.31955,-2.25 -5.293032,-0.30375 -5.293032,-0.30375 0.293032,7.80375 L 90.5,246.5 l 4.419787,0.31579 4.419788,0.3158 2.382995,-0.5981 2.383,-0.59809 2.04511,-3.46621 2.04512,-3.46622 0.77647,0.47989 0.77648,0.47989 -0.85666,4.58545 -0.85665,4.58544 -0.57674,0.93318 L 106.88197,251 H 94 81.118034 Z M 125.0964,249.79178 122.6928,248.5 120.5964,245.68056 118.5,242.86112 118.17961,227.43056 117.85921,212 H 115.92961 114 v -1.5 -1.5 h 8.08333 8.08334 l -0.40748,1.22242 -0.40747,1.22241 -2.42586,0.57102 -2.42586,0.57102 -0.29888,11.95657 -0.29888,11.95656 0.60466,3.30578 0.60465,3.30577 1.94423,1.94423 L 129,247 h 3.36514 3.36514 l 2.63486,-2.07258 L 141,242.85484 v -15.31079 -15.31079 l -2,-0.52301 -2,-0.52301 V 210.09362 209 h 6.5 6.5 v 1.5 1.5 h -1.93119 -1.93119 l -0.31881,15.98349 -0.31881,15.98349 -3.20194,3.19922 -3.20195,3.19923 -5.79805,0.35907 -5.79806,0.35906 z M 155,249.65502 v -1.55564 l 1.75,-0.97841 1.75,-0.97841 0.34491,-14.62506 0.34491,-14.62507 -0.61396,-2.44621 L 157.9619,212 H 156.48095 155 v -1.5 -1.5 h 10.98422 10.98423 l 3.24305,2.89766 3.24305,2.89767 v 4.04596 4.04597 l -2.22589,2.36934 -2.22588,2.36934 2.95857,2.18736 2.95857,2.18737 1.13783,3.79774 1.13783,3.79774 -1.51426,3.62414 -1.51427,3.62415 -2.78885,1.82778 -2.78885,1.82778 -11.79467,0.35533 L 155,251.21065 Z M 178,245 l 2,-2 v -3.88922 -3.88921 l -1.75,-2.16014 -1.75,-2.16013 -4,-0.9268 -4,-0.92679 -1.75,-0.0238 L 165,229 v 9 9 h 5.5 5.5 z M 176.17126,223.34501 178,221.69002 v -3.22256 -3.22257 l -1.53318,-1.27243 -1.53318,-1.27242 -4.96682,-0.47725 L 165,211.74554 V 218.37277 225 h 4.67126 4.67126 z m 16.28762,26.58846 -0.65916,-1.06654 1.85014,-1.35272 1.85014,-1.35271 0.35102,-15.9083 0.35102,-15.90831 -1.60102,-1.60101 L 193,211.14286 V 210.07143 209 h 13 13 v 3 3 h -1.41667 -1.41666 l -0.41104,-1.23311 -0.41103,-1.2331 -6.4223,-0.0169 -6.4223,-0.0169 -0.29386,7.84987 -0.29386,7.84987 5.29386,-0.71691 5.29386,-0.71691 0.79969,-1.38296 L 214.09938,224 H 215.04969 216 v 6 6 h -1.43045 -1.43045 l -0.31955,-2.25 -0.31955,-2.25 -5.16694,-0.29938 -5.16694,-0.29938 -0.52218,1.79938 -0.52218,1.79938 0.68912,6 0.68912,6 4.41979,0.31579 4.41978,0.3158 2.383,-0.5981 2.383,-0.59809 2.04511,-3.46621 2.04512,-3.46622 0.77647,0.47989 0.77648,0.47989 -0.85666,4.58545 -0.85665,4.58544 -0.57674,0.93318 L 218.88197,251 H 206 193.11803 Z m 36,0 -0.65916,-1.06654 1.85014,-1.35198 1.85014,-1.35198 v -16.64992 -16.64992 l -1.75,-0.98126 -1.75,-0.98125 V 209.95031 209 h 6.5 6.5 v 1.5 1.5 h -1.38337 -1.38337 l -0.60297,2.25 -0.60298,2.25 -0.0137,14.63337 -0.0137,14.63337 2.25,0.60297 2.25,0.60298 3.1849,0.0137 3.1849,0.0137 2.53717,-0.96463 2.53717,-0.96463 0.63634,-2.53537 L 254.21682,240 h 1.50288 1.50288 l -0.70005,3.73159 -0.70005,3.73159 -0.94642,1.76841 L 253.92963,251 h -12.4058 -12.4058 z M 288,249.60699 v -1.39301 l 1.39692,-0.53605 1.39692,-0.53605 0.71538,-11.44934 0.71538,-11.44933 -0.6996,-6.0278 -0.6996,-6.02781 -1.9127,-0.50018 L 287,211.18724 V 210.09362 209 h 16 16 l -0.0136,2.25 -0.0137,2.25 -0.60298,2.25 -0.60297,2.25 h -1.31382 -1.31382 L 314.81955,215.75 314.5,213.5 305.75,213.21107 297,212.92213 V 219.96107 227 h 5.89301 5.89301 l 0.57561,-1.5 0.5756,-1.5 h 1.08129 1.08129 l -0.29991,5.75 -0.2999,5.75 h -1 -1 L 309.18045,233.25 308.8609,231 H 302.93045 297 l 0.0153,6.75 0.0153,6.75 0.73468,1.13432 0.73469,1.13432 1.98852,0.37716 1.98851,0.37717 0.33481,1.73851 L 303.14665,251 H 295.57332 288 Z m 43.9844,-0.46269 -3.4844,-1.85571 -3,-4.81587 -3,-4.81588 V 230.07842 222.5 l 2.5,-4.4613 2.5,-4.4613 3.5,-2.3763 3.5,-2.37631 6.23265,0.38389 6.23265,0.3839 3.14345,2.95371 3.14345,2.95371 1.85194,4 1.85194,4 0.0164,5.5 0.0164,5.5 -1.03286,3.71895 -1.03285,3.71894 -2.66488,3.16703 -2.66488,3.16703 -3.26457,1.36402 -3.2646,1.36403 h -3.79772 -3.79772 z m 14.40041,-5.18977 2.56259,-3.04547 1.13005,-4.19668 1.13005,-4.19668 -0.42563,-5.00785 -0.42562,-5.00785 -1.81297,-3.79405 -1.81297,-3.79405 -2.8155,-1.45595 L 341.09932,212 H 338.94966 336.8 l -3.28433,3.28433 -3.28433,3.28433 -1.18657,5.71567 -1.18657,5.71567 1.18053,5.68655 1.18052,5.68655 2.81345,2.81345 2.81345,2.81345 h 3.98803 3.98803 z M 363,249.54969 v -1.45031 l 1.52507,-0.85347 1.52507,-0.85347 -0.27507,-16.94622 L 365.5,212.5 363.25,212.18045 361,211.8609 V 210.43045 209 h 10.85078 10.85077 l 3.08324,1.07482 3.08324,1.07483 1.56599,2.38999 1.56598,2.38999 v 3.08485 3.08484 l -1.41469,2.7357 -1.41468,2.7357 -2.58532,1.38362 L 384,230.33796 v 0.85954 0.85953 l 2.94702,5.83801 2.94701,5.83801 3.05299,2.56891 L 396,248.87088 V 249.93544 251 h -3.04775 -3.04775 l -2.48984,-2.68658 -2.48983,-2.68658 -3.61449,-7.31342 L 377.69585,231 H 374.84792 372 v 7.89301 7.89301 l 1.5,0.57561 1.5,0.5756 V 249.46862 251 h -6 -6 z m 21.75,-25.07514 2.25,-2.58608 v -2.48969 -2.48969 L 384.54545,214.45455 382.09091,212 H 377.04545 372 v 8.13929 8.13929 l 5.25,-0.60897 5.25,-0.60898 z M 402,247.91176 V 245.25 L 401.375,242.125 400.75,239 h 1.625 1.625 v 1.5 1.5 l 1.94725,1.94725 1.94726,1.94726 4.17385,1.1239 4.17386,1.1239 2.89161,-1.19774 2.89161,-1.19775 0.64104,-2.55412 0.64104,-2.55411 -1.4407,-2.5693 -1.4407,-2.56929 -6.08324,-2.5 -6.08325,-2.5 -2.60257,-1.7552 -2.60257,-1.7552 -0.86312,-3.2448 -0.86312,-3.2448 0.81703,-3 0.81703,-3 3.0636,-2.77589 3.0636,-2.77589 8.45524,0.14403 L 426,209.23627 V 214.61814 220 h -1.02475 -1.02475 l -0.86049,-2.25 -0.86048,-2.25 -2.01256,-1.81249 -2.01256,-1.81249 -4.32036,0.31249 -4.32036,0.31249 -1.43561,2.56929 -1.4356,2.5693 0.66207,2.63792 0.66208,2.63792 8.90439,4.59894 8.90439,4.59894 1.58729,3.34497 1.5873,3.34498 V 240 v 1.19774 l -1.57727,3.32386 -1.57728,3.32385 -3.37796,1.60296 -3.37797,1.60295 -8.54476,-0.23892 L 402,250.57352 Z m 32,1.69523 v -1.39301 l 1.5,-0.57561 1.5,-0.5756 v -17.4244 -17.42439 l -1.5,-0.57561 -1.5,-0.5756 V 210.03138 209 h 13.51905 13.51905 l -0.65972,2.75 -0.65973,2.75 -0.29466,0.352 -0.29465,0.352 -2.28718,-1.602 -2.28717,-1.602 h -4.19571 -4.19571 l -1.58178,0.60699 L 443,213.21398 v 7.52184 7.52184 l 5.25,-0.67394 5.25,-0.67394 1.11024,-1.45489 L 455.72049,224 H 456.86024 458 v 6 6 h -1.43045 -1.43045 l -0.31955,-2.25 -0.31955,-2.25 -5.79299,-0.30119 -5.79298,-0.30118 0.29298,7.80118 0.29299,7.80119 3.956,0.32265 3.95599,0.32264 3.29152,-0.61749 3.29151,-0.61749 1.52817,-2.95516 L 461.05136,240 H 462.02568 463 l -0.006,1.75 -0.006,1.75 -1.04143,3.75 -1.04143,3.75 H 447.453 434 Z m 40,0.13014 v -1.26287 l 2.25,-0.98713 2.25,-0.98713 0.29317,-7.21844 0.29318,-7.21844 -4.24928,-7.78156 -4.24928,-7.78156 -2.7939,-2.82692 L 465,210.84615 V 209.92308 209 h 7 7 v 1.03138 1.03139 l -1.5,0.5756 -1.5,0.57561 v 1.46378 1.46377 l 3.25,5.91737 3.25,5.91737 0.63254,0.0119 0.63254,0.0119 4.11746,-6.31972 L 492,214.36056 v -1.06365 -1.06365 l -2,-0.52301 -2,-0.52301 V 210.09362 209 h 6 6 v 1.39301 1.39301 l -1.4368,0.55135 -1.43679,0.55135 -6.06321,9.01728 -6.0632,9.01728 v 8.13198 8.13198 l 2,0.52301 2,0.52301 V 249.61663 251 h -7.5 -7.5 z"
         id="path9" />
      <path
         style="fill:#b9b9b9;fill-opacity:1"
         d="m 154,307 v -2 h 1 1 v 1 1 h 0.86364 0.86363 l 2.75595,-2.75 2.75595,-2.75 2.9768,-4.32028 2.97681,-4.32027 -0.49033,-0.49033 -0.49033,-0.49033 -2.5606,2.5606 L 163.09091,297 h -0.92301 -0.92301 l -1.26947,-1.52961 -1.26946,-1.52962 1.06235,-2.33161 1.06235,-2.33162 2.10226,-0.54975 2.10226,-0.54975 1.41098,1.41098 1.41098,1.41098 h 1.05889 1.05888 l 2.6361,-4.25 2.6361,-4.25 2.05076,-2.25 2.05076,-2.25 H 180.67431 182 v 0.80887 0.80887 l -1.57416,1.94113 -1.57415,1.94113 0.63317,-1.25 0.63317,-1.25 h -0.94067 -0.94068 l -3.0882,4.74749 -3.0882,4.74748 1.71986,0.68223 1.71986,0.68223 -2.15498,0.0703 -2.15498,0.0703 -2.64054,4.50575 -2.64054,4.50574 -3.79964,3.99426 L 158.30967,309 H 156.15484 154 Z m 11.03517,-13.54238 1.28007,-1.54238 L 165.2,290.8 l -1.11524,-1.11524 -1.54238,1.28007 L 161,292.24489 V 293.62244 295 h 1.37756 1.37755 z M 96,288.28945 v -0.71055 l 2.25,-5.81319 2.25,-5.81319 1.34503,0.27374 1.34503,0.27374 2.40497,5.91987 L 108,288.33975 V 288.66987 289 h -1.5 -1.5 v -1.5 -1.5 h -2.89301 -2.893012 l -0.575604,1.5 -0.575604,1.5 H 97.031385 96 Z m 7,-5.73043 v -1.44099 l -0.88631,-0.54777 -0.88631,-0.54777 -0.52007,1.98876 L 100.18724,284 H 101.59362 103 Z m 18,-0.11652 v -6.5575 l 4.14816,0.3075 4.14815,0.3075 1.09455,1.74654 1.09455,1.74655 -1.26556,2.02649 -1.26556,2.02648 1.10387,2.06262 1.10388,2.06261 -0.67066,0.66436 -0.67065,0.66435 -2.19793,-2.75 -2.19793,-2.75 H 124.21244 123 v 2.5 2.5 h -1 -1 z M 128,279.5 V 278 h -2.5 -2.5 v 1.5 1.5 h 2.5 2.5 z m 20,4 V 278 h -1.94098 -1.94099 L 143.5,277 142.88197,276 H 148.44098 154 v 1 1 h -2 -2 v 5.5 5.5 h -1 -1 z m 65,-0.91667 V 276 h 1.54772 1.54771 l -0.29771,6.17063 -0.29772,6.17063 -1.25,0.4127 -1.25,0.41271 z M 231,282.5 V 276 l 1.25,0.007 1.25,0.007 2.73416,4.24281 2.73416,4.2428 0.0158,-4.25 L 239,276 h 1 1 v 6.5 6.5 h -0.864 -0.864 l -2.886,-4.18001 -2.886,-4.18002 -0.3075,4.18002 L 232.885,289 H 231.9425 231 Z m 28.34234,4.83316 -0.65871,-1.83316 -1.82722,-4.75 -1.82723,-4.75 h 1.37683 1.37683 l 1.73869,4.25 1.73868,4.25 1.45323,-4.25 1.45323,-4.25 h 1.3709 1.3709 l -2.33458,6.21011 -2.33457,6.21012 -1.11914,0.37304 -1.11913,0.37305 z M 281,282.5 V 276 h 4.5 4.5 v 1 1 h -3.5 -3.5 v 1.5 1.5 h 3 3 v 1 1 h -3 -3 v 2 2 h 3.5 3.5 v 1 1 h -4.5 -4.5 z m 24,0 V 276 h 0.91349 0.91349 l 3.08651,4.197 L 313,284.39401 V 280.197 276 h 1 1 v 6.5 6.5 h -0.98581 -0.98581 l -2.76419,-4.19339 -2.76419,-4.19339 -0.3075,4.19339 L 306.885,289 H 305.9425 305 Z m 28.66667,5.83333 L 333,287.66667 V 282.83333 278 h -2 -2 v -1 -1 h 5.5 5.5 v 1 1 h -2 -2 v 5.5 5.5 h -0.83333 -0.83334 z M 354,282.58333 V 276 h 1.54772 1.54771 l -0.29771,6.17063 -0.29772,6.17063 -1.25,0.4127 -1.25,0.41271 z M 372.2,287.8 371,286.6 v -4.27695 -4.27694 l 2.36502,-1.54963 2.36502,-1.54962 2.4986,0.94997 2.49859,0.94996 0.63639,1.65839 0.63638,1.65839 v 2.19571 2.19571 l -1.5567,2.2225 L 378.88659,289 H 376.1433 373.4 Z m 6.3,-5.3137 V 278.5 l -2.21465,-0.31492 -2.21466,-0.31492 -0.62038,2.47178 -0.62037,2.47178 1.1525,2.15347 1.1525,2.15347 1.68253,-0.32402 1.68253,-0.32403 z M 395,282.5 V 276 l 1.25,0.007 1.25,0.007 2.73416,4.24281 2.73416,4.2428 0.0158,-4.25 L 403,276 h 1 1 v 6.5 6.5 h -0.88166 -0.88166 l -3.10658,-4.75 -3.10657,-4.75 -0.0118,4.75 L 397,289 h -1 -1 z M 12.5,249.73447 9.5,248.5 6.7991072,246.66717 4.0982145,244.83433 2.0491072,240.60144 0,236.36855 v -6.02699 -6.02699 L 2.3070025,219.90728 4.614005,215.5 l 4.9323962,-3.33441 4.9323958,-3.33442 8.510602,0.38737 8.510601,0.38738 -0.02304,4.87139 -0.02304,4.87138 -1.226962,0.40899 L 29,220.16667 v -1.62879 -1.62879 L 26.545455,214.45455 24.090909,212 h -3.1593 -3.1593 l -3.886065,2.18409 -3.886065,2.18409 -2.0000895,4.13164 L 6,224.63145 v 4.71639 4.7164 l 1.3599999,3.21788 1.3599998,3.21788 2.7738663,2.7475 2.773866,2.7475 3.887538,1.04681 3.887537,1.0468 2.728597,-1.30778 L 27.5,245.47305 V 239.48653 233.5 L 24.25,233.18664 21,232.87328 v -1.35131 -1.35132 l 6.75,-0.37776 6.75,-0.37776 0.991641,0.83408 0.991641,0.83407 -1.350538,0.83468 -1.350537,0.83468 -0.513282,4.55382 -0.513282,4.55382 1.083865,3.10918 1.083865,3.10918 -2.711686,1.08208 -2.711687,1.08208 -7,0.36307 -7,0.36306 z M 43,249.62244 v -1.37755 L 44.5,247 46,245.75511 V 230.45934 215.16357 L 45.393011,213.58179 44.786022,212 H 42.893011 41 v -1.5 -1.5 h 10.532119 10.532118 l 3.38739,1.41534 3.38739,1.41534 1.080492,2.01892 L 71,215.86852 v 4.14266 4.14267 l -2.759615,2.75961 -2.759616,2.75962 -1.358951,0.45298 -1.358951,0.45298 3.620003,7.18837 3.620003,7.18837 2.498563,1.63712 L 75,248.23002 V 249.61501 251 H 72.368077 69.736154 L 66.513342,247.58282 63.29053,244.16565 60.422741,237.58282 57.554953,231 H 54.277476 51 v 7.37756 7.37755 L 52.5,247 54,248.24489 V 249.62244 251 H 48.5 43 Z M 64.166129,225.04317 66,222.77843 V 219.38922 216 l -2,-2 -2,-2 H 56.5 51 v 8.12383 8.12383 l 5.666129,-0.46988 5.666129,-0.46988 z m 16.533293,25.32292 -0.633912,-0.63391 1.967245,-2.50095 L 84,244.73028 v -15.74269 -15.7427 L 82.5,212 81,210.75511 V 209.87756 209 h 13 13 v 3 3 h -1.07143 -1.07143 l -1.5,-1.5 -1.5,-1.5 h -5.369552 -5.369554 l -0.455909,0.75 -0.455908,0.75 -0.353109,7 -0.353108,7 5.347165,-0.0479 5.347165,-0.0479 0.95253,-1.70207 L 102.09938,224 H 103.04969 104 v 6.08333 6.08334 l -1.25,-0.41166 -1.25,-0.41167 -0.31955,-2.17167 L 100.8609,231 H 94.930449 89 l 0.01101,4.25 0.01101,4.25 0.619837,3.75 0.619837,3.75 5.119157,-0.0137 5.119159,-0.0137 2.21359,-0.59346 2.2136,-0.59345 1.28052,-2.89289 1.2805,-2.8928 h 1.12679 1.12678 l -0.85317,4.56682 -0.85318,4.56682 -0.57674,0.93318 L 106.88197,251 H 94.10765 81.333333 Z M 124,248.80387 120.5,246.43074 119.30644,242.96537 118.11288,239.5 118.05644,225.75 118,212 h -2 -2 v -1.5 -1.5 h 8.08333 8.08334 l -0.40748,1.22242 -0.40747,1.22241 -2.42586,0.5753 -2.42586,0.57529 v 15.29248 15.29249 l 2.36078,1.9098 2.36079,1.90981 h 3.33345 3.33345 l 2.80577,-2.41219 2.80576,-2.41218 0.34353,-14.57701 0.34354,-14.577 -2.59354,-0.98606 L 137,211.0495 V 210.02475 209 h 6.5 6.5 v 1.09362 1.09362 l -1.93255,0.50537 -1.93255,0.50538 -0.31745,15.88449 -0.31745,15.8845 -3.20194,3.19922 -3.20195,3.19923 -5.79805,0.40578 L 127.5,251.177 Z m 31,1.31938 V 249 l 2,-2 2,-2 V 230.08179 215.16357 L 158.39301,213.58179 157.78602,212 H 156.39301 155 v -1.5 -1.5 h 10.92327 10.92328 l 3.00321,2.52703 3.0032,2.52703 0.63695,2.89998 0.63694,2.89998 -1.61571,3.12444 -1.61571,3.12444 -1.44078,0.55288 -1.44079,0.55288 3.24307,2.17827 3.24307,2.17827 1.37564,3.9674 1.37564,3.9674 -1.54211,3.67222 -1.54212,3.67222 -2.71329,1.77781 -2.71329,1.77782 -11.87024,0.42322 L 155,251.24651 Z M 178,245 l 2,-2 v -3.77749 -3.7775 l -1.52948,-2.18364 -1.52949,-2.18364 -3.72051,-1.03329 -3.72052,-1.03329 -2.25,-0.006 L 165,229 v 9 9 h 5.5 5.5 z M 176.17126,223.34501 178,221.69002 v -3.22256 -3.22257 l -1.53318,-1.27243 -1.53318,-1.27242 -4.96682,-0.47725 L 165,211.74554 V 218.37277 225 h 4.67126 4.67126 z m 16.52816,27.02108 -0.63391,-0.63391 1.96724,-2.50095 L 196,244.73028 v -15.74269 -15.7427 L 194.5,212 193,210.75511 V 209.87756 209 h 13 13 v 3 3 h -1.07143 -1.07143 l -1.5,-1.5 -1.5,-1.5 h -5.78497 -5.78497 l -0.65738,7.07319 -0.65739,7.07319 0.64372,1.04155 0.64372,1.04156 5.00544,-0.48096 5.00545,-0.48096 0.91431,-1.63379 L 214.09938,224 H 215.04969 216 v 6.08333 6.08334 l -1.25,-0.41166 -1.25,-0.41167 -0.31955,-2.17167 L 212.8609,231 H 206.93045 201 l 0.011,4.25 0.011,4.25 0.61984,3.75 0.61983,3.75 h 5.91462 5.91461 l 2.45454,-2.45455 L 219,242.09091 V 241.04545 240 h 1.37089 1.3709 l -0.85317,4.56682 -0.85318,4.56682 -0.57674,0.93318 L 218.88197,251 h -12.77432 -12.77432 z m 35.75946,-0.43262 -0.65916,-1.06654 1.85014,-1.35083 1.85014,-1.35083 0.31638,-16.51193 0.31638,-16.51192 -2.06638,-1.1059 L 228,210.92963 V 209.96482 209 h 6.5 6.5 v 1.38337 1.38337 l -2,0.52301 -2,0.52301 v 16.48663 16.48663 l 1.58179,0.60699 L 240.16357,247 H 245.08179 250 l 2,-2 2,-2 v -1.5 -1.5 h 1.54531 1.54532 l -0.67694,3.75 -0.67694,3.75 -0.90356,1.75 -0.90356,1.75 h -12.4058 -12.4058 z m 60.02702,0.0437 -0.68618,-1.11026 1.67199,-1.22258 1.67198,-1.22259 0.56732,-11.51924 0.56732,-11.51925 -0.69849,-5.59052 -0.69848,-5.59051 -2.0413,-0.53381 -2.04129,-0.53381 0.65963,-1.06731 L 288.11803,209 H 303.68402 319.25 l -0.625,3.125 -0.625,3.125 v 1.375 1.375 h -0.83948 -0.83949 l -1.07113,-2.35087 -1.07113,-2.35087 -5.33938,-0.53196 -5.33939,-0.53195 -3.25,0.49632 L 297,213.227 V 220.1135 227 h 5.89301 5.89301 l 0.57561,-1.5 0.5756,-1.5 H 310.96862 312 v 5.5 5.5 h -1.5 -1.5 v -2 -2 h -6 -6 l 0.0153,6.75 0.0153,6.75 0.73468,1.11522 0.73469,1.11522 2.30505,0.71964 2.30504,0.71964 -0.38474,1.16514 -0.38474,1.16514 -6.58426,0.29373 -6.58426,0.29373 z m 43.07284,-1.24364 -3.94126,-2.23355 -2.55874,-4.97528 -2.55874,-4.97528 0.0384,-7.0269 0.0384,-7.0269 2.46163,-4.45912 2.46163,-4.45912 3.39788,-2.2887 3.39789,-2.2887 h 4.90177 4.90178 l 2.83122,1.46408 2.83123,1.46409 2.58068,3.06697 2.58069,3.06697 1.03285,3.71894 1.03286,3.71895 0.006,4.60078 0.006,4.60077 -1.1381,3.39923 -1.13811,3.39922 -2.49371,3.35611 -2.49372,3.3561 -3.33606,1.3939 -3.33606,1.39389 -3.78212,-0.0164 -3.78212,-0.0165 z m 11.96286,-2.31082 3.32385,-1.57728 1.7641,-3.67272 1.76409,-3.67273 0.41608,-5.51099 0.41609,-5.51099 -1.1724,-4.35396 -1.1724,-4.35396 -2.34439,-2.34438 -2.34438,-2.34439 -2.76682,-0.69443 -2.76683,-0.69442 -2.54679,1.42947 -2.54679,1.42948 -2.20685,3.27475 -2.20686,3.27475 -0.66757,5.34304 -0.66757,5.34304 1.57064,5.40279 1.57063,5.40279 2.28129,2.07643 2.28128,2.07642 1.5,0.54833 1.5,0.54834 0.84887,0.0789 0.84887,0.0789 z m 19.89702,3.44559 -0.69942,-1.13167 1.6404,-0.91802 L 366,246.90062 V 229.92556 212.9505 L 363.5,212 361,211.0495 V 210.02475 209 h 11.09887 11.09887 l 3.26257,1.54819 3.26258,1.54819 1.13855,2.49886 1.13856,2.49887 v 3.07059 3.07059 l -4.13339,4.13236 -4.1334,4.13235 3.77597,7.3364 3.77597,7.3364 2.38332,1.08591 2.38332,1.08592 -0.35422,1.07768 -0.35423,1.07769 -2.03376,0.30148 -2.03377,0.30148 -3.1466,-2.64769 -3.1466,-2.64769 -3.56108,-7.40379 L 377.86045,231 H 374.93022 372 v 7.95031 7.95031 l 1.6404,0.91801 1.6404,0.91802 -0.69942,1.13167 L 373.88197,251 H 369 364.11803 Z M 384.69116,224.57266 387,221.88847 v -2.48969 -2.48969 L 384.54545,214.45455 382.09091,212 H 377.04545 372 v 8.12723 8.12723 l 5.19116,-0.49881 5.19116,-0.4988 z m 17.78354,24.99866 -0.3254,-1.07132 -0.63592,-4.75 -0.63593,-4.75 h 1.45287 1.45286 l 0.64572,2.57273 0.64571,2.57274 4.56508,2.01935 4.56508,2.01935 3.38546,-0.63512 3.38546,-0.63512 1.01216,-1.89122 L 423,243.13148 v -2.39142 -2.39143 l -2.25,-2.05938 -2.25,-2.05938 -2.5,-0.74325 -2.5,-0.74324 -4,-1.97496 -4,-1.97497 -1.72776,-2.14672 -1.72777,-2.14673 -0.0222,-4.23422 -0.0222,-4.23423 2.91649,-3.26577 2.91648,-3.26578 9.08352,-0.22712 L 426,209.04575 V 214.52288 220 h -1.05202 -1.05202 l -0.99582,-2.85663 -0.99583,-2.85662 -2.26955,-1.21463 -2.26955,-1.21462 -3.90119,0.32125 -3.90118,0.32125 -1.4984,2.68193 -1.4984,2.68192 0.97529,2.81808 0.9753,2.81807 7.49168,3.62464 7.49169,3.62463 2.47727,2.68174 2.47728,2.68173 v 3.94713 3.94712 l -3.24667,3.24651 -3.24666,3.2465 -9.58056,0.0713 -9.58056,0.0713 z m 31.94392,0.297 -0.69942,-1.13167 1.6404,-0.91802 L 437,246.90062 V 229.5573 212.21398 l -1.56338,-0.59993 -1.56338,-0.59992 0.62239,-1.00707 0.6224,-1.00706 h 12.76779 12.76779 l -0.4403,3 -0.44031,3 h -0.42168 -0.42169 l -2.37386,-1.55541 -2.37386,-1.55542 -5.34096,0.30542 L 443.5,212.5 l -0.29206,7.75 -0.29207,7.75 3.79207,-0.0137 3.79206,-0.0137 2.25,-0.60298 2.25,-0.60297 V 225.38337 224 h 1 1 v 6 6 h -0.93045 -0.93045 l -0.31955,-2.25 -0.31955,-2.25 -5.79299,-0.30119 -5.79298,-0.30118 0.29298,7.80118 0.29299,7.80119 5.72395,0.29913 5.72395,0.29912 2.07392,-1.10993 2.07392,-1.10992 0.92738,-2.4392 L 460.9505,240 h 1.11265 1.11265 l -0.70097,4.25 -0.70096,4.25 -1.00938,1.25 -1.00938,1.25 H 447.43657 435.11803 Z M 474,249.65222 v -1.4354 l 2.5,-0.62746 2.5,-0.62746 v -7.77292 -7.77291 L 473.92216,222.45804 468.84431,213.5 466.92216,212.12803 465,210.75606 V 209.87803 209 h 6.5 6.5 v 0.51357 0.51357 l -1.25,2.01539 -1.25,2.01539 3.44809,6.47104 3.44809,6.47104 h 0.60505 0.60505 l 4.19686,-5.95114 L 492,215.09772 v -1.48147 -1.48147 L 490,211.5 488,210.86522 V 209.93261 209 h 6 6 v 0.95031 0.95031 l -1.29642,0.79969 -1.29642,0.79969 -6.70358,9.74953 L 484,231.99906 v 6.06621 6.06621 l 1.03518,1.93426 1.03519,1.93426 h 1.54815 1.54815 l -0.41333,1.25 -0.41332,1.25 -7.17001,0.29381 L 474,251.08762 Z"
         id="path8" />
      <path
         style="fill:#a3a3a3;fill-opacity:1"
         d="m 154,307 v -2 h 0.91667 0.91666 l 0.35241,1.05723 0.35241,1.05723 1.76648,-0.67786 1.76648,-0.67787 4.58508,-6.4254 4.58507,-6.4254 -0.6107,-0.6107 -0.6107,-0.6107 -2.53245,2.73256 -2.53246,2.73256 -1.15603,-0.38534 -1.15603,-0.38535 -1.02941,-1.63194 -1.0294,-1.63195 1.86295,-2.05853 L 162.30998,289 h 1.35858 1.35858 l 2.05156,1.25 2.05156,1.25 1.68487,-2.10511 1.68487,-2.10511 3.22939,-4.64489 L 178.95878,278 H 179.97939 181 v 1.94098 1.94099 l -1.15451,0.71352 -1.15451,0.71353 0.71353,-1.15451 L 180.11803,281 h -1.08104 -1.08104 l -2.99931,4.72943 -2.99932,4.72943 1.77134,0.70028 1.77134,0.70029 -2.15498,0.0703 -2.15498,0.0703 -2.64054,4.50575 -2.64054,4.50574 -3.79964,3.99426 L 158.30967,309 H 156.15484 154 Z m 11.03517,-13.54238 1.28007,-1.54238 L 165.2,290.8 l -1.11524,-1.11524 -1.54238,1.28007 L 161,292.24489 V 293.62244 295 h 1.37756 1.37755 z M 96,288.28945 v -0.71055 l 2.25,-5.81319 2.25,-5.81319 1.34503,0.27374 1.34503,0.27374 2.40404,5.91759 2.40405,5.9176 -0.58084,0.58083 -0.58083,0.58084 L 105.558,287.74843 104.27951,286 h -2.53276 -2.532772 l -0.575604,1.5 -0.575604,1.5 H 97.031385 96 Z m 7,-5.73043 v -1.44099 l -0.88631,-0.54777 -0.88631,-0.54777 -0.52007,1.98876 L 100.18724,284 H 101.59362 103 Z m 18,-0.11652 v -6.5575 l 4.14816,0.3075 4.14815,0.3075 1.09455,1.74654 1.09455,1.74655 -1.26556,2.02649 -1.26556,2.02648 1.10387,2.06262 1.10388,2.06261 -0.66252,0.66253 -0.66253,0.66252 -2.0019,-2.74817 L 125.83319,284 H 124.41659 123 v 2.5 2.5 h -1 -1 z m 7.5,-2.9425 v -1 l -2.75,-0.31642 -2.75,-0.31642 v 1.63284 1.63284 l 2.75,-0.31642 2.75,-0.31642 z m 19.5,4 V 278 h -1.94098 -1.94099 L 143.5,277 142.88197,276 H 148.44098 154 v 1 1 h -2 -2 v 5.5 5.5 h -1 -1 z m 65,-0.91667 V 276 h 1.54772 1.54771 l -0.29771,6.17063 -0.29772,6.17063 -1.25,0.4127 -1.25,0.41271 z M 231,282.5 V 276 h 0.98581 0.98581 l 2.76419,4.19339 2.76419,4.19339 0.3075,-4.19339 L 239.115,276 H 240.0575 241 v 6.5 6.5 h -0.88166 -0.88166 l -3.10658,-4.75 -3.10657,-4.75 -0.0118,4.75 L 233,289 h -1 -1 z m 29,6.27295 v -0.39372 L 257.57431,282.18961 255.14862,276 h 1.274 1.274 l 1.74532,4.25 1.74532,4.25 1.4897,-4.25 1.48971,-4.25 h 1.3709 1.3709 l -2.33458,6.21011 -2.33457,6.21012 -1.11966,0.37322 L 260,289.16667 Z M 281,282.5 V 276 h 4.5 4.5 v 1 1 h -3.5 -3.5 v 1.5 1.5 h 3 3 v 1 1 h -3 -3 v 2 2 h 3.5 3.5 v 1 1 h -4.5 -4.5 z m 24,0 V 276 h 0.98581 0.98581 l 2.76419,4.19339 2.76419,4.19339 0.3075,-4.19339 L 313.115,276 H 314.0575 315 v 6.5 6.5 h -0.86711 -0.86712 l -2.88288,-4.25 -2.88289,-4.25 -0.3075,4.25 -0.3075,4.25 H 305.9425 305 Z m 28.66667,5.83333 L 333,287.66667 V 282.83333 278 h -2 -2 v -1 -1 h 5.5 5.5 v 1 1 h -2 -2 v 5.5 5.5 h -0.83333 -0.83334 z M 354,282.58333 V 276 h 1.54772 1.54771 l -0.29771,6.17063 -0.29772,6.17063 -1.25,0.4127 -1.25,0.41271 z m 18.75,5.33657 -1.75,-1.01928 V 282.65031 278.4 l 1.2,-1.2 1.2,-1.2 h 3.26482 3.26481 l 1.03519,1.93426 1.03518,1.93426 v 2.34323 2.34324 l -1.5567,2.2225 L 378.88659,289 376.6933,288.9696 374.5,288.9392 Z M 378.5,282.5 v -3.97261 l -1.88017,-0.36209 -1.88018,-0.36209 -0.85451,1.3484 -0.85451,1.34839 -0.0153,2.05 -0.0153,2.05 1.22919,1.22919 1.22918,1.22918 1.52082,-0.29288 1.52081,-0.29288 z m 16.5,0 V 276 l 1.25,0.007 1.25,0.007 2.73416,4.24281 2.73416,4.2428 0.0158,-4.25 L 403,276 h 1 1 v 6.5 6.5 h -0.88166 -0.88166 l -3.10658,-4.75 -3.10657,-4.75 -0.0118,4.75 L 397,289 h -1 -1 z M 11.491423,249.2032 7.4828451,247.31396 4.3090232,243.69918 1.1352014,240.08439 0.44463219,235.47935 -0.24593699,230.8743 0.2567512,226.41447 0.75943938,221.95463 3.3634917,218.22732 5.967544,214.5 9.6648515,212 l 3.6973075,-2.5 9.06892,9.1e-4 9.068921,9e-4 -0.1,1.2491 L 31.3,212 31.15,216 31,220 h -1 -1 v -1.54545 -1.54546 L 26.545455,214.45455 24.090909,212 h -3.144325 -3.144326 l -3.435233,1.63013 -3.435234,1.63012 -2.4658956,4.20773 L 6,223.67572 v 5.34641 5.34642 l 2.1365091,4.41344 2.1365089,4.41344 3.113491,1.89938 3.113491,1.89937 3.254413,0.61503 3.254412,0.61503 2.54386,-1.6668 2.54386,-1.6668 -0.298273,-5.69532 L 27.5,233.5 24.25,233.18664 21,232.87328 v -1.35458 -1.35458 l 7.087577,-0.33206 7.087577,-0.33206 0.377118,0.38136 0.377118,0.38136 -1.464695,2.09115 L 33,234.44501 v 4.84324 4.84323 l 1.040242,1.94371 1.040242,1.94371 -2.790242,1.07454 -2.790242,1.07454 -7,0.46223 -7,0.46223 z m 57.801483,0.78151 -2.207093,-0.88852 -2.32137,-3.79809 L 62.443073,241.5 60.050599,236.25 57.658125,231 H 54.329063 51 v 7.37756 7.37755 L 52.5,247 54,248.24489 V 249.12244 250 H 48.5 43 v -0.87756 -0.87755 l 1.523535,-1.26442 1.523536,-1.26442 L 45.773535,229.10802 45.5,212.5 43.25,212.18045 41,211.8609 V 210.43045 209 h 10.532119 10.532118 l 3.38739,1.41534 3.38739,1.41534 1.080492,2.01892 L 71,215.86852 v 3.95998 3.95999 l -2.75,2.94072 -2.75,2.94073 -1.473651,0.48958 -1.473651,0.48958 3.255917,6.61371 3.255917,6.6137 2.967734,2.49719 L 75,248.87088 V 249.93544 251 l -1.75,-0.0634 -1.75,-0.0634 z M 64.166129,225.04317 66,222.77843 V 219.38922 216 l -2,-2 -2,-2 H 56.5 51 v 8.12383 8.12383 l 5.666129,-0.46988 5.666129,-0.46988 z m 60.727141,24.45992 -2.60673,-1.41683 -1.89327,-2.79313 L 118.5,242.5 l -0.33798,-15.15637 -0.33797,-15.15638 -1.91203,-0.50001 -1.91202,-0.5 V 210.09362 209 h 8.08333 8.08334 l -0.40748,1.22242 -0.40747,1.22241 -2.42586,0.5753 -2.42586,0.57529 v 15.09981 15.09981 l 1.90499,2.10248 1.90499,2.10248 h 3.78924 3.78925 l 2.80577,-2.411 2.80576,-2.41101 0.32256,-14.51498 0.32256,-14.51498 -2.07256,-1.1092 L 138,210.92963 V 209.96482 209 h 6 6 v 0.93261 0.93261 l -2,0.63478 -2,0.63478 v 14.78472 14.78473 l -2.28002,3.38332 -2.28001,3.38331 -2.46999,1.24983 -2.46998,1.24983 -4.5,-0.0253 -4.5,-0.0253 z M 163.25,250.20956 155,249.91912 v -0.71902 -0.71901 l 2,-1.24902 2,-1.24902 V 230.57331 215.16357 L 158.39301,213.58179 157.78602,212 H 156.39301 155 v -1.5 -1.5 h 10.92327 10.92328 l 3.00321,2.52703 3.0032,2.52703 0.63695,2.89998 0.63694,2.89998 -1.52644,2.95181 -1.52644,2.95181 -1.71486,0.65805 -1.71486,0.65805 3.63227,2.46819 3.63227,2.46819 0.965,3.49494 0.965,3.49494 -0.92501,3.35009 -0.925,3.35009 -2.02567,1.8332 -2.02566,1.8332 -4.71873,0.56671 L 171.5,250.5 Z M 177.77749,245.4433 180,243.88659 v -4.48875 -4.48875 l -2.38827,-2.38827 -2.38827,-2.38827 -3.51187,-0.65883 -3.51186,-0.65883 -1.84987,0.35277 -1.84986,0.35277 -0.34539,2.43693 -0.34538,2.43692 0.67498,6.30286 0.67498,6.30286 h 5.1979 5.1979 z m -1.41714,-22.35921 1.88965,-1.88965 v -2.78679 -2.78679 l -2.29488,-1.85829 -2.29488,-1.85828 -4.58012,0.29786 L 164.5,212.5 l -0.3068,5.3808 -0.30679,5.3808 0.57653,1.50242 0.57653,1.50242 4.71562,-0.64635 4.71561,-0.64635 z m 155.61097,25.88139 -3.52867,-2.10562 -2.21526,-3.23296 -2.21527,-3.23296 -1.13553,-5.65425 -1.13554,-5.65425 1.20491,-4.79272 1.20491,-4.79272 2.06979,-3.35302 2.06979,-3.35301 3.10478,-1.89325 3.10477,-1.89324 4.81574,-0.004 4.81574,-0.004 2.18426,1.12219 2.18426,1.12218 2.72327,2.5393 2.72327,2.53929 1.65307,4.97693 1.65307,4.97693 -0.51541,5.68398 -0.5154,5.68398 -2.0883,4.0934 -2.08829,4.09339 -3.18101,2.26508 -3.181,2.26507 -5.09164,0.35469 -5.09163,0.35469 z m 10.85256,-2.05393 3.12233,-1.08845 2.14706,-3.47402 2.14706,-3.47402 0.49136,-6.18753 0.49136,-6.18753 -1.19262,-4.40802 -1.19262,-4.40801 -2.84198,-2.84199 L 343.15385,212 h -2.52987 -2.52987 l -2.62727,1.19706 -2.62726,1.19706 -1.79995,3.55294 -1.79996,3.55294 -0.69363,4.16651 -0.69363,4.16651 0.69132,4.60999 0.69131,4.60999 2.16249,3.20893 2.1625,3.20893 2.46999,1.24983 2.46998,1.24983 0.60078,0.0147 0.60077,0.0147 z m 45.82561,2.02738 -2.7333,-2.15002 -3.96926,-7.89445 L 377.97768,231 H 374.98884 372 v 8.03138 8.03139 l 1.5,0.5756 1.5,0.57561 V 249.10699 250 h -6 -6 v -0.89301 -0.89301 l 1.5,-0.57561 1.5,-0.5756 V 230.00663 212.9505 l -2.66284,-1.01241 -2.66284,-1.01241 1.0736,-1.0736 1.0736,-1.0736 11.68022,0.37078 11.68023,0.37078 3.02166,3.38183 3.02166,3.38182 -0.55094,4.10756 -0.55094,4.10755 -3.6106,3.30887 -3.6106,3.30886 0.68917,2.19174 0.68917,2.19173 3.00452,5.33741 3.00451,5.33741 2.3811,1.0849 2.38111,1.08491 -0.35422,1.07768 -0.35423,1.07769 -1.98027,0.29447 -1.98028,0.29447 z m -6.30681,-22.0492 2.43678,-1.11027 1.11027,-2.43678 L 387,220.90589 v -1.81808 -1.81809 L 384.92742,214.63486 382.85484,212 H 377.42742 372 v 8 8 h 3.95295 3.95294 z m 20.11681,22.61027 -0.2896,-1 -0.56582,-4.75 -0.56581,-4.75 h 1.00562 1.00562 l 0.87108,2.2911 0.87107,2.29109 1.39331,1.15635 1.3933,1.15634 4.64603,1.24262 4.64602,1.24262 2.53726,-1.15605 2.53725,-1.15605 0.636,-2.53401 0.636,-2.53401 -0.58143,-2.31658 -0.58142,-2.31658 -2.27699,-1.1037 -2.27698,-1.1037 -5.5922,-2.45215 -5.59219,-2.45215 -2.15781,-2.31613 L 402,224.62288 v -4.29566 -4.29567 l 2.91738,-3.26577 2.91738,-3.26578 9.08262,-0.11218 L 426,209.27565 v 4.80316 4.80316 l -1.02587,0.63402 -1.02587,0.63402 -1.07932,-3.09611 -1.07931,-3.09612 -1.82907,-0.97889 L 418.13148,212 h -3.91075 -3.91075 l -1.65499,1.82874 L 407,215.65748 v 3.01627 3.01627 l 1.75,1.52531 1.75,1.5253 6.15132,2.72196 6.15131,2.72196 2.83053,2.95444 2.83053,2.95443 -0.10446,3.98379 -0.10446,3.98379 -1.87502,2.07188 -1.87503,2.07188 -2.77627,1.43566 -2.77627,1.43567 -8.10155,-0.28804 L 402.74909,250.5 Z M 81,249.42857 v -0.57143 l 1.5,-1.5 1.5,-1.5 V 229.55102 213.24489 L 82.5,212 81,210.75511 V 209.87756 209 h 13 13 v 3 3 h -1.07143 -1.07143 l -1.5,-1.5 -1.5,-1.5 h -5.797726 -5.797729 l -0.619837,3.75 -0.619837,3.75 -0.01101,4.25 L 89,228 h 5.464816 5.464816 L 101,226 l 1.07037,-2 H 103.03518 104 v 6 6 h -0.98095 -0.98095 l -0.62746,-2.5 -0.62746,-2.5 H 94.891592 89 l 0.01365,5.75 0.01365,5.75 0.602977,2.25 0.602977,2.25 H 96.616631 103 l 2,-2 2,-2 v -1.5 -1.5 h 1 1 v 1.875 1.875 l -0.625,3.125 L 107.75,250 H 94.375 81 Z m 112,0 v -0.57143 l 1.5,-1.5 1.5,-1.5 V 229.55102 213.24489 L 194.5,212 193,210.75511 V 209.87756 209 h 13 13 v 3 3 h -1.07143 -1.07143 l -1.5,-1.5 -1.5,-1.5 H 208.05357 202.25 l -0.625,3.125 -0.625,3.125 v 4.875 4.875 h 5.46482 5.46481 L 213,226 l 1.07037,-2 H 215.03518 216 v 6 6 h -0.98095 -0.98095 l -0.62746,-2.5 -0.62746,-2.5 H 206.89159 201 l 0.0137,5.75 0.0137,5.75 0.60298,2.25 0.60297,2.25 H 208.61663 215 l 2,-2 2,-2 v -1.5 -1.5 h 1 1 v 1.875 1.875 l -0.625,3.125 L 219.75,250 H 206.375 193 Z M 229.92742,247.36514 232,244.73028 v -15.82995 -15.82996 l -2.02801,-1.08536 -2.02801,-1.08536 0.58703,-0.94982 L 229.11803,209 H 235.05902 241 v 1.38337 1.38337 l -2,0.52301 -2,0.52301 v 16.48663 16.48663 l 1.58179,0.60699 L 240.16357,247 H 245.08179 250 l 2,-2 2,-2 v -1.5 -1.5 h 1.56739 1.56739 l -0.49274,1.75 -0.49273,1.75 -0.65411,3.25 -0.65411,3.25 H 241.34796 227.85484 Z M 288,249.36024 v -0.63975 l 1.70069,-1.24358 1.70069,-1.24358 0.41873,-12.5775 0.41872,-12.57751 -0.68069,-4.53916 L 290.87745,212 H 289.43873 288 v -1.5 -1.5 h 15.60699 15.60699 l -0.60699,1.58179 L 318,212.16357 V 215.08179 218 h -0.76287 -0.76287 l -0.98713,-2.25 -0.98713,-2.25 -5.16711,-0.87684 -5.16712,-0.87684 -3.58288,0.67215 L 297,213.09063 V 220.04531 227 h 5.89301 5.89301 l 0.57561,-1.5 0.5756,-1.5 H 310.96862 312 v 5.5 5.5 h -1.5 -1.5 v -2 -2 h -6 -6 v 7.55202 7.55202 l 3,1.0458 3,1.04581 V 249.09783 250 h -7.5 -7.5 z m 146,-0.25325 v -0.89301 l 1.5,-0.57561 1.5,-0.5756 v -17.4244 -17.42439 l -1.56338,-0.59993 -1.56338,-0.59992 0.62239,-1.00707 L 435.11803,209 H 447.55902 460 v 3 3 h -0.87756 -0.87755 L 457,213.5 455.75511,212 H 449.37756 443 v 8 8 h 4.41821 4.41822 l 1.58178,-0.60699 L 455,226.78602 V 225.39301 224 h 1 1 v 6 6 h -0.93045 -0.93045 l -0.31955,-2.25 -0.31955,-2.25 -5.79299,-0.30119 -5.79298,-0.30118 0.29298,7.80118 0.29299,7.80119 5.72395,0.29913 5.72395,0.29912 2.07392,-1.10993 2.07392,-1.10992 0.92738,-2.4392 L 460.9505,240 H 461.97525 463 l -0.006,1.25 -0.006,1.25 -1.04143,3.75 -1.04143,3.75 H 447.453 434 Z m 40,-0.0374 v -0.93045 l 2.25,-0.31955 2.25,-0.31955 0.29298,-7.80067 0.29297,-7.80068 -4.29297,-8.10236 -4.29298,-8.10236 -2.75,-2.77004 -2.75,-2.77004 V 209.57692 209 h 6.5 6.5 v 0.51357 0.51357 l -1.25,2.00416 -1.25,2.00415 3.35912,6.48228 3.35912,6.48227 h 0.74599 0.74599 l 4.14489,-5.90895 L 492,215.1821 v -1.52366 -1.52366 L 490,211.5 488,210.86522 V 209.93261 209 h 6 6 v 0.95031 0.95031 l -1.31664,0.79969 -1.31664,0.79969 -6.68336,9.64302 L 484,231.78604 v 6.17272 6.17272 l 1.03518,1.93426 L 486.07037,248 H 487.53518 489 v 1 1 h -7.5 -7.5 z"
         id="path7" />
      <path
         style="fill:#8c8c8c;fill-opacity:1"
         d="m 154,306.87756 v -2.12245 l 1.49499,1.24074 1.495,1.24073 2.31201,-1.51489 2.31202,-1.51489 3.85939,-5.60367 3.85939,-5.60366 -0.65647,-0.65647 -0.65647,-0.65647 -2.46218,2.65673 L 163.0955,297 h -0.92531 -0.9253 l -1.24074,-1.49499 -1.24073,-1.495 1.64134,-2.505 L 162.04611,289 h 1.91793 1.91793 l 0.61803,1 0.61803,1 1.69099,-0.0625 1.69098,-0.0625 4,-6.13611 4,-6.13611 1.25,-0.38469 1.25,-0.3847 v 2.05195 2.05195 l -1.46314,-0.56146 -1.46315,-0.56146 -3.05819,4.82227 -3.0582,4.82228 1.77134,0.70028 1.77134,0.70029 -2.16423,0.0703 -2.16422,0.0703 -2.93314,4.76695 -2.93313,4.76696 -3.52072,3.73304 L 158.26385,309 H 156.13192 154 Z m 11.35745,-14.0796 1.07181,-1.70203 -0.76259,-0.7626 -0.7626,-0.76259 -1.70203,1.07181 -1.70204,1.07182 -0.34081,1.73363 -0.34082,1.73363 1.73363,-0.34082 1.73363,-0.34081 z M 96.577403,286.75 l 0.712178,-2.25 1.85537,-4.33328 1.855369,-4.33328 1.11466,0.37155 1.11465,0.37155 1.88437,4.96173 1.88437,4.96173 -0.031,1.5 -0.031,1.5 -1.32844,-1.75 -1.32844,-1.75 h -2.67114 -2.67114 l -0.575604,1.5 -0.575604,1.5 H 96.825624 95.865225 Z M 103,282.55902 v -1.44099 l -1,-0.61803 -1,-0.61803 v 0.47723 0.47723 l -0.60699,1.58178 L 99.786022,284 H 101.39301 103 Z M 121,282.5 V 276 h 3.87756 3.87755 l 1.26947,1.52961 1.26946,1.52962 -1.15162,2.52753 -1.15162,2.52753 1.08562,2.0285 1.08562,2.0285 -0.66278,0.66278 -0.66278,0.66279 -1.16824,-1.66181 -1.16824,-1.66181 -1.06186,-1.76191 -1.06186,-1.76192 -1.18814,0.73431 L 123,284.11803 V 286.55902 289 h -1 -1 z m 6.09375,-1.55017 1.96227,-1.05018 -0.58703,-0.94982 L 127.88197,278 H 125.44098 123 v 1.33333 1.33334 l 0.66667,0.66666 0.66666,0.66667 h 0.39908 0.39907 z M 148,283.5 V 278 h -2 -2 v -1 -1 h 5 5 v 1 1 h -2 -2 v 5.5 5.5 h -1 -1 z m 65,-1 V 276 h 1 1 v 6.5 6.5 h -1 -1 z m 18,0 V 276 h 0.98581 0.98581 l 2.76419,4.19339 2.76419,4.19339 0.3075,-4.19339 L 239.115,276 H 240.0575 241 v 6.5 6.5 h -0.88166 -0.88166 l -3.10658,-4.75 -3.10657,-4.75 -0.0118,4.75 L 233,289 h -1 -1 z m 27.07185,0.96249 L 256,277.92497 V 276.96249 276 h 0.95986 0.95986 l 1.19843,4 1.19843,4 H 261 h 0.68342 l 1.19843,-4 1.19843,-4 h 1.38555 1.38555 l -2.42569,6.18961 L 262,288.37923 V 288.68961 289 h -0.92815 -0.92815 z M 281,282.5 V 276 h 4.5 4.5 v 1 1 h -3.5 -3.5 v 1.5 1.5 h 3 3 v 1 1 h -3 -3 v 2 2 h 3.5 3.5 v 1 1 h -4.5 -4.5 z m 24,0 V 276 h 0.98581 0.98581 l 2.76419,4.19339 2.76419,4.19339 0.3075,-4.19339 L 313.115,276 H 314.0575 315 v 6.5 6.5 h -0.88166 -0.88166 l -3.10658,-4.75 -3.10657,-4.75 -0.0118,4.75 L 307,289 h -1 -1 z m 29,1 V 278 h -1.94098 -1.94099 L 329.5,277 328.88197,276 H 334.44098 340 v 1 1 h -2 -2 v 5.5 5.5 h -1 -1 z m 20,-1 V 276 h 1 1 v 6.5 6.5 h -1 -1 z m 18.57143,4.92857 L 371,285.85714 V 282.12857 278.4 l 1.2,-1.2 1.2,-1.2 2.55,0.0153 2.55,0.0153 1.47727,0.93416 1.47728,0.93417 v 3.92421 3.92421 l -1.34972,1.62631 L 378.75511,289 h -2.30613 -2.30612 z M 378.5,282.5 v -4 h -2.4863 -2.48631 l -0.35225,1.82909 -0.35225,1.8291 0.6239,2.48582 0.6239,2.48583 2.21466,-0.31492 L 378.5,286.5 Z m 16.5,0 V 276 h 0.98581 0.98581 l 2.76419,4.19339 2.76419,4.19339 0.3075,-4.19339 L 403.115,276 H 404.0575 405 v 6.5 6.5 h -0.88166 -0.88166 l -3.10658,-4.75 -3.10657,-4.75 -0.0118,4.75 L 397,289 h -1 -1 z M 11.5,249.10996 7.5,247.26384 5.2977278,244.86827 3.0954557,242.47271 1.5477278,238.76847 0,235.06424 0.021962,230.28212 0.043924,225.5 l 1.8270087,-4 1.8270088,-4 3.3178614,-3.22751 3.3178611,-3.2275 3.331335,-1.09944 3.331334,-1.09944 6.751833,0.41976 6.751834,0.41976 0.25,0.65719 L 31,211 v 4.5 4.5 h -1 -1 v -1.92742 -1.92742 L 26.365141,214.07258 23.730283,212 H 20.59954 17.468797 L 13.984398,213.8541 10.5,215.7082 8.2664504,219.6041 6.0329008,223.5 6.0164504,229.41214 6,235.32428 l 2.4590163,4.196 2.4590167,4.19599 2.30565,1.51072 2.305651,1.51072 3.301382,0.72511 3.301382,0.7251 2.978045,-1.23354 2.978046,-1.23355 -0.294095,-6.11041 L 27.5,233.5 24.25,233.18664 21,232.87328 V 231.43664 230 h 7 7 v 0.94098 0.94099 l -1.120749,0.69266 -1.120749,0.69266 0.452666,7.81954 0.452666,7.81954 -4.881138,1.04681 L 23.901558,251 19.700779,250.97804 15.5,250.95608 Z m 113.81471,0.42638 -3.18528,-1.38537 -1.7984,-3.32549 -1.7984,-3.32548 -0.35726,-14.71148 -0.35726,-14.71147 -1.90905,-0.60591 L 114,210.86522 V 209.93261 209 h 8 8 v 0.90217 0.90218 l -3.07246,1.07106 -3.07246,1.07107 0.32246,14.92493 0.32246,14.92493 1.90499,2.10183 1.90499,2.10183 h 3.29795 3.29796 l 2.43679,-1.11027 2.43678,-1.11027 1.11027,-2.43678 L 142,239.90589 V 226.02033 212.13478 L 140,211.5 138,210.86522 V 209.93261 209 h 6 6 v 0.93261 0.93261 l -2,0.63478 -2,0.63478 -0.004,14.68261 -0.004,14.68261 -2.01815,3.31018 -2.01816,3.31017 -3.44599,1.43983 -3.44598,1.43982 -3.28212,-0.0391 -3.28212,-0.0391 z m 208.6858,0.34021 -2.49948,-0.99668 -2.34784,-2.18994 -2.34783,-2.18993 -2.08289,-4 -2.0829,-4 -0.0257,-6.50898 -0.0257,-6.50898 2.29171,-4.73404 2.29171,-4.73404 3.07253,-2.18784 3.07254,-2.18784 5.17807,-0.42941 5.17806,-0.4294 3.11188,1.60921 3.11187,1.60922 2.5795,3.38189 2.5795,3.3819 1.12469,5.36915 1.1247,5.36916 -0.68254,4.5 -0.68253,4.5 -2.22408,4 -2.22408,4 -4.45778,2.25 -4.45777,2.25 -3.03811,-0.0634 -3.03811,-0.0634 z m 10.12773,-3.44287 3.02893,-1.56631 1.89945,-4.18369 1.89946,-4.18368 v -6.5 -6.5 l -1.86983,-4.1175 -1.86982,-4.1175 -2.33072,-1.6325 L 342.55499,212 h -2.32716 -2.32715 l -2.81549,1.45595 -2.8155,1.45595 -1.71414,3.61228 -1.71414,3.61228 -0.53081,5.18177 -0.53081,5.18177 1.1135,4.11945 1.11349,4.11946 2.13473,2.71386 2.13472,2.71386 2.11189,0.8533 2.11188,0.8533 1.29966,0.0634 1.29966,0.0634 z m 58.45802,1.5973 -0.47644,-2.53098 -0.63437,-3.25 -0.63436,-3.25 h 1.10421 1.1042 l 0.93062,2.4477 0.93061,2.4477 2.55906,1.67676 2.55907,1.67677 4.36869,0.49241 4.36869,0.49242 2.11688,-2.11688 L 423,244 v -2.80887 -2.80887 l -1.25,-1.67951 -1.25,-1.67951 -6.4492,-2.51538 -6.44921,-2.51538 -2.80079,-2.68333 L 402,224.62582 v -4.0904 -4.09041 l 1.5607,-2.22822 1.56071,-2.22821 2.96763,-1.53462 2.96762,-1.53462 7.47167,0.2869 L 426,209.49315 V 214.24657 219 h -0.97432 -0.97432 l -1.52728,-2.95344 -1.52728,-2.95344 -3.58351,-0.98945 -3.5835,-0.98945 -2.64454,1.00545 -2.64455,1.00545 -0.75504,1.18744 -0.75503,1.18744 -0.0153,3.09501 -0.0153,3.09501 1.75,1.55243 1.75,1.55242 6.5,2.95151 6.5,2.9515 1.6804,1.90289 1.68039,1.90289 0.95036,2.49964 0.95036,2.49963 -1.13075,3.40487 -1.13076,3.40487 -2.82388,2.09367 -2.82388,2.09366 -8.89477,0.031 -8.89477,0.031 z M 43,249.42857 v -0.57143 l 1.523748,-1.52374 1.523747,-1.52375 L 45.773748,229.15482 45.5,212.5 43.25,212.18045 41,211.8609 V 210.43045 209 l 9.75,0.006 9.75,0.006 3.720517,1.03329 3.720517,1.03329 1.529483,2.18364 L 71,215.44501 v 3.32716 3.32715 l -1.414686,2.7357 -1.414687,2.7357 -2.585313,1.38362 L 63,230.33796 v 0.94104 0.94105 l 3.166714,5.94136 3.166715,5.94136 2.833285,2.38406 L 75,248.87088 V 249.43544 250 H 71.57258 68.14516 L 66.32258,247.66123 64.5,245.32246 61.056809,238.16123 57.613617,231 H 54.306809 51 v 7.37756 7.37755 L 52.5,247 54,248.24489 V 249.12244 250 H 48.5 43 Z M 63.544236,225.71561 66.2,223.43122 v -3.92543 -3.92542 L 63.989216,213.79018 61.778432,212 H 56.389216 51 v 8 8 h 4.944236 4.944237 z M 81,249.10699 v -0.89301 l 1.5,-0.57561 1.5,-0.5756 V 230.15383 213.24489 L 82.5,212 81,210.75511 V 209.87756 209 h 13 13 v 2.33333 2.33334 l -0.63136,0.63136 -0.63136,0.63136 -2.09115,-1.4647 L 101.55499,212 H 95.884483 90.213978 L 89.606989,213.58179 89,215.16357 V 221.58179 228 h 5.491526 5.491526 l 1.249018,-2 1.24902,-2 H 103.24055 104 v 6 6 h -0.89159 -0.89159 l -0.62746,-2.5 -0.62746,-2.5 h -6.023016 -6.023013 l 0.292065,7.75 0.292064,7.75 6.227664,0.29714 6.227666,0.29714 2.01053,-1.07601 2.01053,-1.076 0.62021,-2.47113 L 107.21682,240 H 108.10841 109 v 1.875 1.875 l -0.625,3.125 L 107.75,250 H 94.375 81 Z m 74,0.13356 v -0.75946 l 2,-1.24902 2,-1.24902 v -16.58514 -16.58515 l -2,-0.52301 -2,-0.52301 V 210.38337 209 l 10.25,0.0147 10.25,0.0147 2.5,1.24315 2.5,1.24316 1.75467,3.57949 1.75467,3.57949 -1.10986,3.18372 -1.10985,3.18373 -2.0164,1.07914 -2.0164,1.07915 2.63721,1.72998 2.63721,1.72999 1.45257,1.91976 1.45257,1.91976 0.0318,4.67308 0.0318,4.67307 -3.07692,3.07693 -3.07692,3.077 H 167.42308 155 Z m 22.29787,-3.43845 1.79787,-0.9237 0.98214,-2.58324 0.98215,-2.58324 -1.06766,-3.23504 -1.06766,-3.23504 -1.85917,-1.68252 -1.85916,-1.68253 -5.60319,-0.5783 L 164,228.72019 v 8.06848 8.06847 l 1.57177,1.57177 1.57177,1.57177 4.17823,-0.63744 4.17823,-0.63744 z m -3.58493,-20.85188 3.01139,-1.04977 1.11459,-2.44626 1.11459,-2.44626 -0.92889,-2.44317 -0.92888,-2.44316 -2.08608,-1.11643 -2.08607,-1.11643 -4.2118,0.30563 L 164.5,212.5 l -0.3068,5.3808 -0.30679,5.3808 0.52541,1.3692 0.52541,1.3692 h 2.88216 2.88216 z M 193,249.42857 v -0.57143 l 1.5,-1.5 1.5,-1.5 V 229.55102 213.24489 L 194.5,212 193,210.75511 V 209.87756 209 h 13 13 v 2.33333 2.33334 l -0.63136,0.63136 -0.63136,0.63136 -2.09115,-1.4647 L 213.55499,212 h -5.67051 -5.6705 l -0.60699,1.58179 L 201,215.16357 V 221.58179 228 h 5.49153 5.49152 l 1.24902,-2 1.24902,-2 H 215.24055 216 v 6 6 h -0.89159 -0.89159 l -0.62746,-2.5 -0.62746,-2.5 h -6.02302 -6.02301 l 0.29207,7.75 0.29206,7.75 6.22766,0.29714 6.22767,0.29714 2.01053,-1.07601 2.01053,-1.076 0.62021,-2.47113 L 219.21682,240 H 220.10841 221 v 1.875 1.875 l -0.625,3.125 L 219.75,250 H 206.375 193 Z m 36,0 v -0.57143 l 1.5,-1.5 1.5,-1.5 V 229.55102 213.24489 L 230.5,212 229,210.75511 V 209.87756 209 h 6 6 v 1.09362 1.09362 l -2.02309,0.52905 -2.02308,0.52905 0.27308,17.12733 L 237.5,246.5 l 4.93373,0.31229 4.93373,0.3123 2.29808,-0.57678 2.29808,-0.57678 1.71789,-3.23552 1.71789,-3.23551 0.39285,1.84986 0.39286,1.84987 -0.63787,3.40013 L 254.90937,250 H 241.95469 229 Z m 59,-0.0683 v -0.63975 l 1.75,-1.27964 1.75,-1.27963 V 229.5103 212.85935 L 289.75,211.88 288,210.90065 V 209.95031 209 h 15 15 v 4.5 4.5 h -0.89159 -0.89159 l -0.61223,-2.4393 -0.61222,-2.4393 -4.24619,-0.63355 L 306.5,211.8543 302,212.17715 297.5,212.5 v 7.5 7.5 l 5.5,-0.30275 5.5,-0.30275 0.95,-0.94725 L 310.4,225 h 0.8 0.8 v 5 5 h -1.5 -1.5 v -2 -2 h -6 -6 v 7.58686 7.58687 l 3,1.13237 3,1.13238 V 249.21924 250 h -7.5 -7.5 z m 75,-0.25325 v -0.89301 l 1.5,-0.57561 1.5,-0.5756 v -17.125 -17.12501 l -2,-0.52301 -2,-0.52301 V 210.38337 209 h 10.03212 10.03212 l 3.3901,1.41647 3.3901,1.41648 1.70548,2.60289 1.70548,2.60289 -0.58381,3.73064 -0.5838,3.73063 -3.5439,3.10598 L 384,230.71195 v 1.29793 1.29792 l 3.58176,6.40479 3.58177,6.4048 2.41823,1.10182 L 396,248.32103 V 249.16052 250 h -3.32569 -3.32568 l -2.06699,-2.25 -2.06699,-2.25 -3.6199,-7.25 -3.61989,-7.25 H 374.98743 372 v 8.03138 8.03139 l 1.5,0.5756 1.5,0.57561 V 249.10699 250 h -6 -6 z m 22.1049,-24.19981 1.85063,-2.40718 0.0222,-3.06144 L 387,216.37712 384.96104,214.18856 382.92209,212 H 377.46104 372 v 8.12383 8.12383 l 5.62713,-0.46665 5.62714,-0.46664 z M 434,249.36024 v -0.63975 l 1.62766,-1.19018 1.62767,-1.19018 0.12233,-16.61993 L 437.5,213.10027 436.25,211.85014 435,210.6 v -0.8 -0.8 h 12.5 12.5 v 3 3 h -0.57143 -0.57143 l -1.5,-1.5 -1.5,-1.5 H 449.42857 443 v 8 8 h 5.59362 5.59362 l 0.52301,-2 0.52301,-2 H 456.11663 457 v 6 6 h -0.93045 -0.93045 L 454.81955,233.75 454.5,231.5 448.75,231.2001 443,230.90019 V 238.9501 247 h 6.54545 6.54546 l 2.45454,-2.45455 L 461,242.09091 V 241.04545 240 h 1.07946 1.07945 l -0.65411,3.25 -0.65411,3.25 -0.49273,1.75 -0.49274,1.75 H 447.43261 434 Z m 40,-0.29069 v -0.93045 l 2.25,-0.31955 2.25,-0.31955 0.29298,-7.80067 0.29297,-7.80068 -4.29297,-8.10236 -4.29298,-8.10236 -2.75,-2.77004 -2.75,-2.77004 V 209.57692 209 h 6.5 6.5 v 0.94098 0.94099 l -1,0.61803 -1,0.61803 v 1.88741 1.88741 l 3.60043,6.14319 3.60043,6.1432 4.39957,-6.55822 L 492,215.0628 v -1.62502 -1.62502 l -1.98875,-0.52007 -1.98876,-0.52007 0.54777,-0.88631 L 489.11803,209 H 494.55902 500 v 1.03138 1.03139 l -1.39083,0.53371 -1.39083,0.53371 -6.65185,9.99071 -6.65186,9.99071 0.29269,7.19419 0.29268,7.1942 2.25,0.98713 2.25,0.98713 V 249.23713 250 h -7.5 -7.5 z"
         id="path6" />
      <path
         style="fill:#767676;fill-opacity:1"
         d="m 154,306.87756 v -2.12245 l 1.49499,1.24074 1.495,1.24073 2.31201,-1.51489 2.31202,-1.51489 3.85939,-5.60367 3.85939,-5.60366 -0.77571,-0.74974 -0.77571,-0.74973 -1.51266,2.25 -1.51266,2.25 h -1.03302 -1.03302 l 1.65499,-1.82874 L 166,292.34252 V 291.17126 290 h -1.37756 -1.37755 l -1.23432,1.48727 -1.23432,1.48726 0.58049,1.51274 0.58049,1.51273 h -0.9096 -0.9096 l -0.64521,-1.04398 -0.64521,-1.04397 1.60925,-2.45603 L 162.04611,289 h 1.91793 1.91793 l 0.61803,1 0.61803,1 1.69099,-0.0625 1.69098,-0.0625 4,-6.13611 4,-6.13611 1.25,-0.38469 1.25,-0.3847 v 2.05195 2.05195 l -1.40376,-0.53867 -1.40376,-0.53867 -3.09624,4.50023 L 172,289.86035 v 0.4965 0.4965 l 1.75,0.45732 1.75,0.45733 -2.07349,0.116 -2.07349,0.116 -4.72683,6.91796 -4.72683,6.91796 -2.4145,1.58204 L 157.07037,309 H 155.53518 154 Z M 96.577403,286.75 l 0.712178,-2.25 1.819672,-4.25 1.819677,-4.25 h 0.90221 0.90221 l 2.13332,5.13335 2.13333,5.13336 -0.0318,1.61664 -0.0318,1.61665 -1.32844,-1.75 -1.32844,-1.75 h -2.67114 -2.67114 l -0.575604,1.5 -0.575604,1.5 h -0.960398 -0.960399 z m 6.350297,-4.8851 -1.14267,-2.1351 -0.8772,1.3851 -0.8772,1.3851 -0.0153,0.75 L 100,284 h 2.03518 2.03519 z M 121,282.4425 v -6.5575 l 4.14816,0.3075 4.14815,0.3075 1.05981,1.69146 1.0598,1.69147 -1.63163,1.80853 -1.63163,1.80854 1.42367,1.94113 L 131,287.38226 V 288.19113 289 h -0.97432 -0.97432 L 127.5,286 125.94864,283 H 124.47432 123 v 3 3 h -1 -1 z m 6.87812,-1.34601 1.37811,-0.87288 L 128.5691,279.1118 127.88197,278 H 125.44098 123 v 2 2 l 1.75,-0.0153 1.75,-0.0153 z M 148,283.5 V 278 h -2 -2 v -1 -1 h 5 5 v 1 1 h -2 -2 v 5.5 5.5 h -1 -1 z m 65,-1 V 276 h 1 1 v 6.5 6.5 h -1 -1 z m 18,0 V 276 h 0.98581 0.98581 l 2.76419,4.19339 2.76419,4.19339 0.3075,-4.19339 L 239.115,276 H 240.0575 241 v 6.5 6.5 h -0.88166 -0.88166 l -3.10658,-4.75 -3.10657,-4.75 -0.0118,4.75 L 233,289 h -1 -1 z m 27.13878,0.91102 L 256,277.82203 V 276.91102 276 h 0.95986 0.95986 l 1.19843,4 1.19843,4 h 0.68165 0.68165 L 263,280 l 1.32012,-4 H 265.16006 266 v 0.91102 0.91101 l -2.13878,5.58899 L 261.72243,289 H 261 260.27757 Z M 281,282.5 V 276 h 4.5 4.5 v 1 1 h -3.5 -3.5 v 1.5 1.5 h 3 3 v 1 1 h -3 -3 v 2 2 h 3.5 3.5 v 1 1 h -4.5 -4.5 z m 24,0 V 276 h 0.98581 0.98581 l 2.76419,4.19339 2.76419,4.19339 0.3075,-4.19339 L 313.115,276 H 314.0575 315 v 6.5 6.5 h -0.88166 -0.88166 l -3.10658,-4.75 -3.10657,-4.75 -0.0118,4.75 L 307,289 h -1 -1 z m 29,1.05902 V 278 h -1.94098 -1.94099 L 329.5,277 328.88197,276 H 334.44098 340 v 1 1 h -2 -2 v 4.94098 4.94099 l -1,0.61803 -1,0.61803 z m 20.66667,4.77431 L 354,287.66667 V 281.83333 276 h 1 1 v 6.5 6.5 h -0.33333 -0.33334 z M 372.57143,287.42857 371,285.85714 V 282.12857 278.4 l 1.2,-1.2 1.2,-1.2 h 2.6 2.6 l 1.2,1.2 1.2,1.2 v 4.26482 4.26481 l -1.93426,1.03519 L 377.13148,289 h -1.49431 -1.49431 z m 6.2396,-5.25088 0.31103,-4.32231 -2.80248,0.32231 -2.80248,0.32231 -0.34711,1.82909 -0.3471,1.8291 0.6239,2.48582 0.6239,2.48583 2.21466,-0.31492 L 378.5,286.5 Z M 395,282.5 V 276 h 0.98581 0.98581 l 2.76419,4.19339 2.76419,4.19339 0.3075,-4.19339 L 403.115,276 H 404.0575 405 v 6.5 6.5 l -0.75,-0.01 -0.75,-0.01 -3.25,-4.69981 -3.25,-4.69982 v 4.7099 V 289 h -1 -1 z M 12.655189,249.54135 8.8103776,248.17049 6.27327,245.83524 3.7361625,243.5 l -1.8461193,-4 -1.8461192,-4 v -5 -5 l 1.8210579,-4.00858 1.8210579,-4.00857 3.7680708,-3.30841 3.7680704,-3.30841 2.609871,-0.99228 2.60987,-0.99227 7.275263,0.30926 7.275264,0.30926 0.0038,5.30902 L 31,220.11803 30,219.5 29,218.88197 v -1.36841 -1.3684 L 26.365141,214.07258 23.730283,212 h -3.717258 -3.717259 l -3.310896,2.25 -3.3108963,2.25 -1.979844,3.83636 -1.979844,3.83637 v 5.17345 5.17345 l 2.1202178,4.15597 2.1202178,4.15597 2.9384817,2.09238 2.938481,2.09239 3.078167,0.61563 3.078167,0.61563 3.005991,-1.24512 L 28,245.75736 V 239.37868 233 l -1.75,-0.15231 -1.75,-0.15232 -1.41808,-0.10193 -1.418081,-0.10192 -0.415253,-1.24576 L 20.833333,230 H 27.916667 35 v 0.94098 0.94099 l -1.120749,0.69266 -1.120749,0.69266 0.449377,7.76272 0.449377,7.76272 -5.495409,1.10363 L 22.666437,251 19.583219,250.95611 16.5,250.91221 Z m 112.659521,-0.005 -3.18528,-1.38537 -1.77236,-3.32549 -1.77236,-3.32548 -0.40054,-14.71695 -0.40054,-14.71695 -1.89182,-0.60044 L 114,210.86522 V 209.93261 209 h 7.33333 7.33334 l 0.68332,0.68332 0.68331,0.68332 -3.01665,1.26841 -3.01665,1.2684 v 14.41342 14.41341 l 2.07258,2.63486 2.07258,2.63486 4.17742,-0.0318 4.17742,-0.0318 1.58666,-1.21819 1.58665,-1.2182 1.16335,-2.18426 L 142,240.13148 V 226.13313 212.13478 L 140,211.5 138,210.86522 V 209.93261 209 h 6 6 v 0.88337 0.88337 l -2,0.52301 -2,0.52301 -0.002,14.34362 -0.002,14.34362 -1.74844,3.5 -1.74845,3.5 -3.5,1.74845 -3.5,1.74844 -3.5,-0.0376 -3.5,-0.0376 z m 208.18529,0.052 -3,-1.33336 -2.20227,-2.39115 -2.20227,-2.39114 -1.70142,-3.98636 -1.70142,-3.98635 0.0276,-6.17379 0.0276,-6.1738 2.21193,-4.56922 2.21193,-4.56923 3.16417,-2.25698 L 333.5,209.5 h 6.17667 6.17667 l 2.82333,2.08858 2.82333,2.08859 2.5,4.41141 2.5,4.41142 v 7.5 7.5 l -2.84599,4.84187 -2.846,4.84187 -4.154,1.88617 -4.15401,1.88617 -3,-0.0172 -3,-0.0172 z m 10.62824,-3.15468 3.02893,-1.56631 1.89945,-4.18369 1.89946,-4.18368 v -6.5 -6.5 l -1.86983,-4.1175 -1.86982,-4.1175 -2.33072,-1.6325 L 342.55499,212 h -3.37629 -3.37628 l -2.77514,2.9708 -2.77514,2.9708 -1.12607,4.47202 -1.12607,4.47202 0.006,3.30718 0.006,3.30718 1.0975,3.95308 1.0975,3.95307 3.29693,3.29693 L 336.8,248 h 2.14966 2.14966 z m 62.65613,3.8399 -3.71562,-0.39021 -0.62087,-3.69169 -0.62086,-3.69168 -0.15672,-1 -0.15673,-1 0.77636,-0.5 0.77637,-0.5 1.23076,2.5 1.23076,2.5 3.48609,1.74845 3.48609,1.74844 3.25,0.002 3.25,0.002 2,-2 2,-2 v -2.56574 -2.56574 l -0.98541,-1.84126 -0.98541,-1.84126 -6.992,-2.67179 -6.99199,-2.67179 -2.52259,-2.99794 L 402,223.84655 v -3.78842 -3.78841 l 2.01564,-2.56247 2.01563,-2.56247 3.26888,-1.07882 3.26888,-1.07883 6.71346,0.25643 6.71346,0.25644 0.002,4.75 L 426,219 h -1.02475 -1.02475 l -0.96889,-2.54837 -0.96889,-2.54837 -3.60995,-1.50833 -3.60995,-1.50834 -2.90473,0.63799 -2.90472,0.63798 -0.99169,1.85298 L 407,215.86852 v 2.91075 2.91075 l 1.75201,1.58555 1.752,1.58554 6.58499,2.95449 6.58498,2.95448 2.16301,2.74982 2.16301,2.74982 v 3.64263 3.64264 l -1.63069,2.32814 -1.6307,2.32814 -3.33718,1.39436 L 418.06424,251 414.28212,250.8319 410.5,250.66379 Z M 43,249.10699 v -0.89301 l 1.5,-0.57561 1.5,-0.5756 V 230.00663 212.9505 L 43.5,212 41,211.0495 V 210.02475 209 h 9.375 9.375 l 3.110787,0.62216 3.110788,0.62215 2.514212,2.3301 L 71,214.9045 v 3.59741 3.59741 l -1.414686,2.7357 -1.414687,2.7357 -2.585313,1.38362 L 63,230.33796 v 0.85954 0.85953 l 2.947017,5.83801 2.947016,5.83801 3.052984,2.56891 L 75,248.87088 V 249.43544 250 H 71.477976 67.955952 L 65.227976,245.68701 62.5,241.37402 60.079063,236.18701 57.658125,231 H 54.329063 51 v 8.03138 8.03139 l 1.5,0.5756 1.5,0.57561 V 249.10699 250 H 48.5 43 Z M 63.644236,225.62959 66.4,223.25918 v -3.57985 -3.57985 L 64.545012,214.04974 62.690025,212 H 56.845012 51 v 8 8 h 4.944236 4.944237 z M 81,249.10699 v -0.89301 l 1.5,-0.57561 1.5,-0.5756 v -17.4244 -17.42439 l -1.5,-0.57561 -1.5,-0.5756 V 210.03138 209 h 13 13 v 1.41821 1.41822 l -0.62356,1.62495 -0.62355,1.62496 -1.76122,-1.59388 -1.76122,-1.59388 -6.365223,0.30071 L 89.5,212.5 89.207936,220.25 88.915871,228 h 5.533591 5.53359 l 1.249018,-2 1.24902,-2 H 103.24055 104 v 6 6 h -0.89159 -0.89159 l -0.62746,-2.5 -0.62746,-2.5 h -6.023016 -6.023013 l 0.292065,7.75 0.292064,7.75 6.227664,0.29714 6.227666,0.29714 2.01053,-1.07601 2.01053,-1.076 0.62021,-2.47113 L 107.21682,240 H 108.10841 109 v 2.4349 2.4349 l -0.97525,2.5651 L 107.0495,250 H 94.024751 81 Z m 74,0.01 v -0.88337 l 2,-0.52301 2,-0.52301 V 230 212.81276 l -2,-0.52301 -2,-0.52301 v -1.46942 -1.46943 l 11.58877,0.33606 11.58877,0.33605 2.41123,2.80576 2.41123,2.80577 v 3.80787 3.80787 l -2.63636,2.63637 L 177.72727,228 h 1.05944 1.05944 l 3.07693,3.07692 3.07692,3.07693 -0.0222,4.67307 -0.0222,4.67308 -1.72777,2.13296 -1.72776,2.13296 -2.18426,1.11704 L 178.13148,250 H 166.56574 155 Z m 23.48279,-4.18137 1.98279,-1.9564 -0.10727,-4.09119 -0.10728,-4.09118 -2.56058,-2.56059 -2.56059,-2.56059 -5.56493,-0.46148 L 164,228.75234 v 8.42383 8.42383 l 1.25,1.28027 1.25,1.28026 5,-0.63444 5,-0.63444 z m -4.08609,-20.32765 3.33247,-1.3924 0.65962,-2.62812 0.65961,-2.62813 -1.04712,-1.95656 -1.04712,-1.95656 -1.91134,-1.02292 L 173.13148,212 H 168.56574 164 v 7 7 h 3.53212 3.53212 z M 193,249.10699 v -0.89301 l 1.5,-0.57561 1.5,-0.5756 v -17.4244 -17.42439 l -1.5,-0.57561 -1.5,-0.5756 V 210.03138 209 h 13 13 v 1.41821 1.41822 l -0.62356,1.62495 -0.62355,1.62496 -1.76122,-1.59388 -1.76122,-1.59388 -6.36522,0.30071 L 201.5,212.5 l -0.29206,7.75 -0.29207,7.75 h 5.53359 5.53359 l 1.24902,-2 1.24902,-2 H 215.24055 216 v 6 6 h -0.89159 -0.89159 l -0.62746,-2.5 -0.62746,-2.5 h -6.02302 -6.02301 l 0.29207,7.75 0.29206,7.75 6.22766,0.29714 6.22767,0.29714 2.01053,-1.07601 2.01053,-1.076 0.62021,-2.47113 L 219.21682,240 H 220.10841 221 v 2.4349 2.4349 l -0.97525,2.5651 L 219.0495,250 H 206.02475 193 Z m 36,0.32158 v -0.57143 l 1.5,-1.5 1.5,-1.5 v -16.82158 -16.82158 l -1.5,-0.57561 -1.5,-0.5756 V 210.03138 209 h 6 6 v 0.93261 0.93261 l -2.02329,0.64217 -2.0233,0.64217 0.2733,17.17522 L 237.5,246.5 l 5.72395,0.29913 5.72395,0.29912 2.07392,-1.10993 2.07392,-1.10992 1.10952,-2.6892 1.10952,-2.6892 0.43517,1.84986 0.43516,1.84987 -0.63787,3.40013 L 254.90937,250 H 241.95469 229 Z M 288,249.5 V 249 l 2.06788,-2.06788 2.06788,-2.06788 -0.31788,-16.00422 L 291.5,212.85579 289.75,211.87821 288,210.90062 V 209.95031 209 h 15 15 v 4.5 4.5 h -0.89159 -0.89159 l -0.59747,-2.38051 -0.59747,-2.38051 -2.26094,-0.60583 -2.26094,-0.60584 -6.75,-0.0137 L 297,212 v 8.12019 8.12019 l 6.19258,-0.44793 6.19258,-0.44793 0.39075,-1.17226 L 310.16667,225 H 311.08333 312 v 5 5 h -1 -1 v -0.92857 -0.92857 L 308.42857,231.57143 306.85714,230 H 301.92857 297 v 8.08686 8.08687 l 3,1.13237 3,1.13238 V 249.21924 250 h -7.5 -7.5 z m 75,-0.39301 v -0.89301 l 1.5,-0.57561 1.5,-0.5756 V 229.53138 212 h -2 -2 v -1.60793 -1.60792 l 11.43339,0.36294 11.43339,0.36295 2.80837,2.09675 2.80837,2.09675 0.91813,3.20133 0.91813,3.20133 -1.62037,3.39795 -1.62037,3.39795 -2.78952,1.74629 -2.78952,1.74629 -0.31548,0.20147 -0.31547,0.20147 3.20035,6.33986 3.20035,6.33986 3.56054,3.26133 3.56054,3.26133 h -3.5211 -3.5211 l -2.06699,-2.25 -2.06699,-2.25 -3.6199,-7.25 -3.61989,-7.25 H 374.98743 372 v 8.03138 8.03139 l 1.5,0.5756 1.5,0.57561 V 249.10699 250 h -6 -6 z M 384.54545,225.54545 387,223.09091 V 219.54545 216 l -2,-2 -2,-2 h -5.5 -5.5 v 8 8 h 5.04545 5.04546 z M 434,249.36024 v -0.63975 l 1.71966,-1.25745 1.71966,-1.25745 0.0303,-16.55088 0.0303,-16.55088 -1.25,-1.25192 L 435,210.6 v -0.8 -0.8 h 12.5 12.5 v 3 3 h -0.57143 -0.57143 l -1.5,-1.5 -1.5,-1.5 H 449.42857 443 v 8 8 h 5.59362 5.59362 l 0.52301,-2 0.52301,-2 H 456.11663 457 v 6 6 h -0.93045 -0.93045 l -0.31955,-2.25 -0.31955,-2.25 -5.75,-0.2999 -5.75,-0.29991 v 8.09372 8.09371 l 7.23359,-0.29381 7.2336,-0.29381 2.0164,-3.21148 2.01641,-3.21148 0.82946,-0.0385 0.82945,-0.0385 -0.65411,3.25 -0.65411,3.25 -0.49273,1.75 -0.49274,1.75 H 447.43261 434 Z m 40,-0.29069 v -0.93045 l 2.25,-0.31955 2.25,-0.31955 0.28666,-8.01564 0.28665,-8.01563 -4.28665,-7.90134 -4.28666,-7.90134 -2.75,-2.7561 -2.75,-2.7561 V 209.57692 209 h 6.5 6.5 v 1 1 h -0.89301 -0.89301 l -0.53478,1.39361 -0.53478,1.3936 2.53385,4.8564 2.53384,4.85639 1.48494,2.35369 1.48493,2.35369 4.40901,-6.57229 L 492,215.0628 v -1.56279 -1.56278 l -1.5,-0.5756 -1.5,-0.57561 V 209.89301 209 h 5.5 5.5 v 1.03138 1.03139 l -1.39083,0.53371 -1.39083,0.53371 -6.60917,9.9266 -6.60917,9.9266 v 6.9249 6.9249 l 2.75,2.05172 2.75,2.05173 -7.75,0.0317 L 474,250 Z"
         id="path5" />
      <path
         style="fill:#606060;fill-opacity:1"
         d="m 154,306.99153 v -2.00848 l 1.94406,1.21409 1.94406,1.21408 2.17753,-1.95561 2.17753,-1.95561 3.91567,-5.75 3.91567,-5.75 h -1.50208 -1.50207 L 166,294 l -1.07037,2 h -1.03624 -1.03625 l 1.57143,-1.57143 L 166,292.85714 V 291.42857 290 h -1.37756 -1.37755 l -1.01484,1.25 -1.01483,1.25 -0.38716,2 -0.38715,2 -0.64502,-1.6352 -0.64501,-1.6352 1.48126,-2.1148 1.48127,-2.1148 h 1.88428 1.88428 l 0.61803,1 0.61803,1 1.69099,-0.0347 1.69098,-0.0347 4,-6.13349 4,-6.13349 1.25,-0.41512 1.25,-0.41512 v 2.05195 2.05195 l -1.40376,-0.53867 -1.40376,-0.53867 -3.09624,4.50023 L 172,289.86035 v 0.4965 0.4965 l 1.75,0.45732 1.75,0.45733 -2.14575,0.116 -2.14576,0.116 -3.12137,4.86423 -3.12136,4.86423 -3.53102,3.63577 L 157.90372,309 H 155.95186 154 Z M 96.577403,286.75 l 0.712178,-2.25 1.819672,-4.25 1.819677,-4.25 h 0.96368 0.96369 l 2.07185,5.53751 2.07185,5.53752 -0.0318,1.21248 -0.0318,1.21249 -1.32844,-1.75 -1.32844,-1.75 h -2.67114 -2.67114 l -0.575604,1.5 -0.575604,1.5 h -0.960398 -0.960399 z m 6.708267,-4.76558 -0.52708,-2.01559 -0.8793,-0.54343 L 101,278.88197 v 0.97723 0.97723 l -0.60699,1.58178 L 99.786022,284 h 2.013368 2.01337 z M 121,282.4425 v -6.5575 l 4.14816,0.3075 4.14815,0.3075 1.05981,1.69146 1.0598,1.69147 -1.69992,1.87839 -1.69993,1.8784 1.46016,1.93014 1.46016,1.93014 0.0318,0.75 L 131,289 h -0.97432 -0.97432 L 127.5,286 125.94864,283 H 124.47432 123 v 3 3 h -1 -1 z m 6.87812,-1.34601 1.37811,-0.87288 L 128.5691,279.1118 127.88197,278 H 125.44098 123 v 2 2 l 1.75,-0.0153 1.75,-0.0153 z M 148,283.5 V 278 h -2 -2 v -1 -1 h 5 5 v 1 1 h -2 -2 v 5.5 5.5 h -1 -1 z m 65.66667,4.83333 L 213,287.66667 V 281.83333 276 h 1 1 v 6.5 6.5 h -0.33333 -0.33334 z M 231,282.55902 V 276 h 0.98581 0.98581 l 2.76419,4.19339 2.76419,4.19339 0.3075,-4.19339 L 239.115,276 H 240.0575 241 v 6.5 6.5 h -0.45419 -0.4542 l -3.5458,-4.6438 L 233,279.7124 v 4.08478 4.08479 l -1,0.61803 -1,0.61803 z m 27.13399,0.58831 L 256,277.29466 V 276.64733 276 h 0.83994 0.83994 l 1.32012,4 1.32012,4 h 0.7998 0.7998 l 1.19843,-4 1.19843,-4 H 265.15829 266 v 0.91102 0.91101 l -2.13878,5.58899 L 261.72243,289 h -0.72722 -0.72723 z M 281,282.5 V 276 h 4.5 4.5 v 1 1 h -3.5 -3.5 v 1.5 1.5 h 3 3 v 1 1 h -3 -3 v 2 2 h 3.5 3.5 v 1 1 h -4.5 -4.5 z m 24,0.059 V 276 h 0.86711 0.86712 l 2.88288,4.25 2.88289,4.25 0.3075,-4.25 0.3075,-4.25 H 314.0575 315 v 6.5 6.5 h -0.88166 -0.88166 l -3.10658,-4.75 -3.10657,-4.75 -0.0118,4.19098 -0.0118,4.19099 -1,0.61803 -1,0.61803 z m 29,1 V 278 h -2 -2 v -1 -1 h 5 5 v 1 1 h -2 -2 v 4.94098 4.94099 l -1,0.61803 -1,0.61803 z m 20.66667,4.77431 L 354,287.66667 V 281.83333 276 h 1 1 v 6.5 6.5 h -0.33333 -0.33334 z M 372.57143,287.42857 371,285.85714 V 282.12857 278.4 l 1.2,-1.2 1.2,-1.2 h 2.6 2.6 l 1.2,1.2 1.2,1.2 v 4.26482 4.26481 l -1.93426,1.03519 L 377.13148,289 h -1.49431 -1.49431 z m 6.22988,-5.05189 0.30131,-4.12332 -1.67806,-0.64394 -1.67806,-0.64393 -1.37325,1.1397 -1.37325,1.1397 v 3.21089 3.21089 l 0.70885,0.70885 0.70885,0.70885 2.04115,-0.29219 L 378.5,286.5 Z M 395,282.5 V 276 h 0.98581 0.98581 l 2.76419,4.19339 2.76419,4.19339 0.3075,-4.19339 L 403.115,276 H 404.0575 405 l -0.0316,6.75 -0.0316,6.75 -2.2184,-2.53272 -2.2184,-2.53272 -1.69755,-2.46728 L 397.1049,279.5 397.0525,284.25 397,289 h -1 -1 z M 12.5,249.49785 8.5,248.08349 5.3230759,244.63617 2.1461518,241.18885 1.0786528,237.34442 0.01115387,233.5 v -3 -3 l 1.06096993,-3.82078 1.0609699,-3.82078 3.4970296,-3.87079 3.4970295,-3.87079 4.3968302,-1.67917 4.39683,-1.67916 6.539594,0.70033 L 31,210.15919 v 4.97942 4.97942 L 30,219.5 29,218.88197 v -1.26667 -1.26667 L 26.685549,214.17431 24.371098,212 H 20.635889 16.90068 l -2.871502,1.48491 -2.871501,1.48491 -1.9754452,2.77426 -1.9754449,2.77426 -1.1743012,4.36102 -1.1743012,4.36102 1.1907761,4.96371 1.190776,4.96371 3.6391924,3.82559 3.639191,3.82558 3.892532,0.73025 3.892532,0.73024 2.598408,-0.90985 2.598408,-0.90984 0.301843,-6.38883 0.301843,-6.38882 -1.301843,-0.82575 L 25.5,232.03063 23.190983,232.01531 20.881966,232 21.5,231 22.118034,230 H 28.559017 35 v 0.94098 0.94099 l -1.120749,0.69266 -1.120749,0.69266 0.451144,7.79323 0.451143,7.79324 -6.162307,1.07312 L 21.336174,251 18.918087,250.95611 16.5,250.91221 Z m 115.5,0.90234 -1.5,-0.54643 -2.33531,-1.14152 -2.33532,-1.14152 -1.59745,-3.03536 -1.59746,-3.03536 -0.44459,-14.87692 -0.44458,-14.87693 -1.87265,-0.48971 L 114,210.76674 V 209.88337 209 h 7.44098 7.44099 l 0.61803,1 0.61803,1 H 128.25902 126.4 l -1.2,1.2 -1.2,1.2 v 14.16514 14.16514 l 2.07258,2.63486 2.07258,2.63486 4.17742,-0.0222 4.17742,-0.0222 2.5,-1.9185 2.5,-1.9185 0.31909,-15.46995 0.31909,-15.46995 -2.06909,-0.6567 L 138,210.86522 V 209.93261 209 h 6 6 v 0.88337 0.88337 l -2,0.52301 -2,0.52301 v 14.12574 14.12574 l -1.41647,3.3901 -1.41648,3.3901 -2.39849,1.57155 -2.39848,1.57155 -4.43504,0.47954 -4.43504,0.47954 z m 206.6193,-0.38508 -2.8807,-0.91205 -2.50122,-2.30153 -2.50122,-2.30153 -1.84612,-4 -1.84612,-4 -0.022,-6.55366 -0.022,-6.55365 2.49679,-5.0104 2.49678,-5.0104 4.09932,-2.30394 4.09931,-2.30394 4.77614,0.45893 4.77614,0.45892 3.1504,2.24329 3.1504,2.24328 2.16079,4.16578 2.16079,4.16579 0.0666,7 0.0666,7 -2.32095,4.71229 -2.32095,4.71229 -3.45715,2.13664 -3.45715,2.13663 -3.7219,0.36466 -3.7219,0.36465 z m 11.12841,-4.21672 1.56925,-1.29839 1.81956,-4 1.81956,-4 0.022,-6.78212 0.022,-6.78212 -1.37882,-3.29998 -1.37882,-3.29998 -2.75604,-2.1679 L 342.73028,212 h -3.44206 -3.44207 l -2.84198,2.84198 -2.84198,2.84199 -1.184,4.39702 -1.184,4.39703 0.41609,5.51099 0.41608,5.51099 1.81829,3.78695 1.8183,3.78695 2.61853,1.47243 2.61852,1.47244 3.33923,-0.461 3.33923,-0.46099 z m 61.62461,4.47538 -4.12767,-0.37681 -0.98371,-4.97513 -0.98371,-4.97514 0.74533,-0.46063 0.74533,-0.46064 1.20757,2.91533 1.20756,2.91532 3.92873,1.57197 3.92872,1.57196 h 2.75726 2.75726 l 2.2225,-1.5567 L 423,244.88659 v -3.00904 -3.00903 l -0.98541,-1.84126 -0.98541,-1.84126 -6.992,-2.67179 -6.99199,-2.67179 -2.52259,-2.99794 L 402,223.84655 v -2.97294 -2.97293 l 1.56642,-3.02912 1.56642,-3.02912 3.43621,-1.43574 3.43621,-1.43574 6.9847,0.26452 6.9847,0.26452 -0.2048,4.75 -0.20479,4.75 h -0.62202 -0.62202 l -1.11716,-2.4519 -1.11716,-2.4519 -3.16484,-1.6366 -3.16483,-1.6366 -3.36637,0.63153 -3.36636,0.63154 -1.01216,1.89122 L 407,215.86852 v 2.91075 2.91075 l 1.75,1.56779 1.75,1.56778 6.7929,3.23402 6.79291,3.23402 1.95709,2.48804 1.9571,2.48805 V 240 v 3.73028 l -2.04549,2.60042 -2.04548,2.60041 -3.70452,1.02887 -3.70451,1.02887 -2.5,-0.16913 -2.5,-0.16913 z M 43,249.10699 v -0.89301 l 1.5,-0.57561 1.5,-0.5756 V 230.00663 212.9505 L 43.5,212 41,211.0495 V 210.02475 209 l 9.25,0.006 9.25,0.006 3.75651,1.04323 3.756511,1.04322 1.993489,2.13976 L 71,215.37712 v 3.92909 3.92908 l -4.133394,4.13236 -4.133394,4.13235 3.775969,7.3364 3.775969,7.3364 2.357425,1.07412 L 75,248.32103 V 249.16052 250 H 71.952251 68.904502 L 66.702251,247.6219 64.5,245.2438 61.056809,238.1219 57.613617,231 H 54.306809 51 v 8.03138 8.03139 l 1.5,0.5756 1.5,0.57561 V 249.10699 250 H 48.5 43 Z M 63.644236,225.62959 66.4,223.25918 v -3.57985 -3.57985 L 64.545012,214.04974 62.690025,212 H 56.845012 51 v 8 8 h 4.944236 4.944237 z M 81,249.10699 v -0.89301 l 1.5,-0.57561 1.5,-0.5756 V 229.5 211.93723 l -1.5,-0.5756 -1.5,-0.57561 V 209.89301 209 h 13.116631 13.116629 l -0.60297,2.25 -0.60298,2.25 -0.0137,0.90499 -0.0136,0.90499 -1.88477,-1.7057 -1.88478,-1.7057 -6.365223,0.30071 L 89.5,212.5 89.207936,220.25 88.915871,228 h 5.533591 5.53359 l 1.249018,-2 1.24902,-2 H 103.24055 104 v 6 6 h -0.93045 -0.93045 l -0.31955,-2.25 -0.31955,-2.25 -4.643769,-0.89775 -4.643768,-0.89776 -1.648568,0.63262 -1.648569,0.63261 0.292337,7.76514 L 89.5,246.5 l 6.705328,0.29467 6.705332,0.29467 1.79467,-1.88242 1.79467,-1.88242 1.28711,-1.91225 1.2871,-1.91225 -0.57365,4.40462 -0.57364,4.40462 -0.52248,0.84538 L 106.88197,250 H 93.940983 81 Z m 74,0.01 v -0.88337 l 2,-0.52301 2,-0.52301 V 230.1288 213.07037 L 157,212 155,210.92963 V 209.96482 209 h 10.04966 10.04966 l 2.9207,1.51035 2.92069,1.51035 1.02965,1.92391 1.02964,1.92391 v 3.39142 3.39143 l -2.34946,2.20721 -2.34946,2.2072 3.84946,3.84946 3.84946,3.84947 v 3.6673 3.66731 l -1.425,2.75565 -1.42501,2.75566 -2.62205,1.19468 L 177.90589,250 H 166.45295 155 Z m 23.85246,-4.7612 2.35247,-2.7052 -0.57144,-3.52136 -0.57144,-3.52137 -2.4661,-2.46609 -2.46609,-2.4661 -5.56493,-0.46148 L 164,228.75234 v 8.42383 8.42383 l 1.25,1.2896 1.25,1.28961 5,-0.55929 5,-0.55929 z m -3.92398,-19.81844 2.82916,-1.46302 0.62118,-1.61877 L 179,219.83643 v -1.46367 -1.46367 L 176.54545,214.45455 174.09091,212 H 169.04545 164 v 7 7 h 4.04966 4.04966 z M 193,249.10699 v -0.89301 l 1.5,-0.57561 1.5,-0.5756 V 229.5 211.93723 l -1.5,-0.5756 -1.5,-0.57561 V 209.89301 209 h 13.10699 13.10699 l -0.60699,1.58179 L 218,212.16357 v 1.57321 1.5732 l -1.88477,-1.7057 -1.88478,-1.7057 -6.36522,0.30071 L 201.5,212.5 l -0.29206,7.75 -0.29207,7.75 h 5.53359 5.53359 l 1.24902,-2 1.24902,-2 H 215.24055 216 v 6 6 h -0.93045 -0.93045 l -0.31955,-2.25 -0.31955,-2.25 -4.64377,-0.89775 -4.64377,-0.89776 -1.64857,0.63262 -1.64856,0.63261 0.29233,7.76514 0.29234,7.76514 6.70533,0.29467 6.70533,0.29467 1.79467,-1.88242 1.79467,-1.88242 1.28711,-1.91225 1.2871,-1.91225 -0.57365,4.40462 -0.57364,4.40462 -0.52248,0.84538 L 218.88197,250 H 205.94098 193 Z m 36,0 v -0.89301 l 1.5,-0.57561 1.5,-0.5756 v -17.4244 -17.42439 l -1.5,-0.57561 -1.5,-0.5756 V 210.03138 209 h 6 6 v 0.93261 0.93261 l -2,0.63478 -2,0.63478 V 229.56739 247 h 6.84501 6.84501 l 1.50299,-1.75 1.50299,-1.75 0.67554,-1.89313 0.67554,-1.89313 0.59693,0.59694 0.59693,0.59693 -0.68174,4.54619 L 254.87745,250 H 241.93873 229 Z M 289.81144,247.96104 292,245.92209 V 229.96104 214 l -2,-2 -2,-2 v -0.5 -0.5 h 15 15 v 4.5 4.5 h -1 -1 v -1.42857 -1.42857 L 314.42857,213.57143 312.85714,212 H 304.92857 297 v 8 8 h 5.42857 5.42857 l 1.5,-1.5 1.5,-1.5 H 311.42857 312 v 5 5 h -1 -1 v -1.46482 -1.46481 L 308.06574,231.03518 306.13148,230 H 301.56574 297 v 7.8 7.8 l 1.2,1.2 1.2,1.2 h 1.8 1.8 v 1 1 h -7.68856 -7.68856 z M 363,249.24055 v -0.75946 l 2,-1.24902 2,-1.24902 -0.0153,-15.74152 -0.0153,-15.74153 -0.73468,-1.07294 -0.73469,-1.07294 -1.75,-0.64568 -1.75,-0.64567 v -1.13931 -1.13931 l 11.29493,0.35855 11.29493,0.35855 2.74971,1.80167 2.7497,1.80168 1.03237,2.6977 1.03237,2.6977 -1.10108,3.69635 -1.10107,3.69635 -2.52611,1.98705 -2.52612,1.98704 -1.07016,0.35672 -1.07016,0.35672 3.25522,6.45988 3.25522,6.45989 3.43633,3.25 3.43632,3.25 h -3.56493 -3.56493 l -2.8595,-3.94743 -2.8595,-3.94743 -2.39677,-5.5355 -2.39677,-5.53551 -3.25,-0.0171 L 372,231 v 8.03138 8.03139 l 1.5,0.5756 1.5,0.57561 V 249.10699 250 h -6 -6 z M 384.54545,225.54545 387,223.09091 V 219.54545 216 l -2,-2 -2,-2 h -5.5 -5.5 v 8 8 h 5.04545 5.04546 z M 434,249 v -1 h 1.36071 1.36071 l 0.6306,-5.25 0.6306,-5.25 0.003,-11 0.003,-11 -1.49384,-2.86431 L 435,209.77139 V 209.38569 209 h 12.5 12.5 v 3 3 h -0.57143 -0.57143 l -1.5,-1.5 -1.5,-1.5 H 449.42857 443 v 8 8 h 5.59362 5.59362 l 0.52301,-2 0.52301,-2 H 456.11663 457 v 6 6 h -0.93045 -0.93045 l -0.31955,-2.24887 -0.31955,-2.24887 -4.19099,-0.88076 -4.19099,-0.88077 -1.55901,0.59825 L 443,230.93723 V 238.96862 247 h 6.92742 6.92742 l 2.00597,-2.55018 2.00598,-2.55019 0.4297,-1.19981 0.4297,-1.19982 0.56629,0.51271 0.56628,0.51272 -1.01036,4.73728 L 460.83803,250 H 447.41902 434 Z m 40,0.0695 v -0.93045 l 2.25,-0.31955 2.25,-0.31955 0.28959,-8.19712 0.28959,-8.19712 -5.13053,-9.1012 -5.13053,-9.1012 -1.90906,-1.19222 L 465,210.51891 V 209.75945 209 h 6.5 6.5 v 0.63976 0.63975 l -1.75,1.29615 -1.75,1.29614 4,7.55562 4,7.55563 0.5,-0.0153 0.5,-0.0153 4.25,-6.23867 4.25,-6.23866 v -1.76892 -1.76892 l -1.5,-0.5756 -1.5,-0.57561 V 209.89301 209 h 5.5 5.5 v 1 1 h -0.93164 -0.93165 l -7.0681,10.25 -7.06811,10.25 -2.5e-4,6.66821 -2.5e-4,6.66822 0.60699,1.58178 0.60699,1.58179 h 1.33399 1.334 l 0.61803,1 0.61803,1 H 481.55902 474 Z"
         id="path4" />
      <path
         style="fill:#494949;fill-opacity:1"
         d="M 154.66667,308.33333 154,307.66667 v -0.85239 -0.85238 l 2.35947,0.59219 2.35948,0.59219 3.66442,-4.28106 3.66443,-4.28106 1.94238,-3.29208 L 169.93255,292 H 168.66627 167.4 l -1.14405,1.14405 -1.14405,1.14405 0.56068,-2.14405 L 166.23326,290 h -1.28789 -1.28789 l -1.97484,1.75 -1.97484,1.75 0.45562,-1.42856 0.45562,-1.42855 1.68702,-1.06415 1.68703,-1.06415 1.98989,1.2427 1.98988,1.24271 h 1.15333 1.15332 l 1.3627,-1.75 1.3627,-1.75 -0.57588,1.66254 -0.57588,1.66253 1.82342,0.47146 1.82343,0.47147 -2.23746,0.116 -2.23745,0.116 -2.62749,4.25 -2.62749,4.25 -4.09326,4.25 -4.09327,4.25 h -1.12512 -1.12513 z M 373.22251,287.4433 371,285.88659 v -3.00904 -3.00903 l 1.03518,-1.93426 L 373.07037,276 h 2.76481 2.76482 l 1.2,1.2 1.2,1.2 v 4.26482 4.26481 l -1.93426,1.03519 L 377.13148,289 h -0.84323 -0.84324 z m 5.5788,-5.06662 0.30131,-4.12332 -1.67806,-0.64394 -1.67806,-0.64393 -1.37325,1.1397 -1.37325,1.1397 v 3.21089 3.21089 l 0.70885,0.70885 0.70885,0.70885 2.04115,-0.29219 L 378.5,286.5 Z m -280.338093,-0.0914 2.324993,-5.7147 0.95453,-0.31818 0.95453,-0.31818 2.17287,5.67805 2.17286,5.67804 -0.6584,0.60484 -0.65841,0.60483 -0.44643,-1.25 -0.44643,-1.25 h -2.85765 -2.857646 L 98.5,287 l -0.618034,1 h -0.871871 -0.871871 z m 4.822453,-0.30088 -0.52708,-2.01559 -0.8793,-0.54343 L 101,278.88197 v 0.97723 0.97723 l -0.60699,1.58178 L 99.786022,284 h 2.013368 2.01337 z M 121,281.9425 v -6.0575 l 4.14816,0.3075 4.14815,0.3075 1.05981,1.69146 1.0598,1.69147 -1.68772,1.86492 -1.68773,1.86491 1.53647,2.19362 1.53647,2.19362 h -1.39619 -1.39619 l -1.13908,-2.5 -1.13907,-2.5 H 124.52144 123 v 2.5 2.5 h -1 -1 z m 7.65492,-1.48563 0.59216,-1.54313 -0.43531,-0.43531 -0.43531,-0.43531 -2.435,-0.27156 -2.43499,-0.27156 -0.32279,2.25 -0.32278,2.25 h 2.60093 2.60094 z M 148,282.96778 v -5.03223 l -2.25,-0.90439 -2.25,-0.90439 5.5,0.0728 5.5,0.0728 -2.25,0.43337 -2.25,0.43337 V 282.56955 288 h -1 -1 z M 213,282 v -6 h 1 1 v 6 6 h -1 -1 z m 18,0 v -6 h 0.88166 0.88166 l 3.10658,4.75 3.10657,4.75 0.0118,-4.75 L 239,276 h 1 1 v 6 6 h -0.98581 -0.98581 l -2.76419,-4.19339 -2.76419,-4.19339 -0.3075,4.19339 L 232.885,288 H 231.9425 231 Z m 28.35289,4.33316 L 258.70472,284.5 257.35236,281.12788 256,277.75575 V 276.87788 276 h 0.84171 0.84171 l 1.18586,3.95802 1.18585,3.95802 0.84756,0.52382 0.84756,0.52382 1.25483,-4.48184 L 264.25992,276 H 265.12996 266 l -8.1e-4,0.75 -8.2e-4,0.75 -1.88437,4.96173 -1.88437,4.96173 -1.11429,0.37143 -1.11429,0.37143 z M 281,282 v -6 h 4.55902 4.55901 l -0.61803,1 -0.61803,1 H 285.94098 283 v 1.93664 1.93664 l 3.25,0.40332 3.25,0.40333 -3.25,0.16003 L 283,283 v 1.93963 1.93964 l 3.75,0.39226 3.75,0.39226 -4.75,0.16811 L 281,288 Z m 24,0 v -6 h 0.88166 0.88166 l 3.10658,4.75 3.10657,4.75 0.0118,-4.75 L 313,276 h 1 1 v 6 6 h -0.98581 -0.98581 l -2.76419,-4.19339 -2.76419,-4.19339 -0.3075,4.19339 L 306.885,288 H 305.9425 305 Z m 29,1 v -5 h -2 -2 v -1 -1 h 5.05902 5.05901 l -0.61803,1 -0.61803,1 H 337.44098 336 v 5 5 h -1 -1 z m 20,-1 v -6 h 1 1 v 6 6 h -1 -1 z m 41,0 v -6 h 0.98581 0.98581 l 2.76419,4.19339 2.76419,4.19339 0.3075,-4.19339 L 403.115,276 H 404.0575 405 v 6 6 h -0.98581 -0.98581 l -2.76419,-4.19339 -2.76419,-4.19339 -0.3075,4.19339 L 396.885,288 H 395.9425 395 Z m -221.44624,4 0.80453,-1.5 2.43954,-3.25 2.43955,-3.25 H 180.11869 181 v 1.55902 1.55901 l -0.91954,-0.5683 -0.91954,-0.56831 -3.20584,3.75929 -3.20584,3.75929 z M 14,249.82505 l -3.5,-0.99457 -3.2510515,-2.46693 -3.2510515,-2.46694 -1.4437611,-2.79192 -1.4437611,-2.79193 -0.65421926,-4.93174 -0.65421925,-4.93175 1.1528369,-4.28131 1.15283691,-4.28131 3.5097714,-3.8849 3.5097713,-3.88489 4.3968302,-1.67917 4.39683,-1.67916 6.539594,0.70033 L 31,210.15919 v 4.97942 4.97942 L 30,219.5 29,218.88197 v -1.26667 -1.26667 L 26.685549,214.17431 24.371098,212 20.435549,212.004 16.5,212.008 l -3.25914,1.98712 -3.2591401,1.98712 -1.9310421,3.17534 -1.9310422,3.17535 -0.6286881,3.72117 -0.6286881,3.72117 1.161048,4.36263 1.1610479,4.36262 2.4595157,3.25105 2.459516,3.25105 2.898646,1.49895 L 17.90068,248 h 3.115402 3.115401 L 26.065741,246.96482 28,245.92963 v -6.35782 -6.35783 L 26.418213,232.60699 24.836425,232 h -1.977229 -1.97723 L 21.5,231 22.118034,230 H 28.559017 35 v 0.94098 0.94099 l -1.120749,0.69266 -1.120749,0.69266 0.451144,7.79323 0.451143,7.79324 -6.162307,1.07312 L 21.336174,251 19.418087,250.90981 17.5,250.81962 Z m 113.5,0.37605 -2,-0.7011 -1.59259,-1 -1.59258,-1 -1.71771,-2.66649 -1.71771,-2.6665 0.055,-13.65921 0.055,-13.6592 -1.02985,-1.9243 L 116.92963,211 h -1.52383 -1.52383 l 0.61803,-1 0.61803,-1 H 122.05902 129 v 0.89159 0.89159 l -2.5,0.62746 -2.5,0.62746 v 14.75845 14.75844 l 1.60091,2.28562 1.60092,2.28563 2.54313,0.96689 2.54312,0.9669 3.35286,-1.10654 3.35286,-1.10655 1.5031,-2.14597 1.5031,-2.14598 v -14.87112 -14.87111 l -2,-0.52301 -2,-0.52301 V 209.88337 209 h 5.44098 5.44099 l 0.54777,0.88631 0.54777,0.88631 -1.98876,0.52007 -1.98875,0.52007 -0.0564,13.84362 -0.0564,13.84362 -1.19356,3.40634 -1.19356,3.40633 -2.5,1.83792 -2.5,1.83791 -4.5,0.45685 -4.5,0.45685 z m 207,-0.40733 -3,-1.04833 -2.38192,-2.12272 -2.38192,-2.12272 -1.84612,-4 -1.84612,-4 v -6.5 -6.5 l 1.84612,-4 1.84612,-4 2.38192,-2.18339 2.38192,-2.18339 2.8151,-1.06661 L 337.1302,209 h 3.03377 3.03377 l 3.4622,1.64292 3.46219,1.64292 2.40946,3.54584 2.40946,3.54584 1.14283,5.10671 1.14284,5.10671 -1.20464,5.80268 -1.20463,5.80268 -3.50718,3.88203 -3.50718,3.88203 -3.65155,1.01424 -3.65154,1.01425 -1.5,-0.0734 -1.5,-0.0734 z m 10.29088,-3.35985 2.2359,-1.56608 2.06205,-4.04197 2.06206,-4.04196 0.0363,-6.28842 0.0363,-6.28842 -1.17847,-3.57081 -1.17847,-3.57081 -3.00998,-2.53272 L 342.84655,212 h -3.5002 -3.5002 l -2.84198,2.84198 -2.84198,2.84199 -1.19262,4.40801 -1.19262,4.40802 0.49136,6.18753 0.49136,6.18753 2.10237,3.40172 2.10238,3.40171 2.26779,1.09308 2.26779,1.09307 2.52749,0.0677 2.5275,0.0677 z m 67.04176,4.06539 -0.5007,-0.5007 -4.06509,-0.15929 -4.06509,-0.15928 -0.96226,-4.86667 -0.96227,-4.86668 0.74533,-0.46063 0.74533,-0.46064 1.17164,2.82858 1.17163,2.82859 3.47835,1.6587 3.47834,1.65871 h 3.81109 3.81108 l 1.65499,-1.82874 L 423,244.34252 v -3.68596 -3.68596 l -3.25,-2.00073 -3.25,-2.00074 -3.89162,-1.18528 -3.89162,-1.18529 -3.35838,-3.16736 -3.35838,-3.16735 0.004,-3.38193 0.004,-3.38192 1.91886,-3.14691 1.91887,-3.1469 3.41818,-1.1281 3.41818,-1.1281 6.40922,0.44599 6.40921,0.44599 -0.1,1.07901 -0.1,1.07902 -0.15374,3.75 -0.15374,3.75 -1.99672,-3.27493 -1.99672,-3.27492 -2.56464,-0.97508 L 415.8698,211 H 413.4349 411 l -2,2 -2,2 v 3.34501 3.34501 l 1.75,1.54394 1.75,1.54394 7.176,3.58636 7.176,3.58635 1.574,2.2472 1.574,2.2472 v 3.72173 3.72173 l -2.25,2.60812 -2.25,2.60811 -4,0.9238 -4,0.92379 -1.58333,0.0238 L 412.33333,251 Z M 43,249.10699 v -0.89301 l 1.5,-0.57561 1.5,-0.5756 v -16.99945 -16.99945 l -2.75,-1.4919 -2.75,-1.49189 12.326923,-0.04 12.326923,-0.04 2.923077,2.92308 L 71,215.84615 v 3.73176 3.73176 l -4.190218,3.98606 -4.190218,3.98606 3.832793,7.44551 3.832793,7.4455 2.357425,1.07412 L 75,248.32103 V 249.16052 250 H 72.038955 69.07791 L 66.914826,247.75 64.751741,245.5 61.264846,238.25 57.777951,231 H 54.388975 51 v 8.03138 8.03139 l 1.5,0.5756 1.5,0.57561 V 249.10699 250 H 48.5 43 Z M 64.411106,224.92327 67,221.84655 v -2.28842 -2.28841 L 64.92742,214.63486 62.85484,212 H 56.92742 51 v 8 8 h 5.411106 5.411107 z M 81,249.13601 v -0.92203 l 1.5,-0.57561 1.5,-0.5756 V 229.5 211.93723 l -1.494256,-0.5734 -1.494257,-0.5734 0.553274,-0.89521 L 82.118034,209 h 12.26779 12.267786 l -0.44707,3.04614 -0.44708,3.04615 -1.70847,-1.54615 L 102.34252,212 H 95.671259 89 v 8 8 h 5.932612 5.932608 l 0.63478,-2 0.63478,-2 H 103.06739 104 l -0.0703,4.25 -0.0703,4.25 -0.85943,2 -0.85943,2 -0.0703,-2.27475 L 102,231.9505 99.306473,230.92642 96.612947,229.90234 93.056473,230.20117 89.5,230.5 89.209558,238.75 88.919115,247 h 7.385455 7.38545 l 1.50299,-1.75 1.50299,-1.75 0.80676,-2 0.80676,-2 0.39949,1.65097 0.3995,1.65097 -0.86643,3.34903 L 107.37565,249.5 94.187823,249.77903 81,250.05805 Z m 74,-0.0194 v -0.88337 l 2,-0.52301 2,-0.52301 V 230.1288 213.07037 L 157,212 155,210.92963 V 209.96482 209 h 9.53212 9.53212 l 3.38739,1.41534 3.38739,1.41534 1.08049,2.01892 1.08049,2.01892 v 3.39142 3.39143 l -2.34946,2.20721 -2.34946,2.2072 3.84946,3.84946 3.84946,3.84947 v 4.21764 4.21765 l -3.4,3.4 -3.4,3.4 H 167.1 155 Z m 23.85246,-4.74099 2.35247,-2.72541 -0.56774,-3.57511 -0.56773,-3.57512 -3.05051,-2.75 -3.0505,-2.75 H 168.98422 164 v 7.91821 7.91822 l 0.65455,1.70573 0.65456,1.70574 5.59544,-0.57342 5.59545,-0.57342 z M 177.16613,223.04317 179,220.77843 v -1.75436 -1.75435 L 176.92742,214.63486 174.85484,212 H 169.42742 164 v 7.12383 7.12383 l 5.66613,-0.46988 5.66613,-0.46988 z M 193,249.13601 v -0.92203 l 1.5,-0.57561 1.5,-0.5756 V 229.5 211.93723 l -1.49426,-0.5734 -1.49425,-0.5734 0.55327,-0.89521 L 194.11803,209 h 12.26779 12.26779 l -0.44707,3.04614 -0.44708,3.04615 -1.70847,-1.54615 L 214.34252,212 H 207.67126 201 v 8 8 h 5.93261 5.93261 l 0.63478,-2 0.63478,-2 H 215.06739 216 l -0.11831,3.25 -0.11832,3.25 -0.76337,3 -0.76337,3 -0.11832,-2.27475 L 214,231.9505 l -2.69353,-1.02408 -2.69352,-1.02408 -3.55648,0.29883 L 201.5,230.5 l -0.29044,8.25 -0.29044,8.25 h 7.57416 7.57417 l 2.20503,-3.73725 2.20504,-3.73726 0.31549,1.63823 0.3155,1.63822 -0.86643,3.34903 -0.86643,3.34903 -13.18783,0.27903 L 193,250.05805 Z m 36,-0.029 V 248.214 l 1.5,-0.57561 1.5,-0.5756 v -17.4817 -17.48169 l -1.75,-1.01928 -1.75,-1.01928 6.5,0.0373 6.5,0.0373 -2.25,1.08513 -2.25,1.08514 V 229.65281 247 h 6.84501 6.84501 l 1.50299,-1.75 1.50299,-1.75 0.84237,-2 0.84237,-2 0.35759,2.55874 0.3576,2.55874 -1.02321,2.69126 L 254.0495,250 H 241.52475 229 Z M 289.81144,247.96104 292,245.92209 V 229.96104 214 l -2,-2 -2,-2 8.25,-0.007 8.25,-0.007 6.75,-0.63749 6.75,-0.6375 V 213.3554 218 h -1 -1 v -1.96482 -1.96481 L 314.06574,213.03518 312.13148,212 H 304.56574 297 v 8 8 h 5.42857 5.42857 l 1.5,-1.5 1.5,-1.5 H 311.42857 312 v 5 5 h -0.76287 -0.76287 l -0.98713,-2.25 -0.98713,-2.25 -5.79127,-0.30114 -5.79127,-0.30113 0.29127,8.30113 0.29127,8.30114 2.25,0.98713 2.25,0.98713 V 249.23713 250 h -7.18856 -7.18856 z M 364,249.12244 v -0.87755 L 365.5,247 367,245.75511 366.9847,230.12756 366.9694,214.5 l -0.73468,-1.07294 -0.73469,-1.07294 -2,-0.92706 -2,-0.92706 11.87544,-0.28282 11.87543,-0.28282 2.4192,1.58512 2.4192,1.58512 1.03237,2.6977 1.03237,2.6977 -1.10108,3.69635 -1.10107,3.69635 -2.52611,1.98705 -2.52612,1.98704 -1.06838,0.35613 -1.06838,0.35612 3.57885,7.10667 3.57886,7.10666 2.53971,1.99774 L 395,248.78784 V 249.39392 250 h -2.99373 -2.99373 l -2.92815,-4.0422 -2.92815,-4.0422 -2.26214,-5.4578 L 378.63197,231 H 374.81599 371 v 7 7 l 2,2 2,2 v 0.5 0.5 H 369.5 364 Z M 384.54545,225.54545 387,223.09091 V 219.54545 216 l -2,-2 -2,-2 h -6 -6 v 7.33333 7.33334 l 0.66667,0.66666 0.66666,0.66667 h 4.87879 4.87879 z m 50.95455,22.88113 2,-1.50981 0.33858,-15.99872 0.33858,-15.99872 -1.58858,-2.42448 L 435,210.07037 V 209.53518 209 h 12.5 12.5 v 3 3 h -0.89301 -0.89301 l -0.57561,-1.5 -0.5756,-1.5 H 450.03138 443 v 8 8 h 5.37803 5.37803 l 1.56952,-2.25 1.56952,-2.25 0.0524,6.25 L 457,236 h -1 -1 v -2.375 -2.375 L 451.875,230.625 448.75,230 h -2.81598 -2.81599 l -0.60293,0.97556 -0.60293,0.97557 0.68185,7.52443 0.68184,7.52444 h 6.79064 6.79064 l 1.50592,-1.50592 1.50592,-1.50592 0.6329,-1.99408 0.6329,-1.99408 h 0.79833 0.79834 l -0.82217,4.25 -0.82218,4.25 -0.0436,0.75 L 461,250 447.25,249.9682 433.5,249.9364 Z m 39,0.57342 0.61803,-1 h 1.46574 1.46573 l 0.97525,-2.5651 L 480,242.8698 v -5.03097 -5.03098 L 475.30012,224.15393 470.60025,215.5 467.80012,212.67308 465,209.84615 V 209.42308 209 h 6.5 6.5 v 0.63976 0.63975 l -1.75,1.31203 -1.75,1.31203 3.99152,7.54821 3.99152,7.54822 h 0.55208 0.55207 l 4.78578,-7.22652 4.78578,-7.22652 -2.07938,-1.68377 L 489,210.17941 V 209.58971 209 h 5.5 5.5 v 1 1 h -0.96777 -0.96778 L 491.03223,221.16302 484,231.32603 v 6.7552 6.7552 l 0.60699,1.58178 0.60699,1.58179 h 1.33399 1.334 l 0.61803,1 0.61803,1 H 481.5 473.88197 Z"
         id="path3" />
      <path
         style="fill:#333333;fill-opacity:1"
         d="M 154.66667,308.33333 154,307.66667 v -0.73972 -0.73971 l 2.06462,0.53991 2.06463,0.53991 3.68537,-3.38221 3.68538,-3.38221 -3.95295,4.24868 L 157.5941,309 h -1.13038 -1.13039 z m 14.84693,-15.35534 0.51606,-0.835 -2.26483,-0.43531 -2.26483,-0.43532 2.38976,-0.13618 2.38975,-0.13618 1.4344,-1.75 1.4344,-1.75 -0.70227,1.3618 -0.70227,1.36181 1.05204,0.6502 1.05205,0.6502 -2.42516,1.14449 -2.42515,1.14449 z m -9.48319,-0.60555 -0.0304,-1.12755 1.45196,-1.20502 1.45196,-1.20502 1.79804,0.46657 1.79804,0.46658 -2.20031,0.116 -2.20031,0.116 -1.01928,1.75 -1.01928,1.75 z M 373.22251,287.4433 371,285.88659 v -3.37187 -3.37186 l 1.57143,-1.57143 L 374.14286,276 h 2.22857 2.22857 l 1.2,1.2 1.2,1.2 v 4.32475 4.32475 l -2.5651,0.97525 L 375.8698,289 h -0.21239 -0.2124 z m 5.95944,-2.9433 1.13908,-2.5 -1.13908,-2.5 -1.13907,-2.5 H 376.72144 375.4 l -1.2,1.2 -1.2,1.2 v 3.13333 3.13334 l 0.66667,0.66666 0.66666,0.66667 h 1.85478 1.85477 z m -280.718733,-2.2147 2.324993,-5.7147 0.95453,-0.31818 0.95453,-0.31818 2.17287,5.67805 2.17286,5.67804 -0.5965,0.59651 -0.59651,0.5965 -0.97468,-1.74167 L 103.90062,285 h -2.34332 -2.343322 l -0.575604,1.5 -0.575604,1.5 h -0.962273 -0.962273 z m 5.249993,0.9647 -0.40483,-0.75 -0.70798,-1.97197 -0.70799,-1.97198 -0.93089,1.47198 -0.93089,1.47197 -0.0153,1.25 L 100,284 h 2.05902 2.05901 z M 121,282 v -6 h 3.42857 3.42857 l 1.57143,1.57143 1.57143,1.57143 v 0.80612 0.80613 l -1.47899,1.22745 -1.47898,1.22745 1.06,1.98064 1.06001,1.98064 -0.50112,0.50112 -0.50111,0.50112 -1.69492,-2.58677 L 125.76998,283 H 124.38499 123 v 2.5 2.5 h -1 -1 z m 7.6771,-1.60092 0.61433,-1.60093 -1.39571,-0.88376 -1.39572,-0.88376 -1.75,-0.0153 L 123,277 v 2.5 2.5 h 2.53138 2.53139 z M 148,282.56955 v -5.43045 l -2.25,-0.43337 -2.25,-0.43337 h 5.5 5.5 l -2.25,0.43337 -2.25,0.43337 V 282.56955 288 h -1 -1 z M 213,282 v -6 h 1 1 v 6 6 h -1 -1 z m 18,0 v -6 h 0.90818 0.90817 l 2.84183,4.49821 2.84182,4.49821 0.69521,0.002 0.69521,0.002 0.37454,-4.75 0.37454,-4.75 0.18025,6.25 L 241,288 h -0.98581 -0.98581 l -2.76419,-4.19339 -2.76419,-4.19339 -0.3075,4.19339 L 232.885,288 H 231.9425 231 Z m 27.07185,0.46249 L 256,276.92497 V 276.46249 276 h 0.87004 0.87004 L 259,280.5 260.25992,285 H 261.12996 262 v -1.03212 -1.03212 l 1.51313,-3.62142 1.51312,-3.62142 0.52204,0.52204 0.52204,0.52204 -2.10701,5.6315 L 261.8563,288 H 261 260.1437 Z M 281,282 v -6 l 4.75,0.1681 4.75,0.16811 -3.75,0.39226 -3.75,0.39226 v 2.37628 2.37627 l 3.25,0.40332 3.25,0.40333 -3.25,0.16003 L 283,283 v 1.93963 1.93964 l 3.75,0.39226 3.75,0.39226 -4.75,0.16811 L 281,288 Z m 24,0 v -6 h 0.88166 0.88166 l 3.10658,4.75 3.10657,4.75 0.0118,-4.75 L 313,276 h 1 1 v 6 6 h -0.98581 -0.98581 l -2.76419,-4.19339 -2.76419,-4.19339 -0.3075,4.19339 L 306.885,288 H 305.9425 305 Z m 29,0.96778 v -5.03223 l -2.25,-0.90439 -2.25,-0.90439 5.5,0.0728 5.5,0.0728 -2.25,0.43337 -2.25,0.43337 V 282.56955 288 h -1 -1 z M 354,282 v -6 h 1 1 v 6 6 h -1 -1 z m 41,0 v -6 h 0.90818 0.90817 l 2.84183,4.49821 2.84182,4.49821 0.69521,0.002 0.69521,0.002 0.37454,-4.75 0.37454,-4.75 0.18025,6.25 L 405,288 h -0.98581 -0.98581 l -2.76419,-4.19339 -2.76419,-4.19339 -0.3075,4.19339 L 396.885,288 H 395.9425 395 Z m -218.10948,-0.75 2.24567,-3.25 h 0.9319 H 181 v 1.66667 1.66666 l -0.67581,-0.67581 -0.67582,-0.67581 -2.50176,2.25914 -2.50175,2.25915 z M 14.225058,249.82913 9.9501167,248.87244 6.1148177,245.18622 2.2795188,241.5 1.0092926,236.12192 -0.26093346,230.74384 0.95797681,225.29717 2.1768871,219.85051 6.3384435,215.52303 10.5,211.19554 l 4.279059,-1.14414 4.279059,-1.14414 5.970941,0.67554 L 31,210.25833 V 214.62917 219 h -0.47432 -0.47432 l -1.495295,-2.89158 -1.495296,-2.89159 -2.984623,-1.04044 -2.984623,-1.04045 -3.748837,1.03511 -3.748838,1.0351 -3.207327,3.20733 -3.2073263,3.20733 -1.1763137,4.36849 -1.1763137,4.3685 0.6370028,4.24783 0.6370027,4.24784 2.2235102,3.29947 2.22351,3.29947 3.374087,2.27379 3.374086,2.2738 h 3.660988 3.660987 l 1.744668,-1.27573 1.744668,-1.27574 -0.303538,-6.47426 L 27.5,232.5 24.75,232.18358 22,231.86716 V 230.93358 230 h 6.5 6.5 v 1 1 h -1.102616 -1.102616 l 0.352616,8.39507 L 33.5,248.79013 26.807371,249.89507 20.114743,251 19.307371,250.89291 18.5,250.78582 Z m 113.219842,0.12453 -3.0551,-0.90984 -2.4449,-2.59938 -2.4449,-2.59939 -0.27017,-13.67253 -0.27018,-13.67252 -0.50974,-2.29329 -0.50974,-2.29329 -2.22009,-0.89333 -2.22008,-0.89332 8,0.0156 8,0.0156 -2.75,1.00439 -2.75,1.00439 v 14.9824 14.98241 l 0.96178,1.79711 0.96179,1.79711 2.9794,1.23411 2.97941,1.23411 3.55571,-1.17349 3.55571,-1.17349 1.5031,-2.14597 1.5031,-2.14598 v -14.80972 -14.80972 l -2.25,-0.90439 -2.25,-0.90439 6.5,-0.0486 6.5,-0.0486 -2.5,1.26342 -2.5,1.26341 -0.25046,14.97185 -0.25046,14.97184 -1.16498,2.24339 -1.16499,2.2434 -2.10639,1.38016 -2.10639,1.38016 -3.97817,0.5582 -3.97816,0.55819 z m 207.0551,-0.43099 -4,-1.43891 -2.68828,-2.98858 -2.68828,-2.98858 -1.05614,-3.8033 -1.05615,-3.8033 0.0164,-5.5 0.0164,-5.5 1.83574,-4.04137 1.83574,-4.04137 3.17174,-2.66884 3.17173,-2.66884 3.39239,-0.63641 3.39239,-0.63642 2.86856,0.63004 2.86855,0.63004 3.07311,1.86887 3.07311,1.86887 2.34239,4.83874 2.34239,4.83873 -0.0257,6.50898 -0.0257,6.50898 -2.13637,4.12421 -2.13636,4.12421 -3.12058,2.62579 -3.12057,2.62579 -1.67328,0.0137 -1.67327,0.0137 -2,0.46713 -2,0.46713 z m 11.98433,-4.807 3.28433,-3.28433 1.18657,-5.71567 1.18657,-5.71567 -1.15429,-5.56018 -1.15429,-5.56018 -3.0202,-3.43982 L 343.79282,212 h -3.67391 -3.6739 l -2.33072,1.6325 -2.33072,1.6325 -1.86982,4.1175 -1.86983,4.1175 v 6.5 6.5 l 1.86983,4.1175 1.86982,4.1175 2.33072,1.6325 2.33072,1.6325 h 3.3775 3.37749 z m 63.03496,5.28925 -3.98071,-0.76509 -1.14676,0.44005 -1.14675,0.44005 -0.69755,-4.65161 -0.69755,-4.65162 0.53757,-0.53758 0.53758,-0.53757 1.1347,2.49039 1.1347,2.49039 3.43667,1.63884 3.43666,1.63883 h 3.81109 3.81108 l 1.65499,-1.82874 L 423,244.34252 v -3.51627 -3.51627 l -1.75,-1.47154 -1.75,-1.47154 -6.77393,-2.80614 -6.77392,-2.80613 -1.97608,-2.51218 L 402,223.73028 v -2.9148 -2.9148 l 1.41469,-2.7357 1.41468,-2.7357 2.74068,-1.46464 2.74068,-1.46464 7.09464,0.0493 7.09463,0.0493 0.25,0.70066 L 425,211 v 4.14788 4.14789 l -2.28363,-3.39789 -2.28364,-3.39788 -3.69372,-0.92083 -3.69372,-0.92084 -2.54272,1.15855 -2.54273,1.15854 -1.02508,2.69616 -1.02508,2.69617 1.12232,2.70951 1.12232,2.70952 8.3081,4.02375 8.3081,4.02375 1.61474,2.30537 1.61474,2.30536 v 3.82295 3.82295 l -2.37227,2.37227 -2.37228,2.37228 -3.87772,1.07669 -3.87773,1.0767 -1,-0.10943 -1,-0.10942 z M 43,249.10699 v -0.89301 l 1.5,-0.57561 1.5,-0.5756 v -16.99945 -16.99945 l -2.75,-1.4919 -2.75,-1.49189 12.326923,-0.04 12.326923,-0.04 3.048272,3.04827 3.048271,3.04827 -0.543222,4.05002 -0.543222,4.05003 -2.24014,2.38452 -2.24014,2.38452 -1.822238,0.57835 -1.822238,0.57836 4.008865,7.97323 4.008865,7.97324 L 72.52846,247.195 75,248.32103 V 249.16052 250 H 72.174314 69.348628 L 67.01712,247.51822 64.685612,245.03645 61.086764,237.76822 57.487916,230.5 54.243958,230.18664 51,229.87328 v 8.59475 8.59474 l 1.5,0.5756 1.5,0.57561 V 249.10699 250 H 48.5 43 Z M 64.411106,224.92327 67,221.84655 v -2.36751 -2.36751 l -2.25,-2.60629 -2.25,-2.6063 -5.75,-0.58937 L 51,210.72019 V 219.3601 228 h 5.411106 5.411107 z M 81,249.13601 v -0.92203 l 1.5,-0.57561 1.5,-0.5756 v -17.4817 -17.48169 l -1.75,-1.01928 -1.75,-1.01928 9,-0.0414 9,-0.0414 3.75,-0.61984 3.75,-0.61983 v 3.28583 3.28583 L 104.17126,213.65499 102.34252,212 H 95.671259 89 v 8 8 h 6.032224 6.032226 l 0.90439,-2.25 0.90439,-2.25 -0.0526,6.5 -0.0526,6.5 -0.46836,-2 -0.46836,-2 -1.60677,-1.25 L 98.617741,230 H 93.80887 89 v 8.5 8.5 l 3.25,0.0969 3.25,0.0969 4,-0.18787 4,-0.18787 1.35418,-1.11792 1.35417,-1.11793 1.01502,-2.54109 1.01502,-2.5411 0.40318,1.06711 0.40317,1.06712 -0.81577,3.93288 L 107.41319,249.5 94.206597,249.77903 81,250.05805 Z m 74,-0.0194 v -0.88337 l 2,-0.52301 2,-0.52301 0.15862,-11.34362 0.15862,-11.34362 -0.2282,-5.5 -0.22819,-5.5 -1.93042,-1.66029 L 155,210.17941 V 209.58971 209 h 9.35078 9.35077 l 3.08324,1.07482 3.08324,1.07483 1.56599,2.38999 1.56598,2.38999 v 2.97942 2.97942 l -2.35306,2.7356 -2.35306,2.7356 3.85306,3.66533 3.85306,3.66533 v 4.25483 4.25484 l -3.4,3.4 -3.4,3.4 H 167.1 155 Z m 23.7719,-4.63784 2.43303,-2.82856 -0.56774,-3.57511 -0.56773,-3.57512 -3.05051,-2.75 -3.0505,-2.75 H 168.98422 164 v 8.83333 8.83334 l 0.75,0.76314 0.75,0.76315 5.41944,-0.4428 5.41944,-0.44281 z M 177.16613,223.04317 179,220.77843 v -2.07476 -2.07477 L 176.82569,214.31445 174.65137,212 H 169.32569 164 v 7.12383 7.12383 l 5.66613,-0.46988 5.66613,-0.46988 z M 193,249.10699 v -0.89301 l 1.5,-0.57561 1.5,-0.5756 v -17.4817 -17.48169 l -1.75,-1.01928 -1.75,-1.01928 9,-0.0414 9,-0.0414 3.75,-0.61984 3.75,-0.61983 v 3.28583 3.28583 L 216.17126,213.65499 214.34252,212 H 207.67126 201 v 8 8 h 6.03222 6.03223 l 0.90439,-2.25 0.90439,-2.25 -0.0526,6.5 -0.0526,6.5 -0.46836,-2 -0.46836,-2 -1.60677,-1.25 -1.60677,-1.25 H 205.80887 201 v 8.5 8.5 h 7.34501 7.34501 l 1.50299,-1.75 1.50299,-1.75 0.76843,-2 0.76842,-2 0.44213,1.17567 0.44214,1.17568 -1.09711,4.07432 L 218.92291,250 H 205.96146 193 Z m 36,0 v -0.89301 l 1.5,-0.57561 1.5,-0.5756 v -17.4817 -17.48169 l -1.75,-1.01928 -1.75,-1.01928 6.5,0.033 6.5,0.033 -2.25,0.90439 -2.25,0.90439 v 17.57604 17.57603 l 7.21451,-0.29381 7.21452,-0.29381 2.41234,-3.5 2.41234,-3.5 -0.6634,4.40462 -0.66339,4.40462 -0.52248,0.84538 L 253.88197,250 H 241.44098 229 Z m 60,0 v -0.89301 l 1.5,-0.57561 1.5,-0.5756 v -16.97468 -16.97468 l -2.22251,-1.55671 -2.2225,-1.5567 9.9725,-0.009 9.97251,-0.009 5.25,-0.6306 5.25,-0.6306 V 213.36071 218 h -1 -1 v -1.8 -1.8 l -1.2,-1.2 -1.2,-1.2 h -8.3 -8.3 v 8 8 h 6.03138 6.03139 l 0.5756,-1.5 0.57561,-1.5 H 311.10699 312 v 5 5 h -0.76287 -0.76287 l -0.98713,-2.25 -0.98713,-2.25 -5.79127,-0.30114 -5.79127,-0.30113 0.29127,8.30113 0.29127,8.30114 2.25,0.98713 2.25,0.98713 V 249.23713 250 h -6.5 -6.5 z m 75,0.32158 v -0.57143 l 1.5,-1.5 1.5,-1.5 v -16.39663 -16.39664 l -2.75,-1.4919 -2.75,-1.49189 11.5,-0.0253 11.5,-0.0253 2.5,1.26133 2.5,1.26133 1.11919,3.43664 1.11919,3.43664 -0.8554,3.03729 -0.8554,3.03729 -2.17378,1.78985 -2.17378,1.78984 -1.43242,0.80162 -1.43242,0.80162 3.5527,7.05472 3.5527,7.05472 2.53971,1.99774 L 395,248.78784 V 249.39392 250 h -2.92742 -2.92742 l -2.03715,-2.58982 -2.03715,-2.58982 -3.54698,-7.47268 -3.54699,-7.47267 -3.23844,0.31249 -3.23845,0.3125 -0.30341,6.46915 -0.3034,6.46914 0.57246,2.28086 L 372.0381,248 H 373.51905 375 v 1 1 H 369.5 364 Z M 384.54545,225.54545 387,223.09091 v -3.43467 -3.43467 l -1.75,-2.15028 -1.75,-2.15027 -6,-0.21051 -6,-0.21051 -0.29044,8.25 -0.29044,8.25 h 5.58589 5.5859 z M 435.81144,247.96104 438,245.92209 v -16.1323 -16.13231 L 436.34501,211.82874 434.69002,210 h 8.01542 8.01542 l 4.63957,-0.63592 L 460,208.72815 V 211.86408 215 h -0.89301 -0.89301 l -0.57561,-1.5 -0.5756,-1.5 H 450.03138 443 v 3.36043 3.36043 l -0.63592,4.63957 L 441.72815,228 h 6.01395 6.01396 l 1.56952,-2.25 1.56952,-2.25 -0.0539,6.5 -0.0539,6.5 -1.098,-2.78224 -1.098,-2.78225 -2.14094,-0.53734 -2.14095,-0.53734 -3.90467,0.31958 L 442.5,230.5 l 0.12223,7.7889 0.12224,7.7889 0.56941,0.56941 0.56941,0.56941 6.08168,-0.0856 6.08168,-0.0856 1.96487,-1.05156 1.96487,-1.05157 0.62021,-2.47113 L 461.21682,240 h 0.75731 0.75732 l -0.82217,4.25 -0.82218,4.25 -0.0436,0.75 L 461,250 H 447.31144 433.62288 Z M 474.5,249 l 0.61803,-1 h 1.4058 1.4058 l 1.03519,-1.93426 L 480,244.13148 v -5.7143 -5.71431 l -4.68252,-8.60144 -4.68252,-8.60143 -2.74056,-2.75 -2.74055,-2.75 h 6.6142 6.61421 l -1.94113,1.45472 -1.94113,1.45472 3.93211,7.54528 3.93211,7.54528 h 0.72614 0.72613 l 4.63979,-7.25 4.63979,-7.25 -2.15882,-1.75 -2.15882,-1.75 h 5.83329 5.83329 l -2.04645,1.43339 -2.04645,1.43339 -6.17606,9.36623 L 484,231.59923 v 7.57841 7.57842 l 2.25,1.56952 2.25,1.56952 -7.30902,0.0524 -7.30901,0.0524 z"
         id="path2" />
    </g>
  </g>
</svg>
