<?xml version="1.0" encoding="UTF-8" standalone="no"?>
<!-- Created with Inkscape (http://www.inkscape.org/) -->

<svg
   version="1.1"
   id="svg1"
   width="847.4234"
   height="220.04094"
   viewBox="0 0 847.4234 220.04094"
   xmlns="http://www.w3.org/2000/svg"
   xmlns:svg="http://www.w3.org/2000/svg">
  <defs
     id="defs1" />
  <g
     id="g1"
     transform="translate(-196.96834,-231.59496)">
    <path
       style="fill:#000000"
       d="m 198.22295,450.81512 -1.25461,-0.80294 0.25461,-105.43814 0.25461,-105.43813 41.75,-0.26097 41.75,-0.26097 v 45.31097 45.31097 l 1.2,1.2 1.2,1.2 h 45.27266 45.27267 l 5.47336,2.59152 5.47337,2.59151 10.68583,9.40849 10.68584,9.40848 h 0.95147 0.95147 l -0.41649,1.25 -0.41648,1.25 -62.91685,0.5 -62.91685,0.5 -0.5,46 -0.5,46 -40.5,0.24107 -40.5,0.24108 z m 217.24911,-1.42921 -0.54359,-2.25 0.27454,-104 0.27455,-104 13.5,-0.24043 13.5,-0.24042 4.10893,3.74042 4.10894,3.74043 9.89106,8.68239 9.89107,8.68239 2.10698,1.81761 2.10699,1.81761 5.30148,4.5 5.30149,4.5 4.81362,4.73514 4.81363,4.73514 2.27791,4.26486 2.2779,4.26486 0.29062,76.5 0.29062,76.5 -0.55967,2.25 -0.55967,2.25 h -41.4619 -41.4619 z m 192.11249,0.66821 -0.60699,-1.58178 v -42.82593 -42.82593 l -2.6492,-5.10621 -2.6492,-5.10622 -5.19345,-4.73607 -5.19345,-4.73607 -3.41773,-3 -3.41773,-3 -6.48962,-5.49489 -6.48962,-5.49489 -4.5,-4.17728 -4.5,-4.17727 -2.10769,-1.82784 -2.1077,-1.82783 -6.28461,-5.5 -6.28461,-5.5 -1.73439,-1.5 -1.73439,-1.5 -4.85564,-4 -4.85564,-4 -2.5214,-2.5 -2.52141,-2.5 -6.45259,-5.5 -6.45259,-5.5 -2.04367,-2.01675 -2.04367,-2.01676 -10,-8.64836 -10,-8.64836 -5,-4.59685 -5,-4.59685 -2.5822,-1.60452 -2.5822,-1.60452 -1.17627,-1.88352 -1.17628,-1.88351 h 37.60411 37.6041 l 3.15437,2.18478 3.15437,2.18479 9.5,8.11768 9.5,8.11769 9.5,7.91807 9.5,7.91807 0.5,0.52946 0.5,0.52946 5,3.96609 5,3.96609 0.5,0.63324 0.5,0.63325 9.5,7.83804 9.5,7.83805 0.5,0.56432 0.5,0.56432 3.5493,2.9983 3.54931,2.9983 4.42611,3.5 4.42611,3.5 4.13642,3.75 4.13641,3.75 0.88817,-0.016 0.88817,-0.016 3.5,-3.10346 3.5,-3.10346 4.48426,-3.63057 4.48425,-3.63056 2.16236,-2 2.16235,-2 3.85339,-3.12536 3.85339,-3.12536 9.5,-7.80821 9.5,-7.80821 2.16117,-2.27211 2.16117,-2.2721 39.08938,-0.29432 39.08938,-0.29433 -5.5e-4,0.93833 -5.5e-4,0.93833 -4.75,4.38079 -4.75,4.38078 -3.5,2.68042 -3.5,2.68041 -3.02867,3.00047 -3.02868,3.00047 -6.46088,5.5 -6.46088,5.5 -2.10647,2 -2.10647,2 -3.41435,3 -3.41436,3 -6.48962,5.49489 -6.48962,5.49489 -4.5,4.1231 -4.5,4.1231 -4,3.37277 -4,3.37277 -3.68956,3.81866 -3.68956,3.81866 -2.06044,4.2563 -2.06044,4.25636 v 42.60249 42.60249 l -0.60699,1.58178 -0.60699,1.58179 h -41.28602 -41.28602 z m 248.05968,0.91512 -0.66667,-0.66666 v -94.75155 -94.75155 l -0.60699,-1.58178 -0.60699,-1.58179 h -62.39301 -62.39301 v -0.85043 -0.85044 l 3.08877,-2.36716 3.08876,-2.36716 2.29779,-2.03241 2.29779,-2.0324 3.38086,-3 3.38086,-3 4.98259,-3.553 4.98258,-3.55299 2.77483,-1.18688 2.77483,-1.18688 140.62133,-0.0306 140.62135,-0.0306 0.5609,0.5609 0.5609,0.5609 -3.957,3.51874 -3.9571,3.51874 -2.5,2.22578 -2.5,2.22578 -5.7687,4.6986 -5.7686,4.6986 -4.4265,2.01649 -4.4265,2.01649 h -35.49586 -35.49585 l -0.59909,0.96936 -0.5991,0.96935 0.0597,93.52837 0.0597,93.52838 -0.62803,2.50227 -0.62803,2.5022 h -40.72492 -40.72493 z"
       id="path1" />
  </g>
</svg>
